<svg width="100" height="100" viewBox="0 0 100 100" fill="none" xmlns="http://www.w3.org/2000/svg">
<rect width="100" height="100" fill="white"/>
<path d="M54.6628 16.8516C54.6628 19.9798 52.0641 22.5785 48.9359 22.5785C45.8174 22.5785 43.2091 19.9798 43.2091 16.8516C43.2091 13.7331 45.8174 11.1248 48.9359 11.1248C52.0641 11.1248 54.6628 13.7331 54.6628 16.8516V16.8516ZM48.9359 27.2563C45.5576 27.2563 42.954 29.855 42.954 33.243C42.954 36.6214 45.5528 39.2249 48.9408 39.2249C52.3191 39.2249 54.9227 36.6262 54.9227 33.243C54.9227 29.8598 52.2758 27.2563 48.9071 27.2563H48.9359ZM48.9359 43.3878C45.5576 43.3878 42.6941 46.2464 42.6941 49.6296C42.6941 53.0128 45.5576 55.8714 48.9408 55.8714C52.3191 55.8714 55.1826 53.0128 55.1826 49.6296C55.1826 46.2464 52.3191 43.3878 48.9408 43.3878H48.9359ZM48.9359 59.7743C45.5576 59.7743 42.954 62.3731 42.954 65.7563C42.954 69.1394 45.5528 71.743 48.9408 71.743C52.3191 71.743 54.9227 69.1443 54.9227 65.7563C54.9227 62.6378 52.2758 59.7743 48.9071 59.7743H48.9359ZM48.9359 76.4256C45.8174 76.4256 43.2091 79.0243 43.2091 82.1524C43.2091 85.2661 45.8174 87.8697 48.9359 87.8697C52.0641 87.8697 54.6628 85.2709 54.6628 82.1428C54.6628 79.0243 52.0641 76.4256 48.9359 76.4256ZM64.8076 26.4718C61.1645 26.4718 58.046 29.5999 58.046 33.243C58.046 36.8813 61.1645 40.0046 64.8076 40.0046C68.4506 40.0046 71.5691 36.8764 71.5691 33.243C71.5691 29.5999 68.4506 26.4766 64.8076 26.4766V26.4718ZM64.8076 42.6081C60.9094 42.6081 57.7813 45.7266 57.7813 49.6344C57.7813 53.5325 60.9094 56.651 64.8076 56.651C68.7057 56.651 71.8338 53.5325 71.8338 49.6248C71.8338 45.7266 68.7057 42.6081 64.8076 42.6081V42.6081ZM64.8076 58.9947C61.1645 58.9947 58.046 62.1228 58.046 65.7563C58.046 69.3993 61.1645 72.5226 64.8076 72.5226C68.4506 72.5226 71.5691 69.3945 71.5691 65.7563C71.5691 62.118 68.4506 58.9947 64.8076 58.9947ZM81.1941 41.8237C77.0361 41.8237 73.3979 45.2069 73.3979 49.6296C73.3979 53.7924 76.7666 57.4354 81.1941 57.4354C85.6216 57.4354 89 54.0186 89 49.5911C88.7401 45.1636 85.3569 41.7948 81.1941 41.7948V41.8237ZM32.8092 28.0359C29.9506 28.0359 27.6117 30.3796 27.6117 33.243C27.6117 36.1016 29.9506 38.4405 32.8092 38.4405C35.6727 38.4405 38.0067 36.1016 38.0067 33.243C38.0067 30.3796 35.6727 28.0455 32.8092 28.0455V28.0359ZM32.8092 44.1674C29.6907 44.1674 27.3471 46.5063 27.3471 49.6296C27.3471 52.7577 29.6571 55.0918 32.7852 55.0918C35.9133 55.0918 38.2233 52.7529 38.2233 49.6296C38.2233 46.5014 35.8652 44.1674 32.7371 44.1674H32.8092ZM32.8092 60.5539C29.9506 60.5539 27.6117 62.8976 27.6117 65.7514C27.6117 68.6197 29.9506 70.9586 32.8092 70.9586C35.6727 70.9586 38.0067 68.6004 38.0067 65.7129C38.0067 62.8254 35.6727 60.5154 32.8092 60.5154V60.5539ZM16.6874 44.947C14.079 44.947 12 47.026 12 49.6296C12 52.2283 14.079 54.3121 16.6826 54.3121C19.2813 54.3121 21.3651 52.2331 21.3651 49.6296C21.3651 47.0308 19.2861 44.947 16.6826 44.947H16.6874Z" fill="#00B0B9"/>
</svg>
