<svg width="169" height="108" viewBox="0 0 169 108" fill="none" xmlns="http://www.w3.org/2000/svg">
<path d="M136.382 85.6024C148.33 -1.45191 74.9721 26.4642 51.9355 42.6105C38.1869 52.247 12.8631 85.6027 51.8642 85.6026L136.382 85.6024Z" fill="#F4D8FE"/>
<path fill-rule="evenodd" clip-rule="evenodd" d="M24.5726 36.2185C24.5725 36.2183 24.5756 36.2183 24.5825 36.2189C24.5762 36.2189 24.5728 36.2186 24.5726 36.2185ZM25.1684 36.4144C25.3036 36.4732 25.4618 36.5474 25.6443 36.6398C26.7104 37.1797 28.1653 38.1044 29.7989 39.1427C29.8902 39.2008 29.9821 39.2592 30.0746 39.3179C31.7905 40.4081 33.6623 41.588 35.3351 42.4531C35.7343 42.6595 36.1288 42.8516 36.5129 43.022C35.6569 42.8744 34.6756 42.9615 33.5863 43.2646C32.241 43.639 30.664 44.3608 28.8311 45.4855C27.9215 46.0437 27.0643 46.6567 26.2588 47.3167C26.1954 47.0369 26.1355 46.7536 26.0788 46.4677C25.2991 42.5355 25.1851 38.3528 25.1684 36.4144ZM24.5734 48.838C24.3996 48.1849 24.2485 47.5203 24.117 46.8567C23.1655 42.058 23.1655 36.9544 23.1655 35.6438V35.6362C23.1655 35.2871 23.2734 34.8172 23.7006 34.4963C24.0841 34.2082 24.5198 34.2021 24.7896 34.2296C25.3278 34.2846 25.9579 34.5567 26.5479 34.8556C27.7052 35.4417 29.2381 36.4162 30.8249 37.425C30.9321 37.4931 31.0395 37.5614 31.1471 37.6298C32.8767 38.7286 34.6734 39.8593 36.2538 40.6766C37.0437 41.0851 37.7505 41.3998 38.3463 41.5926C38.9673 41.7935 39.3531 41.8232 39.5526 41.7869C40.5414 41.6072 42.4118 41.5274 44.6228 41.4973C46.8667 41.4667 49.5533 41.4871 52.2319 41.5277C54.9334 41.5686 57.6146 41.6297 59.8406 41.6803C62.0528 41.7307 63.8155 41.7708 64.7021 41.7708C65.4671 41.7708 67.0762 41.4841 69.1865 41.0424C70.1028 40.8506 71.131 40.6259 72.1917 40.3941C73.45 40.1191 74.754 39.8342 75.9714 39.5822C78.2562 39.1093 80.4663 38.7019 82.072 38.5781C82.8507 38.518 83.6076 38.5129 84.1786 38.6616C84.4589 38.7346 84.8457 38.8817 85.1262 39.2222C85.4586 39.6257 85.4941 40.111 85.376 40.5202C84.31 44.3265 83.213 47.4617 82.0914 50.0105C85.6027 53.1252 88.2167 56.9388 89.7161 60.9014C92.0755 67.137 91.7081 73.8753 87.5132 78.7693C86.399 80.0693 84.6912 81.137 82.6394 82.0246C80.5739 82.9182 78.0823 83.6621 75.3209 84.2734C69.7974 85.4963 63.0969 86.21 56.3533 86.4953C49.6057 86.7807 42.7828 86.6383 37.0053 86.1377C31.2722 85.641 26.4372 84.7818 23.7539 83.57C20.9314 82.2953 18.9558 79.7553 17.7921 76.6504C16.6283 73.545 16.2466 69.8077 16.6445 65.9759C17.2709 59.9423 19.8499 53.526 24.5734 48.838ZM81.2008 51.9024C84.252 54.7279 86.5243 58.1173 87.8455 61.6092C90.0262 67.3724 89.5829 73.2815 85.9947 77.4677C85.1633 78.4378 83.77 79.3564 81.8453 80.189C79.9345 81.0157 77.5744 81.7261 74.8886 82.3207C69.5179 83.5097 62.9427 84.2148 56.2688 84.497C49.5988 84.7792 42.8622 84.6377 37.1779 84.1452C31.4494 83.6488 26.9203 82.8055 24.5771 81.7472C22.3731 80.7518 20.7004 78.7112 19.6649 75.9485C18.6297 73.1862 18.2614 69.7687 18.6338 66.1824C19.1891 60.8331 21.3744 55.2407 25.2622 51.0078C25.6011 51.9057 25.9979 52.7479 26.4636 53.4947C27.6175 55.3455 29.2896 56.7424 31.6242 56.7424C33.9088 56.7424 35.8492 55.3608 37.2038 53.666C38.5646 51.9636 39.4736 49.7823 39.6336 47.8387C39.7673 46.2162 39.3673 44.47 37.9432 43.5613C38.5988 43.7551 39.286 43.8682 39.9104 43.7547C40.7052 43.6102 42.4021 43.5277 44.6501 43.4971C46.8652 43.4669 49.5294 43.487 52.2016 43.5275C54.8511 43.5676 57.5206 43.6282 59.7535 43.6789C62.0003 43.7299 63.8049 43.7708 64.7021 43.7708C64.8346 43.7708 64.9811 43.765 65.1401 43.7539C63.9206 44.2488 63.0642 45.1348 62.5991 46.2882C61.9709 47.846 62.1196 49.7325 62.7281 51.4978C63.343 53.2815 64.4654 55.0616 65.9625 56.4706C67.3997 57.8232 68.9809 58.9109 70.6784 59.3697C72.4216 59.8409 74.2216 59.6289 75.9784 58.4991C77.6949 57.3951 79.3188 55.45 80.8648 52.5502C80.9771 52.3397 81.0891 52.1238 81.2008 51.9024ZM80.4859 48.6843C81.4273 46.4691 82.3653 43.7798 83.29 40.5466C83.0336 40.5321 82.6821 40.537 82.2258 40.5722C80.7624 40.685 78.667 41.0667 76.3768 41.5407C75.1219 41.8004 73.8742 42.0734 72.6554 42.34C71.6099 42.5688 70.5857 42.7929 69.5962 43C69.0523 43.1138 68.5224 43.2219 68.0185 43.3191C69.9357 43.3983 72.3113 44.0665 75.1851 45.435C77.0992 46.3465 78.8719 47.444 80.4859 48.6843ZM83.7282 40.6144C83.728 40.6145 83.725 40.6134 83.7197 40.6108C83.7257 40.613 83.7283 40.6143 83.7282 40.6144ZM79.6352 50.5579C79.4568 50.9244 79.2784 51.2747 79.1 51.6092C77.636 54.3553 76.2121 55.9709 74.8965 56.8169C73.6211 57.6372 72.4046 57.7646 71.2002 57.439C69.9501 57.1011 68.6526 56.256 67.3333 55.0142C66.0738 53.8289 65.1289 52.3255 64.6189 50.846C64.1025 49.348 64.0687 47.9915 64.454 47.0361C64.8063 46.1623 65.5635 45.478 67.0609 45.337C68.6305 45.1892 70.9911 45.653 74.3252 47.2407C76.2584 48.1612 78.0349 49.2845 79.6352 50.5579ZM26.8376 49.4538C27.7708 48.621 28.7838 47.8611 29.8772 47.1901C31.6115 46.1259 33.0139 45.4999 34.1224 45.1914C35.2361 44.8815 35.9877 44.9098 36.4711 45.0653C37.2754 45.3242 37.7668 46.1399 37.6404 47.6746C37.5167 49.1767 36.7839 50.9882 35.6416 52.4173C34.4931 53.854 33.069 54.7424 31.6242 54.7424C30.2295 54.7424 29.1045 53.9503 28.1607 52.4366C27.6385 51.5989 27.2013 50.5814 26.8376 49.4538Z" fill="#A88DFF"/>
<path fill-rule="evenodd" clip-rule="evenodd" d="M76.0706 67.7545C74.076 68.7857 71.9522 70.6384 70.2252 73.4216C67.0017 78.6162 67.1394 83.7289 69.9187 88.3185C72.7391 92.976 78.3394 97.1787 86.1904 100.24C101.871 106.354 126.133 107.751 153.398 99.4839C156.953 98.4057 159.689 97.3029 161.719 96.205C163.759 95.1014 165.023 94.0362 165.71 93.0646C166.374 92.1272 166.499 91.288 166.29 90.4982C166.069 89.6592 165.435 88.739 164.309 87.7764C162.054 85.8469 158.162 84.0316 153.283 82.554C148.43 81.0845 142.701 79.9784 136.856 79.4119C136.307 79.3586 135.904 78.8698 135.958 78.3201C136.011 77.7704 136.5 77.368 137.049 77.4212C143.009 77.9989 148.869 79.1278 153.862 80.6398C158.828 82.1436 163.037 84.0562 165.609 86.2566C166.898 87.359 167.859 88.6043 168.224 89.9882C168.602 91.4213 168.304 92.8626 167.343 94.2199C166.407 95.5431 164.846 96.7871 162.671 97.9641C160.484 99.1467 157.613 100.296 153.978 101.398C126.374 109.768 101.642 108.411 85.4639 102.103C77.3857 98.9535 71.3407 94.5278 68.2079 89.3545C65.0341 84.1133 64.9106 78.1929 68.5258 72.367C70.4282 69.3013 72.8123 67.1876 75.1521 65.9779C77.4609 64.7842 79.8414 64.4194 81.6643 65.0734C82.5953 65.4074 83.3811 66.0121 83.8752 66.8941C84.3663 67.7705 84.521 68.8333 84.3557 70.0081C84.0302 72.3218 82.4475 75.2282 79.3075 78.6352C77.7942 80.2773 77.5647 82.507 78.9989 84.9886C80.4628 87.5216 83.6585 90.2581 88.8734 92.4934C99.2809 96.9547 117.388 99.2642 144.241 94.2182C147.076 93.6856 149.311 93.1457 151.023 92.6102C152.748 92.0704 153.886 91.5519 154.566 91.0864C154.904 90.8554 155.089 90.6644 155.183 90.5284C155.267 90.4054 155.264 90.3488 155.264 90.3396L155.264 90.3392C155.262 90.3023 155.207 90.0337 154.558 89.5878C153.31 88.7292 150.816 87.8727 147.458 87.1479C144.146 86.4331 140.128 85.8736 135.945 85.5416C135.395 85.4979 134.984 85.0162 135.028 84.4656C135.071 83.9151 135.553 83.5042 136.104 83.5479C140.355 83.8853 144.463 84.4555 147.88 85.193C151.251 85.9205 154.09 86.8388 155.692 87.9399C156.468 88.4739 157.216 89.2313 157.262 90.2495C157.31 91.3085 156.584 92.1292 155.696 92.7372C154.774 93.3675 153.417 93.9566 151.62 94.519C149.809 95.0856 147.492 95.6424 144.611 96.1838C117.531 101.272 98.9851 99.0039 88.0854 94.3317C82.6466 92.0003 79.0253 89.0312 77.2673 85.9893C75.4796 82.896 75.6233 79.6816 77.8368 77.2798C80.8711 73.9874 82.1333 71.449 82.3752 69.7294C82.4937 68.8876 82.3629 68.2866 82.1304 67.8717C81.9012 67.4625 81.5256 67.1485 80.9889 66.9559C79.8764 66.5568 78.0961 66.7073 76.0706 67.7545Z" fill="#A88DFF"/>
<path fill-rule="evenodd" clip-rule="evenodd" d="M71.5469 66.2971C71.7293 66.8184 71.4547 67.3889 70.9334 67.5713C66.95 68.9656 60.6322 70.413 53.8789 67.5481C53.3704 67.3324 53.1331 66.7454 53.3488 66.2369C53.5645 65.7285 54.1515 65.4912 54.6599 65.7069C60.7401 68.2862 66.478 67.0118 70.2727 65.6836C70.7939 65.5012 71.3644 65.7758 71.5469 66.2971Z" fill="#A88DFF"/>
<path fill-rule="evenodd" clip-rule="evenodd" d="M40.9165 66.204C41.2578 66.6382 41.1824 67.2669 40.7481 67.6081C39.8874 68.2844 38.5533 68.7611 37.1161 69.0829C35.6451 69.4123 33.9378 69.6068 32.2285 69.6445C30.5206 69.6822 28.7787 69.5638 27.2428 69.2509C25.7335 68.9433 24.304 68.4243 23.3326 67.5744C22.917 67.2108 22.8748 66.579 23.2385 66.1633C23.6022 65.7477 24.2339 65.7056 24.6496 66.0692C25.2338 66.5804 26.2591 67.0093 27.6422 67.2911C28.9987 67.5676 30.5868 67.6802 32.1845 67.645C33.7808 67.6098 35.3548 67.4277 36.6791 67.1312C38.037 66.8272 39.0119 66.4288 39.5124 66.0355C39.9466 65.6943 40.5753 65.7697 40.9165 66.204Z" fill="#A88DFF"/>
<path fill-rule="evenodd" clip-rule="evenodd" d="M15.9887 6.23754C14.9558 5.50458 13.803 4.68653 12.5418 3.75871C12.0969 3.43143 12.0016 2.80549 12.3288 2.36062C12.6561 1.91574 13.282 1.82041 13.7269 2.14768C14.9124 3.01982 16.055 3.83132 17.097 4.57143C18.304 5.42873 19.3761 6.19025 20.2241 6.8393C21.0244 7.45189 21.7083 8.02485 22.1795 8.55161C22.4157 8.81554 22.6335 9.10601 22.7802 9.41934C22.9287 9.7365 23.0326 10.1402 22.9359 10.5796C22.7375 11.4815 21.8823 11.8766 21.2258 12.0775C20.4833 12.3047 19.4592 12.446 18.1655 12.5342C15.5607 12.7118 11.5862 12.6887 5.93843 12.5374C4.95213 12.5109 4.37492 12.5979 4.07345 12.7061C4.05802 12.7116 4.04401 12.7169 4.0313 12.7219C4.06483 12.7993 4.12761 12.9189 4.24618 13.0863C4.49242 13.4339 4.88233 13.8522 5.39836 14.3235C7.2317 15.9979 10.1761 17.9199 12.0463 19.1407C12.3014 19.3072 12.5365 19.4606 12.746 19.5986C13.2073 19.9024 13.335 20.5226 13.0312 20.9838C12.7275 21.4451 12.1073 21.5727 11.646 21.269C11.4481 21.1386 11.2211 20.9906 10.971 20.8275C9.12336 19.6227 6.01643 17.5966 4.04962 15.8003C3.48656 15.2861 2.9789 14.7573 2.61408 14.2422C2.27659 13.7657 1.92859 13.1189 2.00104 12.4168C2.08862 11.5681 2.71562 11.0683 3.39819 10.8235C4.05155 10.5892 4.92561 10.5095 5.99201 10.5381C11.6484 10.6896 15.5326 10.709 18.0295 10.5388C19.2868 10.4531 20.1243 10.323 20.6405 10.1651C20.7292 10.1379 20.8005 10.1125 20.8574 10.0898C20.8149 10.0324 20.7598 9.96433 20.689 9.88511C20.3505 9.50681 19.7937 9.02852 19.0085 8.42747C18.1652 7.78205 17.1532 7.06386 15.9887 6.23754ZM21.0628 9.98323C21.063 9.98326 21.0617 9.98454 21.0587 9.98694C21.0612 9.98439 21.0627 9.98319 21.0628 9.98323ZM3.91998 12.7772C3.91973 12.7771 3.92162 12.7754 3.92638 12.7722C3.92262 12.7756 3.92023 12.7772 3.91998 12.7772Z" fill="#A88DFF"/>
<path fill-rule="evenodd" clip-rule="evenodd" d="M27.9378 17.7318C27.0289 17.6466 26.0111 17.5512 24.8741 17.4248C24.3252 17.3639 23.9297 16.8694 23.9907 16.3205C24.0517 15.7716 24.5461 15.3761 25.095 15.4371C26.1385 15.553 27.1442 15.6479 28.0645 15.7347C29.1363 15.8359 30.0924 15.9261 30.858 16.0259C31.5823 16.1204 32.2388 16.2344 32.7501 16.4023C33.0064 16.4865 33.2756 16.5997 33.5114 16.7642C33.7506 16.9312 34.0111 17.1913 34.1336 17.5776C34.3856 18.3725 33.8867 19.0367 33.5433 19.4053C33.1386 19.8395 32.5274 20.312 31.7459 20.8371C30.1683 21.8972 27.6631 23.3238 24.0772 25.268C23.7105 25.4668 23.4581 25.6333 23.2894 25.7645C23.5384 25.8679 23.881 25.9699 24.3116 26.0646C26.0385 26.4444 28.5475 26.5821 30.1618 26.6706C30.3822 26.6827 30.5859 26.6939 30.7686 26.7046C31.32 26.737 31.7406 27.2103 31.7082 27.7616C31.6758 28.3129 31.2025 28.7336 30.6512 28.7012C30.4823 28.6912 30.2882 28.6807 30.0739 28.6691C28.4871 28.5831 25.7854 28.4366 23.882 28.0179C23.3355 27.8977 22.8052 27.7452 22.3652 27.5429C21.9681 27.3603 21.4364 27.0452 21.185 26.4836C20.8735 25.7874 21.1475 25.1353 21.5251 24.6895C21.8827 24.2674 22.4369 23.8822 23.1239 23.5097C26.7174 21.5615 29.1427 20.1768 30.6304 19.1771C31.2138 18.7851 31.6186 18.4747 31.8844 18.2333C31.5716 18.1543 31.1479 18.0807 30.5993 18.0091C29.8397 17.91 28.9573 17.8273 27.9378 17.7318ZM32.2313 17.8486C32.232 17.8484 32.2296 17.8544 32.222 17.8668C32.2267 17.855 32.2306 17.8487 32.2313 17.8486Z" fill="#A88DFF"/>
<path fill-rule="evenodd" clip-rule="evenodd" d="M43.9457 27.4772C43.4639 27.1355 42.9208 26.7503 42.3087 26.3C41.8638 25.9727 41.7685 25.3468 42.0958 24.9019C42.423 24.457 43.049 24.3617 43.4939 24.689C44.0303 25.0836 44.5631 25.4622 45.054 25.8111C45.6317 26.2216 46.1513 26.5909 46.5505 26.8964C46.93 27.1869 47.2846 27.4809 47.541 27.7674C47.6697 27.9113 47.8086 28.0913 47.9079 28.3034C48.009 28.5193 48.097 28.831 48.0187 29.187C47.857 29.9219 47.1757 30.1846 46.8532 30.2833C46.4448 30.4083 45.9147 30.4775 45.2981 30.5196C44.082 30.6025 42.263 30.5936 39.73 30.5279C40.5599 31.26 41.8283 32.0884 42.6766 32.6425C42.7974 32.7214 42.9097 32.7947 43.011 32.8614C43.4723 33.1652 43.5999 33.7853 43.2962 34.2466C42.9924 34.7078 42.3723 34.8355 41.911 34.5318C41.8213 34.4727 41.7171 34.4047 41.6012 34.3293C40.7405 33.7683 39.2392 32.7898 38.2807 31.9144C38.004 31.6618 37.7346 31.3843 37.5319 31.0982C37.3566 30.8507 37.0947 30.4105 37.1494 29.8804C37.2192 29.2038 37.7246 28.8417 38.1538 28.6877C38.5537 28.5443 39.0426 28.5088 39.5642 28.5228C42.2206 28.594 44.0191 28.6021 45.1621 28.5242C45.2337 28.5193 45.3018 28.5142 45.3663 28.5087C45.356 28.5008 45.3455 28.4927 45.3349 28.4846C44.9404 28.1827 44.4809 27.8568 43.9457 27.4772ZM46.3629 28.3345C46.364 28.3349 46.3556 28.3398 46.3341 28.3482C46.351 28.3384 46.3617 28.3342 46.3629 28.3345ZM39.1131 29.8589C39.1134 29.859 39.1157 29.8631 39.1187 29.8711C39.1143 29.8628 39.1128 29.8588 39.1131 29.8589Z" fill="#A88DFF"/>
<path fill-rule="evenodd" clip-rule="evenodd" d="M85.5981 26.9021C85.8451 26.4081 86.4458 26.2079 86.9397 26.4549C102.105 34.0375 105.886 46.9879 105.841 55.6846C105.83 57.8569 105.581 59.7806 105.204 61.3062C104.841 62.7787 104.321 64.0364 103.659 64.7235C103.327 65.0678 102.755 65.4688 102.031 65.3058C101.349 65.1522 100.961 64.5854 100.744 64.1174C100.295 63.1473 100.068 61.5038 100.068 59.1964C100.068 51.4136 96.4745 44.6987 91.4234 39.9133C86.3573 35.1137 79.9103 32.3353 74.3354 32.3352C73.7832 32.3352 73.3354 31.8875 73.3354 31.3352C73.3355 30.7829 73.7832 30.3352 74.3355 30.3352C80.5191 30.3353 87.4384 33.3828 92.799 38.4614C98.1746 43.5543 102.068 50.77 102.068 59.1964C102.068 61.158 102.246 62.3651 102.456 63.0096C102.706 62.5917 103.004 61.8729 103.263 60.8266C103.597 59.4717 103.831 57.7072 103.841 55.6744C103.883 47.5504 100.376 35.4091 86.0453 28.2438C85.5513 27.9968 85.3511 27.3961 85.5981 26.9021ZM102.158 63.391C102.158 63.3907 102.161 63.3886 102.166 63.3853C102.161 63.3896 102.158 63.3913 102.158 63.391ZM102.65 63.4389C102.655 63.4435 102.657 63.4464 102.657 63.4466C102.657 63.4469 102.655 63.4446 102.65 63.4389Z" fill="#A88DFF"/>
<path fill-rule="evenodd" clip-rule="evenodd" d="M102.854 24.9275C103.201 24.4978 103.831 24.4307 104.26 24.7776C113.553 32.2802 117.76 43.9922 117.76 57.1272C117.76 58.563 117.836 59.5922 117.949 60.2851C118.057 60.0395 118.169 59.749 118.283 59.4136C118.645 58.3452 118.999 56.8953 119.286 55.1578C120.438 48.1699 120.418 36.9996 115.869 28.0952C115.618 27.6034 115.813 27.001 116.305 26.7497C116.797 26.4985 117.399 26.6935 117.651 27.1853C122.468 36.6163 122.449 48.2707 121.259 55.4832C120.96 57.2958 120.583 58.8569 120.177 60.0556C119.974 60.6539 119.758 61.1805 119.531 61.6102C119.316 62.017 119.045 62.4289 118.695 62.7036C118.511 62.8475 118.256 62.9933 117.936 63.0338C117.592 63.0773 117.269 62.9869 117.003 62.8081C116.546 62.4996 116.321 61.9721 116.189 61.5499C115.904 60.6323 115.76 59.1624 115.76 57.1272C115.76 44.3964 111.69 33.3466 103.004 26.3338C102.574 25.9868 102.507 25.3572 102.854 24.9275Z" fill="#A88DFF"/>
<path fill-rule="evenodd" clip-rule="evenodd" d="M130.29 37.508C130.84 37.4569 131.327 37.8612 131.378 38.4111C131.73 42.1882 131.728 47.4219 131.293 52.5133C130.892 57.2003 130.116 61.8707 128.858 65.1918C129.196 64.9183 129.579 64.5518 129.988 64.0853C131.975 61.8185 134.406 57.3591 135.078 50.4774C135.132 49.9277 135.621 49.5256 136.17 49.5792C136.72 49.6328 137.122 50.1219 137.068 50.6716C136.36 57.9298 133.78 62.7933 131.492 65.4035C130.92 66.0566 130.357 66.5792 129.834 66.9643C129.329 67.3368 128.799 67.6278 128.295 67.7359C128.041 67.7904 127.719 67.8146 127.39 67.7076C127.027 67.5891 126.727 67.3304 126.565 66.9656C126.418 66.636 126.415 66.2975 126.453 66.0254C126.493 65.7458 126.584 65.4605 126.706 65.1797C128.019 62.1439 128.871 57.3631 129.3 52.343C129.727 47.3468 129.725 42.2342 129.387 38.5964C129.336 38.0464 129.74 37.5592 130.29 37.508ZM127.858 65.7834C127.858 65.7834 127.859 65.7831 127.863 65.7828C127.859 65.7834 127.858 65.7835 127.858 65.7834ZM128.433 66.3157C128.433 66.319 128.432 66.3207 128.432 66.3207C128.432 66.3208 128.432 66.3192 128.433 66.3157Z" fill="#A88DFF"/>
</svg>
