<svg width="646" height="169" viewBox="0 0 646 169" fill="none" xmlns="http://www.w3.org/2000/svg">
<g filter="url(#filter0_d)">
<rect y="0.0163574" width="639.866" height="162.678" fill="white"/>
<rect x="0.5" y="0.516357" width="638.866" height="161.678" stroke="#E5E5E5"/>
</g>
<path d="M50.4728 72.2741C49.786 74.3559 51.5684 83.0985 53.6287 95.5892H34.4765C34.4765 90.5004 35.6303 81.7444 37.2455 72.2741C31.7076 75.7449 25.6292 76.7468 27.3233 73.4374C31.9301 64.4381 40.9375 52.2085 43.9372 52.2085C46.2447 52.2085 52.475 62.1307 59.6282 71.3607C64.0427 77.0569 54.5517 75.5142 50.4728 72.2741Z" fill="#FEBD6D"/>
<path fill-rule="evenodd" clip-rule="evenodd" d="M42.1818 46.7607C42.7532 46.3899 43.3598 46.1084 43.937 46.1084C44.4442 46.1084 44.9395 46.3685 45.3742 46.679C45.8297 47.0043 46.3242 47.4628 46.8477 48.014C47.8965 49.1183 49.1346 50.6734 50.5065 52.493C51.6093 53.9556 52.7964 55.5857 54.052 57.3098C55.9511 59.9174 58.0067 62.74 60.1637 65.5232C60.7411 66.2682 61.1279 66.9401 61.3163 67.544C61.5069 68.1545 61.5097 68.7524 61.2275 69.2662C60.949 69.7733 60.4636 70.0686 59.9516 70.231C59.4397 70.3934 58.8393 70.4448 58.2124 70.4236C56.9555 70.3812 55.452 70.0416 54.0113 69.5134C52.9587 69.1275 51.9139 68.6314 51.0019 68.0544C50.995 68.4669 51.0153 68.9697 51.0619 69.5634C51.1626 70.845 51.3822 72.5031 51.6902 74.5028C52.0417 76.7843 52.5034 79.481 53.0267 82.5372C53.4221 84.8464 53.8526 87.3609 54.2972 90.0566L54.4272 90.8448H33.7984L33.7984 90.1669C33.7984 85.2756 34.847 77.0914 36.3344 68.1764C33.9091 69.5228 31.4707 70.4031 29.663 70.6478C29.1275 70.7202 28.6249 70.7401 28.1817 70.6901C27.7459 70.6409 27.3133 70.5179 26.9702 70.2576C26.6012 69.9777 26.3843 69.5739 26.359 69.0933C26.3353 68.6452 26.4794 68.1757 26.7197 67.7063C29.0435 63.1666 32.4697 57.8251 35.6945 53.6138C37.3062 51.5091 38.8807 49.6695 40.2535 48.3492C40.9389 47.69 41.5895 47.1451 42.1818 46.7607ZM36.7708 54.438C33.5903 58.5914 30.2094 63.8643 27.9264 68.324C27.7432 68.682 27.7066 68.905 27.7127 69.022C27.7172 69.1065 27.7405 69.1403 27.7896 69.1776C27.8646 69.2345 28.0281 69.3085 28.3339 69.343C28.6322 69.3767 29.0167 69.3672 29.4812 69.3043C31.3568 69.0505 34.1691 67.9798 36.8853 66.2774L38.168 65.4736L37.9135 66.9658C36.3681 76.0261 35.2547 84.3823 35.1605 89.4891H52.8292C52.4341 87.1096 52.0501 84.8668 51.6938 82.7856C51.1682 79.7156 50.7028 76.997 50.3504 74.7092C50.0411 72.7017 49.8152 71.0031 49.7104 69.6696C49.658 69.0028 49.635 68.4157 49.6489 67.92C49.6625 67.4341 49.7123 66.9926 49.8288 66.6394L50.1333 65.7166L50.8941 66.321C51.8422 67.0741 53.1309 67.7467 54.478 68.2406C55.8261 68.7349 57.1842 69.0325 58.2581 69.0688C58.7966 69.0869 59.2289 69.038 59.5416 68.9388C59.8541 68.8397 59.9851 68.7122 60.0393 68.6135C60.0898 68.5215 60.1417 68.3307 60.0223 67.9479C59.9007 67.5586 59.6184 67.0327 59.0922 66.3536C56.9337 63.5685 54.8417 60.6966 52.9259 58.0667C51.673 56.3466 50.4955 54.7301 49.4241 53.3091C48.0558 51.4944 46.8567 49.9921 45.8647 48.9476C45.3679 48.4244 44.9412 48.0356 44.5864 47.7822C44.2108 47.514 44.0067 47.464 43.937 47.464C43.7642 47.464 43.4332 47.5647 42.9198 47.8979C42.4273 48.2174 41.8461 48.6983 41.1932 49.3262C39.8895 50.5802 38.3618 52.3604 36.7708 54.438Z" fill="#A88DFF"/>
<path d="M322.008 27.8071L320.139 20.8797H321.097L322.72 27.1998L322.274 26.972H323.403L322.91 27.1998L324.229 21.1644H325.102L323.593 27.8071H322.008ZM326.174 27.8071L324.514 21.1644H325.415L326.905 27.1998L326.431 26.972H327.569L327.085 27.1998L328.537 20.8797H329.467L327.769 27.8071H326.174Z" fill="#121212"/>
<path d="M330.625 27.8071V20.8797H331.536V25.0172H331.308C331.308 24.5174 331.371 24.0872 331.498 23.7266C331.631 23.3597 331.833 23.0781 332.105 22.882C332.377 22.6859 332.725 22.5878 333.149 22.5878H333.187C333.794 22.5878 334.253 22.7903 334.563 23.1952C334.873 23.5937 335.028 24.1663 335.028 24.9128V27.8071H334.117V24.723C334.117 24.3118 334 23.9923 333.766 23.7645C333.538 23.5368 333.241 23.4229 332.874 23.4229C332.469 23.4229 332.143 23.5589 331.896 23.831C331.656 24.0967 331.536 24.4478 331.536 24.8843V27.8071H330.625Z" fill="#121212"/>
<path d="M338.849 27.9779C338.406 27.9779 338.023 27.902 337.701 27.7502C337.378 27.5983 337.115 27.399 336.913 27.1523C336.71 26.8993 336.559 26.6177 336.457 26.3077C336.362 25.9978 336.315 25.6814 336.315 25.3588V25.188C336.315 24.859 336.362 24.5395 336.457 24.2295C336.559 23.9195 336.71 23.6412 336.913 23.3945C337.115 23.1414 337.372 22.9421 337.682 22.7966C337.998 22.6448 338.368 22.5689 338.792 22.5689C339.342 22.5689 339.795 22.6891 340.149 22.9295C340.509 23.1635 340.775 23.4672 340.946 23.8405C341.123 24.2137 341.212 24.6123 341.212 25.0361V25.4442H336.714V24.761H340.547L340.339 25.131C340.339 24.7704 340.282 24.4604 340.168 24.2011C340.054 23.9354 339.883 23.7298 339.655 23.5842C339.428 23.4387 339.14 23.366 338.792 23.366C338.431 23.366 338.131 23.4482 337.89 23.6127C337.656 23.7772 337.479 24.0018 337.359 24.2865C337.245 24.5712 337.188 24.9001 337.188 25.2734C337.188 25.634 337.245 25.9598 337.359 26.2508C337.479 26.5355 337.663 26.7632 337.909 26.9341C338.156 27.0985 338.469 27.1808 338.849 27.1808C339.247 27.1808 339.57 27.0922 339.817 26.9151C340.07 26.7379 340.222 26.5323 340.272 26.2983H341.126C341.057 26.6462 340.917 26.9467 340.709 27.1998C340.5 27.4528 340.237 27.6458 339.921 27.7786C339.605 27.9115 339.247 27.9779 338.849 27.9779Z" fill="#121212"/>
<path d="M342.505 27.8071V22.7397H343.226V24.9128H343.112C343.112 24.413 343.179 23.9923 343.312 23.6507C343.451 23.3027 343.66 23.0402 343.938 22.863C344.216 22.6796 344.567 22.5878 344.991 22.5878H345.029C345.668 22.5878 346.14 22.7871 346.443 23.1857C346.753 23.5842 346.908 24.1599 346.908 24.9128V27.8071H345.997V24.723C345.997 24.3308 345.887 24.0176 345.665 23.7835C345.444 23.5431 345.14 23.4229 344.754 23.4229C344.356 23.4229 344.033 23.5463 343.786 23.793C343.539 24.0397 343.416 24.3687 343.416 24.7799V27.8071H342.505Z" fill="#121212"/>
<path d="M350.393 29.7809V28.9648H351.123C351.338 28.9648 351.519 28.9363 351.664 28.8794C351.816 28.8288 351.939 28.7402 352.034 28.6137C352.136 28.4872 352.218 28.3195 352.281 28.1108L353.875 22.7397H354.767L353.078 28.348C352.977 28.6833 352.835 28.9553 352.651 29.1641C352.468 29.3792 352.243 29.5342 351.977 29.6291C351.718 29.7303 351.414 29.7809 351.066 29.7809H350.393ZM351.939 27.6932V26.9341H353.04V27.6932H351.939ZM351.845 27.6932L350.032 22.7397H350.962L352.699 27.6932H351.845Z" fill="#121212"/>
<path d="M358.166 27.9779C357.723 27.9779 357.334 27.902 356.998 27.7502C356.663 27.5983 356.378 27.399 356.144 27.1523C355.917 26.8993 355.743 26.6177 355.622 26.3077C355.509 25.9978 355.452 25.6814 355.452 25.3588V25.188C355.452 24.8653 355.512 24.549 355.632 24.239C355.752 23.9227 355.929 23.6412 356.163 23.3945C356.397 23.1414 356.682 22.9421 357.017 22.7966C357.353 22.6448 357.735 22.5689 358.166 22.5689C358.596 22.5689 358.979 22.6448 359.314 22.7966C359.649 22.9421 359.934 23.1414 360.168 23.3945C360.402 23.6412 360.579 23.9227 360.699 24.239C360.82 24.549 360.88 24.8653 360.88 25.188V25.3588C360.88 25.6814 360.82 25.9978 360.699 26.3077C360.585 26.6177 360.411 26.8993 360.177 27.1523C359.95 27.399 359.668 27.5983 359.333 27.7502C358.998 27.902 358.608 27.9779 358.166 27.9779ZM358.166 27.1618C358.545 27.1618 358.868 27.0796 359.134 26.9151C359.406 26.7443 359.611 26.5165 359.75 26.2318C359.896 25.9471 359.969 25.6277 359.969 25.2734C359.969 24.9128 359.896 24.5901 359.75 24.3055C359.605 24.0208 359.396 23.7962 359.124 23.6317C358.858 23.4672 358.539 23.385 358.166 23.385C357.799 23.385 357.479 23.4672 357.207 23.6317C356.935 23.7962 356.726 24.0208 356.581 24.3055C356.435 24.5901 356.363 24.9128 356.363 25.2734C356.363 25.6277 356.432 25.9471 356.571 26.2318C356.717 26.5165 356.923 26.7443 357.188 26.9151C357.46 27.0796 357.786 27.1618 358.166 27.1618Z" fill="#121212"/>
<path d="M364 27.9589C363.399 27.9589 362.937 27.7628 362.614 27.3706C362.292 26.9783 362.13 26.4121 362.13 25.6719V22.7302H363.041V25.8522C363.041 26.2508 363.149 26.564 363.364 26.7917C363.579 27.0131 363.87 27.1238 364.237 27.1238C364.616 27.1238 364.926 27.0036 365.167 26.7632C365.407 26.5165 365.527 26.1812 365.527 25.7574V22.7302H366.438V27.8071H365.717V25.634H365.831C365.831 26.1338 365.765 26.5576 365.632 26.9056C365.499 27.2472 365.3 27.5098 365.034 27.6932C364.775 27.8704 364.442 27.9589 364.038 27.9589H364Z" fill="#121212"/>
<path d="M372.023 27.9589C371.358 27.9589 370.843 27.8166 370.476 27.5319C370.115 27.2472 369.929 26.8581 369.916 26.3647H370.77C370.783 26.5608 370.881 26.7474 371.064 26.9246C371.254 27.0954 371.574 27.1808 372.023 27.1808C372.428 27.1808 372.738 27.1017 372.953 26.9435C373.168 26.7791 373.275 26.5798 373.275 26.3457C373.275 26.1369 373.196 25.9756 373.038 25.8617C372.88 25.7415 372.624 25.6625 372.269 25.6245L371.719 25.5676C371.238 25.517 370.846 25.3746 370.542 25.1405C370.239 24.9001 370.087 24.5648 370.087 24.1346C370.087 23.812 370.169 23.5368 370.334 23.3091C370.498 23.075 370.726 22.8978 371.017 22.7776C371.308 22.6511 371.643 22.5878 372.023 22.5878C372.592 22.5878 373.054 22.7144 373.408 22.9674C373.762 23.2205 373.946 23.5969 373.959 24.0967H373.105C373.098 23.8942 373.003 23.7234 372.82 23.5842C372.643 23.4387 372.377 23.366 372.023 23.366C371.668 23.366 371.4 23.4387 371.216 23.5842C371.033 23.7298 370.941 23.9132 370.941 24.1346C370.941 24.3244 371.004 24.4763 371.131 24.5901C371.264 24.704 371.479 24.7768 371.776 24.8084L372.326 24.8653C372.87 24.9223 373.307 25.0741 373.636 25.3208C373.965 25.5612 374.129 25.9029 374.129 26.3457C374.129 26.662 374.038 26.9435 373.854 27.1903C373.677 27.4307 373.43 27.6205 373.114 27.7596C372.798 27.8925 372.434 27.9589 372.023 27.9589Z" fill="#121212"/>
<path d="M375.507 27.8071V20.8797H376.418V27.8071H375.507ZM374.804 21.6009V20.8797H376.418V21.6009H374.804Z" fill="#121212"/>
<path d="M380.319 27.9779C379.876 27.9779 379.493 27.902 379.171 27.7502C378.848 27.5983 378.586 27.399 378.383 27.1523C378.181 26.8993 378.029 26.6177 377.928 26.3077C377.833 25.9978 377.785 25.6814 377.785 25.3588V25.188C377.785 24.859 377.833 24.5395 377.928 24.2295C378.029 23.9195 378.181 23.6412 378.383 23.3945C378.586 23.1414 378.842 22.9421 379.152 22.7966C379.468 22.6448 379.838 22.5689 380.262 22.5689C380.813 22.5689 381.265 22.6891 381.619 22.9295C381.98 23.1635 382.246 23.4672 382.416 23.8405C382.593 24.2137 382.682 24.6123 382.682 25.0361V25.4442H378.184V24.761H382.018L381.809 25.131C381.809 24.7704 381.752 24.4604 381.638 24.2011C381.524 23.9354 381.353 23.7298 381.126 23.5842C380.898 23.4387 380.61 23.366 380.262 23.366C379.902 23.366 379.601 23.4482 379.361 23.6127C379.127 23.7772 378.949 24.0018 378.829 24.2865C378.715 24.5712 378.658 24.9001 378.658 25.2734C378.658 25.634 378.715 25.9598 378.829 26.2508C378.949 26.5355 379.133 26.7632 379.38 26.9341C379.626 27.0985 379.94 27.1808 380.319 27.1808C380.718 27.1808 381.04 27.0922 381.287 26.9151C381.54 26.7379 381.692 26.5323 381.743 26.2983H382.597C382.527 26.6462 382.388 26.9467 382.179 27.1998C381.97 27.4528 381.708 27.6458 381.391 27.7786C381.075 27.9115 380.718 27.9779 380.319 27.9779Z" fill="#121212"/>
<path d="M386.13 27.9779C385.687 27.9779 385.304 27.902 384.981 27.7502C384.659 27.5983 384.396 27.399 384.194 27.1523C383.991 26.8993 383.839 26.6177 383.738 26.3077C383.643 25.9978 383.596 25.6814 383.596 25.3588V25.188C383.596 24.859 383.643 24.5395 383.738 24.2295C383.839 23.9195 383.991 23.6412 384.194 23.3945C384.396 23.1414 384.652 22.9421 384.962 22.7966C385.279 22.6448 385.649 22.5689 386.073 22.5689C386.623 22.5689 387.075 22.6891 387.43 22.9295C387.79 23.1635 388.056 23.4672 388.227 23.8405C388.404 24.2137 388.492 24.6123 388.492 25.0361V25.4442H383.994V24.761H387.828L387.619 25.131C387.619 24.7704 387.562 24.4604 387.449 24.2011C387.335 23.9354 387.164 23.7298 386.936 23.5842C386.708 23.4387 386.421 23.366 386.073 23.366C385.712 23.366 385.412 23.4482 385.171 23.6127C384.937 23.7772 384.76 24.0018 384.64 24.2865C384.526 24.5712 384.469 24.9001 384.469 25.2734C384.469 25.634 384.526 25.9598 384.64 26.2508C384.76 26.5355 384.943 26.7632 385.19 26.9341C385.437 27.0985 385.75 27.1808 386.13 27.1808C386.528 27.1808 386.851 27.0922 387.098 26.9151C387.351 26.7379 387.502 26.5323 387.553 26.2983H388.407C388.337 26.6462 388.198 26.9467 387.99 27.1998C387.781 27.4528 387.518 27.6458 387.202 27.7786C386.886 27.9115 386.528 27.9779 386.13 27.9779Z" fill="#121212"/>
<path d="M389.786 29.705V22.7397H390.507V24.9318L390.336 24.9128C390.368 24.3687 390.482 23.9259 390.678 23.5842C390.88 23.2363 391.143 22.9801 391.466 22.8156C391.788 22.6511 392.139 22.5689 392.519 22.5689C392.886 22.5689 393.218 22.6385 393.515 22.7776C393.819 22.9168 394.078 23.1066 394.293 23.347C394.509 23.5874 394.673 23.8658 394.787 24.1821C394.901 24.4984 394.958 24.8337 394.958 25.188V25.3588C394.958 25.7131 394.898 26.0484 394.777 26.3647C394.657 26.681 394.486 26.9594 394.265 27.1998C394.05 27.4402 393.791 27.63 393.487 27.7691C393.19 27.9083 392.861 27.9779 392.5 27.9779C392.139 27.9779 391.795 27.8988 391.466 27.7407C391.137 27.5825 390.865 27.3263 390.649 26.972C390.434 26.6177 390.311 26.1527 390.279 25.5771L390.697 26.3362V29.705H389.786ZM392.358 27.1808C392.699 27.1808 392.997 27.1017 393.25 26.9435C393.503 26.7791 393.699 26.5545 393.838 26.2698C393.977 25.9788 394.047 25.6466 394.047 25.2734C394.047 24.8938 393.977 24.5617 393.838 24.277C393.699 23.9923 393.503 23.7709 393.25 23.6127C392.997 23.4482 392.699 23.366 392.358 23.366C392.054 23.366 391.772 23.4356 391.513 23.5748C391.254 23.7076 391.045 23.9037 390.887 24.1631C390.735 24.4162 390.659 24.723 390.659 25.0836V25.5201C390.659 25.8681 390.738 26.1654 390.896 26.4121C391.054 26.6589 391.263 26.8486 391.523 26.9815C391.782 27.1144 392.06 27.1808 392.358 27.1808Z" fill="#121212"/>
<path d="M398.981 27.8071L401.914 21.7433L401.857 21.6579H398.07V20.8797H402.72V21.9805L399.93 27.8071H398.981ZM398.07 22.7587V20.8797H398.829V22.7587H398.07Z" fill="#121212"/>
<path d="M403.757 27.8071V26.6494H404.857V27.8071H403.757Z" fill="#121212"/>
<path d="M406.269 27.8071V26.6683C406.269 26.39 406.307 26.1527 406.382 25.9566C406.465 25.7605 406.604 25.5834 406.8 25.4252C406.996 25.2607 407.262 25.1026 407.597 24.9507L408.897 24.3529C409.214 24.2074 409.463 24.0208 409.647 23.793C409.83 23.5589 409.922 23.2584 409.922 22.8915C409.922 22.4487 409.799 22.1039 409.552 21.8572C409.305 21.6104 408.957 21.4871 408.508 21.4871C408.065 21.4871 407.717 21.6104 407.464 21.8572C407.211 22.1039 407.085 22.4487 407.085 22.8915H406.193C406.193 22.493 406.275 22.126 406.439 21.7907C406.61 21.4554 406.866 21.1897 407.208 20.9936C407.55 20.7912 407.983 20.6899 408.508 20.6899C409.033 20.6899 409.463 20.7912 409.799 20.9936C410.14 21.1897 410.393 21.4491 410.558 21.7717C410.729 22.0944 410.814 22.4455 410.814 22.8251V22.9579C410.814 23.4577 410.669 23.8784 410.378 24.22C410.093 24.5617 409.707 24.8432 409.22 25.0646L407.92 25.6625C407.629 25.7953 407.433 25.9282 407.331 26.061C407.23 26.1939 407.18 26.371 407.18 26.5924V27.4655L406.933 27.0289H410.9V27.8071H406.269Z" fill="#121212"/>
<path d="M414.446 27.8071V20.8797H415.357V25.0172H415.129C415.129 24.5174 415.192 24.0872 415.319 23.7266C415.452 23.3597 415.654 23.0781 415.926 22.882C416.198 22.6859 416.546 22.5878 416.97 22.5878H417.008C417.615 22.5878 418.074 22.7903 418.384 23.1952C418.694 23.5937 418.849 24.1663 418.849 24.9128V27.8071H417.938V24.723C417.938 24.3118 417.821 23.9923 417.587 23.7645C417.359 23.5368 417.062 23.4229 416.695 23.4229C416.29 23.4229 415.964 23.5589 415.717 23.831C415.477 24.0967 415.357 24.4478 415.357 24.8843V27.8071H414.446Z" fill="#121212"/>
<path d="M420.516 27.8071V22.7397H421.237V24.8274H421.199C421.199 24.0872 421.36 23.5463 421.683 23.2047C422.012 22.8567 422.502 22.6827 423.154 22.6827H423.325V23.4988H423.002C422.496 23.4988 422.107 23.6349 421.835 23.9069C421.563 24.1726 421.427 24.5585 421.427 25.0646V27.8071H420.516Z" fill="#121212"/>
<path d="M426.069 27.9589C425.404 27.9589 424.889 27.8166 424.522 27.5319C424.161 27.2472 423.975 26.8581 423.962 26.3647H424.816C424.829 26.5608 424.927 26.7474 425.11 26.9246C425.3 27.0954 425.619 27.1808 426.069 27.1808C426.473 27.1808 426.783 27.1017 426.999 26.9435C427.214 26.7791 427.321 26.5798 427.321 26.3457C427.321 26.1369 427.242 25.9756 427.084 25.8617C426.926 25.7415 426.67 25.6625 426.315 25.6245L425.765 25.5676C425.284 25.517 424.892 25.3746 424.588 25.1405C424.285 24.9001 424.133 24.5648 424.133 24.1346C424.133 23.812 424.215 23.5368 424.379 23.3091C424.544 23.075 424.772 22.8978 425.063 22.7776C425.354 22.6511 425.689 22.5878 426.069 22.5878C426.638 22.5878 427.1 22.7144 427.454 22.9674C427.808 23.2205 427.992 23.5969 428.004 24.0967H427.15C427.144 23.8942 427.049 23.7234 426.866 23.5842C426.689 23.4387 426.423 23.366 426.069 23.366C425.714 23.366 425.445 23.4387 425.262 23.5842C425.078 23.7298 424.987 23.9132 424.987 24.1346C424.987 24.3244 425.05 24.4763 425.177 24.5901C425.309 24.704 425.525 24.7768 425.822 24.8084L426.372 24.8653C426.916 24.9223 427.353 25.0741 427.682 25.3208C428.011 25.5612 428.175 25.9029 428.175 26.3457C428.175 26.662 428.084 26.9435 427.9 27.1903C427.723 27.4307 427.476 27.6205 427.16 27.7596C426.844 27.8925 426.48 27.9589 426.069 27.9589Z" fill="#121212"/>
<path d="M429.6 29.2969L428.869 29.0218L429.752 26.5735L430.501 26.8581L429.6 29.2969Z" fill="#121212"/>
<path d="M433.797 29.7809V28.9648H434.527C434.743 28.9648 434.923 28.9363 435.068 28.8794C435.22 28.8288 435.344 28.7402 435.438 28.6137C435.54 28.4872 435.622 28.3195 435.685 28.1108L437.279 22.7397H438.171L436.482 28.348C436.381 28.6833 436.239 28.9553 436.055 29.1641C435.872 29.3792 435.647 29.5342 435.382 29.6291C435.122 29.7303 434.818 29.7809 434.471 29.7809H433.797ZM435.344 27.6932V26.9341H436.444V27.6932H435.344ZM435.249 27.6932L433.436 22.7397H434.366L436.103 27.6932H435.249Z" fill="#121212"/>
<path d="M441.57 27.9779C441.127 27.9779 440.738 27.902 440.402 27.7502C440.067 27.5983 439.783 27.399 439.548 27.1523C439.321 26.8993 439.147 26.6177 439.027 26.3077C438.913 25.9978 438.856 25.6814 438.856 25.3588V25.188C438.856 24.8653 438.916 24.549 439.036 24.239C439.156 23.9227 439.333 23.6412 439.567 23.3945C439.802 23.1414 440.086 22.9421 440.422 22.7966C440.757 22.6448 441.14 22.5689 441.57 22.5689C442 22.5689 442.383 22.6448 442.718 22.7966C443.053 22.9421 443.338 23.1414 443.572 23.3945C443.806 23.6412 443.983 23.9227 444.103 24.239C444.224 24.549 444.284 24.8653 444.284 25.188V25.3588C444.284 25.6814 444.224 25.9978 444.103 26.3077C443.99 26.6177 443.816 26.8993 443.582 27.1523C443.354 27.399 443.072 27.5983 442.737 27.7502C442.402 27.902 442.013 27.9779 441.57 27.9779ZM441.57 27.1618C441.949 27.1618 442.272 27.0796 442.538 26.9151C442.81 26.7443 443.015 26.5165 443.154 26.2318C443.3 25.9471 443.373 25.6277 443.373 25.2734C443.373 24.9128 443.3 24.5901 443.154 24.3055C443.009 24.0208 442.8 23.7962 442.528 23.6317C442.262 23.4672 441.943 23.385 441.57 23.385C441.203 23.385 440.883 23.4672 440.611 23.6317C440.339 23.7962 440.13 24.0208 439.985 24.3055C439.839 24.5901 439.767 24.9128 439.767 25.2734C439.767 25.6277 439.836 25.9471 439.975 26.2318C440.121 26.5165 440.327 26.7443 440.592 26.9151C440.864 27.0796 441.19 27.1618 441.57 27.1618Z" fill="#121212"/>
<path d="M447.404 27.9589C446.803 27.9589 446.341 27.7628 446.018 27.3706C445.696 26.9783 445.534 26.4121 445.534 25.6719V22.7302H446.445V25.8522C446.445 26.2508 446.553 26.564 446.768 26.7917C446.983 27.0131 447.274 27.1238 447.641 27.1238C448.021 27.1238 448.331 27.0036 448.571 26.7632C448.811 26.5165 448.932 26.1812 448.932 25.7574V22.7302H449.843V27.8071H449.121V25.634H449.235C449.235 26.1338 449.169 26.5576 449.036 26.9056C448.903 27.2472 448.704 27.5098 448.438 27.6932C448.179 27.8704 447.847 27.9589 447.442 27.9589H447.404Z" fill="#121212"/>
<path d="M455.74 27.864C455.36 27.864 455.031 27.8103 454.753 27.7027C454.481 27.5952 454.269 27.4117 454.117 27.1523C453.972 26.8866 453.899 26.5292 453.899 26.08V21.2024H454.772V26.1939C454.772 26.4659 454.845 26.6778 454.99 26.8297C455.142 26.9752 455.354 27.0479 455.626 27.0479H456.518V27.864H455.74ZM453.026 23.4229V22.7397H456.518V23.4229H453.026Z" fill="#121212"/>
<path d="M457.465 29.7809V28.9648H458.196C458.411 28.9648 458.591 28.9363 458.737 28.8794C458.888 28.8288 459.012 28.7402 459.107 28.6137C459.208 28.4872 459.29 28.3195 459.353 28.1108L460.948 22.7397H461.84L460.151 28.348C460.049 28.6833 459.907 28.9553 459.724 29.1641C459.54 29.3792 459.315 29.5342 459.05 29.6291C458.79 29.7303 458.487 29.7809 458.139 29.7809H457.465ZM459.012 27.6932V26.9341H460.113V27.6932H459.012ZM458.917 27.6932L457.104 22.7397H458.034L459.771 27.6932H458.917Z" fill="#121212"/>
<path d="M462.996 29.705V22.7397H463.717V24.9318L463.547 24.9128C463.578 24.3687 463.692 23.9259 463.888 23.5842C464.091 23.2363 464.353 22.9801 464.676 22.8156C464.999 22.6511 465.35 22.5689 465.729 22.5689C466.096 22.5689 466.428 22.6385 466.726 22.7776C467.029 22.9168 467.289 23.1066 467.504 23.347C467.719 23.5874 467.883 23.8658 467.997 24.1821C468.111 24.4984 468.168 24.8337 468.168 25.188V25.3588C468.168 25.7131 468.108 26.0484 467.988 26.3647C467.867 26.681 467.697 26.9594 467.475 27.1998C467.26 27.4402 467.001 27.63 466.697 27.7691C466.4 27.9083 466.071 27.9779 465.71 27.9779C465.35 27.9779 465.005 27.8988 464.676 27.7407C464.347 27.5825 464.075 27.3263 463.86 26.972C463.645 26.6177 463.521 26.1527 463.49 25.5771L463.907 26.3362V29.705H462.996ZM465.568 27.1808C465.909 27.1808 466.207 27.1017 466.46 26.9435C466.713 26.7791 466.909 26.5545 467.048 26.2698C467.187 25.9788 467.257 25.6466 467.257 25.2734C467.257 24.8938 467.187 24.5617 467.048 24.277C466.909 23.9923 466.713 23.7709 466.46 23.6127C466.207 23.4482 465.909 23.366 465.568 23.366C465.264 23.366 464.983 23.4356 464.723 23.5748C464.464 23.7076 464.255 23.9037 464.097 24.1631C463.945 24.4162 463.869 24.723 463.869 25.0836V25.5201C463.869 25.8681 463.948 26.1654 464.106 26.4121C464.265 26.6589 464.473 26.8486 464.733 26.9815C464.992 27.1144 465.271 27.1808 465.568 27.1808Z" fill="#121212"/>
<path d="M469.786 27.8071V22.7397H470.697V27.8071H469.786ZM469.007 23.4609V22.7397H470.697V23.4609H469.007ZM470.042 21.9236C469.839 21.9236 469.687 21.8698 469.586 21.7623C469.491 21.6547 469.444 21.5187 469.444 21.3542C469.444 21.1897 469.491 21.0537 469.586 20.9462C469.687 20.8386 469.839 20.7848 470.042 20.7848C470.244 20.7848 470.393 20.8386 470.488 20.9462C470.589 21.0537 470.64 21.1897 470.64 21.3542C470.64 21.5187 470.589 21.6547 470.488 21.7623C470.393 21.8698 470.244 21.9236 470.042 21.9236Z" fill="#121212"/>
<path d="M474.631 27.9779C474.195 27.9779 473.815 27.902 473.492 27.7502C473.176 27.5983 472.913 27.3959 472.705 27.1428C472.496 26.8834 472.338 26.5988 472.23 26.2888C472.129 25.9788 472.078 25.6688 472.078 25.3588V25.188C472.078 24.8653 472.129 24.549 472.23 24.239C472.338 23.929 472.496 23.6507 472.705 23.4039C472.92 23.1509 473.185 22.9485 473.502 22.7966C473.818 22.6448 474.188 22.5689 474.612 22.5689C475.036 22.5689 475.416 22.6479 475.751 22.8061C476.092 22.9643 476.364 23.1889 476.567 23.4799C476.776 23.7645 476.893 24.103 476.918 24.4952H476.045C476.001 24.1789 475.855 23.9164 475.608 23.7076C475.362 23.4925 475.03 23.385 474.612 23.385C474.251 23.385 473.951 23.4672 473.711 23.6317C473.47 23.7962 473.29 24.0208 473.17 24.3055C473.049 24.5901 472.989 24.9128 472.989 25.2734C472.989 25.6213 473.049 25.9408 473.17 26.2318C473.29 26.5165 473.47 26.7443 473.711 26.9151C473.957 27.0796 474.264 27.1618 474.631 27.1618C474.916 27.1618 475.162 27.1112 475.371 27.01C475.58 26.9087 475.748 26.7727 475.874 26.6019C476.001 26.4311 476.077 26.2382 476.102 26.0231H476.975C476.956 26.4216 476.839 26.7664 476.624 27.0574C476.415 27.3484 476.137 27.5762 475.789 27.7407C475.447 27.8988 475.061 27.9779 474.631 27.9779Z" fill="#121212"/>
<path d="M481.278 27.8071V26.2888H481.126V24.5332C481.126 24.1853 481.034 23.9227 480.851 23.7456C480.674 23.5684 480.411 23.4799 480.063 23.4799C479.867 23.4799 479.665 23.483 479.456 23.4894C479.247 23.4957 479.048 23.502 478.858 23.5083C478.668 23.5147 478.504 23.5241 478.365 23.5368V22.7397C478.504 22.727 478.649 22.7175 478.801 22.7112C478.959 22.6986 479.121 22.6922 479.285 22.6922C479.45 22.6859 479.608 22.6827 479.76 22.6827C480.278 22.6827 480.702 22.746 481.031 22.8725C481.36 22.9927 481.604 23.192 481.762 23.4704C481.92 23.7487 481.999 24.1252 481.999 24.5996V27.8071H481.278ZM479.617 27.9399C479.238 27.9399 478.909 27.8767 478.63 27.7502C478.358 27.6173 478.146 27.4275 477.995 27.1808C477.849 26.9341 477.776 26.6367 477.776 26.2888C477.776 25.9282 477.855 25.6277 478.014 25.3873C478.178 25.1469 478.415 24.9666 478.725 24.8464C479.035 24.7198 479.409 24.6566 479.845 24.6566H481.221V25.3398H479.807C479.44 25.3398 479.159 25.4284 478.962 25.6055C478.766 25.7827 478.668 26.0104 478.668 26.2888C478.668 26.5671 478.766 26.7917 478.962 26.9625C479.159 27.1333 479.44 27.2187 479.807 27.2187C480.022 27.2187 480.228 27.1808 480.424 27.1049C480.62 27.0226 480.781 26.8898 480.908 26.7063C481.041 26.5165 481.113 26.2571 481.126 25.9282L481.373 26.2888C481.341 26.6494 481.253 26.953 481.107 27.1998C480.968 27.4402 480.772 27.6236 480.519 27.7502C480.272 27.8767 479.972 27.9399 479.617 27.9399Z" fill="#121212"/>
<path d="M483.728 27.8071V20.8797H484.639V27.8071H483.728ZM483.026 21.6009V20.8797H484.639V21.6009H483.026Z" fill="#121212"/>
<path d="M486.443 27.8071V20.8797H487.354V27.8071H486.443ZM485.741 21.6009V20.8797H487.354V21.6009H485.741Z" fill="#121212"/>
<path d="M488.76 29.7809V28.9648H489.491C489.706 28.9648 489.886 28.9363 490.032 28.8794C490.184 28.8288 490.307 28.7402 490.402 28.6137C490.503 28.4872 490.585 28.3195 490.648 28.1108L492.243 22.7397H493.135L491.446 28.348C491.344 28.6833 491.202 28.9553 491.019 29.1641C490.835 29.3792 490.611 29.5342 490.345 29.6291C490.085 29.7303 489.782 29.7809 489.434 29.7809H488.76ZM490.307 27.6932V26.9341H491.408V27.6932H490.307ZM490.212 27.6932L488.399 22.7397H489.329L491.066 27.6932H490.212Z" fill="#121212"/>
<path d="M498.367 29.7809C498.133 29.7809 497.896 29.7714 497.656 29.7524C497.422 29.7335 497.197 29.7082 496.982 29.6765V28.9079C497.21 28.9395 497.447 28.9648 497.694 28.9838C497.947 29.0091 498.184 29.0218 498.405 29.0218C498.867 29.0218 499.234 28.9585 499.506 28.832C499.784 28.7118 499.984 28.5188 500.104 28.2531C500.231 27.9937 500.294 27.6584 500.294 27.2472V26.2793L500.597 25.5581C500.578 26.0705 500.471 26.4975 500.275 26.8392C500.079 27.1745 499.822 27.4275 499.506 27.5983C499.196 27.7628 498.851 27.845 498.472 27.845C498.117 27.845 497.792 27.7786 497.494 27.6458C497.203 27.5066 496.95 27.3168 496.735 27.0764C496.526 26.836 496.362 26.5608 496.242 26.2508C496.128 25.9345 496.071 25.6024 496.071 25.2544V25.0836C496.071 24.7293 496.131 24.4003 496.251 24.0967C496.371 23.7867 496.539 23.5178 496.754 23.2901C496.969 23.0623 497.226 22.8852 497.523 22.7587C497.827 22.6321 498.159 22.5689 498.519 22.5689C498.943 22.5689 499.316 22.6606 499.639 22.8441C499.962 23.0212 500.215 23.2837 500.398 23.6317C500.588 23.9733 500.692 24.394 500.711 24.8938L500.446 24.9033V22.7397H501.167V27.2093C501.167 27.8166 501.072 28.3069 500.882 28.6801C500.699 29.0597 500.401 29.3381 499.99 29.5152C499.585 29.6923 499.044 29.7809 498.367 29.7809ZM498.643 27.01C498.946 27.01 499.221 26.9435 499.468 26.8107C499.721 26.6778 499.921 26.488 500.066 26.2413C500.218 25.9883 500.294 25.6878 500.294 25.3398V24.9033C500.294 24.5617 500.215 24.2738 500.057 24.0397C499.905 23.8057 499.705 23.6285 499.459 23.5083C499.212 23.3881 498.943 23.328 498.652 23.328C498.323 23.328 498.032 23.4039 497.779 23.5558C497.526 23.7076 497.33 23.9227 497.191 24.2011C497.051 24.4731 496.982 24.7957 496.982 25.169C496.982 25.5423 497.051 25.8681 497.191 26.1464C497.336 26.4248 497.532 26.6399 497.779 26.7917C498.032 26.9372 498.32 27.01 498.643 27.01Z" fill="#121212"/>
<path d="M505.008 27.9779C504.565 27.9779 504.183 27.902 503.86 27.7502C503.537 27.5983 503.275 27.399 503.072 27.1523C502.87 26.8993 502.718 26.6177 502.617 26.3077C502.522 25.9978 502.475 25.6814 502.475 25.3588V25.188C502.475 24.859 502.522 24.5395 502.617 24.2295C502.718 23.9195 502.87 23.6412 503.072 23.3945C503.275 23.1414 503.531 22.9421 503.841 22.7966C504.157 22.6448 504.527 22.5689 504.951 22.5689C505.502 22.5689 505.954 22.6891 506.308 22.9295C506.669 23.1635 506.935 23.4672 507.105 23.8405C507.283 24.2137 507.371 24.6123 507.371 25.0361V25.4442H502.873V24.761H506.707L506.498 25.131C506.498 24.7704 506.441 24.4604 506.327 24.2011C506.213 23.9354 506.043 23.7298 505.815 23.5842C505.587 23.4387 505.299 23.366 504.951 23.366C504.591 23.366 504.29 23.4482 504.05 23.6127C503.816 23.7772 503.639 24.0018 503.518 24.2865C503.404 24.5712 503.348 24.9001 503.348 25.2734C503.348 25.634 503.404 25.9598 503.518 26.2508C503.639 26.5355 503.822 26.7632 504.069 26.9341C504.315 27.0985 504.629 27.1808 505.008 27.1808C505.407 27.1808 505.729 27.0922 505.976 26.9151C506.229 26.7379 506.381 26.5323 506.432 26.2983H507.286C507.216 26.6462 507.077 26.9467 506.868 27.1998C506.659 27.4528 506.397 27.6458 506.081 27.7786C505.764 27.9115 505.407 27.9779 505.008 27.9779Z" fill="#121212"/>
<path d="M510.638 27.864C510.259 27.864 509.93 27.8103 509.651 27.7027C509.379 27.5952 509.168 27.4117 509.016 27.1523C508.87 26.8866 508.797 26.5292 508.797 26.08V21.2024H509.67V26.1939C509.67 26.4659 509.743 26.6778 509.889 26.8297C510.041 26.9752 510.253 27.0479 510.525 27.0479H511.417V27.864H510.638ZM507.924 23.4229V22.7397H511.417V23.4229H507.924Z" fill="#121212"/>
<path d="M515.358 27.8071L518.29 21.7433L518.233 21.6579H514.447V20.8797H519.097V21.9805L516.307 27.8071H515.358ZM514.447 22.7587V20.8797H515.206V22.7587H514.447Z" fill="#121212"/>
<path d="M323.792 44.0749V42.5565H323.641V40.801C323.641 40.453 323.549 40.1905 323.365 40.0133C323.188 39.8362 322.926 39.7476 322.578 39.7476C322.382 39.7476 322.179 39.7508 321.97 39.7571C321.762 39.7635 321.562 39.7698 321.373 39.7761C321.183 39.7824 321.018 39.7919 320.879 39.8046V39.0075C321.018 38.9948 321.164 38.9853 321.316 38.979C321.474 38.9663 321.635 38.96 321.8 38.96C321.964 38.9537 322.122 38.9505 322.274 38.9505C322.793 38.9505 323.217 39.0138 323.546 39.1403C323.875 39.2605 324.118 39.4598 324.276 39.7381C324.435 40.0165 324.514 40.3929 324.514 40.8674V44.0749H323.792ZM322.132 44.2077C321.752 44.2077 321.423 44.1445 321.145 44.0179C320.873 43.8851 320.661 43.6953 320.509 43.4486C320.364 43.2018 320.291 42.9045 320.291 42.5565C320.291 42.1959 320.37 41.8954 320.528 41.655C320.693 41.4146 320.93 41.2343 321.24 41.1141C321.55 40.9876 321.923 40.9243 322.36 40.9243H323.736V41.6076H322.322C321.955 41.6076 321.673 41.6962 321.477 41.8733C321.281 42.0504 321.183 42.2782 321.183 42.5565C321.183 42.8349 321.281 43.0595 321.477 43.2303C321.673 43.4011 321.955 43.4865 322.322 43.4865C322.537 43.4865 322.742 43.4486 322.938 43.3726C323.135 43.2904 323.296 43.1575 323.422 42.9741C323.555 42.7843 323.628 42.5249 323.641 42.1959L323.887 42.5565C323.856 42.9171 323.767 43.2208 323.622 43.4675C323.482 43.7079 323.286 43.8914 323.033 44.0179C322.787 44.1445 322.486 44.2077 322.132 44.2077Z" fill="#121212"/>
<path d="M328.359 44.2457C327.922 44.2457 327.543 44.1698 327.22 44.0179C326.904 43.8661 326.641 43.6636 326.432 43.4106C326.224 43.1512 326.065 42.8665 325.958 42.5565C325.857 42.2465 325.806 41.9366 325.806 41.6266V41.4557C325.806 41.1331 325.857 40.8168 325.958 40.5068C326.065 40.1968 326.224 39.9184 326.432 39.6717C326.648 39.4187 326.913 39.2162 327.23 39.0644C327.546 38.9126 327.916 38.8366 328.34 38.8366C328.764 38.8366 329.143 38.9157 329.479 39.0739C329.82 39.232 330.092 39.4566 330.295 39.7476C330.503 40.0323 330.62 40.3708 330.646 40.763H329.773C329.728 40.4467 329.583 40.1842 329.336 39.9754C329.089 39.7603 328.757 39.6527 328.34 39.6527C327.979 39.6527 327.679 39.735 327.438 39.8995C327.198 40.064 327.018 40.2885 326.897 40.5732C326.777 40.8579 326.717 41.1806 326.717 41.5412C326.717 41.8891 326.777 42.2086 326.897 42.4996C327.018 42.7843 327.198 43.012 327.438 43.1828C327.685 43.3473 327.992 43.4296 328.359 43.4296C328.643 43.4296 328.89 43.379 329.099 43.2777C329.308 43.1765 329.475 43.0405 329.602 42.8697C329.728 42.6989 329.804 42.5059 329.83 42.2908H330.703C330.684 42.6894 330.567 43.0342 330.352 43.3252C330.143 43.6162 329.864 43.8439 329.517 44.0084C329.175 44.1666 328.789 44.2457 328.359 44.2457Z" fill="#121212"/>
<path d="M333.914 44.1318C333.535 44.1318 333.206 44.078 332.927 43.9705C332.655 43.8629 332.444 43.6795 332.292 43.4201C332.146 43.1544 332.073 42.7969 332.073 42.3478V37.4701H332.946V42.4616C332.946 42.7337 333.019 42.9456 333.165 43.0974C333.317 43.2429 333.529 43.3157 333.801 43.3157H334.693V44.1318H333.914ZM331.2 39.6907V39.0075H334.693V39.6907H331.2Z" fill="#121212"/>
<path d="M336.228 44.0749V39.0075H337.139V44.0749H336.228ZM335.45 39.7287V39.0075H337.139V39.7287H335.45ZM336.484 38.1914C336.282 38.1914 336.13 38.1376 336.028 38.03C335.934 37.9225 335.886 37.7865 335.886 37.622C335.886 37.4575 335.934 37.3215 336.028 37.2139C336.13 37.1064 336.282 37.0526 336.484 37.0526C336.686 37.0526 336.835 37.1064 336.93 37.2139C337.031 37.3215 337.082 37.4575 337.082 37.622C337.082 37.7865 337.031 37.9225 336.93 38.03C336.835 38.1376 336.686 38.1914 336.484 38.1914Z" fill="#121212"/>
<path d="M339.982 44.0749L338.255 39.0075H339.204L340.893 44.0749H339.982ZM340.21 44.0749V43.3537H341.311V44.0749H340.21ZM340.646 44.0749L342.117 39.0075H343.009L341.51 44.0749H340.646Z" fill="#121212"/>
<path d="M344.448 44.0749V39.0075H345.359V44.0749H344.448ZM343.67 39.7287V39.0075H345.359V39.7287H343.67ZM344.704 38.1914C344.501 38.1914 344.35 38.1376 344.248 38.03C344.154 37.9225 344.106 37.7865 344.106 37.622C344.106 37.4575 344.154 37.3215 344.248 37.2139C344.35 37.1064 344.501 37.0526 344.704 37.0526C344.906 37.0526 345.055 37.1064 345.15 37.2139C345.251 37.3215 345.302 37.4575 345.302 37.622C345.302 37.7865 345.251 37.9225 345.15 38.03C345.055 38.1376 344.906 38.1914 344.704 38.1914Z" fill="#121212"/>
<path d="M349.094 44.1318C348.714 44.1318 348.385 44.078 348.107 43.9705C347.835 43.8629 347.623 43.6795 347.471 43.4201C347.326 43.1544 347.253 42.7969 347.253 42.3478V37.4701H348.126V42.4616C348.126 42.7337 348.199 42.9456 348.344 43.0974C348.496 43.2429 348.708 43.3157 348.98 43.3157H349.872V44.1318H349.094ZM346.38 39.6907V39.0075H349.872V39.6907H346.38Z" fill="#121212"/>
<path d="M351.407 44.0749V39.0075H352.318V44.0749H351.407ZM350.629 39.7287V39.0075H352.318V39.7287H350.629ZM351.664 38.1914C351.461 38.1914 351.309 38.1376 351.208 38.03C351.113 37.9225 351.066 37.7865 351.066 37.622C351.066 37.4575 351.113 37.3215 351.208 37.2139C351.309 37.1064 351.461 37.0526 351.664 37.0526C351.866 37.0526 352.015 37.1064 352.11 37.2139C352.211 37.3215 352.261 37.4575 352.261 37.622C352.261 37.7865 352.211 37.9225 352.11 38.03C352.015 38.1376 351.866 38.1914 351.664 38.1914Z" fill="#121212"/>
<path d="M356.234 44.2457C355.791 44.2457 355.408 44.1698 355.086 44.0179C354.763 43.8661 354.5 43.6668 354.298 43.4201C354.096 43.167 353.944 42.8855 353.842 42.5755C353.748 42.2655 353.7 41.9492 353.7 41.6266V41.4557C353.7 41.1268 353.748 40.8073 353.842 40.4973C353.944 40.1873 354.096 39.909 354.298 39.6622C354.5 39.4092 354.757 39.2099 355.067 39.0644C355.383 38.9126 355.753 38.8366 356.177 38.8366C356.727 38.8366 357.18 38.9568 357.534 39.1972C357.895 39.4313 358.16 39.735 358.331 40.1082C358.508 40.4815 358.597 40.8801 358.597 41.3039V41.712H354.099V41.0287H357.932L357.724 41.3988C357.724 41.0382 357.667 40.7282 357.553 40.4688C357.439 40.2031 357.268 39.9975 357.04 39.852C356.813 39.7065 356.525 39.6338 356.177 39.6338C355.816 39.6338 355.516 39.716 355.275 39.8805C355.041 40.045 354.864 40.2696 354.744 40.5542C354.63 40.8389 354.573 41.1679 354.573 41.5412C354.573 41.9018 354.63 42.2276 354.744 42.5186C354.864 42.8033 355.048 43.031 355.294 43.2018C355.541 43.3663 355.854 43.4486 356.234 43.4486C356.632 43.4486 356.955 43.36 357.202 43.1828C357.455 43.0057 357.607 42.8001 357.657 42.566H358.511C358.442 42.914 358.303 43.2145 358.094 43.4675C357.885 43.7206 357.622 43.9135 357.306 44.0464C356.99 44.1792 356.632 44.2457 356.234 44.2457Z" fill="#121212"/>
<path d="M361.551 44.2267C360.887 44.2267 360.371 44.0844 360.004 43.7997C359.643 43.515 359.457 43.1259 359.444 42.6325H360.298C360.311 42.8286 360.409 43.0152 360.592 43.1923C360.782 43.3631 361.102 43.4486 361.551 43.4486C361.956 43.4486 362.266 43.3695 362.481 43.2113C362.696 43.0468 362.803 42.8475 362.803 42.6135C362.803 42.4047 362.724 42.2434 362.566 42.1295C362.408 42.0093 362.152 41.9302 361.798 41.8923L361.247 41.8353C360.766 41.7847 360.374 41.6424 360.071 41.4083C359.767 41.1679 359.615 40.8326 359.615 40.4024C359.615 40.0798 359.697 39.8046 359.862 39.5768C360.026 39.3427 360.254 39.1656 360.545 39.0454C360.836 38.9189 361.171 38.8556 361.551 38.8556C362.12 38.8556 362.582 38.9821 362.936 39.2352C363.291 39.4883 363.474 39.8647 363.487 40.3645H362.633C362.626 40.162 362.531 39.9912 362.348 39.852C362.171 39.7065 361.905 39.6338 361.551 39.6338C361.197 39.6338 360.928 39.7065 360.744 39.852C360.561 39.9975 360.469 40.181 360.469 40.4024C360.469 40.5922 360.532 40.744 360.659 40.8579C360.792 40.9718 361.007 41.0445 361.304 41.0762L361.855 41.1331C362.399 41.19 362.835 41.3419 363.164 41.5886C363.493 41.829 363.658 42.1706 363.658 42.6135C363.658 42.9298 363.566 43.2113 363.382 43.458C363.205 43.6984 362.958 43.8882 362.642 44.0274C362.326 44.1603 361.962 44.2267 361.551 44.2267Z" fill="#121212"/>
<path d="M369.253 44.2457C368.893 44.2457 368.561 44.1792 368.257 44.0464C367.953 43.9135 367.688 43.7269 367.46 43.4865C367.238 43.2461 367.064 42.9677 366.938 42.6514C366.818 42.3351 366.758 41.9935 366.758 41.6266V41.4557C366.758 41.0951 366.818 40.7567 366.938 40.4404C367.058 40.1241 367.226 39.8457 367.441 39.6053C367.662 39.3649 367.922 39.1783 368.219 39.0454C368.523 38.9062 368.858 38.8366 369.225 38.8366C369.611 38.8366 369.962 38.9189 370.278 39.0834C370.594 39.2415 370.854 39.4914 371.056 39.833C371.259 40.1747 371.373 40.6175 371.398 41.1616L371.018 40.5542V37.1475H371.929V44.0749H371.208V41.8258H371.474C371.449 42.4015 371.328 42.8697 371.113 43.2303C370.898 43.5846 370.626 43.8439 370.297 44.0084C369.974 44.1666 369.627 44.2457 369.253 44.2457ZM369.377 43.4486C369.687 43.4486 369.968 43.379 370.221 43.2398C370.474 43.1006 370.677 42.9013 370.829 42.6419C370.98 42.3762 371.056 42.0662 371.056 41.712V41.2754C371.056 40.9275 370.977 40.6333 370.819 40.3929C370.667 40.1462 370.462 39.9596 370.202 39.833C369.949 39.7002 369.671 39.6338 369.367 39.6338C369.032 39.6338 368.734 39.7128 368.475 39.871C368.222 40.0292 368.023 40.2506 367.877 40.5353C367.738 40.82 367.669 41.1552 367.669 41.5412C367.669 41.9271 367.741 42.2655 367.887 42.5565C368.032 42.8412 368.235 43.0626 368.494 43.2208C368.753 43.3726 369.048 43.4486 369.377 43.4486Z" fill="#121212"/>
<path d="M376.014 44.2457C375.571 44.2457 375.182 44.1698 374.847 44.0179C374.512 43.8661 374.227 43.6668 373.993 43.4201C373.765 43.167 373.591 42.8855 373.471 42.5755C373.357 42.2655 373.3 41.9492 373.3 41.6266V41.4557C373.3 41.1331 373.36 40.8168 373.48 40.5068C373.601 40.1905 373.778 39.909 374.012 39.6622C374.246 39.4092 374.531 39.2099 374.866 39.0644C375.201 38.9126 375.584 38.8366 376.014 38.8366C376.444 38.8366 376.827 38.9126 377.162 39.0644C377.498 39.2099 377.782 39.4092 378.016 39.6622C378.25 39.909 378.428 40.1905 378.548 40.5068C378.668 40.8168 378.728 41.1331 378.728 41.4557V41.6266C378.728 41.9492 378.668 42.2655 378.548 42.5755C378.434 42.8855 378.26 43.167 378.026 43.4201C377.798 43.6668 377.517 43.8661 377.181 44.0179C376.846 44.1698 376.457 44.2457 376.014 44.2457ZM376.014 43.4296C376.394 43.4296 376.716 43.3473 376.982 43.1828C377.254 43.012 377.46 42.7843 377.599 42.4996C377.744 42.2149 377.817 41.8954 377.817 41.5412C377.817 41.1806 377.744 40.8579 377.599 40.5732C377.453 40.2885 377.245 40.064 376.973 39.8995C376.707 39.735 376.387 39.6527 376.014 39.6527C375.647 39.6527 375.328 39.735 375.056 39.8995C374.784 40.064 374.575 40.2885 374.429 40.5732C374.284 40.8579 374.211 41.1806 374.211 41.5412C374.211 41.8954 374.281 42.2149 374.42 42.4996C374.565 42.7843 374.771 43.012 375.037 43.1828C375.309 43.3473 375.635 43.4296 376.014 43.4296Z" fill="#121212"/>
<path d="M380.093 44.0749V39.0075H380.814V41.1806H380.7C380.7 40.6808 380.766 40.2601 380.899 39.9184C381.038 39.5705 381.247 39.308 381.525 39.1308C381.804 38.9473 382.155 38.8556 382.579 38.8556H382.617C383.256 38.8556 383.727 39.0549 384.031 39.4535C384.341 39.852 384.496 40.4277 384.496 41.1806V44.0749H383.585V40.9908C383.585 40.5985 383.474 40.2854 383.253 40.0513C383.031 39.8109 382.727 39.6907 382.342 39.6907C381.943 39.6907 381.62 39.8141 381.374 40.0608C381.127 40.3075 381.004 40.6365 381.004 41.0477V44.0749H380.093Z" fill="#121212"/>
<path d="M388.317 44.2457C387.874 44.2457 387.491 44.1698 387.168 44.0179C386.846 43.8661 386.583 43.6668 386.381 43.4201C386.178 43.167 386.027 42.8855 385.925 42.5755C385.83 42.2655 385.783 41.9492 385.783 41.6266V41.4557C385.783 41.1268 385.83 40.8073 385.925 40.4973C386.027 40.1873 386.178 39.909 386.381 39.6622C386.583 39.4092 386.839 39.2099 387.149 39.0644C387.466 38.9126 387.836 38.8366 388.26 38.8366C388.81 38.8366 389.262 38.9568 389.617 39.1972C389.977 39.4313 390.243 39.735 390.414 40.1082C390.591 40.4815 390.68 40.8801 390.68 41.3039V41.712H386.181V41.0287H390.015L389.807 41.3988C389.807 41.0382 389.75 40.7282 389.636 40.4688C389.522 40.2031 389.351 39.9975 389.123 39.852C388.895 39.7065 388.608 39.6338 388.26 39.6338C387.899 39.6338 387.599 39.716 387.358 39.8805C387.124 40.045 386.947 40.2696 386.827 40.5542C386.713 40.8389 386.656 41.1679 386.656 41.5412C386.656 41.9018 386.713 42.2276 386.827 42.5186C386.947 42.8033 387.13 43.031 387.377 43.2018C387.624 43.3663 387.937 43.4486 388.317 43.4486C388.715 43.4486 389.038 43.36 389.285 43.1828C389.538 43.0057 389.689 42.8001 389.74 42.566H390.594C390.525 42.914 390.385 43.2145 390.177 43.4675C389.968 43.7206 389.705 43.9135 389.389 44.0464C389.073 44.1792 388.715 44.2457 388.317 44.2457Z" fill="#121212"/>
<path d="M391.719 44.0749V42.9171H392.819V44.0749H391.719Z" fill="#121212"/>
<path d="M400.181 44.0749V37.7928H401.111V44.0749H400.181ZM398.075 37.9826V37.1475H403.218V37.9826H398.075Z" fill="#121212"/>
<path d="M404.335 44.0749V37.1475H405.246V41.2849H405.019C405.019 40.7852 405.082 40.355 405.208 39.9944C405.341 39.6274 405.544 39.3459 405.816 39.1498C406.088 38.9537 406.436 38.8556 406.86 38.8556H406.898C407.505 38.8556 407.963 39.0581 408.273 39.4629C408.583 39.8615 408.738 40.434 408.738 41.1806V44.0749H407.828V40.9908C407.828 40.5795 407.71 40.2601 407.476 40.0323C407.249 39.8046 406.951 39.6907 406.584 39.6907C406.179 39.6907 405.854 39.8267 405.607 40.0987C405.367 40.3645 405.246 40.7156 405.246 41.1521V44.0749H404.335Z" fill="#121212"/>
<path d="M413.47 44.0749V42.5565H413.319V40.801C413.319 40.453 413.227 40.1905 413.043 40.0133C412.866 39.8362 412.604 39.7476 412.256 39.7476C412.06 39.7476 411.857 39.7508 411.648 39.7571C411.44 39.7635 411.24 39.7698 411.051 39.7761C410.861 39.7824 410.696 39.7919 410.557 39.8046V39.0075C410.696 38.9948 410.842 38.9853 410.994 38.979C411.152 38.9663 411.313 38.96 411.478 38.96C411.642 38.9537 411.8 38.9505 411.952 38.9505C412.471 38.9505 412.895 39.0138 413.224 39.1403C413.553 39.2605 413.796 39.4598 413.954 39.7381C414.113 40.0165 414.192 40.3929 414.192 40.8674V44.0749H413.47ZM411.81 44.2077C411.43 44.2077 411.101 44.1445 410.823 44.0179C410.551 43.8851 410.339 43.6953 410.187 43.4486C410.042 43.2018 409.969 42.9045 409.969 42.5565C409.969 42.1959 410.048 41.8954 410.206 41.655C410.37 41.4146 410.608 41.2343 410.918 41.1141C411.228 40.9876 411.601 40.9243 412.038 40.9243H413.413V41.6076H412C411.633 41.6076 411.351 41.6962 411.155 41.8733C410.959 42.0504 410.861 42.2782 410.861 42.5565C410.861 42.8349 410.959 43.0595 411.155 43.2303C411.351 43.4011 411.633 43.4865 412 43.4865C412.215 43.4865 412.42 43.4486 412.616 43.3726C412.812 43.2904 412.974 43.1575 413.1 42.9741C413.233 42.7843 413.306 42.5249 413.319 42.1959L413.565 42.5565C413.534 42.9171 413.445 43.2208 413.3 43.4675C413.16 43.7079 412.964 43.8914 412.711 44.0179C412.465 44.1445 412.164 44.2077 411.81 44.2077Z" fill="#121212"/>
<path d="M417.837 44.1318C417.458 44.1318 417.129 44.078 416.851 43.9705C416.578 43.8629 416.367 43.6795 416.215 43.4201C416.069 43.1544 415.996 42.7969 415.996 42.3478V37.4701H416.87V42.4616C416.87 42.7337 416.942 42.9456 417.088 43.0974C417.24 43.2429 417.452 43.3157 417.724 43.3157H418.616V44.1318H417.837ZM415.123 39.6907V39.0075H418.616V39.6907H415.123Z" fill="#121212"/>
<path d="M419.487 40.0323V39.5389H419.572C419.774 39.5389 419.936 39.5041 420.056 39.4345C420.176 39.3649 420.262 39.2573 420.312 39.1118C420.369 38.96 420.398 38.7702 420.398 38.5425V37.8307L420.625 38.2578C420.581 38.2831 420.521 38.3021 420.445 38.3147C420.375 38.3274 420.306 38.3337 420.236 38.3337C420.059 38.3337 419.91 38.2799 419.79 38.1724C419.676 38.0585 419.619 37.9035 419.619 37.7074C419.619 37.5239 419.673 37.3721 419.781 37.2519C419.895 37.1317 420.046 37.0716 420.236 37.0716C420.356 37.0716 420.47 37.1001 420.578 37.157C420.685 37.2139 420.774 37.3152 420.844 37.4607C420.913 37.6062 420.948 37.8149 420.948 38.087V38.2862C420.948 38.7481 420.891 39.1055 420.777 39.3586C420.663 39.6116 420.502 39.7888 420.293 39.89C420.084 39.9849 419.838 40.0323 419.553 40.0323H419.487Z" fill="#121212"/>
<path d="M423.52 44.2267C422.856 44.2267 422.34 44.0844 421.973 43.7997C421.613 43.515 421.426 43.1259 421.413 42.6325H422.267C422.28 42.8286 422.378 43.0152 422.562 43.1923C422.751 43.3631 423.071 43.4486 423.52 43.4486C423.925 43.4486 424.235 43.3695 424.45 43.2113C424.665 43.0468 424.773 42.8475 424.773 42.6135C424.773 42.4047 424.694 42.2434 424.535 42.1295C424.377 42.0093 424.121 41.9302 423.767 41.8923L423.216 41.8353C422.736 41.7847 422.343 41.6424 422.04 41.4083C421.736 41.1679 421.584 40.8326 421.584 40.4024C421.584 40.0798 421.667 39.8046 421.831 39.5768C421.995 39.3427 422.223 39.1656 422.514 39.0454C422.805 38.9189 423.141 38.8556 423.52 38.8556C424.09 38.8556 424.551 38.9821 424.906 39.2352C425.26 39.4883 425.443 39.8647 425.456 40.3645H424.602C424.596 40.162 424.501 39.9912 424.317 39.852C424.14 39.7065 423.874 39.6338 423.52 39.6338C423.166 39.6338 422.897 39.7065 422.714 39.852C422.53 39.9975 422.438 40.181 422.438 40.4024C422.438 40.5922 422.502 40.744 422.628 40.8579C422.761 40.9718 422.976 41.0445 423.273 41.0762L423.824 41.1331C424.368 41.19 424.804 41.3419 425.133 41.5886C425.462 41.829 425.627 42.1706 425.627 42.6135C425.627 42.9298 425.535 43.2113 425.352 43.458C425.174 43.6984 424.928 43.8882 424.611 44.0274C424.295 44.1603 423.931 44.2267 423.52 44.2267Z" fill="#121212"/>
<path d="M431.071 44.2457C430.552 44.2457 430.112 44.1445 429.752 43.942C429.391 43.7396 429.116 43.4707 428.926 43.1354C428.743 42.8001 428.651 42.4363 428.651 42.0441H429.543C429.543 42.4743 429.679 42.8159 429.951 43.069C430.229 43.322 430.603 43.4486 431.071 43.4486C431.381 43.4486 431.65 43.3916 431.877 43.2777C432.105 43.1639 432.282 43.0025 432.409 42.7938C432.535 42.5787 432.599 42.3288 432.599 42.0441C432.599 41.6139 432.459 41.266 432.181 41.0003C431.909 40.7345 431.542 40.6017 431.08 40.6017C430.884 40.6017 430.713 40.627 430.568 40.6776C430.429 40.7219 430.305 40.7788 430.198 40.8484L429.742 40.0323L432.39 38.0965L432.295 37.9256H428.926V37.1475H433.149V38.4096L430.957 40.0039L430.293 40.0323C430.4 39.9944 430.517 39.9627 430.644 39.9374C430.776 39.9121 430.931 39.8995 431.109 39.8995C431.615 39.8995 432.045 39.9944 432.399 40.1842C432.754 40.3739 433.022 40.627 433.206 40.9433C433.396 41.2596 433.491 41.6044 433.491 41.9777V42.1105C433.491 42.4775 433.396 42.8254 433.206 43.1544C433.022 43.477 432.75 43.7396 432.39 43.942C432.035 44.1445 431.596 44.2457 431.071 44.2457Z" fill="#121212"/>
<path d="M437.095 44.0749V39.0075H437.816V41.1806H437.702C437.702 40.6871 437.765 40.2696 437.892 39.9279C438.025 39.58 438.221 39.3143 438.48 39.1308C438.739 38.9473 439.068 38.8556 439.467 38.8556H439.505C439.904 38.8556 440.233 38.9473 440.492 39.1308C440.758 39.3143 440.954 39.58 441.08 39.9279C441.207 40.2696 441.27 40.6871 441.27 41.1806H441.004C441.004 40.6871 441.071 40.2696 441.204 39.9279C441.336 39.58 441.533 39.3143 441.792 39.1308C442.058 38.9473 442.39 38.8556 442.788 38.8556H442.826C443.225 38.8556 443.557 38.9473 443.823 39.1308C444.088 39.3143 444.285 39.58 444.411 39.9279C444.544 40.2696 444.61 40.6871 444.61 41.1806V44.0749H443.699V40.9813C443.699 40.5701 443.598 40.2537 443.396 40.0323C443.193 39.8046 442.912 39.6907 442.551 39.6907C442.178 39.6907 441.877 39.8109 441.65 40.0513C441.422 40.2854 441.308 40.6143 441.308 41.0382V44.0749H440.397V40.9813C440.397 40.5701 440.296 40.2537 440.093 40.0323C439.891 39.8046 439.609 39.6907 439.249 39.6907C438.875 39.6907 438.575 39.8109 438.347 40.0513C438.119 40.2854 438.006 40.6143 438.006 41.0382V44.0749H437.095Z" fill="#121212"/>
<path d="M448.613 44.2457C448.17 44.2457 447.781 44.1698 447.446 44.0179C447.11 43.8661 446.826 43.6668 446.591 43.4201C446.364 43.167 446.19 42.8855 446.07 42.5755C445.956 42.2655 445.899 41.9492 445.899 41.6266V41.4557C445.899 41.1331 445.959 40.8168 446.079 40.5068C446.199 40.1905 446.376 39.909 446.61 39.6622C446.845 39.4092 447.129 39.2099 447.465 39.0644C447.8 38.9126 448.183 38.8366 448.613 38.8366C449.043 38.8366 449.426 38.9126 449.761 39.0644C450.096 39.2099 450.381 39.4092 450.615 39.6622C450.849 39.909 451.026 40.1905 451.146 40.5068C451.267 40.8168 451.327 41.1331 451.327 41.4557V41.6266C451.327 41.9492 451.267 42.2655 451.146 42.5755C451.033 42.8855 450.859 43.167 450.625 43.4201C450.397 43.6668 450.115 43.8661 449.78 44.0179C449.445 44.1698 449.056 44.2457 448.613 44.2457ZM448.613 43.4296C448.992 43.4296 449.315 43.3473 449.581 43.1828C449.853 43.012 450.058 42.7843 450.197 42.4996C450.343 42.2149 450.416 41.8954 450.416 41.5412C450.416 41.1806 450.343 40.8579 450.197 40.5732C450.052 40.2885 449.843 40.064 449.571 39.8995C449.305 39.735 448.986 39.6527 448.613 39.6527C448.246 39.6527 447.926 39.735 447.654 39.8995C447.382 40.064 447.174 40.2885 447.028 40.5732C446.883 40.8579 446.81 41.1806 446.81 41.5412C446.81 41.8954 446.879 42.2149 447.018 42.4996C447.164 42.7843 447.37 43.012 447.635 43.1828C447.907 43.3473 448.233 43.4296 448.613 43.4296Z" fill="#121212"/>
<path d="M452.691 44.0749V39.0075H453.412V41.0951H453.374C453.374 40.355 453.536 39.8141 453.858 39.4724C454.187 39.1245 454.678 38.9505 455.329 38.9505H455.5V39.7666H455.177C454.671 39.7666 454.282 39.9026 454.01 40.1747C453.738 40.4404 453.602 40.8263 453.602 41.3324V44.0749H452.691Z" fill="#121212"/>
<path d="M458.682 44.2457C458.239 44.2457 457.856 44.1698 457.534 44.0179C457.211 43.8661 456.948 43.6668 456.746 43.4201C456.544 43.167 456.392 42.8855 456.291 42.5755C456.196 42.2655 456.148 41.9492 456.148 41.6266V41.4557C456.148 41.1268 456.196 40.8073 456.291 40.4973C456.392 40.1873 456.544 39.909 456.746 39.6622C456.948 39.4092 457.205 39.2099 457.515 39.0644C457.831 38.9126 458.201 38.8366 458.625 38.8366C459.175 38.8366 459.628 38.9568 459.982 39.1972C460.343 39.4313 460.608 39.735 460.779 40.1082C460.956 40.4815 461.045 40.8801 461.045 41.3039V41.712H456.547V41.0287H460.381L460.172 41.3988C460.172 41.0382 460.115 40.7282 460.001 40.4688C459.887 40.2031 459.716 39.9975 459.488 39.852C459.261 39.7065 458.973 39.6338 458.625 39.6338C458.264 39.6338 457.964 39.716 457.723 39.8805C457.489 40.045 457.312 40.2696 457.192 40.5542C457.078 40.8389 457.021 41.1679 457.021 41.5412C457.021 41.9018 457.078 42.2276 457.192 42.5186C457.312 42.8033 457.496 43.031 457.742 43.2018C457.989 43.3663 458.302 43.4486 458.682 43.4486C459.08 43.4486 459.403 43.36 459.65 43.1828C459.903 43.0057 460.055 42.8001 460.105 42.566H460.959C460.89 42.914 460.751 43.2145 460.542 43.4675C460.333 43.7206 460.071 43.9135 459.754 44.0464C459.438 44.1792 459.08 44.2457 458.682 44.2457Z" fill="#121212"/>
<path d="M467.563 44.0749V42.5565H467.411V40.801C467.411 40.453 467.319 40.1905 467.136 40.0133C466.958 39.8362 466.696 39.7476 466.348 39.7476C466.152 39.7476 465.949 39.7508 465.741 39.7571C465.532 39.7635 465.333 39.7698 465.143 39.7761C464.953 39.7824 464.789 39.7919 464.649 39.8046V39.0075C464.789 38.9948 464.934 38.9853 465.086 38.979C465.244 38.9663 465.405 38.96 465.57 38.96C465.734 38.9537 465.892 38.9505 466.044 38.9505C466.563 38.9505 466.987 39.0138 467.316 39.1403C467.645 39.2605 467.888 39.4598 468.047 39.7381C468.205 40.0165 468.284 40.3929 468.284 40.8674V44.0749H467.563ZM465.902 44.2077C465.522 44.2077 465.193 44.1445 464.915 44.0179C464.643 43.8851 464.431 43.6953 464.279 43.4486C464.134 43.2018 464.061 42.9045 464.061 42.5565C464.061 42.1959 464.14 41.8954 464.298 41.655C464.463 41.4146 464.7 41.2343 465.01 41.1141C465.32 40.9876 465.693 40.9243 466.13 40.9243H467.506V41.6076H466.092C465.725 41.6076 465.443 41.6962 465.247 41.8733C465.051 42.0504 464.953 42.2782 464.953 42.5565C464.953 42.8349 465.051 43.0595 465.247 43.2303C465.443 43.4011 465.725 43.4865 466.092 43.4865C466.307 43.4865 466.512 43.4486 466.709 43.3726C466.905 43.2904 467.066 43.1575 467.193 42.9741C467.325 42.7843 467.398 42.5249 467.411 42.1959L467.658 42.5565C467.626 42.9171 467.537 43.2208 467.392 43.4675C467.253 43.7079 467.057 43.8914 466.803 44.0179C466.557 44.1445 466.256 44.2077 465.902 44.2077Z" fill="#121212"/>
<path d="M472.129 44.2457C471.692 44.2457 471.313 44.1698 470.99 44.0179C470.674 43.8661 470.411 43.6636 470.203 43.4106C469.994 43.1512 469.836 42.8665 469.728 42.5565C469.627 42.2465 469.576 41.9366 469.576 41.6266V41.4557C469.576 41.1331 469.627 40.8168 469.728 40.5068C469.836 40.1968 469.994 39.9184 470.203 39.6717C470.418 39.4187 470.683 39.2162 471 39.0644C471.316 38.9126 471.686 38.8366 472.11 38.8366C472.534 38.8366 472.913 38.9157 473.249 39.0739C473.59 39.232 473.862 39.4566 474.065 39.7476C474.274 40.0323 474.391 40.3708 474.416 40.763H473.543C473.499 40.4467 473.353 40.1842 473.106 39.9754C472.86 39.7603 472.527 39.6527 472.11 39.6527C471.749 39.6527 471.449 39.735 471.208 39.8995C470.968 40.064 470.788 40.2885 470.668 40.5732C470.547 40.8579 470.487 41.1806 470.487 41.5412C470.487 41.8891 470.547 42.2086 470.668 42.4996C470.788 42.7843 470.968 43.012 471.208 43.1828C471.455 43.3473 471.762 43.4296 472.129 43.4296C472.414 43.4296 472.66 43.379 472.869 43.2777C473.078 43.1765 473.246 43.0405 473.372 42.8697C473.499 42.6989 473.575 42.5059 473.6 42.2908H474.473C474.454 42.6894 474.337 43.0342 474.122 43.3252C473.913 43.6162 473.635 43.8439 473.287 44.0084C472.945 44.1666 472.559 44.2457 472.129 44.2457Z" fill="#121212"/>
<path d="M475.957 44.0749V39.0075H476.868V44.0749H475.957ZM475.179 39.7287V39.0075H476.868V39.7287H475.179ZM476.214 38.1914C476.011 38.1914 475.859 38.1376 475.758 38.03C475.663 37.9225 475.616 37.7865 475.616 37.622C475.616 37.4575 475.663 37.3215 475.758 37.2139C475.859 37.1064 476.011 37.0526 476.214 37.0526C476.416 37.0526 476.565 37.1064 476.66 37.2139C476.761 37.3215 476.811 37.4575 476.811 37.622C476.811 37.7865 476.761 37.9225 476.66 38.03C476.565 38.1376 476.416 38.1914 476.214 38.1914Z" fill="#121212"/>
<path d="M479.712 44.0749L477.985 39.0075H478.934L480.623 44.0749H479.712ZM479.939 44.0749V43.3537H481.04V44.0749H479.939ZM480.376 44.0749L481.847 39.0075H482.739L481.24 44.0749H480.376Z" fill="#121212"/>
<path d="M484.177 44.0749V39.0075H485.088V44.0749H484.177ZM483.399 39.7287V39.0075H485.088V39.7287H483.399ZM484.434 38.1914C484.231 38.1914 484.079 38.1376 483.978 38.03C483.883 37.9225 483.836 37.7865 483.836 37.622C483.836 37.4575 483.883 37.3215 483.978 37.2139C484.079 37.1064 484.231 37.0526 484.434 37.0526C484.636 37.0526 484.785 37.1064 484.88 37.2139C484.981 37.3215 485.031 37.4575 485.031 37.622C485.031 37.7865 484.981 37.9225 484.88 38.03C484.785 38.1376 484.636 38.1914 484.434 38.1914Z" fill="#121212"/>
<path d="M488.824 44.1318C488.444 44.1318 488.115 44.078 487.837 43.9705C487.565 43.8629 487.353 43.6795 487.201 43.4201C487.055 43.1544 486.983 42.7969 486.983 42.3478V37.4701H487.856V42.4616C487.856 42.7337 487.928 42.9456 488.074 43.0974C488.226 43.2429 488.438 43.3157 488.71 43.3157H489.602V44.1318H488.824ZM486.11 39.6907V39.0075H489.602V39.6907H486.11Z" fill="#121212"/>
<path d="M491.137 44.0749V39.0075H492.048V44.0749H491.137ZM490.359 39.7287V39.0075H492.048V39.7287H490.359ZM491.393 38.1914C491.191 38.1914 491.039 38.1376 490.938 38.03C490.843 37.9225 490.795 37.7865 490.795 37.622C490.795 37.4575 490.843 37.3215 490.938 37.2139C491.039 37.1064 491.191 37.0526 491.393 37.0526C491.596 37.0526 491.744 37.1064 491.839 37.2139C491.94 37.3215 491.991 37.4575 491.991 37.622C491.991 37.7865 491.94 37.9225 491.839 38.03C491.744 38.1376 491.596 38.1914 491.393 38.1914Z" fill="#121212"/>
<path d="M495.964 44.2457C495.521 44.2457 495.138 44.1698 494.815 44.0179C494.493 43.8661 494.23 43.6668 494.028 43.4201C493.825 43.167 493.673 42.8855 493.572 42.5755C493.477 42.2655 493.43 41.9492 493.43 41.6266V41.4557C493.43 41.1268 493.477 40.8073 493.572 40.4973C493.673 40.1873 493.825 39.909 494.028 39.6622C494.23 39.4092 494.486 39.2099 494.796 39.0644C495.113 38.9126 495.483 38.8366 495.907 38.8366C496.457 38.8366 496.909 38.9568 497.264 39.1972C497.624 39.4313 497.89 39.735 498.061 40.1082C498.238 40.4815 498.326 40.8801 498.326 41.3039V41.712H493.828V41.0287H497.662L497.453 41.3988C497.453 41.0382 497.396 40.7282 497.283 40.4688C497.169 40.2031 496.998 39.9975 496.77 39.852C496.542 39.7065 496.255 39.6338 495.907 39.6338C495.546 39.6338 495.245 39.716 495.005 39.8805C494.771 40.045 494.594 40.2696 494.474 40.5542C494.36 40.8389 494.303 41.1679 494.303 41.5412C494.303 41.9018 494.36 42.2276 494.474 42.5186C494.594 42.8033 494.777 43.031 495.024 43.2018C495.271 43.3663 495.584 43.4486 495.964 43.4486C496.362 43.4486 496.685 43.36 496.931 43.1828C497.185 43.0057 497.336 42.8001 497.387 42.566H498.241C498.171 42.914 498.032 43.2145 497.823 43.4675C497.615 43.7206 497.352 43.9135 497.036 44.0464C496.72 44.1792 496.362 44.2457 495.964 44.2457Z" fill="#121212"/>
<path d="M501.281 44.2267C500.616 44.2267 500.101 44.0844 499.734 43.7997C499.373 43.515 499.187 43.1259 499.174 42.6325H500.028C500.041 42.8286 500.139 43.0152 500.322 43.1923C500.512 43.3631 500.831 43.4486 501.281 43.4486C501.685 43.4486 501.995 43.3695 502.211 43.2113C502.426 43.0468 502.533 42.8475 502.533 42.6135C502.533 42.4047 502.454 42.2434 502.296 42.1295C502.138 42.0093 501.882 41.9302 501.527 41.8923L500.977 41.8353C500.496 41.7847 500.104 41.6424 499.8 41.4083C499.497 41.1679 499.345 40.8326 499.345 40.4024C499.345 40.0798 499.427 39.8046 499.591 39.5768C499.756 39.3427 499.984 39.1656 500.275 39.0454C500.566 38.9189 500.901 38.8556 501.281 38.8556C501.85 38.8556 502.312 38.9821 502.666 39.2352C503.02 39.4883 503.204 39.8647 503.216 40.3645H502.362C502.356 40.162 502.261 39.9912 502.078 39.852C501.901 39.7065 501.635 39.6338 501.281 39.6338C500.926 39.6338 500.657 39.7065 500.474 39.852C500.29 39.9975 500.199 40.181 500.199 40.4024C500.199 40.5922 500.262 40.744 500.389 40.8579C500.521 40.9718 500.736 41.0445 501.034 41.0762L501.584 41.1331C502.128 41.19 502.565 41.3419 502.894 41.5886C503.223 41.829 503.387 42.1706 503.387 42.6135C503.387 42.9298 503.296 43.2113 503.112 43.458C502.935 43.6984 502.688 43.8882 502.372 44.0274C502.056 44.1603 501.692 44.2267 501.281 44.2267Z" fill="#121212"/>
<path d="M508.841 44.1318C508.461 44.1318 508.132 44.078 507.854 43.9705C507.582 43.8629 507.37 43.6795 507.218 43.4201C507.072 43.1544 507 42.7969 507 42.3478V37.4701H507.873V42.4616C507.873 42.7337 507.945 42.9456 508.091 43.0974C508.243 43.2429 508.455 43.3157 508.727 43.3157H509.619V44.1318H508.841ZM506.127 39.6907V39.0075H509.619V39.6907H506.127Z" fill="#121212"/>
<path d="M510.907 44.0749V37.1475H511.818V41.2849H511.59C511.59 40.7852 511.654 40.355 511.78 39.9944C511.913 39.6274 512.116 39.3459 512.388 39.1498C512.66 38.9537 513.008 38.8556 513.431 38.8556H513.469C514.077 38.8556 514.535 39.0581 514.845 39.4629C515.155 39.8615 515.31 40.434 515.31 41.1806V44.0749H514.399V40.9908C514.399 40.5795 514.282 40.2601 514.048 40.0323C513.821 39.8046 513.523 39.6907 513.156 39.6907C512.751 39.6907 512.426 39.8267 512.179 40.0987C511.938 40.3645 511.818 40.7156 511.818 41.1521V44.0749H510.907Z" fill="#121212"/>
<path d="M520.042 44.0749V42.5565H519.891V40.801C519.891 40.453 519.799 40.1905 519.615 40.0133C519.438 39.8362 519.176 39.7476 518.828 39.7476C518.632 39.7476 518.429 39.7508 518.22 39.7571C518.012 39.7635 517.812 39.7698 517.622 39.7761C517.433 39.7824 517.268 39.7919 517.129 39.8046V39.0075C517.268 38.9948 517.414 38.9853 517.566 38.979C517.724 38.9663 517.885 38.96 518.05 38.96C518.214 38.9537 518.372 38.9505 518.524 38.9505C519.043 38.9505 519.467 39.0138 519.796 39.1403C520.125 39.2605 520.368 39.4598 520.526 39.7381C520.684 40.0165 520.764 40.3929 520.764 40.8674V44.0749H520.042ZM518.382 44.2077C518.002 44.2077 517.673 44.1445 517.395 44.0179C517.123 43.8851 516.911 43.6953 516.759 43.4486C516.613 43.2018 516.541 42.9045 516.541 42.5565C516.541 42.1959 516.62 41.8954 516.778 41.655C516.942 41.4146 517.18 41.2343 517.49 41.1141C517.8 40.9876 518.173 40.9243 518.609 40.9243H519.985V41.6076H518.571C518.204 41.6076 517.923 41.6962 517.727 41.8733C517.531 42.0504 517.433 42.2782 517.433 42.5565C517.433 42.8349 517.531 43.0595 517.727 43.2303C517.923 43.4011 518.204 43.4865 518.571 43.4865C518.787 43.4865 518.992 43.4486 519.188 43.3726C519.384 43.2904 519.546 43.1575 519.672 42.9741C519.805 42.7843 519.878 42.5249 519.891 42.1959L520.137 42.5565C520.106 42.9171 520.017 43.2208 519.872 43.4675C519.732 43.7079 519.536 43.8914 519.283 44.0179C519.036 44.1445 518.736 44.2077 518.382 44.2077Z" fill="#121212"/>
<path d="M522.436 44.0749V39.0075H523.157V41.1806H523.043C523.043 40.6808 523.109 40.2601 523.242 39.9184C523.381 39.5705 523.59 39.308 523.868 39.1308C524.147 38.9473 524.498 38.8556 524.922 38.8556H524.96C525.599 38.8556 526.07 39.0549 526.374 39.4535C526.684 39.852 526.839 40.4277 526.839 41.1806V44.0749H525.928V40.9908C525.928 40.5985 525.817 40.2854 525.596 40.0513C525.374 39.8109 525.07 39.6907 524.685 39.6907C524.286 39.6907 523.963 39.8141 523.717 40.0608C523.47 40.3075 523.347 40.6365 523.347 41.0477V44.0749H522.436Z" fill="#121212"/>
<path d="M320.784 60.3426V53.4153H321.695V60.3426H320.784ZM320.082 54.1365V53.4153H321.695V54.1365H320.082Z" fill="#121212"/>
<path d="M326.508 60.3426V58.8243H326.356V57.0687C326.356 56.7208 326.264 56.4582 326.081 56.2811C325.904 56.104 325.641 56.0154 325.293 56.0154C325.097 56.0154 324.895 56.0186 324.686 56.0249C324.477 56.0312 324.278 56.0375 324.088 56.0439C323.898 56.0502 323.734 56.0597 323.594 56.0723V55.2752C323.734 55.2626 323.879 55.2531 324.031 55.2468C324.189 55.2341 324.35 55.2278 324.515 55.2278C324.679 55.2214 324.838 55.2183 324.989 55.2183C325.508 55.2183 325.932 55.2815 326.261 55.4081C326.59 55.5283 326.834 55.7276 326.992 56.0059C327.15 56.2843 327.229 56.6607 327.229 57.1352V60.3426H326.508ZM324.847 60.4755C324.467 60.4755 324.139 60.4122 323.86 60.2857C323.588 60.1528 323.376 59.963 323.224 59.7163C323.079 59.4696 323.006 59.1723 323.006 58.8243C323.006 58.4637 323.085 58.1632 323.243 57.9228C323.408 57.6824 323.645 57.5021 323.955 57.3819C324.265 57.2554 324.638 57.1921 325.075 57.1921H326.451V57.8754H325.037C324.67 57.8754 324.388 57.9639 324.192 58.1411C323.996 58.3182 323.898 58.5459 323.898 58.8243C323.898 59.1027 323.996 59.3273 324.192 59.4981C324.388 59.6689 324.67 59.7543 325.037 59.7543C325.252 59.7543 325.458 59.7163 325.654 59.6404C325.85 59.5582 326.011 59.4253 326.138 59.2418C326.271 59.0521 326.343 58.7927 326.356 58.4637L326.603 58.8243C326.571 59.1849 326.482 59.4886 326.337 59.7353C326.198 59.9757 326.002 60.1592 325.749 60.2857C325.502 60.4122 325.201 60.4755 324.847 60.4755Z" fill="#121212"/>
<path d="M330.562 60.4945C329.897 60.4945 329.382 60.3521 329.015 60.0674C328.654 59.7827 328.468 59.3937 328.455 58.9002H329.309C329.322 59.0963 329.42 59.283 329.603 59.4601C329.793 59.6309 330.112 59.7163 330.562 59.7163C330.966 59.7163 331.277 59.6372 331.492 59.4791C331.707 59.3146 331.814 59.1153 331.814 58.8812C331.814 58.6725 331.735 58.5111 331.577 58.3973C331.419 58.2771 331.163 58.198 330.808 58.16L330.258 58.1031C329.777 58.0525 329.385 57.9101 329.081 57.6761C328.778 57.4357 328.626 57.1004 328.626 56.6702C328.626 56.3475 328.708 56.0723 328.872 55.8446C329.037 55.6105 329.265 55.4334 329.556 55.3132C329.847 55.1867 330.182 55.1234 330.562 55.1234C331.131 55.1234 331.593 55.2499 331.947 55.503C332.301 55.756 332.485 56.1324 332.497 56.6322H331.643C331.637 56.4298 331.542 56.259 331.359 56.1198C331.182 55.9743 330.916 55.9015 330.562 55.9015C330.207 55.9015 329.938 55.9743 329.755 56.1198C329.572 56.2653 329.48 56.4488 329.48 56.6702C329.48 56.86 329.543 57.0118 329.67 57.1257C329.802 57.2396 330.018 57.3123 330.315 57.3439L330.865 57.4009C331.409 57.4578 331.846 57.6096 332.175 57.8564C332.504 58.0968 332.668 58.4384 332.668 58.8812C332.668 59.1976 332.577 59.4791 332.393 59.7258C332.216 59.9662 331.969 60.156 331.653 60.2952C331.337 60.428 330.973 60.4945 330.562 60.4945Z" fill="#121212"/>
<path d="M335.962 60.3996C335.583 60.3996 335.254 60.3458 334.976 60.2382C334.703 60.1307 334.492 59.9472 334.34 59.6879C334.194 59.4221 334.121 59.0647 334.121 58.6155V53.7379H334.995V58.7294C334.995 59.0014 335.067 59.2134 335.213 59.3652C335.365 59.5107 335.577 59.5835 335.849 59.5835H336.741V60.3996H335.962ZM333.248 55.9585V55.2752H336.741V55.9585H333.248Z" fill="#121212"/>
<path d="M340.188 60.3426V55.2752H340.91V57.4483H340.796C340.796 56.9549 340.859 56.5373 340.985 56.1957C341.118 55.8478 341.314 55.582 341.574 55.3986C341.833 55.2151 342.162 55.1234 342.561 55.1234H342.599C342.997 55.1234 343.326 55.2151 343.586 55.3986C343.851 55.582 344.047 55.8478 344.174 56.1957C344.3 56.5373 344.364 56.9549 344.364 57.4483H344.098C344.098 56.9549 344.164 56.5373 344.297 56.1957C344.43 55.8478 344.626 55.582 344.886 55.3986C345.151 55.2151 345.483 55.1234 345.882 55.1234H345.92C346.319 55.1234 346.651 55.2151 346.916 55.3986C347.182 55.582 347.378 55.8478 347.505 56.1957C347.638 56.5373 347.704 56.9549 347.704 57.4483V60.3426H346.793V57.249C346.793 56.8378 346.692 56.5215 346.489 56.3001C346.287 56.0723 346.005 55.9585 345.645 55.9585C345.272 55.9585 344.971 56.0787 344.743 56.3191C344.516 56.5531 344.402 56.8821 344.402 57.306V60.3426H343.491V57.249C343.491 56.8378 343.389 56.5215 343.187 56.3001C342.985 56.0723 342.703 55.9585 342.342 55.9585C341.969 55.9585 341.669 56.0787 341.441 56.3191C341.213 56.5531 341.099 56.8821 341.099 57.306V60.3426H340.188Z" fill="#121212"/>
<path d="M351.706 60.5134C351.264 60.5134 350.875 60.4375 350.539 60.2857C350.204 60.1339 349.919 59.9346 349.685 59.6879C349.457 59.4348 349.283 59.1533 349.163 58.8433C349.049 58.5333 348.992 58.217 348.992 57.8943V57.7235C348.992 57.4009 349.053 57.0846 349.173 56.7746C349.293 56.4582 349.47 56.1767 349.704 55.93C349.938 55.6769 350.223 55.4777 350.558 55.3322C350.894 55.1803 351.276 55.1044 351.706 55.1044C352.137 55.1044 352.519 55.1803 352.855 55.3322C353.19 55.4777 353.475 55.6769 353.709 55.93C353.943 56.1767 354.12 56.4582 354.24 56.7746C354.36 57.0846 354.42 57.4009 354.42 57.7235V57.8943C354.42 58.217 354.36 58.5333 354.24 58.8433C354.126 59.1533 353.952 59.4348 353.718 59.6879C353.49 59.9346 353.209 60.1339 352.874 60.2857C352.538 60.4375 352.149 60.5134 351.706 60.5134ZM351.706 59.6973C352.086 59.6973 352.409 59.6151 352.674 59.4506C352.946 59.2798 353.152 59.0521 353.291 58.7674C353.437 58.4827 353.509 58.1632 353.509 57.8089C353.509 57.4483 353.437 57.1257 353.291 56.841C353.146 56.5563 352.937 56.3317 352.665 56.1672C352.399 56.0028 352.08 55.9205 351.706 55.9205C351.34 55.9205 351.02 56.0028 350.748 56.1672C350.476 56.3317 350.267 56.5563 350.122 56.841C349.976 57.1257 349.903 57.4483 349.903 57.8089C349.903 58.1632 349.973 58.4827 350.112 58.7674C350.258 59.0521 350.463 59.2798 350.729 59.4506C351.001 59.6151 351.327 59.6973 351.706 59.6973Z" fill="#121212"/>
<path d="M355.785 60.3426V55.2752H356.506V57.4483H356.392C356.392 56.9485 356.459 56.5278 356.591 56.1862C356.731 55.8383 356.939 55.5757 357.218 55.3986C357.496 55.2151 357.847 55.1234 358.271 55.1234H358.309C358.948 55.1234 359.419 55.3227 359.723 55.7212C360.033 56.1198 360.188 56.6955 360.188 57.4483V60.3426H359.277V57.2585C359.277 56.8663 359.166 56.5531 358.945 56.3191C358.723 56.0787 358.42 55.9585 358.034 55.9585C357.635 55.9585 357.313 56.0818 357.066 56.3286C356.819 56.5753 356.696 56.9043 356.696 57.3155V60.3426H355.785Z" fill="#121212"/>
<path d="M363.829 60.3996C363.449 60.3996 363.12 60.3458 362.842 60.2382C362.57 60.1307 362.358 59.9472 362.206 59.6879C362.06 59.4221 361.988 59.0647 361.988 58.6155V53.7379H362.861V58.7294C362.861 59.0014 362.933 59.2134 363.079 59.3652C363.231 59.5107 363.443 59.5835 363.715 59.5835H364.607V60.3996H363.829ZM361.115 55.9585V55.2752H364.607V55.9585H361.115Z" fill="#121212"/>
<path d="M365.895 60.3426V53.4153H366.806V57.5527H366.579C366.579 57.0529 366.642 56.6227 366.768 56.2621C366.901 55.8952 367.104 55.6137 367.376 55.4176C367.648 55.2214 367.996 55.1234 368.42 55.1234H368.457C369.065 55.1234 369.523 55.3258 369.833 55.7307C370.143 56.1293 370.298 56.7018 370.298 57.4483V60.3426H369.387V57.2585C369.387 56.8473 369.27 56.5278 369.036 56.3001C368.809 56.0723 368.511 55.9585 368.144 55.9585C367.739 55.9585 367.414 56.0945 367.167 56.3665C366.927 56.6322 366.806 56.9833 366.806 57.4199V60.3426H365.895Z" fill="#121212"/>
<path d="M371.785 60.3426V59.1849H372.886V60.3426H371.785Z" fill="#121212"/>
<path d="M513.991 28.9933H519.438V29.4678H513.991V28.9933ZM319.854 45.2611H364.104V45.7355H319.854V45.2611Z" fill="#121212"/>
<path d="M17.7999 144.425V143.522H19.1583C19.4891 143.522 19.7846 143.471 20.0449 143.368C20.3052 143.259 20.5275 143.11 20.7119 142.921C20.8962 142.731 21.0345 142.508 21.1267 142.254C21.2243 141.993 21.2731 141.714 21.2731 141.416C21.2731 141.096 21.2243 140.808 21.1267 140.554C21.0345 140.299 20.8962 140.079 20.7119 139.895C20.5275 139.71 20.3052 139.569 20.0449 139.472C19.7846 139.369 19.4891 139.317 19.1583 139.317H17.7999V138.414H19.077C19.6138 138.414 20.0801 138.496 20.476 138.658C20.8773 138.821 21.2107 139.041 21.4765 139.317C21.7422 139.594 21.9401 139.906 22.0702 140.253C22.2004 140.6 22.2654 140.958 22.2654 141.326V141.505C22.2654 141.852 22.2004 142.202 22.0702 142.555C21.9401 142.902 21.7422 143.216 21.4765 143.498C21.2107 143.775 20.8773 144 20.476 144.173C20.0801 144.341 19.6138 144.425 19.077 144.425H17.7999ZM16.9866 144.425V138.414H17.9626V144.425H16.9866Z" fill="#121212"/>
<path d="M23.3968 144.393V138.455H24.3647V144.393H23.3968ZM24.202 144.393V143.547H26.9838V144.393H24.202ZM24.202 141.798V140.952H26.756V141.798H24.202ZM24.202 139.301V138.455H26.9106V139.301H24.202Z" fill="#121212"/>
<path d="M30.8376 144.539C30.2953 144.539 29.8317 144.447 29.4467 144.263C29.0671 144.073 28.758 143.826 28.5194 143.522C28.2863 143.213 28.1128 142.883 27.9989 142.53C27.8904 142.172 27.8362 141.828 27.8362 141.497V141.318C27.8362 140.955 27.8931 140.594 28.007 140.236C28.1209 139.878 28.2944 139.553 28.5276 139.26C28.7662 138.967 29.0726 138.732 29.4467 138.553C29.8263 138.374 30.2737 138.284 30.7888 138.284C31.3256 138.284 31.7893 138.379 32.1797 138.569C32.5701 138.759 32.8792 139.024 33.107 139.366C33.3401 139.702 33.4784 140.101 33.5218 140.562H32.5376C32.4942 140.258 32.3912 140.006 32.2285 139.805C32.0712 139.599 31.8679 139.445 31.6185 139.342C31.3744 139.239 31.0979 139.187 30.7888 139.187C30.4689 139.187 30.1842 139.244 29.9347 139.358C29.6907 139.472 29.4874 139.629 29.3247 139.83C29.162 140.03 29.0373 140.266 28.9505 140.537C28.8692 140.803 28.8285 141.096 28.8285 141.416C28.8285 141.719 28.8692 142.007 28.9505 142.278C29.0373 142.544 29.1647 142.78 29.3328 142.986C29.5009 143.192 29.7097 143.352 29.9591 143.466C30.214 143.579 30.5068 143.636 30.8376 143.636C31.3148 143.636 31.7161 143.52 32.0414 143.287C32.3668 143.048 32.5647 142.709 32.6352 142.27H33.6275C33.5733 142.687 33.4323 143.07 33.2046 143.417C32.9768 143.758 32.665 144.032 32.2692 144.238C31.8733 144.439 31.3961 144.539 30.8376 144.539Z" fill="#121212"/>
<path d="M37.2842 144.393V139.008L37.642 139.285H36.0153V138.455H38.244V144.393H37.2842Z" fill="#121212"/>
<path d="M42.1877 144.539C41.7376 144.539 41.3526 144.463 41.0327 144.311C40.7127 144.154 40.4524 143.943 40.2518 143.677C40.0566 143.411 39.9129 143.105 39.8207 142.758C39.7285 142.405 39.6824 142.034 39.6824 141.644V141.196C39.6824 140.654 39.7692 140.163 39.9427 139.724C40.1217 139.285 40.3955 138.935 40.7642 138.675C41.1384 138.414 41.6129 138.284 42.1877 138.284C42.7679 138.284 43.2397 138.414 43.603 138.675C43.9717 138.935 44.2456 139.285 44.4245 139.724C44.6034 140.163 44.6929 140.654 44.6929 141.196V141.644C44.6929 142.034 44.6468 142.405 44.5546 142.758C44.4625 143.105 44.316 143.411 44.1154 143.677C43.9202 143.943 43.6626 144.154 43.3427 144.311C43.0282 144.463 42.6432 144.539 42.1877 144.539ZM42.1877 143.653C42.7137 143.653 43.0987 143.476 43.3427 143.124C43.5921 142.766 43.7169 142.202 43.7169 141.432C43.7169 140.624 43.5894 140.047 43.3346 139.7C43.0851 139.347 42.7028 139.171 42.1877 139.171C41.6725 139.171 41.2875 139.347 41.0327 139.7C40.7832 140.047 40.6585 140.619 40.6585 141.416C40.6585 142.191 40.7832 142.758 41.0327 143.116C41.2821 143.474 41.6671 143.653 42.1877 143.653Z" fill="#121212"/>
<path d="M46.1489 145.71L45.4006 145.418L46.1896 143.189L46.9867 143.49L46.1489 145.71Z" fill="#121212"/>
<path d="M49.7791 144.393V143.335C49.7791 143.091 49.8143 142.883 49.8848 142.709C49.9607 142.53 50.0854 142.37 50.259 142.229C50.4325 142.088 50.6657 141.953 50.9585 141.822L52.0159 141.343C52.2816 141.223 52.4849 141.074 52.6259 140.895C52.7723 140.711 52.8455 140.475 52.8455 140.188C52.8455 139.857 52.7506 139.596 52.5609 139.407C52.3711 139.211 52.0999 139.114 51.7475 139.114C51.4004 139.114 51.1293 139.211 50.9341 139.407C50.7443 139.596 50.6494 139.862 50.6494 140.204H49.7059C49.7059 139.851 49.7791 139.531 49.9255 139.244C50.0773 138.951 50.3051 138.718 50.6087 138.545C50.9124 138.371 51.292 138.284 51.7475 138.284C52.203 138.284 52.5798 138.371 52.8781 138.545C53.1817 138.713 53.4068 138.938 53.5532 139.22C53.705 139.496 53.7809 139.8 53.7809 140.131V140.244C53.7809 140.678 53.6562 141.044 53.4068 141.343C53.1628 141.635 52.8157 141.882 52.3657 142.083L51.3001 142.563C51.0832 142.66 50.9341 142.761 50.8527 142.864C50.7714 142.967 50.7307 143.102 50.7307 143.27V143.905L50.4867 143.563H53.8379V144.393H49.7791Z" fill="#121212"/>
<path d="M57.3196 144.539C56.8695 144.539 56.4845 144.463 56.1646 144.311C55.8446 144.154 55.5843 143.943 55.3837 143.677C55.1885 143.411 55.0448 143.105 54.9526 142.758C54.8604 142.405 54.8143 142.034 54.8143 141.644V141.196C54.8143 140.654 54.9011 140.163 55.0746 139.724C55.2536 139.285 55.5274 138.935 55.8961 138.675C56.2703 138.414 56.7448 138.284 57.3196 138.284C57.8998 138.284 58.3715 138.414 58.7349 138.675C59.1036 138.935 59.3774 139.285 59.5564 139.724C59.7353 140.163 59.8248 140.654 59.8248 141.196V141.644C59.8248 142.034 59.7787 142.405 59.6865 142.758C59.5943 143.105 59.4479 143.411 59.2473 143.677C59.0521 143.943 58.7945 144.154 58.4746 144.311C58.1601 144.463 57.7751 144.539 57.3196 144.539ZM57.3196 143.653C57.8456 143.653 58.2306 143.476 58.4746 143.124C58.724 142.766 58.8487 142.202 58.8487 141.432C58.8487 140.624 58.7213 140.047 58.4664 139.7C58.217 139.347 57.8347 139.171 57.3196 139.171C56.8044 139.171 56.4194 139.347 56.1646 139.7C55.9151 140.047 55.7904 140.619 55.7904 141.416C55.7904 142.191 55.9151 142.758 56.1646 143.116C56.414 143.474 56.799 143.653 57.3196 143.653Z" fill="#121212"/>
<path d="M60.9473 144.393V143.335C60.9473 143.091 60.9825 142.883 61.053 142.709C61.1289 142.53 61.2537 142.37 61.4272 142.229C61.6007 142.088 61.8339 141.953 62.1267 141.822L63.1841 141.343C63.4498 141.223 63.6532 141.074 63.7941 140.895C63.9405 140.711 64.0138 140.475 64.0138 140.188C64.0138 139.857 63.9189 139.596 63.7291 139.407C63.5393 139.211 63.2681 139.114 62.9157 139.114C62.5686 139.114 62.2975 139.211 62.1023 139.407C61.9125 139.596 61.8176 139.862 61.8176 140.204H60.8741C60.8741 139.851 60.9473 139.531 61.0937 139.244C61.2455 138.951 61.4733 138.718 61.7769 138.545C62.0806 138.371 62.4602 138.284 62.9157 138.284C63.3712 138.284 63.7481 138.371 64.0463 138.545C64.35 138.713 64.575 138.938 64.7214 139.22C64.8732 139.496 64.9492 139.8 64.9492 140.131V140.244C64.9492 140.678 64.8244 141.044 64.575 141.343C64.331 141.635 63.9839 141.882 63.5339 142.083L62.4683 142.563C62.2514 142.66 62.1023 142.761 62.021 142.864C61.9396 142.967 61.8989 143.102 61.8989 143.27V143.905L61.6549 143.563H65.0061V144.393H60.9473Z" fill="#121212"/>
<path d="M68.4878 144.539C68.0377 144.539 67.6527 144.463 67.3328 144.311C67.0128 144.154 66.7525 143.943 66.5519 143.677C66.3567 143.411 66.213 143.105 66.1208 142.758C66.0286 142.405 65.9825 142.034 65.9825 141.644V141.196C65.9825 140.654 66.0693 140.163 66.2428 139.724C66.4218 139.285 66.6956 138.935 67.0643 138.675C67.4385 138.414 67.913 138.284 68.4878 138.284C69.068 138.284 69.5398 138.414 69.9031 138.675C70.2718 138.935 70.5456 139.285 70.7246 139.724C70.9035 140.163 70.993 140.654 70.993 141.196V141.644C70.993 142.034 70.9469 142.405 70.8547 142.758C70.7626 143.105 70.6161 143.411 70.4155 143.677C70.2203 143.943 69.9627 144.154 69.6428 144.311C69.3283 144.463 68.9433 144.539 68.4878 144.539ZM68.4878 143.653C69.0138 143.653 69.3988 143.476 69.6428 143.124C69.8922 142.766 70.0169 142.202 70.0169 141.432C70.0169 140.624 69.8895 140.047 69.6346 139.7C69.3852 139.347 69.0029 139.171 68.4878 139.171C67.9726 139.171 67.5876 139.347 67.3328 139.7C67.0833 140.047 66.9586 140.619 66.9586 141.416C66.9586 142.191 67.0833 142.758 67.3328 143.116C67.5822 143.474 67.9672 143.653 68.4878 143.653Z" fill="#121212"/>
<path d="M20.3024 120.794L16.5283 113.538H18.1876L21.3761 119.753L20.7579 119.574H22.6775L22.0268 119.753L25.0201 113.538H26.5818L23.0354 120.794H20.3024ZM20.8881 125.414V120.468H22.4498V125.414H20.8881Z" fill="#121212"/>
<path d="M31.4732 125.707C30.714 125.707 30.0471 125.576 29.4723 125.316C28.8975 125.056 28.4094 124.714 28.0082 124.291C27.6177 123.857 27.3195 123.375 27.1134 122.843C26.9182 122.312 26.8206 121.77 26.8206 121.217V120.924C26.8206 120.371 26.9236 119.828 27.1297 119.297C27.3358 118.755 27.6394 118.272 28.0407 117.849C28.442 117.415 28.93 117.074 29.5048 116.824C30.0796 116.564 30.7357 116.434 31.4732 116.434C32.2107 116.434 32.8668 116.564 33.4416 116.824C34.0164 117.074 34.5044 117.415 34.9057 117.849C35.307 118.272 35.6106 118.755 35.8167 119.297C36.0227 119.828 36.1258 120.371 36.1258 120.924V121.217C36.1258 121.77 36.0227 122.312 35.8167 122.843C35.6215 123.375 35.3232 123.857 34.922 124.291C34.5315 124.714 34.0489 125.056 33.4741 125.316C32.8993 125.576 32.2324 125.707 31.4732 125.707ZM31.4732 124.307C32.1239 124.307 32.677 124.167 33.1325 123.885C33.5988 123.592 33.9513 123.201 34.1899 122.713C34.4393 122.225 34.5641 121.678 34.5641 121.07C34.5641 120.452 34.4393 119.899 34.1899 119.411C33.9405 118.923 33.5826 118.538 33.1162 118.256C32.6607 117.974 32.1131 117.833 31.4732 117.833C30.8442 117.833 30.2965 117.974 29.8301 118.256C29.3638 118.538 29.0059 118.923 28.7565 119.411C28.507 119.899 28.3823 120.452 28.3823 121.07C28.3823 121.678 28.5016 122.225 28.7402 122.713C28.9896 123.201 29.3421 123.592 29.7976 123.885C30.264 124.167 30.8225 124.307 31.4732 124.307Z" fill="#121212"/>
<path d="M41.4743 125.674C40.444 125.674 39.6523 125.338 39.0992 124.665C38.5461 123.993 38.2696 123.022 38.2696 121.753V116.71H39.8313V122.063C39.8313 122.746 40.0156 123.283 40.3844 123.673C40.7531 124.053 41.252 124.242 41.881 124.242C42.5317 124.242 43.0631 124.036 43.4752 123.624C43.8874 123.201 44.0934 122.626 44.0934 121.9V116.71H45.6551V125.414H44.4188V121.688H44.614C44.614 122.545 44.5001 123.272 44.2724 123.868C44.0446 124.454 43.703 124.904 43.2475 125.218C42.8028 125.522 42.2335 125.674 41.5394 125.674H41.4743Z" fill="#121212"/>
<path d="M47.964 118.484V117.638H48.1104C48.4575 117.638 48.734 117.578 48.9401 117.459C49.1461 117.339 49.2925 117.155 49.3793 116.906C49.4769 116.645 49.5257 116.32 49.5257 115.93V114.71L49.9161 115.442C49.8402 115.485 49.7372 115.517 49.6071 115.539C49.4878 115.561 49.3685 115.572 49.2492 115.572C48.9455 115.572 48.6906 115.48 48.4846 115.295C48.2894 115.1 48.1918 114.834 48.1918 114.498C48.1918 114.184 48.2839 113.923 48.4683 113.717C48.6635 113.511 48.9238 113.408 49.2492 113.408C49.4552 113.408 49.6504 113.457 49.8348 113.555C50.0192 113.652 50.171 113.826 50.2903 114.075C50.4096 114.325 50.4692 114.682 50.4692 115.149V115.49C50.4692 116.282 50.3716 116.895 50.1764 117.329C49.9812 117.762 49.7047 118.066 49.3468 118.24C48.9889 118.402 48.5659 118.484 48.0779 118.484H47.964Z" fill="#121212"/>
<path d="M52.6514 125.414V116.727H53.8878V120.306H53.8227C53.8227 119.037 54.0992 118.109 54.6524 117.524C55.2163 116.927 56.0568 116.629 57.1739 116.629H57.4667V118.028H56.9136C56.046 118.028 55.379 118.261 54.9126 118.728C54.4463 119.183 54.2131 119.845 54.2131 120.712V125.414H52.6514Z" fill="#121212"/>
<path d="M62.9212 125.707C62.162 125.707 61.5059 125.576 60.9528 125.316C60.3997 125.056 59.9496 124.714 59.6026 124.291C59.2555 123.857 58.9953 123.375 58.8217 122.843C58.659 122.312 58.5777 121.77 58.5777 121.217V120.924C58.5777 120.36 58.659 119.812 58.8217 119.281C58.9953 118.749 59.2555 118.272 59.6026 117.849C59.9496 117.415 60.3889 117.074 60.9203 116.824C61.4625 116.564 62.097 116.434 62.8236 116.434C63.7671 116.434 64.5426 116.64 65.1499 117.052C65.7681 117.453 66.2236 117.974 66.5164 118.614C66.8201 119.254 66.9719 119.937 66.9719 120.664V121.363H59.261V120.192H65.8331L65.4752 120.826C65.4752 120.208 65.3776 119.677 65.1824 119.232C64.9872 118.776 64.6944 118.424 64.304 118.175C63.9135 117.925 63.4201 117.8 62.8236 117.8C62.2054 117.8 61.6903 117.941 61.2782 118.223C60.8769 118.505 60.5732 118.89 60.3672 119.378C60.172 119.866 60.0743 120.43 60.0743 121.07C60.0743 121.688 60.172 122.247 60.3672 122.746C60.5732 123.234 60.8877 123.624 61.3107 123.917C61.7337 124.199 62.2705 124.34 62.9212 124.34C63.6045 124.34 64.1576 124.188 64.5805 123.885C65.0143 123.581 65.2746 123.228 65.3614 122.827H66.8255C66.7062 123.424 66.4676 123.939 66.1097 124.373C65.7518 124.806 65.3017 125.137 64.7595 125.365C64.2172 125.593 63.6045 125.707 62.9212 125.707Z" fill="#121212"/>
<path d="M72.8908 125.414V116.727H74.1272V120.452H73.9319C73.9319 119.606 74.0404 118.89 74.2573 118.305C74.4851 117.708 74.8213 117.253 75.2659 116.938C75.7106 116.624 76.2745 116.466 76.9577 116.466H77.0228C77.7061 116.466 78.27 116.624 78.7147 116.938C79.1702 117.253 79.5064 117.708 79.7233 118.305C79.9402 118.89 80.0486 119.606 80.0486 120.452H79.5931C79.5931 119.606 79.707 118.89 79.9348 118.305C80.1625 117.708 80.4987 117.253 80.9434 116.938C81.3989 116.624 81.9682 116.466 82.6515 116.466H82.7165C83.3998 116.466 83.9692 116.624 84.4247 116.938C84.8802 117.253 85.2164 117.708 85.4333 118.305C85.661 118.89 85.7749 119.606 85.7749 120.452V125.414H84.2132V120.11C84.2132 119.405 84.0397 118.863 83.6926 118.484C83.3456 118.093 82.8629 117.898 82.2448 117.898C81.6049 117.898 81.0898 118.104 80.6993 118.516C80.3089 118.917 80.1137 119.481 80.1137 120.208V125.414H78.552V120.11C78.552 119.405 78.3785 118.863 78.0314 118.484C77.6844 118.093 77.2018 117.898 76.5836 117.898C75.9437 117.898 75.4286 118.104 75.0382 118.516C74.6477 118.917 74.4525 119.481 74.4525 120.208V125.414H72.8908Z" fill="#121212"/>
<path d="M92.6362 125.707C91.877 125.707 91.2101 125.576 90.6353 125.316C90.0605 125.056 89.5724 124.714 89.1712 124.291C88.7807 123.857 88.4825 123.375 88.2764 122.843C88.0812 122.312 87.9836 121.77 87.9836 121.217V120.924C87.9836 120.371 88.0866 119.828 88.2927 119.297C88.4988 118.755 88.8024 118.272 89.2037 117.849C89.605 117.415 90.093 117.074 90.6678 116.824C91.2426 116.564 91.8987 116.434 92.6362 116.434C93.3737 116.434 94.0298 116.564 94.6046 116.824C95.1794 117.074 95.6674 117.415 96.0687 117.849C96.47 118.272 96.7736 118.755 96.9797 119.297C97.1857 119.828 97.2888 120.371 97.2888 120.924V121.217C97.2888 121.77 97.1857 122.312 96.9797 122.843C96.7845 123.375 96.4862 123.857 96.085 124.291C95.6945 124.714 95.2119 125.056 94.6371 125.316C94.0623 125.576 93.3954 125.707 92.6362 125.707ZM92.6362 124.307C93.2869 124.307 93.84 124.167 94.2955 123.885C94.7618 123.592 95.1143 123.201 95.3529 122.713C95.6023 122.225 95.7271 121.678 95.7271 121.07C95.7271 120.452 95.6023 119.899 95.3529 119.411C95.1035 118.923 94.7456 118.538 94.2792 118.256C93.8237 117.974 93.2761 117.833 92.6362 117.833C92.0072 117.833 91.4595 117.974 90.9931 118.256C90.5268 118.538 90.1689 118.923 89.9195 119.411C89.67 119.899 89.5453 120.452 89.5453 121.07C89.5453 121.678 89.6646 122.225 89.9032 122.713C90.1526 123.201 90.5051 123.592 90.9606 123.885C91.427 124.167 91.9855 124.307 92.6362 124.307Z" fill="#121212"/>
<path d="M99.6278 125.414V116.727H100.864V120.306H100.799C100.799 119.037 101.076 118.109 101.629 117.524C102.193 116.927 103.033 116.629 104.15 116.629H104.443V118.028H103.89C103.022 118.028 102.355 118.261 101.889 118.728C101.423 119.183 101.189 119.845 101.189 120.712V125.414H99.6278Z" fill="#121212"/>
<path d="M109.898 125.707C109.138 125.707 108.482 125.576 107.929 125.316C107.376 125.056 106.926 124.714 106.579 124.291C106.232 123.857 105.972 123.375 105.798 122.843C105.635 122.312 105.554 121.77 105.554 121.217V120.924C105.554 120.36 105.635 119.812 105.798 119.281C105.972 118.749 106.232 118.272 106.579 117.849C106.926 117.415 107.365 117.074 107.897 116.824C108.439 116.564 109.073 116.434 109.8 116.434C110.743 116.434 111.519 116.64 112.126 117.052C112.744 117.453 113.2 117.974 113.493 118.614C113.796 119.254 113.948 119.937 113.948 120.664V121.363H106.237V120.192H112.81L112.452 120.826C112.452 120.208 112.354 119.677 112.159 119.232C111.964 118.776 111.671 118.424 111.28 118.175C110.89 117.925 110.396 117.8 109.8 117.8C109.182 117.8 108.667 117.941 108.255 118.223C107.853 118.505 107.55 118.89 107.344 119.378C107.148 119.866 107.051 120.43 107.051 121.07C107.051 121.688 107.148 122.247 107.344 122.746C107.55 123.234 107.864 123.624 108.287 123.917C108.71 124.199 109.247 124.34 109.898 124.34C110.581 124.34 111.134 124.188 111.557 123.885C111.991 123.581 112.251 123.228 112.338 122.827H113.802C113.683 123.424 113.444 123.939 113.086 124.373C112.728 124.806 112.278 125.137 111.736 125.365C111.194 125.593 110.581 125.707 109.898 125.707Z" fill="#121212"/>
<path d="M119.867 128.667V116.727H121.104V120.485L120.811 120.452C120.865 119.519 121.06 118.76 121.396 118.175C121.743 117.578 122.193 117.139 122.747 116.857C123.3 116.575 123.902 116.434 124.552 116.434C125.181 116.434 125.751 116.553 126.26 116.792C126.781 117.03 127.226 117.356 127.594 117.768C127.963 118.18 128.245 118.657 128.44 119.199C128.636 119.742 128.733 120.316 128.733 120.924V121.217C128.733 121.824 128.63 122.399 128.424 122.941C128.218 123.483 127.925 123.96 127.546 124.373C127.177 124.785 126.732 125.11 126.212 125.349C125.702 125.587 125.138 125.707 124.52 125.707C123.902 125.707 123.311 125.571 122.747 125.3C122.183 125.029 121.716 124.589 121.348 123.982C120.979 123.375 120.767 122.578 120.713 121.591L121.429 122.892V128.667H119.867ZM124.276 124.34C124.861 124.34 125.371 124.204 125.805 123.933C126.239 123.651 126.575 123.266 126.814 122.778C127.052 122.279 127.171 121.71 127.171 121.07C127.171 120.419 127.052 119.85 126.814 119.362C126.575 118.874 126.239 118.494 125.805 118.223C125.371 117.941 124.861 117.8 124.276 117.8C123.755 117.8 123.273 117.92 122.828 118.158C122.383 118.386 122.025 118.722 121.754 119.167C121.494 119.601 121.364 120.127 121.364 120.745V121.493C121.364 122.09 121.499 122.599 121.771 123.022C122.042 123.445 122.4 123.771 122.844 123.998C123.289 124.226 123.766 124.34 124.276 124.34Z" fill="#121212"/>
<path d="M131.083 125.414V116.727H132.319V120.306H132.254C132.254 119.037 132.531 118.109 133.084 117.524C133.648 116.927 134.488 116.629 135.605 116.629H135.898V118.028H135.345C134.478 118.028 133.811 118.261 133.344 118.728C132.878 119.183 132.645 119.845 132.645 120.712V125.414H131.083Z" fill="#121212"/>
<path d="M141.662 125.707C140.903 125.707 140.236 125.576 139.661 125.316C139.086 125.056 138.598 124.714 138.197 124.291C137.806 123.857 137.508 123.375 137.302 122.843C137.107 122.312 137.009 121.77 137.009 121.217V120.924C137.009 120.371 137.112 119.828 137.318 119.297C137.524 118.755 137.828 118.272 138.229 117.849C138.631 117.415 139.119 117.074 139.694 116.824C140.268 116.564 140.924 116.434 141.662 116.434C142.399 116.434 143.056 116.564 143.63 116.824C144.205 117.074 144.693 117.415 145.094 117.849C145.496 118.272 145.799 118.755 146.005 119.297C146.211 119.828 146.314 120.371 146.314 120.924V121.217C146.314 121.77 146.211 122.312 146.005 122.843C145.81 123.375 145.512 123.857 145.111 124.291C144.72 124.714 144.238 125.056 143.663 125.316C143.088 125.576 142.421 125.707 141.662 125.707ZM141.662 124.307C142.313 124.307 142.866 124.167 143.321 123.885C143.788 123.592 144.14 123.201 144.379 122.713C144.628 122.225 144.753 121.678 144.753 121.07C144.753 120.452 144.628 119.899 144.379 119.411C144.129 118.923 143.771 118.538 143.305 118.256C142.849 117.974 142.302 117.833 141.662 117.833C141.033 117.833 140.485 117.974 140.019 118.256C139.553 118.538 139.195 118.923 138.945 119.411C138.696 119.899 138.571 120.452 138.571 121.07C138.571 121.678 138.69 122.225 138.929 122.713C139.178 123.201 139.531 123.592 139.986 123.885C140.453 124.167 141.011 124.307 141.662 124.307Z" fill="#121212"/>
<path d="M152.281 125.707C151.663 125.707 151.094 125.593 150.573 125.365C150.053 125.137 149.597 124.817 149.207 124.405C148.827 123.993 148.529 123.516 148.312 122.974C148.106 122.431 148.003 121.846 148.003 121.217V120.924C148.003 120.306 148.106 119.725 148.312 119.183C148.518 118.641 148.805 118.164 149.174 117.752C149.554 117.339 149.998 117.02 150.508 116.792C151.029 116.553 151.603 116.434 152.232 116.434C152.894 116.434 153.496 116.575 154.038 116.857C154.58 117.128 155.025 117.556 155.372 118.142C155.719 118.728 155.914 119.487 155.958 120.42L155.307 119.378V113.538H156.869V125.414H155.632V121.558H156.088C156.044 122.545 155.838 123.348 155.47 123.966C155.101 124.573 154.635 125.018 154.071 125.3C153.518 125.571 152.921 125.707 152.281 125.707ZM152.493 124.34C153.024 124.34 153.507 124.221 153.941 123.982C154.374 123.744 154.721 123.402 154.982 122.957C155.242 122.502 155.372 121.97 155.372 121.363V120.615C155.372 120.018 155.237 119.514 154.965 119.102C154.705 118.679 154.353 118.359 153.908 118.142C153.474 117.914 152.997 117.8 152.476 117.8C151.902 117.8 151.392 117.936 150.947 118.207C150.513 118.478 150.172 118.858 149.922 119.346C149.684 119.834 149.564 120.409 149.564 121.07C149.564 121.732 149.689 122.312 149.939 122.811C150.188 123.299 150.535 123.678 150.98 123.95C151.424 124.21 151.929 124.34 152.493 124.34Z" fill="#121212"/>
<path d="M162.879 125.674C161.849 125.674 161.057 125.338 160.504 124.665C159.951 123.993 159.674 123.022 159.674 121.753V116.71H161.236V122.063C161.236 122.746 161.42 123.283 161.789 123.673C162.158 124.053 162.657 124.242 163.286 124.242C163.936 124.242 164.468 124.036 164.88 123.624C165.292 123.201 165.498 122.626 165.498 121.9V116.71H167.06V125.414H165.823V121.688H166.019C166.019 122.545 165.905 123.272 165.677 123.868C165.449 124.454 165.108 124.904 164.652 125.218C164.207 125.522 163.638 125.674 162.944 125.674H162.879Z" fill="#121212"/>
<path d="M173.81 125.707C173.061 125.707 172.411 125.576 171.858 125.316C171.315 125.056 170.865 124.709 170.507 124.275C170.149 123.83 169.878 123.342 169.694 122.811C169.52 122.279 169.434 121.748 169.434 121.217V120.924C169.434 120.371 169.52 119.828 169.694 119.297C169.878 118.766 170.149 118.288 170.507 117.865C170.876 117.432 171.332 117.085 171.874 116.824C172.416 116.564 173.051 116.434 173.777 116.434C174.504 116.434 175.154 116.569 175.729 116.841C176.315 117.112 176.781 117.497 177.128 117.996C177.486 118.484 177.687 119.064 177.73 119.736H176.234C176.158 119.194 175.908 118.744 175.485 118.386C175.062 118.017 174.493 117.833 173.777 117.833C173.159 117.833 172.644 117.974 172.232 118.256C171.82 118.538 171.511 118.923 171.304 119.411C171.098 119.899 170.995 120.452 170.995 121.07C170.995 121.667 171.098 122.214 171.304 122.713C171.511 123.201 171.82 123.592 172.232 123.885C172.655 124.167 173.181 124.307 173.81 124.307C174.298 124.307 174.721 124.221 175.079 124.047C175.436 123.874 175.724 123.641 175.941 123.348C176.158 123.055 176.288 122.724 176.331 122.355H177.828C177.795 123.039 177.595 123.63 177.226 124.129C176.868 124.627 176.391 125.018 175.794 125.3C175.209 125.571 174.547 125.707 173.81 125.707Z" fill="#121212"/>
<path d="M183.334 125.511C182.683 125.511 182.119 125.419 181.642 125.235C181.175 125.05 180.812 124.736 180.552 124.291C180.302 123.836 180.178 123.223 180.178 122.453V114.091H181.674V122.648C181.674 123.115 181.799 123.478 182.048 123.738C182.309 123.988 182.672 124.112 183.138 124.112H184.668V125.511H183.334ZM178.681 117.898V116.727H184.668V117.898H178.681Z" fill="#121212"/>
<path d="M187.299 125.414V116.727H188.861V125.414H187.299ZM185.965 117.963V116.727H188.861V117.963H185.965ZM187.739 115.328C187.392 115.328 187.131 115.236 186.958 115.051C186.795 114.867 186.714 114.634 186.714 114.352C186.714 114.07 186.795 113.836 186.958 113.652C187.131 113.468 187.392 113.376 187.739 113.376C188.086 113.376 188.341 113.468 188.503 113.652C188.677 113.836 188.763 114.07 188.763 114.352C188.763 114.634 188.677 114.867 188.503 115.051C188.341 115.236 188.086 115.328 187.739 115.328Z" fill="#121212"/>
<path d="M193.735 125.414L190.774 116.727H192.401L195.297 125.414H193.735ZM194.126 125.414V124.177H196.013V125.414H194.126ZM194.874 125.414L197.395 116.727H198.925L196.354 125.414H194.874Z" fill="#121212"/>
<path d="M204.502 125.707C203.742 125.707 203.086 125.576 202.533 125.316C201.98 125.056 201.53 124.714 201.183 124.291C200.836 123.857 200.576 123.375 200.402 122.843C200.24 122.312 200.158 121.77 200.158 121.217V120.924C200.158 120.36 200.24 119.812 200.402 119.281C200.576 118.749 200.836 118.272 201.183 117.849C201.53 117.415 201.969 117.074 202.501 116.824C203.043 116.564 203.677 116.434 204.404 116.434C205.348 116.434 206.123 116.64 206.73 117.052C207.349 117.453 207.804 117.974 208.097 118.614C208.4 119.254 208.552 119.937 208.552 120.664V121.363H200.841V120.192H207.414L207.056 120.826C207.056 120.208 206.958 119.677 206.763 119.232C206.568 118.776 206.275 118.424 205.884 118.175C205.494 117.925 205.001 117.8 204.404 117.8C203.786 117.8 203.271 117.941 202.859 118.223C202.457 118.505 202.154 118.89 201.948 119.378C201.752 119.866 201.655 120.43 201.655 121.07C201.655 121.688 201.752 122.247 201.948 122.746C202.154 123.234 202.468 123.624 202.891 123.917C203.314 124.199 203.851 124.34 204.502 124.34C205.185 124.34 205.738 124.188 206.161 123.885C206.595 123.581 206.855 123.228 206.942 122.827H208.406C208.287 123.424 208.048 123.939 207.69 124.373C207.332 124.806 206.882 125.137 206.34 125.365C205.798 125.593 205.185 125.707 204.502 125.707Z" fill="#121212"/>
<path d="M210.884 121.867V113.538H212.478V121.867H210.884ZM210.737 125.414V123.429H212.624V125.414H210.737Z" fill="#121212"/>
<defs>
<filter id="filter0_d" x="0" y="0.0163574" width="645.866" height="168.678" filterUnits="userSpaceOnUse" color-interpolation-filters="sRGB">
<feFlood flood-opacity="0" result="BackgroundImageFix"/>
<feColorMatrix in="SourceAlpha" type="matrix" values="0 0 0 0 0 0 0 0 0 0 0 0 0 0 0 0 0 0 127 0"/>
<feOffset dx="6" dy="6"/>
<feColorMatrix type="matrix" values="0 0 0 0 0 0 0 0 0 0 0 0 0 0 0 0 0 0 0.05 0"/>
<feBlend mode="normal" in2="BackgroundImageFix" result="effect1_dropShadow"/>
<feBlend mode="normal" in="SourceGraphic" in2="effect1_dropShadow" result="shape"/>
</filter>
</defs>
</svg>
