<svg fill="none" height="170" viewBox="0 0 646 170" width="646" xmlns="http://www.w3.org/2000/svg" xmlns:xlink="http://www.w3.org/1999/xlink"><filter id="a" color-interpolation-filters="sRGB" filterUnits="userSpaceOnUse" height="168.678" width="645.866" x="0" y=".539062"><feFlood flood-opacity="0" result="BackgroundImageFix"/><feColorMatrix in="SourceAlpha" type="matrix" values="0 0 0 0 0 0 0 0 0 0 0 0 0 0 0 0 0 0 127 0"/><feOffset dx="6" dy="6"/><feColorMatrix type="matrix" values="0 0 0 0 0 0 0 0 0 0 0 0 0 0 0 0 0 0 0.05 0"/><feBlend in2="BackgroundImageFix" mode="normal" result="effect1_dropShadow"/><feBlend in="SourceGraphic" in2="effect1_dropShadow" mode="normal" result="shape"/></filter><g filter="url(#a)"><path d="m0 .539062h639.866v162.678h-639.866z" fill="#fff"/><path d="m.5 1.03906h638.866v161.678h-638.866z" stroke="#e5e5e5"/></g><path d="m57.0481 63.4136c2.0005-1.155-6.1443-13.6143-8.9035-13.6143s-8.881 12.3658-7.9426 13.9912c.9385 1.6254 4.5988-1.7188 5.5157-2.2482.9376 20.9329-12.5623 25.8693-25.0992 23.742-2.2799-.3869-2.5656 7.3654-.0001 7.3654 22.3459 1.2838 31.957-12.3347 30.2854-31.7116 2.342 1.1862 4.5776 3.3801 6.1443 2.4755z" fill="#a88dff"/><path clip-rule="evenodd" d="m22.6228 58.7668c-3.1355 0-5.6773 2.5418-5.6773 5.6772 0 1.6556.4052 3.0619 1.2691 4.0468.8498.9689 2.232 1.6305 4.4082 1.6305 2.2207 0 3.8035-.5717 4.7371-1.4928.9086-.8964 1.3135-2.235.9531-4.0526-.3788-1.9101-1.0492-3.3617-1.9802-4.3288-.9142-.9496-2.1251-1.4803-3.71-1.4803zm-7.033 5.6772c0-3.8841 3.1488-7.0329 7.033-7.0329 1.9248 0 3.4976.6608 4.6866 1.8958 1.1721 1.2175 1.9244 2.9434 2.3333 5.0053.4273 2.1544-.0251 3.9933-1.3307 5.2814-1.2808 1.2635-3.2694 1.8834-5.6892 1.8834-2.4644 0-4.2598-.761-5.4274-2.0923-1.1535-1.3151-1.6056-3.0864-1.6056-4.9407z" fill="#d287a5" fill-rule="evenodd"/><path clip-rule="evenodd" d="m50.9367 87.1707c.1912-.3219.6071-.4279.9289-.2367 3.0174 1.7922 9.0923 6.0033 13.0142 10.4154.2487.2798.2235.7082-.0563.9569-.2798.2488-.7083.2236-.957-.0562-3.7902-4.2641-9.7321-8.3918-12.6932-10.1505-.3218-.1912-.4278-.6071-.2366-.9289z" fill="#d287a5" fill-rule="evenodd"/><path clip-rule="evenodd" d="m63.9091 86.3628c.1936.3204.0907.7371-.2297.9307-1.8277 1.1042-4.2179 3.5006-6.3034 5.927-1.0338 1.2027-1.9768 2.3941-2.719 3.4059-.7519 1.0251-1.2706 1.8296-1.482 2.2699-.162.3375-.5669.4797-.9043.3177-.3375-.1619-.4798-.5669-.3178-.9043.2707-.564.8565-1.4565 1.611-2.4851.7641-1.0417 1.729-2.2603 2.784-3.4878 2.0919-2.4338 4.6021-4.9782 6.6305-6.2036.3204-.1936.7371-.0908.9307.2296z" fill="#d287a5" fill-rule="evenodd"/><g fill="#121212"><path d="m322.009 28.33-1.87-6.9273h.959l1.622 6.32-.446-.2277h1.13l-.494.2277 1.319-6.0353h.873l-1.509 6.6426zm4.165 0-1.66-6.6426h.901l1.49 6.0353-.474-.2277h1.138l-.484.2277 1.452-6.32h.93l-1.698 6.9273z"/><path d="m330.625 28.33v-6.9273h.911v4.1374h-.228c0-.4998.063-.93.19-1.2906.133-.3669.335-.6484.607-.8445s.62-.2942 1.044-.2942h.038c.607 0 1.066.2025 1.376.6073.31.3986.465.9711.465 1.7176v2.8943h-.911v-3.084c0-.4113-.117-.7307-.351-.9585-.228-.2277-.525-.3416-.892-.3416-.405 0-.731.136-.978.408-.24.2657-.36.6168-.36 1.0534v2.9227z"/><path d="m338.849 28.5009c-.443 0-.826-.076-1.148-.2278-.323-.1518-.586-.3511-.788-.5978-.202-.2531-.354-.5346-.456-.8446-.094-.31-.142-.6263-.142-.949v-.1708c0-.3289.048-.6484.142-.9584.102-.31.254-.5884.456-.8351.202-.253.459-.4523.769-.5978.316-.1519.686-.2278 1.11-.2278.55 0 1.003.1202 1.357.3606.36.2341.626.5378.797.911.177.3733.266.7718.266 1.1957v.408h-4.498v-.6832h3.833l-.208.3701c0-.3606-.057-.6706-.171-.93-.114-.2657-.285-.4713-.513-.6168-.227-.1455-.515-.2183-.863-.2183-.361 0-.661.0823-.902.2468-.234.1645-.411.389-.531.6737-.114.2847-.171.6137-.171.9869 0 .3606.057.6864.171.9775.12.2846.304.5124.55.6832.247.1645.56.2467.94.2467.398 0 .721-.0885.968-.2657.253-.1771.405-.3827.455-.6168h.854c-.069.3479-.208.6485-.417.9015-.209.2531-.472.446-.788.5789-.316.1328-.674.1993-1.072.1993z"/><path d="m342.505 28.33v-5.0674h.721v2.1731h-.113c0-.4997.066-.9204.199-1.2621.139-.3479.348-.6105.626-.7876.278-.1835.63-.2752 1.053-.2752h.038c.639 0 1.111.1993 1.414.5978.31.3986.465.9743.465 1.7271v2.8943h-.911v-3.084c0-.3923-.11-.7055-.332-.9395-.221-.2404-.525-.3606-.911-.3606-.398 0-.721.1233-.968.3701-.246.2467-.37.5757-.37.9869v3.0271z"/><path d="m350.393 30.3038v-.816h.73c.216 0 .396-.0285.541-.0854.152-.0507.276-.1392.37-.2657.102-.1266.184-.2942.247-.503l1.594-5.3711h.892l-1.689 5.6083c-.101.3353-.243.6074-.427.8162-.183.2151-.408.37-.673.4649-.26.1012-.564.1518-.911.1518zm1.547-2.0876v-.7592h1.1v.7592zm-.095 0-1.813-4.9536h.93l1.737 4.9536z"/><path d="m358.166 28.5009c-.443 0-.832-.076-1.167-.2278-.336-.1518-.62-.3511-.855-.5978-.227-.2531-.401-.5346-.521-.8446-.114-.31-.171-.6263-.171-.949v-.1708c0-.3226.06-.6389.18-.9489.12-.3164.297-.5979.531-.8446.235-.253.519-.4523.854-.5978.336-.1519.719-.2278 1.149-.2278s.813.0759 1.148.2278c.335.1455.62.3448.854.5978.234.2467.411.5282.531.8446.121.31.181.6263.181.9489v.1708c0 .3227-.06.639-.181.949-.113.31-.287.5915-.521.8446-.228.2467-.51.446-.845.5978s-.724.2278-1.167.2278zm0-.8161c.379 0 .702-.0823.968-.2468.272-.1708.477-.3985.616-.6832.146-.2847.219-.6042.219-.9585 0-.3606-.073-.6832-.219-.9679-.145-.2847-.354-.5093-.626-.6738-.266-.1644-.585-.2467-.958-.2467-.367 0-.687.0823-.959.2467-.272.1645-.48.3891-.626.6738s-.218.6073-.218.9679c0 .3543.069.6738.209.9585.145.2847.351.5124.616.6832.272.1645.598.2468.978.2468z"/><path d="m364 28.4819c-.601 0-1.063-.1962-1.386-.5884-.322-.3922-.484-.9584-.484-1.6986v-2.9418h.911v3.1221c0 .3986.108.7117.323.9395.215.2214.506.3321.873.3321.38 0 .69-.1202.93-.3606.24-.2467.361-.582.361-1.0059v-3.0272h.911v5.0769h-.722v-2.1731h.114c0 .4998-.066.9237-.199 1.2716-.133.3417-.332.6042-.598.7877-.259.1771-.591.2657-.996.2657z"/><path d="m372.279 30.3038c-.234 0-.471-.0094-.712-.0284-.234-.019-.458-.0443-.673-.0759v-.7687c.227.0316.465.057.711.0759.253.0253.491.038.712.038.462 0 .829-.0633 1.101-.1898.278-.1202.477-.3131.598-.5789.126-.2593.189-.5946.189-1.0058v-.968l.304-.7212c-.019.5125-.126.9395-.323 1.2811-.196.3353-.452.5883-.768.7592-.31.1644-.655.2467-1.035.2467-.354 0-.68-.0664-.977-.1993-.291-.1392-.544-.3289-.759-.5694-.209-.2404-.373-.5156-.494-.8255-.113-.3164-.17-.6485-.17-.9964v-.1709c0-.3542.06-.6832.18-.9869.12-.31.288-.5788.503-.8066.215-.2277.471-.4049.768-.5314.304-.1265.636-.1898.997-.1898.424 0 .797.0918 1.12.2752.322.1772.575.4397.759.7876.19.3417.294.7624.313 1.2621l-.266.0095v-2.1636h.721v4.4696c0 .6073-.094 1.0976-.284 1.4709-.184.3796-.481.6579-.892.835-.405.1772-.946.2657-1.623.2657zm.275-2.7709c.304 0 .579-.0664.826-.1993.253-.1328.452-.3226.598-.5693.151-.2531.227-.5536.227-.9016v-.4365c0-.3416-.079-.6294-.237-.8635-.152-.2341-.351-.4112-.598-.5314-.246-.1202-.515-.1803-.806-.1803-.329 0-.62.0759-.873.2277-.253.1519-.449.367-.589.6453-.139.272-.208.5947-.208.968 0 .3732.069.699.208.9774.146.2783.342.4934.589.6453.253.1455.541.2182.863.2182z"/><path d="m379.1 28.5009c-.443 0-.832-.076-1.167-.2278s-.62-.3511-.854-.5978c-.228-.2531-.402-.5346-.522-.8446-.114-.31-.171-.6263-.171-.949v-.1708c0-.3226.06-.6389.18-.9489.121-.3164.298-.5979.532-.8446.234-.253.519-.4523.854-.5978.335-.1519.718-.2278 1.148-.2278s.813.0759 1.148.2278c.336.1455.62.3448.854.5978.235.2467.412.5282.532.8446.12.31.18.6263.18.9489v.1708c0 .3227-.06.639-.18.949-.114.31-.288.5915-.522.8446-.228.2467-.509.446-.845.5978-.335.1518-.724.2278-1.167.2278zm0-.8161c.38 0 .702-.0823.968-.2468.272-.1708.478-.3985.617-.6832.145-.2847.218-.6042.218-.9585 0-.3606-.073-.6832-.218-.9679-.146-.2847-.354-.5093-.626-.6738-.266-.1644-.586-.2467-.959-.2467-.367 0-.686.0823-.958.2467-.272.1645-.481.3891-.627.6738-.145.2847-.218.6073-.218.9679 0 .3543.07.6738.209.9585.145.2847.351.5124.617.6832.272.1645.598.2468.977.2468z"/><path d="m387.312 28.387c-.38 0-.709-.0538-.987-.1613-.272-.1076-.484-.2911-.636-.5504-.146-.2657-.218-.6232-.218-1.0724v-4.8776h.873v4.9915c0 .272.072.484.218.6358.152.1455.364.2183.636.2183h.892v.8161zm-2.714-4.4411v-.6833h3.492v.6833z"/><path d="m391.676 28.5009c-.443 0-.832-.076-1.168-.2278-.335-.1518-.62-.3511-.854-.5978-.227-.2531-.401-.5346-.522-.8446-.113-.31-.17-.6263-.17-.949v-.1708c0-.3226.06-.6389.18-.9489.12-.3164.297-.5979.531-.8446.234-.253.519-.4523.854-.5978.336-.1519.718-.2278 1.149-.2278.43 0 .813.0759 1.148.2278.335.1455.62.3448.854.5978.234.2467.411.5282.531.8446.121.31.181.6263.181.9489v.1708c0 .3227-.06.639-.181.949-.114.31-.288.5915-.522.8446-.227.2467-.509.446-.844.5978s-.725.2278-1.167.2278zm0-.8161c.379 0 .702-.0823.968-.2468.272-.1708.477-.3985.616-.6832.146-.2847.219-.6042.219-.9585 0-.3606-.073-.6832-.219-.9679-.145-.2847-.354-.5093-.626-.6738-.266-.1644-.585-.2467-.958-.2467-.367 0-.687.0823-.959.2467-.272.1645-.481.3891-.626.6738-.146.2847-.218.6073-.218.9679 0 .3543.069.6738.208.9585.146.2847.352.5124.617.6832.272.1645.598.2468.978.2468z"/><path d="m400.589 28.5009c-.417 0-.79-.0918-1.119-.2752-.323-.1835-.579-.4492-.769-.7972-.19-.3542-.294-.7781-.313-1.2716h.247v2.1731h-.722v-6.9273h.911v3.3688l-.322.6927c.025-.5504.136-.9996.332-1.3475.196-.348.452-.6042.768-.7687.323-.1708.677-.2562 1.063-.2562.361 0 .69.0696.987.2088.297.1328.554.3195.769.5599.215.234.379.5092.493.8256.114.3099.171.6453.171 1.0059v.1707c0 .3606-.06.6991-.18 1.0154-.114.3164-.282.5979-.503.8446-.222.2404-.487.4302-.797.5694-.304.1392-.642.2088-1.016.2088zm-.104-.7972c.342 0 .639-.0822.892-.2467s.449-.3891.588-.6738c.14-.291.209-.6263.209-1.0058 0-.3796-.073-.7118-.218-.9964-.139-.2847-.335-.503-.589-.6548-.253-.1582-.547-.2373-.882-.2373-.304 0-.585.0696-.845.2088-.259.1329-.468.329-.626.5884-.152.253-.228.5598-.228.9204v.4366c0 .3479.079.6452.238.892.158.2467.367.4365.626.5694.259.1328.538.1992.835.1992z"/><path d="m406.61 28.5009c-.443 0-.826-.076-1.148-.2278-.323-.1518-.585-.3511-.788-.5978-.202-.2531-.354-.5346-.455-.8446-.095-.31-.143-.6263-.143-.949v-.1708c0-.3289.048-.6484.143-.9584.101-.31.253-.5884.455-.8351.203-.253.459-.4523.769-.5978.316-.1519.686-.2278 1.11-.2278.55 0 1.003.1202 1.357.3606.361.2341.626.5378.797.911.177.3733.266.7718.266 1.1957v.408h-4.498v-.6832h3.834l-.209.3701c0-.3606-.057-.6706-.171-.93-.114-.2657-.285-.4713-.512-.6168-.228-.1455-.516-.2183-.864-.2183-.361 0-.661.0823-.901.2468-.234.1645-.412.389-.532.6737-.114.2847-.171.6137-.171.9869 0 .3606.057.6864.171.9775.12.2846.304.5124.551.6832.246.1645.559.2467.939.2467.399 0 .721-.0885.968-.2657.253-.1771.405-.3827.455-.6168h.855c-.07.3479-.209.6485-.418.9015-.209.2531-.471.446-.788.5789-.316.1328-.673.1993-1.072.1993z"/><path d="m412.383 28.5009c-.361 0-.693-.0665-.997-.1993-.303-.1329-.569-.3195-.797-.5599-.221-.2404-.395-.5188-.522-.8351-.12-.3163-.18-.6579-.18-1.0249v-.1708c0-.3606.06-.699.18-1.0153.12-.3164.288-.5947.503-.8351.221-.2404.481-.4271.778-.5599.304-.1392.639-.2088 1.006-.2088.386 0 .737.0822 1.053.2467.317.1582.576.4081.779.7497.202.3416.316.7845.341 1.3285l-.379-.6073v-3.4067h.911v6.9273h-.722v-2.249h.266c-.025.5757-.145 1.0439-.36 1.4045-.216.3542-.488.6136-.817.7781-.322.1582-.67.2373-1.043.2373zm.123-.7972c.31 0 .591-.0696.844-.2087.254-.1392.456-.3385.608-.5979.152-.2657.228-.5757.228-.93v-.4365c0-.3479-.079-.6421-.238-.8825-.151-.2467-.357-.4333-.616-.5599-.254-.1328-.532-.1993-.836-.1993-.335 0-.632.0791-.892.2373-.253.1581-.452.3796-.597.6643-.14.2846-.209.6199-.209 1.0058s.073.7244.218 1.0154c.146.2847.348.5061.607.6643.26.1518.554.2277.883.2277z"/><path d="m422.033 28.33v-1.5183h-.151v-1.7555c0-.348-.092-.6105-.276-.7877-.177-.1771-.439-.2657-.787-.2657-.196 0-.399.0032-.608.0095-.208.0063-.408.0127-.598.019-.189.0063-.354.0158-.493.0285v-.7972c.139-.0126.285-.0221.437-.0284.158-.0127.319-.019.484-.019.164-.0063.322-.0095.474-.0095.519 0 .943.0633 1.272.1898.329.1202.572.3195.73.5978.158.2784.238.6548.238 1.1293v3.2074zm-1.66.1329c-.38 0-.709-.0633-.987-.1898-.272-.1328-.484-.3227-.636-.5694-.146-.2467-.218-.544-.218-.892 0-.3606.079-.6611.237-.9015.164-.2404.402-.4207.712-.5409.31-.1265.683-.1898 1.119-.1898h1.376v.6832h-1.414c-.367 0-.648.0886-.844.2658-.196.1771-.294.4049-.294.6832 0 .2784.098.503.294.6738s.477.2562.844.2562c.216 0 .421-.038.617-.1139.196-.0822.358-.2151.484-.3985.133-.1898.206-.4492.219-.7782l.246.3606c-.031.3606-.12.6643-.265.911-.14.2404-.336.4239-.589.5504-.247.1265-.547.1898-.901.1898z"/><path d="m426.4 28.387c-.379 0-.708-.0538-.987-.1613-.272-.1076-.484-.2911-.635-.5504-.146-.2657-.219-.6232-.219-1.0724v-4.8776h.873v4.9915c0 .272.073.484.219.6358.152.1455.363.2183.635.2183h.892v.8161zm-2.714-4.4411v-.6833h3.492v.6833z"/><path d="m432.695 21.2129c.506 0 .927.0886 1.262.2657.342.1771.611.4207.807.7307.202.3037.344.6548.427 1.0533.088.3986.133.8161.133 1.2527v.4554c0 1.0945-.272 1.9391-.817 2.5338-.544.5883-1.331.8825-2.362.8825-.247 0-.456-.0064-.627-.019-.171-.0127-.357-.0316-.56-.0569v-.7782c.209.0253.402.0443.579.0569.177.0127.392.019.646.019.575 0 1.031-.1075 1.366-.3226s.576-.5219.721-.9205c.146-.4049.218-.892.218-1.4614v-.427l.228-.8446c-.006.4998-.104.9142-.294 1.2431-.183.329-.44.5757-.769.7402-.322.1645-.695.2467-1.119.2467-.494 0-.911-.098-1.253-.2941-.342-.2025-.601-.4777-.778-.8256-.171-.348-.256-.7433-.256-1.1862 0-.4492.091-.8509.275-1.2052.183-.3543.455-.6326.816-.835.367-.2025.819-.3037 1.357-.3037zm0 .7971c-.348 0-.639.0664-.873.1993-.234.1328-.411.3163-.532.5504-.113.2277-.17.4934-.17.7971s.057.5725.17.8066c.114.2341.282.4175.503.5504.228.1265.507.1898.836.1898.322 0 .61-.0601.863-.1803.259-.1202.462-.2942.607-.5219.146-.2341.219-.5188.219-.8541 0-.2783-.057-.5346-.171-.7686-.114-.2341-.291-.4207-.532-.5599-.24-.1392-.547-.2088-.92-.2088z"/><path d="m436.701 28.33v-1.1577h1.101v1.1577zm0-3.5111v-1.1577h1.101v1.1577z"/><path d="m442.022 28.5009c-.519 0-.961-.0886-1.328-.2657-.361-.1835-.655-.4302-.883-.7402-.221-.31-.383-.6675-.484-1.0723-.101-.4113-.152-.8446-.152-1.3001v-.5125c0-.6389.098-1.2146.295-1.7271.202-.5124.512-.9173.93-1.2146.423-.3037.964-.4555 1.622-.4555s1.196.1518 1.613.4555c.418.2973.725.7022.921 1.2146.202.5125.304 1.0882.304 1.7271v.5125c0 .4555-.051.8888-.152 1.3001-.101.4048-.266.7623-.494 1.0723-.221.31-.512.5567-.873.7402-.36.1771-.8.2657-1.319.2657zm0-.8351c.658 0 1.139-.2214 1.443-.6643.31-.4492.465-1.1577.465-2.1257 0-1.0122-.159-1.7365-.475-2.1731-.31-.4365-.788-.6547-1.433-.6547-.651 0-1.135.2182-1.452.6547-.31.4366-.465 1.1546-.465 2.1542 0 .9742.155 1.6859.465 2.1351s.794.6738 1.452.6738z"/><path d="m449.074 28.5009c-.518 0-.961-.0886-1.328-.2657-.361-.1835-.655-.4302-.883-.7402-.221-.31-.382-.6675-.484-1.0723-.101-.4113-.151-.8446-.151-1.3001v-.5125c0-.6389.098-1.2146.294-1.7271.202-.5124.512-.9173.93-1.2146.424-.3037.965-.4555 1.622-.4555.658 0 1.196.1518 1.614.4555.417.2973.724.7022.92 1.2146.203.5125.304 1.0882.304 1.7271v.5125c0 .4555-.051.8888-.152 1.3001-.101.4048-.266.7623-.493 1.0723-.222.31-.513.5567-.873.7402-.361.1771-.801.2657-1.32.2657zm0-.8351c.658 0 1.139-.2214 1.443-.6643.31-.4492.465-1.1577.465-2.1257 0-1.0122-.158-1.7365-.475-2.1731-.31-.4365-.787-.6547-1.433-.6547-.651 0-1.135.2182-1.451.6547-.31.4366-.465 1.1546-.465 2.1542 0 .9742.155 1.6859.465 2.1351s.794.6738 1.451.6738z"/><path d="m456.502 25.9197v-.8161h1.547c.329 0 .601-.0633.816-.1898.215-.1329.376-.31.484-.5314.114-.2214.171-.4681.171-.7402 0-.2783-.057-.5282-.171-.7497-.108-.2214-.269-.3954-.484-.5219s-.487-.1898-.816-.1898h-1.547v-.8161h1.376c.569 0 1.044.0918 1.423.2752.386.1772.677.4302.873.7592.197.3289.295.718.295 1.1672v.1518c0 .4429-.098.8319-.295 1.1672-.196.329-.487.5852-.873.7687-.379.1771-.854.2657-1.423.2657zm-.74 2.4103v-6.9653h.93v6.9653z"/><path d="m461.832 28.33v-6.9273h1.233l2.05 4.6214h.152l2.04-4.6214h1.243v6.9273h-.93v-5.9119l.067.0189-1.964 4.4601h-1.139l-1.974-4.4601.076-.0189v5.9119z"/><path d="m470.533 29.8199-.731-.2752.883-2.4483.749.2847z"/><path d="m474.73 30.3038v-.816h.73c.216 0 .396-.0285.541-.0854.152-.0507.276-.1392.37-.2657.102-.1266.184-.2942.247-.503l1.594-5.3711h.892l-1.689 5.6083c-.101.3353-.243.6074-.427.8162-.183.2151-.408.37-.674.4649-.259.1012-.563.1518-.911.1518zm1.547-2.0876v-.7592h1.1v.7592zm-.095 0-1.813-4.9536h.93l1.737 4.9536z"/><path d="m482.503 28.5009c-.443 0-.832-.076-1.168-.2278-.335-.1518-.62-.3511-.854-.5978-.227-.2531-.401-.5346-.521-.8446-.114-.31-.171-.6263-.171-.949v-.1708c0-.3226.06-.6389.18-.9489.12-.3164.297-.5979.531-.8446.234-.253.519-.4523.854-.5978.336-.1519.719-.2278 1.149-.2278s.813.0759 1.148.2278c.335.1455.62.3448.854.5978.234.2467.411.5282.531.8446.121.31.181.6263.181.9489v.1708c0 .3227-.06.639-.181.949-.113.31-.287.5915-.522.8446-.227.2467-.509.446-.844.5978s-.724.2278-1.167.2278zm0-.8161c.379 0 .702-.0823.968-.2468.272-.1708.477-.3985.616-.6832.146-.2847.219-.6042.219-.9585 0-.3606-.073-.6832-.219-.9679-.145-.2847-.354-.5093-.626-.6738-.266-.1644-.585-.2467-.958-.2467-.367 0-.687.0823-.959.2467-.272.1645-.481.3891-.626.6738-.146.2847-.218.6073-.218.9679 0 .3543.069.6738.208.9585.146.2847.352.5124.617.6832.272.1645.598.2468.978.2468z"/><path d="m488.337 28.4819c-.601 0-1.063-.1962-1.386-.5884-.322-.3922-.484-.9584-.484-1.6986v-2.9418h.911v3.1221c0 .3986.108.7117.323.9395.215.2214.506.3321.873.3321.38 0 .689-.1202.93-.3606.24-.2467.36-.582.36-1.0059v-3.0272h.911v5.0769h-.721v-2.1731h.114c0 .4998-.066.9237-.199 1.2716-.133.3417-.332.6042-.598.7877-.259.1771-.592.2657-.996.2657z"/><path d="m496.673 28.387c-.38 0-.709-.0538-.987-.1613-.272-.1076-.484-.2911-.636-.5504-.145-.2657-.218-.6232-.218-1.0724v-4.8776h.873v4.9915c0 .272.073.484.218.6358.152.1455.364.2183.636.2183h.892v.8161zm-2.714-4.4411v-.6833h3.492v.6833z"/><path d="m498.398 30.3038v-.816h.731c.215 0 .395-.0285.541-.0854.151-.0507.275-.1392.37-.2657.101-.1266.183-.2942.246-.503l1.595-5.3711h.892l-1.69 5.6083c-.101.3353-.243.6074-.427.8162-.183.2151-.408.37-.673.4649-.26.1012-.563.1518-.911.1518zm1.547-2.0876v-.7592h1.101v.7592zm-.095 0-1.813-4.9536h.93l1.737 4.9536z"/><path d="m503.929 30.2279v-6.9653h.721v2.1921l-.17-.019c.031-.544.145-.9869.341-1.3285.203-.348.465-.6042.788-.7687.322-.1645.674-.2467 1.053-.2467.367 0 .699.0696.997.2088.303.1392.563.329.778.5694s.379.5187.493.835c.114.3164.171.6516.171 1.0059v.1708c0 .3543-.06.6896-.18 1.0059-.121.3164-.291.5947-.513.8351-.215.2404-.474.4302-.778.5694-.297.1392-.626.2088-.987.2088-.36 0-.705-.0791-1.034-.2373-.329-.1581-.601-.4144-.816-.7686-.215-.3543-.339-.8193-.37-1.395l.417.7591v3.3688zm2.572-2.5242c.341 0 .639-.079.892-.2372.253-.1645.449-.3891.588-.6738.139-.291.209-.6231.209-.9964 0-.3796-.07-.7117-.209-.9964s-.335-.5061-.588-.6642c-.253-.1645-.551-.2468-.892-.2468-.304 0-.585.0696-.845.2088-.259.1329-.468.329-.626.5884-.152.253-.228.5598-.228.9204v.4366c0 .3479.079.6452.237.892.159.2467.367.4365.627.5694.259.1328.537.1992.835.1992z"/><path d="m510.718 28.33v-5.0674h.911v5.0674zm-.778-4.3462v-.7212h1.689v.7212zm1.035-1.5373c-.203 0-.355-.0537-.456-.1613-.095-.1075-.142-.2435-.142-.408s.047-.3006.142-.4081c.101-.1075.253-.1613.456-.1613.202 0 .351.0538.446.1613.101.1075.152.2436.152.4081s-.051.3005-.152.408c-.095.1076-.244.1613-.446.1613z"/><path d="m515.564 28.5009c-.437 0-.816-.076-1.139-.2278-.316-.1518-.579-.3543-.787-.6073-.209-.2594-.367-.5441-.475-.8541-.101-.31-.152-.62-.152-.93v-.1708c0-.3226.051-.6389.152-.9489.108-.31.266-.5884.475-.8351.215-.2531.48-.4555.797-.6073.316-.1519.686-.2278 1.11-.2278s.804.0791 1.139.2373c.341.1581.613.3827.816.6737.209.2847.326.6232.351 1.0154h-.873c-.044-.3163-.19-.5789-.437-.7876-.246-.2151-.578-.3227-.996-.3227-.361 0-.661.0823-.901.2467-.241.1645-.421.3891-.541.6738-.121.2847-.181.6073-.181.9679 0 .348.06.6675.181.9585.12.2847.3.5124.541.6832.246.1645.553.2468.92.2468.285 0 .531-.0506.74-.1519.209-.1012.377-.2372.503-.408.127-.1708.203-.3638.228-.5789h.873c-.019.3986-.136.7434-.351 1.0344-.209.291-.487.5187-.835.6832-.342.1582-.728.2373-1.158.2373z"/><path d="m522.211 28.33v-1.5183h-.152v-1.7555c0-.348-.092-.6105-.275-.7877-.177-.1771-.44-.2657-.788-.2657-.196 0-.398.0032-.607.0095s-.408.0127-.598.019-.354.0158-.493.0285v-.7972c.139-.0126.284-.0221.436-.0284.158-.0127.32-.019.484-.019.165-.0063.323-.0095.475-.0095.518 0 .942.0633 1.271.1898.329.1202.573.3195.731.5978.158.2784.237.6548.237 1.1293v3.2074zm-1.661.1329c-.379 0-.708-.0633-.987-.1898-.272-.1328-.484-.3227-.635-.5694-.146-.2467-.219-.544-.219-.892 0-.3606.079-.6611.238-.9015.164-.2404.401-.4207.711-.5409.31-.1265.684-.1898 1.12-.1898h1.376v.6832h-1.414c-.367 0-.648.0886-.845.2658-.196.1771-.294.4049-.294.6832 0 .2784.098.503.294.6738.197.1708.478.2562.845.2562.215 0 .421-.038.617-.1139.196-.0822.357-.2151.484-.3985.133-.1898.205-.4492.218-.7782l.247.3606c-.032.3606-.12.6643-.266.911-.139.2404-.335.4239-.588.5504-.247.1265-.547.1898-.902.1898z"/><path d="m524.661 28.33v-6.9273h.911v6.9273zm-.702-6.2061v-.7212h1.613v.7212z"/><path d="m527.376 28.33v-6.9273h.911v6.9273zm-.702-6.2061v-.7212h1.613v.7212z"/><path d="m529.693 30.3038v-.816h.731c.215 0 .395-.0285.541-.0854.152-.0507.275-.1392.37-.2657.101-.1266.183-.2942.246-.503l1.595-5.3711h.892l-1.689 5.6083c-.102.3353-.244.6074-.427.8162-.184.2151-.408.37-.674.4649-.26.1012-.563.1518-.911.1518zm1.547-2.0876v-.7592h1.101v.7592zm-.095 0-1.813-4.9536h.93l1.737 4.9536z"/><path d="m322.208 44.5978 1.025-4.8966h1.233l1.196 4.8966h-.778l-1.196-4.8776h.304l-1.035 4.8776zm-.465 0v-.7212h1.053v.7212zm-.209 0-1.433-5.0674h.873l1.395 5.0674zm3.54 0v-.7212h1.053v.7212zm.427 0 1.214-5.0674h.826l-1.243 5.0674z"/><path d="m331.799 44.5978v-1.5183h-.151v-1.7556c0-.3479-.092-.6105-.276-.7876-.177-.1772-.439-.2657-.787-.2657-.196 0-.399.0031-.608.0095-.208.0063-.408.0126-.597.0189-.19.0064-.355.0159-.494.0285v-.7971c.139-.0127.285-.0222.437-.0285.158-.0126.319-.0189.484-.0189.164-.0064.322-.0095.474-.0095.519 0 .943.0632 1.272.1898.329.1202.572.3194.73.5978s.238.6548.238 1.1293v3.2074zm-1.66.1329c-.38 0-.709-.0633-.987-.1898-.272-.1329-.484-.3227-.636-.5694-.146-.2467-.218-.5441-.218-.892 0-.3606.079-.6611.237-.9015.164-.2404.402-.4207.712-.5409.31-.1266.683-.1898 1.119-.1898h1.376v.6832h-1.414c-.366 0-.648.0886-.844.2657-.196.1772-.294.4049-.294.6833 0 .2783.098.5029.294.6737s.478.2562.844.2562c.216 0 .421-.0379.617-.1138.196-.0823.358-.2151.484-.3986.133-.1898.206-.4492.219-.7781l.246.3606c-.031.3606-.12.6643-.265.911-.14.2404-.336.4239-.589.5504-.247.1265-.547.1898-.901.1898z"/><path d="m337.685 44.5978-1.908-2.3629h-.835l2.325-2.7045h.959l-2.107 2.4388.066-.484 2.553 3.1126zm-3.492 0v-6.9273h.911v6.9273z"/><path d="m341.675 44.7686c-.443 0-.825-.0759-1.148-.2277-.323-.1519-.585-.3511-.788-.5979-.202-.253-.354-.5345-.455-.8445-.095-.31-.142-.6264-.142-.949v-.1708c0-.329.047-.6484.142-.9584.101-.31.253-.5884.455-.8351.203-.2531.459-.4524.769-.5979.316-.1518.686-.2277 1.11-.2277.551 0 1.003.1202 1.357.3606.361.2341.627.5377.797.911.178.3732.266.7718.266 1.1957v.408h-4.498v-.6832h3.834l-.209.3701c0-.3606-.057-.6706-.171-.93-.114-.2657-.284-.4713-.512-.6168-.228-.1456-.516-.2183-.864-.2183-.36 0-.661.0823-.901.2467-.234.1645-.411.3891-.532.6738-.113.2847-.17.6136-.17.9869 0 .3606.057.6864.17.9774.121.2847.304.5125.551.6833.247.1645.56.2467.939.2467.399 0 .722-.0886.968-.2657.253-.1772.405-.3828.456-.6168h.854c-.07.3479-.209.6484-.418.9015-.209.253-.471.446-.787.5789-.317.1328-.674.1992-1.073.1992z"/><path d="m349.246 44.7496c-.601 0-1.062-.1961-1.385-.5883s-.484-.9585-.484-1.6986v-2.9418h.911v3.1221c0 .3985.108.7117.323.9394.215.2215.506.3322.873.3322.379 0 .689-.1202.93-.3606.24-.2468.36-.5821.36-1.0059v-3.0272h.911v5.0769h-.721v-2.1731h.114c0 .4998-.066.9237-.199 1.2716-.133.3416-.332.6042-.598.7876-.26.1772-.592.2657-.997.2657z"/><path d="m353.45 46.4957v-6.9653h.721v2.1921l-.171-.019c.032-.5441.146-.9869.342-1.3285.202-.348.465-.6042.787-.7687.323-.1645.674-.2467 1.054-.2467.367 0 .699.0696.996.2087.304.1392.563.329.778.5694s.38.5188.494.8351.17.6516.17 1.0059v.1708c0 .3543-.06.6896-.18 1.0059s-.291.5947-.512.8351c-.215.2404-.475.4302-.778.5693-.298.1392-.627.2088-.987.2088-.361 0-.706-.0791-1.035-.2372-.329-.1582-.601-.4144-.816-.7687-.215-.3542-.338-.8192-.37-1.3949l.418.7591v3.3688zm2.571-2.5242c.342 0 .639-.0791.892-.2372.253-.1645.449-.3891.589-.6738.139-.291.208-.6231.208-.9964 0-.3796-.069-.7117-.208-.9964-.14-.2847-.336-.5061-.589-.6643-.253-.1644-.55-.2467-.892-.2467-.303 0-.585.0696-.844.2088-.26.1328-.468.3289-.627.5883-.151.2531-.227.5599-.227.9205v.4365c0 .348.079.6453.237.892.158.2468.367.4366.626.5694.26.1329.538.1993.835.1993z"/><path d="m365.217 44.5978v-1.5183h-.152v-1.7556c0-.3479-.092-.6105-.275-.7876-.178-.1772-.44-.2657-.788-.2657-.196 0-.399.0031-.607.0095-.209.0063-.408.0126-.598.0189-.19.0064-.354.0159-.494.0285v-.7971c.14-.0127.285-.0222.437-.0285.158-.0126.319-.0189.484-.0189.164-.0064.322-.0095.474-.0095.519 0 .943.0632 1.272.1898.329.1202.572.3194.731.5978.158.2784.237.6548.237 1.1293v3.2074zm-1.661.1329c-.38 0-.709-.0633-.987-.1898-.272-.1329-.484-.3227-.636-.5694-.145-.2467-.218-.5441-.218-.892 0-.3606.079-.6611.237-.9015.165-.2404.402-.4207.712-.5409.31-.1266.683-.1898 1.12-.1898h1.376v.6832h-1.414c-.367 0-.649.0886-.845.2657-.196.1772-.294.4049-.294.6833 0 .2783.098.5029.294.6737s.478.2562.845.2562c.215 0 .42-.0379.617-.1138.196-.0823.357-.2151.484-.3986.132-.1898.205-.4492.218-.7781l.246.3606c-.031.3606-.12.6643-.265.911-.139.2404-.335.4239-.589.5504-.246.1265-.547.1898-.901.1898z"/><path d="m369.584 44.6548c-.38 0-.709-.0538-.987-.1614-.272-.1075-.484-.291-.636-.5504-.146-.2657-.218-.6231-.218-1.0723v-4.8776h.873v4.9915c0 .272.072.484.218.6358.152.1455.364.2183.636.2183h.892v.8161zm-2.714-4.4411v-.6833h3.492v.6833z"/><path d="m375.935 44.7686c-.531 0-.98-.1075-1.347-.3226-.367-.2214-.646-.5093-.835-.8636-.19-.3542-.285-.7307-.285-1.1292h.892c0 .291.063.5504.19.7781.133.2278.316.4081.55.5409.234.1329.513.1993.835.1993.316 0 .592-.0633.826-.1898.24-.1328.427-.3132.56-.5409.132-.2341.199-.4966.199-.7876s-.067-.5536-.199-.7876c-.127-.2341-.31-.4208-.551-.5599-.234-.1392-.512-.2088-.835-.2088-.234 0-.471.0411-.712.1234-.24.0759-.433.1866-.578.3321h-.835l.351-3.6819h3.634v.7781h-3.103l.228-.3132-.266 2.6856-.247-.0854c.184-.1835.405-.329.665-.4366.265-.1075.566-.1613.901-.1613.532 0 .978.1107 1.338.3322.361.2151.633.4966.816.8445.19.3417.285.6991.285 1.0723v.1329c0 .3732-.095.7339-.285 1.0818-.19.3416-.471.6232-.844.8446-.367.2151-.816.3226-1.348.3226z"/><path d="m379.542 44.5978v-1.1577h1.1v1.1577zm0-3.5111v-1.1577h1.1v1.1577z"/><path d="m384.17 44.7686c-.519 0-.959-.1012-1.319-.3036-.361-.2025-.636-.4713-.826-.8066-.183-.3353-.275-.6991-.275-1.0914h.892c0 .4302.136.7719.408 1.0249.278.2531.652.3796 1.12.3796.31 0 .579-.0569.806-.1708.228-.1139.405-.2752.532-.484.126-.2151.19-.465.19-.7497 0-.4301-.139-.7781-.418-1.0438-.272-.2657-.639-.3986-1.101-.3986-.196 0-.367.0254-.512.076-.139.0442-.263.1012-.37.1708l-.456-.8161 2.648-1.9359-.095-.1708h-3.369v-.7781h4.223v1.2621l-2.192 1.5942-.664.0285c.107-.038.224-.0696.351-.0949.133-.0253.288-.038.465-.038.506 0 .936.0949 1.29.2847.355.1898.624.4428.807.7592.19.3163.285.6611.285 1.0343v.1329c0 .3669-.095.7149-.285 1.0438-.183.3227-.456.5852-.816.7877-.354.2024-.794.3036-1.319.3036z"/><path d="m390.692 44.7686c-.519 0-.962-.0885-1.329-.2657-.36-.1834-.655-.4302-.882-.7402-.222-.31-.383-.6674-.484-1.0723-.102-.4112-.152-.8446-.152-1.3v-.5125c0-.6389.098-1.2146.294-1.7271.202-.5124.512-.9173.93-1.2146.424-.3037.965-.4555 1.623-.4555s1.195.1518 1.613.4555c.417.2973.724.7022.92 1.2146.203.5125.304 1.0882.304 1.7271v.5125c0 .4554-.051.8888-.152 1.3-.101.4049-.266.7623-.493 1.0723-.222.31-.513.5568-.873.7402-.361.1772-.801.2657-1.319.2657zm0-.8351c.658 0 1.138-.2214 1.442-.6642.31-.4492.465-1.1578.465-2.1257 0-1.0122-.158-1.7366-.474-2.1731-.31-.4365-.788-.6548-1.433-.6548-.652 0-1.136.2183-1.452.6548-.31.4365-.465 1.1546-.465 2.1541 0 .9743.155 1.686.465 2.1352s.794.6737 1.452.6737z"/><path d="m396.639 44.5978 2.495-6.9273h1.576l2.571 6.9273h-.958l-2.325-6.32.456.2277h-1.12l.484-.2277-2.249 6.32zm1.49-2.0687.313-.8351h2.989l.313.8351z"/><path d="m404.552 44.5978v-6.9273h1.233l2.05 4.6214h.152l2.04-4.6214h1.243v6.9273h-.93v-5.912l.067.019-1.965 4.4601h-1.138l-1.974-4.4601.076-.019v5.912z"/><path d="m412.968 44.5978v-1.1577h1.101v1.1577z"/><path d="m17.8002 144.948v-.903h1.3584c.3307 0 .6263-.051.8866-.154.2602-.109.4826-.258.6669-.448.1844-.189.3227-.412.4149-.666.0976-.261.1464-.54.1464-.838 0-.32-.0488-.608-.1464-.862-.0922-.255-.2305-.475-.4149-.659-.1843-.185-.4067-.326-.6669-.423-.2603-.103-.5559-.155-.8866-.155h-1.3584v-.903h1.277c.5369 0 1.0032.082 1.399.244.4013.163.7348.383 1.0005.659.2657.277.4637.589.5938.936s.1952.705.1952 1.073v.179c0 .347-.0651.697-.1952 1.049-.1301.348-.3281.662-.5938.944-.2657.277-.5992.502-1.0005.675-.3958.168-.8621.252-1.399.252zm-.8134 0v-6.011h.9761v6.011z"/><path d="m23.397 144.916v-5.938h.968v5.938zm.8053 0v-.846h2.7818v.846zm0-2.595v-.846h2.554v.846zm0-2.497v-.846h2.7086v.846z"/><path d="m30.8379 145.062c-.5423 0-1.0059-.092-1.3909-.276-.3796-.19-.6887-.437-.9273-.741-.2332-.309-.4067-.639-.5206-.992-.1084-.358-.1626-.702-.1626-1.033v-.179c0-.363.0569-.724.1708-1.082s.2874-.683.5205-.976c.2386-.293.545-.528.9192-.707.3796-.179.8269-.269 1.3421-.269.5368 0 1.0004.095 1.3909.285.3904.19.6995.455.9272.797.2332.336.3715.735.4149 1.196h-.9843c-.0433-.304-.1464-.556-.309-.757-.1573-.206-.3606-.36-.6101-.463-.244-.103-.5205-.155-.8296-.155-.32 0-.6047.057-.8541.171-.244.114-.4474.271-.61.472-.1627.2-.2874.436-.3742.707-.0813.266-.122.559-.122.879 0 .303.0407.591.122.862.0868.266.2142.502.3823.708s.3769.366.6263.479c.2549.114.5477.171.8785.171.4772 0 .8784-.116 1.2038-.349.3253-.239.5233-.578.5938-1.017h.9923c-.0542.417-.1952.8-.423 1.147-.2277.341-.5395.615-.9354.821-.3958.201-.873.301-1.4315.301z"/><path d="m37.2844 144.916v-5.385l.3579.277h-1.6268v-.83h2.2287v5.938z"/><path d="m42.1879 145.062c-.45 0-.835-.076-1.155-.228-.3199-.157-.5802-.368-.7808-.634-.1952-.266-.3389-.572-.4311-.919-.0922-.353-.1383-.724-.1383-1.115v-.447c0-.542.0868-1.033.2603-1.472.1789-.439.4528-.789.8215-1.049.3742-.261.8486-.391 1.4234-.391.5803 0 1.052.13 1.4153.391.3688.26.6426.61.8216 1.049.1789.439.2684.93.2684 1.472v.447c0 .391-.0461.762-.1383 1.115-.0922.347-.2386.653-.4392.919-.1952.266-.4528.477-.7727.634-.3146.152-.6996.228-1.1551.228zm0-.886c.526 0 .911-.177 1.1551-.529.2494-.358.3741-.922.3741-1.692 0-.808-.1274-1.385-.3823-1.733-.2494-.352-.6317-.528-1.1469-.528-.5151 0-.9001.176-1.155.528-.2494.348-.3741.92-.3741 1.717 0 .775.1247 1.342.3741 1.7.2495.358.6345.537 1.155.537z"/><path d="m46.1491 146.233-.7483-.292.789-2.229.7971.301z"/><path d="m49.7793 144.916v-1.058c0-.244.0353-.452.1058-.626.0759-.179.2006-.339.3741-.48.1736-.141.4067-.276.6995-.407l1.0575-.479c.2657-.12.469-.269.61-.448.1464-.184.2196-.42.2196-.708 0-.33-.0949-.591-.2847-.78-.1898-.196-.4609-.293-.8134-.293-.347 0-.6181.097-.8134.293-.1897.189-.2846.455-.2846.797h-.9436c0-.353.0732-.673.2196-.96.1519-.293.3796-.526.6833-.7.3037-.173.6832-.26 1.1387-.26s.8324.087 1.1306.26c.3037.169.5288.394.6752.676.1518.276.2277.58.2277.911v.113c0 .434-.1247.8-.3741 1.099-.2441.292-.5911.539-1.0412.74l-1.0655.48c-.2169.097-.3661.198-.4474.301s-.122.238-.122.406v.635l-.244-.342h3.3511v.83z"/><path d="m57.3198 145.062c-.45 0-.8351-.076-1.155-.228-.3199-.157-.5802-.368-.7808-.634-.1952-.266-.3389-.572-.4311-.919-.0922-.353-.1383-.724-.1383-1.115v-.447c0-.542.0868-1.033.2603-1.472.1789-.439.4528-.789.8215-1.049.3742-.261.8486-.391 1.4234-.391.5802 0 1.052.13 1.4153.391.3688.26.6426.61.8215 1.049.179.439.2685.93.2685 1.472v.447c0 .391-.0461.762-.1383 1.115-.0922.347-.2386.653-.4392.919-.1952.266-.4528.477-.7728.634-.3145.152-.6995.228-1.155.228zm0-.886c.526 0 .911-.177 1.155-.529.2495-.358.3742-.922.3742-1.692 0-.808-.1274-1.385-.3823-1.733-.2494-.352-.6317-.528-1.1469-.528-.5151 0-.9001.176-1.155.528-.2494.348-.3741.92-.3741 1.717 0 .775.1247 1.342.3741 1.7.2495.358.6345.537 1.155.537z"/><path d="m60.9475 144.916v-1.058c0-.244.0353-.452.1058-.626.0759-.179.2006-.339.3741-.48.1736-.141.4067-.276.6996-.407l1.0574-.479c.2657-.12.469-.269.61-.448.1464-.184.2196-.42.2196-.708 0-.33-.0949-.591-.2847-.78-.1898-.196-.4609-.293-.8134-.293-.347 0-.6181.097-.8133.293-.1898.189-.2847.455-.2847.797h-.9436c0-.353.0732-.673.2197-.96.1518-.293.3795-.526.6832-.7.3037-.173.6832-.26 1.1387-.26s.8324.087 1.1307.26c.3036.169.5287.394.6751.676.1518.276.2277.58.2277.911v.113c0 .434-.1247.8-.3741 1.099-.2441.292-.5911.539-1.0412.74l-1.0655.48c-.2169.097-.366.198-.4474.301-.0813.103-.122.238-.122.406v.635l-.244-.342h3.3512v.83z"/><path d="m68.488 145.062c-.45 0-.835-.076-1.155-.228-.3199-.157-.5802-.368-.7808-.634-.1952-.266-.3389-.572-.4311-.919-.0922-.353-.1383-.724-.1383-1.115v-.447c0-.542.0868-1.033.2603-1.472.1789-.439.4528-.789.8215-1.049.3742-.261.8486-.391 1.4234-.391.5802 0 1.052.13 1.4153.391.3688.26.6426.61.8216 1.049.1789.439.2684.93.2684 1.472v.447c0 .391-.0461.762-.1383 1.115-.0922.347-.2386.653-.4392.919-.1952.266-.4528.477-.7728.634-.3145.152-.6995.228-1.155.228zm0-.886c.526 0 .911-.177 1.155-.529.2495-.358.3742-.922.3742-1.692 0-.808-.1274-1.385-.3823-1.733-.2494-.352-.6317-.528-1.1469-.528-.5151 0-.9001.176-1.155.528-.2494.348-.3741.92-.3741 1.717 0 .775.1247 1.342.3741 1.7.2495.358.6345.537 1.155.537z"/><path d="m21.848 126.229c-.9869 0-1.8274-.162-2.5215-.488-.6941-.325-1.2255-.775-1.5943-1.35-.3687-.575-.5531-1.225-.5531-1.952h1.5943c0 .358.0922.716.2765 1.074.1952.358.5152.656.9598.894.4555.239 1.0683.358 1.8383.358.7158 0 1.3014-.103 1.7569-.309.4555-.217.7917-.493 1.0086-.829.2169-.347.3254-.722.3254-1.123 0-.488-.2115-.889-.6345-1.204-.4229-.325-1.0411-.526-1.8545-.602l-1.3177-.113c-1.052-.087-1.8925-.413-2.5215-.976-.629-.564-.9435-1.307-.9435-2.229 0-.727.1735-1.361.5205-1.904.3579-.542.8514-.965 1.4804-1.268.629-.315 1.3611-.472 2.1962-.472.8242 0 1.5508.152 2.1798.455.629.304 1.1171.732 1.4641 1.285.3579.543.5369 1.193.5369 1.953h-1.5943c0-.38-.0922-.738-.2765-1.074-.1736-.336-.4501-.613-.8297-.83s-.873-.325-1.4803-.325c-.5857 0-1.0737.103-1.4641.309-.3796.206-.667.477-.8622.813-.1844.326-.2766.678-.2766 1.058 0 .434.1681.819.5043 1.155s.8351.531 1.4966.585l1.3177.114c.8134.065 1.5129.239 2.0986.521.5965.271 1.052.64 1.3665 1.106.3253.456.488 1.003.488 1.643 0 .727-.1952 1.372-.5856 1.936-.3905.564-.9382 1.003-1.6431 1.318-.7049.314-1.5237.471-2.4564.471z"/><path d="m32.3643 126.034c-.6507 0-1.2146-.092-1.6918-.276-.4664-.185-.8297-.499-1.09-.944-.2494-.455-.3741-1.068-.3741-1.838v-8.362h1.4966v8.557c0 .466.1247.83.3742 1.09.2603.25.6236.374 1.0899.374h1.5292v1.399zm-4.6525-7.613v-1.171h5.9865v1.171z"/><path d="m35.9071 125.937v-8.687h1.2364v3.579h-.0651c0-1.269.2766-2.197.8297-2.782.5639-.597 1.4044-.895 2.5215-.895h.2928v1.399h-.5531c-.8676 0-1.5346.233-2.0009.7-.4664.455-.6996 1.117-.6996 1.984v4.702z"/><path d="m47.8022 125.937v-2.603h-.2603v-3.01c0-.596-.1573-1.046-.4718-1.35-.3036-.304-.7537-.455-1.3502-.455-.3362 0-.6832.005-1.0411.016s-.6995.021-1.0249.032c-.3253.011-.6073.027-.8459.049v-1.366c.2386-.022.488-.038.7483-.049.2711-.022.5477-.033.8297-.033.2819-.011.5531-.016.8133-.016.8894 0 1.616.108 2.1799.325.564.206.9815.548 1.2526 1.025.2712.477.4067 1.123.4067 1.936v5.499zm-2.8469.227c-.6507 0-1.2146-.108-1.6918-.325-.4664-.228-.8297-.553-1.09-.976-.2494-.423-.3741-.933-.3741-1.529 0-.618.1355-1.134.4067-1.546.282-.412.6886-.721 1.2201-.927.5314-.217 1.1712-.325 1.9196-.325h2.3588v1.171h-2.4239c-.629 0-1.1116.152-1.4478.456-.3362.303-.5043.694-.5043 1.171s.1681.862.5043 1.155.8188.439 1.4478.439c.3687 0 .7212-.065 1.0574-.195.3362-.141.6127-.369.8296-.683.2278-.326.3525-.77.3742-1.334l.423.618c-.0543.618-.2061 1.139-.4555 1.562-.2386.412-.5748.726-1.0086.943-.423.217-.9381.325-1.5455.325z"/><path d="m55.2885 126.034c-.6507 0-1.2146-.092-1.6918-.276-.4663-.185-.8297-.499-1.0899-.944-.2495-.455-.3742-1.068-.3742-1.838v-8.362h1.4966v8.557c0 .466.1248.83.3742 1.09.2603.25.6236.374 1.0899.374h1.5292v1.399zm-4.6525-7.613v-1.171h5.9865v1.171z"/><path d="m62.4606 126.229c-.7592 0-1.4153-.13-1.9684-.39s-1.0032-.602-1.3502-1.025c-.3471-.434-.6074-.916-.7809-1.448-.1627-.531-.244-1.073-.244-1.626v-.293c0-.564.0813-1.112.244-1.643.1735-.532.4338-1.009.7809-1.432.347-.434.7862-.775 1.3177-1.025.5422-.26 1.1767-.39 1.9033-.39.9435 0 1.7189.206 2.3263.618.6182.401 1.0737.922 1.3665 1.562.3036.64.4555 1.323.4555 2.049v.7h-7.711v-1.171h6.5722l-.3579.634c0-.618-.0976-1.149-.2928-1.594-.1952-.456-.488-.808-.8784-1.058-.3905-.249-.8839-.374-1.4804-.374-.6182 0-1.1333.141-1.5454.423-.4013.282-.705.667-.911 1.155-.1953.488-.2929 1.052-.2929 1.692 0 .618.0976 1.177.2929 1.676.206.488.5205.878.9435 1.171.423.282.9598.423 1.6105.423.6832 0 1.2363-.152 1.6593-.456.4338-.303.6941-.656.7809-1.057h1.4641c-.1193.597-.3579 1.112-.7158 1.546-.3579.433-.808.764-1.3502.992-.5423.228-1.1551.341-1.8383.341z"/><path d="m72.0147 129.32c-.4012 0-.8079-.016-1.22-.048-.4013-.033-.7863-.076-1.1551-.131v-1.317c.3905.054.7972.097 1.2201.13.4338.043.8405.065 1.2201.065.7917 0 1.4207-.109 1.8871-.325.4772-.206.8188-.537 1.0248-.993.2169-.444.3254-1.019.3254-1.724v-1.659l.5206-1.237c-.0326.879-.2169 1.611-.5531 2.196-.3362.575-.7755 1.009-1.3177 1.302-.5314.282-1.1225.423-1.7732.423-.6074 0-1.1659-.114-1.6756-.342-.4989-.238-.9327-.564-1.3014-.976-.3579-.412-.6399-.884-.8459-1.415-.1953-.543-.2929-1.112-.2929-1.708v-.293c0-.608.1031-1.171.3091-1.692.2061-.531.4935-.992.8622-1.383.3688-.39.808-.694 1.3177-.911.5206-.217 1.0899-.325 1.7081-.325.7266 0 1.3665.157 1.9196.472.5531.303.9869.753 1.3014 1.35.3254.585.5043 1.307.5369 2.163l-.4555.017v-3.709h1.2363v7.662c0 1.041-.1627 1.881-.488 2.521-.3145.651-.8242 1.128-1.5292 1.432-.6941.304-1.6213.455-2.7818.455zm.4718-4.75c.5206 0 .9923-.114 1.4153-.341.4338-.228.7754-.554 1.0249-.977.2603-.433.3904-.948.3904-1.545v-.748c0-.586-.1356-1.079-.4067-1.481-.2603-.401-.6019-.705-1.0249-.911-.4229-.206-.8839-.309-1.3827-.309-.564 0-1.0629.13-1.4967.391-.4338.26-.77.629-1.0086 1.106-.2386.466-.3579 1.019-.3579 1.659s.1193 1.199.3579 1.676c.2495.477.5857.846 1.0086 1.106.4338.249.9273.374 1.4804.374z"/><path d="m80.1292 125.937v-8.687h1.5617v8.687zm-1.334-7.451v-1.236h2.8957v1.236zm1.7732-2.635c-.347 0-.6073-.093-.7808-.277-.1627-.184-.2441-.417-.2441-.699s.0814-.516.2441-.7c.1735-.184.4338-.276.7808-.276s.6019.092.7646.276c.1735.184.2603.418.2603.7s-.0868.515-.2603.699c-.1627.184-.4176.277-.7646.277z"/><path d="m84.1574 125.937v-1.741l4.7339-5.677v.26l-.2603-.391.2115.098h-4.7502v-1.236h6.1817v1.74l-4.7339 5.678v-.228l.2928.407-.2277-.147h4.9291v1.237z"/><path d="m96.2671 126.229c-.7592 0-1.4153-.13-1.9684-.39s-1.0032-.602-1.3503-1.025c-.347-.434-.6073-.916-.7808-1.448-.1627-.531-.244-1.073-.244-1.626v-.293c0-.564.0813-1.112.244-1.643.1735-.532.4338-1.009.7808-1.432.3471-.434.7863-.775 1.3177-1.025.5423-.26 1.1767-.39 1.9033-.39.9436 0 1.719.206 2.3263.618.6182.401 1.0737.922 1.3665 1.562.3038.64.4558 1.323.4558 2.049v.7h-7.7112v-1.171h6.5722l-.3579.634c0-.618-.0976-1.149-.2928-1.594-.1952-.456-.4881-.808-.8785-1.058-.3904-.249-.8839-.374-1.4804-.374-.6181 0-1.1333.141-1.5454.423-.4013.282-.7049.667-.911 1.155-.1952.488-.2928 1.052-.2928 1.692 0 .618.0976 1.177.2928 1.676.2061.488.5206.878.9436 1.171.4229.282.9598.423 1.6105.423.6832 0 1.2363-.152 1.6593-.456.4338-.303.6941-.656.7808-1.057h1.4638c-.119.597-.3576 1.112-.7155 1.546-.3579.433-.8079.764-1.3502.992-.5422.228-1.155.341-1.8382.341z"/><path d="m108.774 121.317-3.774-7.256h1.66l3.188 6.214-.618-.178h1.92l-.651.178 2.993-6.214h1.562l-3.547 7.256zm.586 4.62v-4.946h1.562v4.946z"/><path d="m119.945 126.229c-.759 0-1.426-.13-2.001-.39s-1.063-.602-1.464-1.025c-.39-.434-.689-.916-.895-1.448-.195-.531-.292-1.073-.292-1.626v-.293c0-.553.103-1.096.309-1.627.206-.542.509-1.025.911-1.448.401-.434.889-.775 1.464-1.025.575-.26 1.231-.39 1.968-.39.738 0 1.394.13 1.969.39.574.25 1.062.591 1.464 1.025.401.423.705.906.911 1.448.206.531.309 1.074.309 1.627v.293c0 .553-.103 1.095-.309 1.626-.196.532-.494 1.014-.895 1.448-.39.423-.873.765-1.448 1.025s-1.242.39-2.001.39zm0-1.399c.651 0 1.204-.141 1.659-.423.467-.292.819-.683 1.058-1.171.249-.488.374-1.036.374-1.643 0-.618-.125-1.171-.374-1.659-.25-.488-.607-.873-1.074-1.155-.455-.282-1.003-.423-1.643-.423-.629 0-1.177.141-1.643.423s-.824.667-1.074 1.155c-.249.488-.374 1.041-.374 1.659 0 .607.12 1.155.358 1.643.25.488.602.879 1.058 1.171.466.282 1.024.423 1.675.423z"/><path d="m129.946 126.197c-1.03 0-1.822-.336-2.375-1.009-.553-.672-.829-1.643-.829-2.912v-5.043h1.561v5.352c0 .684.185 1.221.553 1.611.369.38.868.569 1.497.569.651 0 1.182-.206 1.594-.618.412-.423.618-.998.618-1.724v-5.19h1.562v8.704h-1.236v-3.726h.195c0 .857-.114 1.584-.342 2.18-.227.586-.569 1.036-1.025 1.35-.444.304-1.014.456-1.708.456z"/><path d="m137.152 125.937v-8.687h1.236v3.579h-.065c0-1.269.277-2.197.83-2.782.564-.597 1.404-.895 2.521-.895h.293v1.399h-.553c-.868 0-1.535.233-2.001.7-.466.455-.7 1.117-.7 1.984v4.702z"/><path d="m151.609 126.229c-.987 0-1.828-.162-2.522-.488-.694-.325-1.225-.775-1.594-1.35s-.553-1.225-.553-1.952h1.594c0 .358.092.716.277 1.074.195.358.515.656.96.894.455.239 1.068.358 1.838.358.716 0 1.301-.103 1.757-.309.455-.217.791-.493 1.008-.829.217-.347.326-.722.326-1.123 0-.488-.212-.889-.635-1.204-.423-.325-1.041-.526-1.854-.602l-1.318-.113c-1.052-.087-1.892-.413-2.521-.976-.629-.564-.944-1.307-.944-2.229 0-.727.174-1.361.521-1.904.358-.542.851-.965 1.48-1.268.629-.315 1.361-.472 2.196-.472.824 0 1.551.152 2.18.455.629.304 1.117.732 1.464 1.285.358.543.537 1.193.537 1.953h-1.594c0-.38-.092-.738-.277-1.074-.173-.336-.45-.613-.83-.83-.379-.217-.873-.325-1.48-.325-.586 0-1.074.103-1.464.309-.38.206-.667.477-.862.813-.185.326-.277.678-.277 1.058 0 .434.168.819.505 1.155.336.336.835.531 1.496.585l1.318.114c.813.065 1.513.239 2.098.521.597.271 1.052.64 1.367 1.106.325.456.488 1.003.488 1.643 0 .727-.195 1.372-.586 1.936-.39.564-.938 1.003-1.643 1.318-.705.314-1.523.471-2.456.471z"/><path d="m158.839 125.937v-11.876h1.562v11.876zm-1.204-10.639v-1.237h2.766v1.237z"/><path d="m167.089 126.229c-.759 0-1.415-.13-1.968-.39s-1.004-.602-1.351-1.025c-.347-.434-.607-.916-.78-1.448-.163-.531-.244-1.073-.244-1.626v-.293c0-.564.081-1.112.244-1.643.173-.532.433-1.009.78-1.432.347-.434.787-.775 1.318-1.025.542-.26 1.177-.39 1.903-.39.944 0 1.719.206 2.327.618.618.401 1.073.922 1.366 1.562.304.64.456 1.323.456 2.049v.7h-7.711v-1.171h6.572l-.358.634c0-.618-.098-1.149-.293-1.594-.195-.456-.488-.808-.878-1.058-.391-.249-.884-.374-1.481-.374-.618 0-1.133.141-1.545.423-.401.282-.705.667-.911 1.155-.195.488-.293 1.052-.293 1.692 0 .618.098 1.177.293 1.676.206.488.521.878.944 1.171.423.282.959.423 1.61.423.683 0 1.236-.152 1.659-.456.434-.303.694-.656.781-1.057h1.464c-.119.597-.358 1.112-.715 1.546-.358.433-.808.764-1.351.992-.542.228-1.155.341-1.838.341z"/><path d="m177.05 126.229c-.759 0-1.415-.13-1.969-.39-.553-.26-1.003-.602-1.35-1.025-.347-.434-.607-.916-.781-1.448-.162-.531-.244-1.073-.244-1.626v-.293c0-.564.082-1.112.244-1.643.174-.532.434-1.009.781-1.432.347-.434.787-.775 1.318-1.025.542-.26 1.177-.39 1.903-.39.944 0 1.719.206 2.327.618.618.401 1.073.922 1.366 1.562.304.64.456 1.323.456 2.049v.7h-7.711v-1.171h6.572l-.358.634c0-.618-.098-1.149-.293-1.594-.195-.456-.488-.808-.878-1.058-.391-.249-.884-.374-1.481-.374-.618 0-1.133.141-1.545.423-.401.282-.705.667-.911 1.155-.195.488-.293 1.052-.293 1.692 0 .618.098 1.177.293 1.676.206.488.52.878.943 1.171.423.282.96.423 1.611.423.683 0 1.236-.152 1.659-.456.434-.303.694-.656.781-1.057h1.464c-.119.597-.358 1.112-.716 1.546-.358.433-.808.764-1.35.992s-1.155.341-1.838.341z"/><path d="m183.318 129.19v-11.94h1.236v3.758l-.293-.033c.055-.933.25-1.692.586-2.278.347-.596.797-1.035 1.35-1.317s1.155-.423 1.806-.423c.629 0 1.198.119 1.708.358.521.238.965.564 1.334.976s.651.889.846 1.431c.195.543.293 1.117.293 1.725v.293c0 .607-.103 1.182-.309 1.724s-.499 1.019-.879 1.432c-.368.412-.813.737-1.334.976-.509.238-1.073.357-1.691.357-.619 0-1.21-.135-1.774-.406s-1.03-.711-1.399-1.318c-.368-.607-.58-1.404-.634-2.391l.716 1.301v5.775zm4.409-4.327c.585 0 1.095-.136 1.529-.407.433-.282.77-.667 1.008-1.155.239-.499.358-1.068.358-1.708 0-.651-.119-1.22-.358-1.708-.238-.488-.575-.868-1.008-1.139-.434-.282-.944-.423-1.529-.423-.521 0-1.004.12-1.448.358-.445.228-.803.564-1.074 1.009-.26.434-.39.96-.39 1.578v.748c0 .597.135 1.106.406 1.529s.629.749 1.074.976c.445.228.922.342 1.432.342z"/></g></svg>