<svg width="646" height="169" viewBox="0 0 646 169" fill="none" xmlns="http://www.w3.org/2000/svg">
<g filter="url(#filter0_d)">
<rect y="0.0622559" width="639.866" height="162.678" fill="white"/>
<rect x="0.5" y="0.562256" width="638.866" height="161.678" stroke="#E5E5E5"/>
</g>
<path d="M100.216 53.3211C97.4596 46.9704 86.1989 55.0198 80.0879 60.8911C79.0094 52.3836 78.6499 40.8358 73.4975 43.8314C69.3756 46.2279 69.823 59.8926 73.4976 64.1263C68.1855 66.0036 58.0883 71.2918 60.1972 77.4267C62.3061 83.5617 72.2594 75.9888 76.9725 71.4355C77.292 78.4652 79.4409 91.8295 85.48 89.0496C91.5191 86.2697 87.2773 74.0717 84.4016 68.3201C90.5924 66.5228 102.42 58.4016 100.216 53.3211Z" fill="#FEBD6D"/>
<path fill-rule="evenodd" clip-rule="evenodd" d="M97.0508 57.8926C98.8374 62.341 99.8754 67.9675 99.719 72.4675C99.5722 76.6912 98.6361 78.9916 97.8602 80.8985C97.8051 81.0338 97.7508 81.1672 97.6977 81.2991C97.3029 82.2795 96.9887 83.1415 96.8525 84.1599C96.7169 85.1735 96.7535 86.3787 97.1164 88.0239C97.197 88.3895 96.966 88.7512 96.6004 88.8318C96.2348 88.9124 95.8731 88.6814 95.7925 88.3159C95.4027 86.5481 95.3482 85.1806 95.5088 83.9801C95.6688 82.7844 96.0382 81.791 96.4401 80.7928C96.4939 80.6593 96.5485 80.525 96.6037 80.3894C97.3617 78.5268 98.2258 76.4037 98.3642 72.4204C98.5135 68.1235 97.5145 62.6846 95.7928 58.3979C94.9317 56.2538 93.9071 54.4422 92.791 53.2105C91.67 51.9735 90.5439 51.4101 89.4515 51.5129C88.8119 51.5731 88.4213 51.7424 88.181 51.9379C87.9492 52.1262 87.8 52.3849 87.7269 52.7451C87.5692 53.5215 87.7886 54.6406 88.2378 55.9922C88.5207 56.8435 88.8639 57.7054 89.2055 58.5631C89.4023 59.0574 89.5986 59.5503 89.7825 60.0389C90.0274 60.69 90.2463 61.3255 90.3917 61.9058C90.5068 62.365 90.5858 62.8265 90.5801 63.2545C91.4977 64.3987 92.2312 65.5701 92.5808 66.5992C92.7658 67.1441 92.8631 67.7059 92.7747 68.2264C92.6808 68.7783 92.3812 69.2506 91.8591 69.5521C91.5828 69.7116 91.2732 69.8095 90.9452 69.7871C90.6106 69.7643 90.3275 69.621 90.1048 69.421C89.691 69.0494 89.4555 68.459 89.3127 67.8759C89.0346 66.741 89.003 65.1841 89.1781 63.6853C87.8326 62.0994 86.0832 60.5293 84.4091 59.4754C83.5321 58.9232 82.7028 58.53 81.9833 58.3397C81.2557 58.1473 80.7233 58.1832 80.3619 58.3679C80.1146 58.4942 79.9017 58.7775 79.8214 59.3908C79.7407 60.0068 79.8156 60.836 80.0378 61.8252C80.4695 63.7475 81.4133 66.0879 82.5044 68.2275C84.0416 69.2687 85.4422 70.4595 86.3888 71.5406C86.8733 72.0939 87.269 72.6524 87.4898 73.1735C87.6996 73.6687 87.8283 74.3287 87.4199 74.8745C87.2092 75.1561 86.8986 75.3174 86.5446 75.3167C86.2353 75.316 85.9562 75.1922 85.7363 75.0585C85.2933 74.789 84.8235 74.3128 84.3624 73.75C83.4496 72.6362 82.408 70.9789 81.4602 69.1604C79.9185 68.1474 78.2689 67.3155 76.8443 66.927C75.3193 66.5112 74.3324 66.67 73.8401 67.2251C73.711 67.3707 73.623 67.6233 73.7022 68.0922C73.782 68.5641 74.0188 69.1574 74.4045 69.8408C75.1527 71.1663 76.3744 72.6805 77.6917 74.0455C79.2469 74.6372 80.7677 75.3887 81.8504 76.0957C82.4003 76.4548 82.8817 76.8308 83.1896 77.1969C83.3409 77.3767 83.4944 77.6051 83.5591 77.8708C83.6328 78.1735 83.5844 78.5154 83.3389 78.7923C83.1085 79.0522 82.8022 79.1316 82.5494 79.1362C82.3067 79.1405 82.064 79.0796 81.8471 79.0014C81.4097 78.8439 80.9043 78.552 80.3793 78.1902C79.3497 77.4806 78.1148 76.411 76.9328 75.2092C75.615 74.7262 74.3173 74.3836 73.2976 74.2987C72.7669 74.2545 72.3588 74.2846 72.0768 74.3689C71.8063 74.4498 71.7128 74.5586 71.6726 74.6491C71.3932 75.2775 71.4962 75.9321 71.962 76.7279C72.4395 77.5435 73.2331 78.3915 74.151 79.3258C74.2596 79.4364 74.37 79.5481 74.4813 79.6609C75.285 80.4749 76.1429 81.3439 76.8278 82.2438C77.6071 83.2679 78.2345 84.4214 78.2813 85.695C78.3899 88.6534 78.7204 90.7975 79.389 92.3919C80.0434 93.9523 81.0309 95.0088 82.5342 95.7835C82.8669 95.955 82.9977 96.3638 82.8262 96.6966C82.6547 97.0293 82.2459 97.1601 81.9131 96.9886C80.1312 96.0703 78.9184 94.775 78.1389 92.9162C77.3736 91.0914 77.0368 88.7489 76.9265 85.7447C76.8949 84.884 76.4636 84.0038 75.749 83.0647C75.1211 82.2397 74.3303 81.4382 73.5191 80.6161C73.4077 80.5031 73.2958 80.3897 73.1839 80.2758C72.2829 79.3587 71.3678 78.3963 70.7921 77.4128C70.2048 76.4094 69.9101 75.2762 70.4338 74.0983C70.6821 73.54 71.1668 73.226 71.6885 73.07C72.1987 72.9175 72.7966 72.8966 73.4101 72.9477C73.9522 72.9928 74.5435 73.0976 75.1566 73.246C74.3993 72.3305 73.7236 71.3923 73.224 70.5071C72.802 69.7596 72.4824 69.0097 72.3655 68.3181C72.2482 67.6236 72.3233 66.8924 72.8258 66.3257C73.8747 65.1428 75.5954 65.1814 77.2009 65.6191C78.2239 65.898 79.3165 66.3674 80.3903 66.944C79.6584 65.298 79.0497 63.6121 78.7151 62.1222C78.4778 61.0656 78.3667 60.0581 78.4772 59.2148C78.588 58.3688 78.9433 57.5703 79.7451 57.1607C80.5244 56.7625 81.4397 56.7938 82.3299 57.0291C83.2283 57.2667 84.187 57.7336 85.1314 58.3281C86.38 59.1143 87.651 60.1536 88.7871 61.2752C88.7045 61.0328 88.6127 60.7794 88.5136 60.5163C88.3493 60.0793 88.1626 59.6101 87.97 59.1259C87.6173 58.2391 87.2444 57.3018 86.9513 56.4197C86.5013 55.0657 86.1622 53.6379 86.3983 52.4752C86.5221 51.8659 86.8079 51.307 87.3258 50.886C87.8351 50.472 88.5087 50.24 89.3244 50.1632C91.0219 50.0035 92.5356 50.9099 93.7956 52.3002C95.0604 53.696 96.1578 55.6692 97.0508 57.8926ZM84.299 71.3511C84.6863 71.9438 85.0625 72.4656 85.4109 72.8908C85.7555 73.3113 86.0473 73.6053 86.2735 73.7826C86.2643 73.7578 86.2537 73.731 86.2415 73.7023C86.1017 73.3722 85.8117 72.9394 85.3689 72.4336C85.0655 72.0872 84.7045 71.7223 84.299 71.3511ZM86.3257 74.0773C86.3256 74.0772 86.3259 74.0762 86.3268 74.0744C86.3262 74.0764 86.3257 74.0773 86.3257 74.0773ZM91.2971 67.0352C91.1281 66.5375 90.83 65.9616 90.4264 65.3425C90.4156 66.1878 90.4847 66.9628 90.6294 67.5533C90.7546 68.0644 90.9091 68.3212 91.0106 68.4124C91.0254 68.4257 91.035 68.4319 91.0401 68.4345C91.0521 68.4337 91.0967 68.4269 91.1813 68.378C91.3315 68.2913 91.4076 68.1793 91.4382 67.9992C91.4742 67.7875 91.4447 67.4696 91.2971 67.0352ZM91.0444 68.4362C91.0445 68.4364 91.0435 68.4362 91.0414 68.4352C91.0433 68.4356 91.0443 68.436 91.0444 68.4362Z" fill="#D287A5"/>
<path d="M32.9465 61.3981C33.5113 58.6303 34.1328 43.0987 42.2667 43.4376C50.4005 43.7765 39.8942 68.0075 39.8942 69.5326C39.8942 71.0577 48.8754 89.8687 42.2667 91.9022C35.6579 93.9356 31.252 83.9363 31.252 71.5661C16.6788 64.2794 8.76578 47.3009 18.2038 50.0445C23.457 51.5716 29.3879 55.8625 32.9465 61.3981Z" fill="#A7C5C3"/>
<path fill-rule="evenodd" clip-rule="evenodd" d="M27.5713 62.1475C26.1235 63.5067 24.8936 64.913 24.179 66.1181C23.817 66.7286 23.5491 67.3499 23.4966 67.9231C23.44 68.5411 23.6397 69.1546 24.2467 69.5247C24.5428 69.7053 24.8693 69.8275 25.2177 69.8242C25.5796 69.8207 25.8893 69.6824 26.1393 69.4756C26.5919 69.1011 26.8875 68.4669 27.1224 67.8391C27.3297 67.2852 27.5294 66.618 27.7408 65.9113C27.7799 65.7806 27.8194 65.6486 27.8595 65.5156C28.1065 64.6954 28.3805 63.8169 28.7209 62.9297C30.7231 61.086 33.1647 59.3142 35.3163 58.2756C36.4168 57.7443 37.3955 57.4276 38.1757 57.3639C38.9495 57.3008 39.4189 57.489 39.6961 57.8315C39.822 57.9871 39.9185 58.304 39.8223 58.9047C39.7286 59.4898 39.4693 60.2237 39.0611 61.0663C38.2663 62.7069 36.9705 64.6315 35.5258 66.4396C33.4103 67.3821 31.3654 68.5252 29.9142 69.6019C29.1771 70.1487 28.5544 70.7066 28.1606 71.2396C27.802 71.7251 27.4467 72.4589 27.8686 73.1472C28.0771 73.4874 28.4037 73.6797 28.7712 73.7278C29.1044 73.7715 29.4409 73.6946 29.7402 73.5828C30.341 73.3585 31.0333 72.9 31.7473 72.3246C33.1599 71.1862 34.8366 69.4421 36.3744 67.5472C38.4744 66.634 40.5977 65.9477 42.2211 65.7427C43.0604 65.6367 43.6929 65.6695 44.1051 65.8092C44.4722 65.9336 44.6143 66.1153 44.6565 66.3824C44.7203 66.7868 44.6368 67.3102 44.3662 67.9484C44.0981 68.5808 43.6667 69.2779 43.1038 70.0047C42.0154 71.4098 40.4851 72.8625 38.8665 74.0934C36.8878 74.1843 34.8003 74.5575 33.2598 75.0415C32.4722 75.2889 31.7706 75.5826 31.3006 75.9163C31.0719 76.0787 30.8258 76.3003 30.692 76.5958C30.5323 76.9486 30.5651 77.3404 30.8038 77.6675C31.2215 78.2399 31.8611 78.4636 32.5153 78.4892C33.1588 78.5143 33.8847 78.3549 34.6275 78.0907C36.0677 77.5784 37.7409 76.6097 39.3388 75.4331C40.5958 75.4024 41.7367 75.5031 42.5859 75.7621C43.5066 76.0429 43.8784 76.4361 43.9527 76.8409C44.0538 77.3911 43.7809 77.9081 42.8971 78.4906C42.018 79.0699 40.7508 79.5603 39.3628 80.0659C39.2124 80.1207 39.0606 80.1757 38.908 80.2309C37.6924 80.671 36.4266 81.1293 35.4247 81.6623C34.3456 82.2363 33.2739 83.0484 33.1875 84.2867C33.1481 84.8517 33.1317 85.5171 33.1137 86.2491C33.0742 87.8495 33.0269 89.7682 32.7141 91.6517C32.2568 94.4049 31.2857 96.6468 29.2938 97.4436C28.9463 97.5826 28.7772 97.9771 28.9162 98.3247C29.0553 98.6722 29.4497 98.8413 29.7973 98.7023C32.516 97.6148 33.5862 94.6752 34.0514 91.8738C34.3798 89.8968 34.4335 87.7721 34.4747 86.1375C34.4921 85.4492 34.5073 84.8479 34.5399 84.381C34.5713 83.9314 34.9913 83.4284 36.0613 82.8591C36.972 82.3747 38.1393 81.9516 39.3734 81.5043C39.5237 81.4498 39.6749 81.395 39.8269 81.3397C41.1867 80.8443 42.6084 80.3043 43.643 79.6225C44.6728 78.9439 45.5383 77.9692 45.2861 76.596C45.0715 75.4279 44.059 74.7941 42.9814 74.4654C42.3881 74.2845 41.711 74.1735 40.9929 74.1174C42.1954 73.0857 43.3068 71.9563 44.1755 70.8348C44.784 70.0493 45.2866 69.2506 45.6144 68.4775C45.9396 67.7101 46.1135 66.9181 45.9956 66.171C45.8596 65.3098 45.2845 64.7774 44.5401 64.5252C43.8408 64.2883 42.9674 64.282 42.0513 64.3977C40.8382 64.5509 39.4208 64.9359 37.9677 65.4564C38.8912 64.1602 39.7025 62.8517 40.2811 61.6573C40.7169 60.7577 41.0376 59.8889 41.1609 59.119C41.2817 58.3648 41.2321 57.5744 40.7498 56.9786C40.0862 56.1588 39.0897 55.9292 38.0655 56.0128C37.0477 56.0958 35.8962 56.4903 34.727 57.0547C33.2636 57.7611 31.7003 58.7693 30.2236 59.8998C31.6392 57.5432 32.4122 55.4578 32.6559 53.7696C32.9041 52.0506 32.6202 50.5651 31.6605 49.7552C30.6498 48.9022 29.2324 49.0608 27.8467 49.8748C26.4444 50.6986 24.8868 52.2773 23.3247 54.6805C20.2614 59.3932 18.2112 62.8703 16.9988 65.706C15.7792 68.5583 15.3888 70.8032 15.6841 73.0387C15.7778 73.7486 15.9366 74.5866 16.1033 75.4658C16.1375 75.6466 16.1721 75.8291 16.2065 76.0126C16.4108 77.1017 16.6134 78.2455 16.7301 79.3527C16.8471 80.4635 16.8738 81.5051 16.7411 82.3931C16.6082 83.2835 16.3247 83.9562 15.8768 84.4041C15.6121 84.6688 15.6121 85.098 15.8768 85.3627C16.1415 85.6274 16.5707 85.6274 16.8354 85.3627C17.5651 84.6329 17.9254 83.6413 18.0819 82.5934C18.2388 81.5432 18.2007 80.3728 18.0783 79.2107C17.9554 78.045 17.7439 76.8551 17.5389 75.7627C17.5031 75.5715 17.4675 75.3838 17.4327 75.2C17.2662 74.3209 17.1163 73.5298 17.028 72.8612C16.7737 70.9356 17.0899 68.941 18.2453 66.2389C19.4078 63.5201 21.4009 60.1277 24.4613 55.4193C25.9611 53.1119 27.3802 51.7212 28.5333 51.0437C29.7031 50.3565 30.42 50.4821 30.7862 50.7912C31.2036 51.1435 31.5395 52.0153 31.3142 53.5759C31.0946 55.097 30.356 57.1095 28.8903 59.4826C28.3547 60.35 27.9267 61.2577 27.5713 62.1475ZM36.4885 75.6971C35.4506 75.8589 34.4704 76.0821 33.6661 76.3348C32.9188 76.5696 32.3799 76.8126 32.0854 77.0217C32.084 77.0227 32.0826 77.0237 32.0812 77.0246C32.1911 77.0838 32.3459 77.1259 32.5682 77.1345C32.9693 77.1502 33.5106 77.0491 34.1731 76.8135C34.876 76.5634 35.6647 76.1803 36.4885 75.6971ZM33.1879 69.1226C32.2538 69.6455 31.4097 70.1804 30.7219 70.6906C30.0249 71.2078 29.527 71.6716 29.251 72.0451C29.1361 72.2007 29.0823 72.3067 29.0575 72.3742C29.1082 72.3644 29.1769 72.3461 29.2659 72.3128C29.6596 72.1658 30.2159 71.8177 30.8966 71.2691C31.5971 70.7046 32.3812 69.9676 33.1879 69.1226ZM29.0381 72.4723C29.0379 72.4724 29.0373 72.4703 29.0371 72.4659C29.0383 72.47 29.0384 72.4722 29.0381 72.4723ZM26.5485 65.1677C26.511 65.2923 26.4744 65.4144 26.4387 65.5337C26.2265 66.2426 26.0426 66.8568 25.8528 67.364C25.6166 67.9949 25.4219 68.3096 25.2751 68.4311C25.2285 68.4696 25.2104 68.4688 25.2054 68.4686C25.2051 68.4686 25.2048 68.4686 25.2046 68.4686C25.1876 68.4688 25.1101 68.4634 24.9525 68.3673C24.8873 68.3276 24.8254 68.2782 24.8466 68.0467C24.8719 67.7703 25.0214 67.3555 25.3451 66.8096C25.6405 66.3113 26.0498 65.7553 26.5485 65.1677Z" fill="#D287A5"/>
<path d="M320.31 26.2111V25.0914L323.185 20.7546L323.821 21.2576L321.135 25.3191L321.221 25.4899H325.7V26.2111H320.31ZM323.925 27.8528V22.9467H324.779V27.8528H323.925Z" fill="#121212"/>
<path d="M329.255 28.0426C328.749 28.0426 328.325 27.954 327.983 27.7769C327.648 27.5997 327.379 27.3593 327.177 27.0557C326.98 26.7457 326.838 26.3914 326.75 25.9929C326.667 25.5943 326.626 25.1768 326.626 24.7403V24.2848C326.626 23.1903 326.898 22.3489 327.442 21.7605C327.986 21.1659 328.774 20.8685 329.805 20.8685C330.052 20.8685 330.261 20.8748 330.431 20.8875C330.602 20.9001 330.789 20.9191 330.991 20.9444V21.7226C330.783 21.6973 330.59 21.6783 330.412 21.6656C330.235 21.653 330.02 21.6466 329.767 21.6466C329.191 21.6466 328.736 21.7542 328.401 21.9693C328.065 22.1844 327.825 22.4944 327.68 22.8993C327.534 23.2979 327.461 23.7818 327.461 24.3512V24.7782L327.233 25.6228C327.24 25.123 327.335 24.7086 327.518 24.3796C327.708 24.0506 327.964 23.804 328.287 23.6395C328.616 23.475 328.992 23.3927 329.416 23.3927C329.91 23.3927 330.327 23.4939 330.669 23.6964C331.01 23.8925 331.267 24.1646 331.437 24.5125C331.614 24.8605 331.703 25.2559 331.703 25.6987C331.703 26.1479 331.611 26.5496 331.428 26.9038C331.244 27.2581 330.969 27.5365 330.602 27.739C330.242 27.9414 329.793 28.0426 329.255 28.0426ZM329.255 27.2455C329.603 27.2455 329.894 27.1791 330.128 27.0462C330.362 26.9134 330.536 26.7331 330.65 26.5053C330.77 26.2712 330.83 26.0024 330.83 25.6987C330.83 25.395 330.773 25.1262 330.659 24.8921C330.545 24.658 330.375 24.4777 330.147 24.3512C329.925 24.2183 329.65 24.1519 329.321 24.1519C328.999 24.1519 328.708 24.212 328.448 24.3322C328.195 24.4524 327.996 24.6295 327.85 24.8636C327.705 25.0914 327.632 25.3729 327.632 25.7082C327.632 25.9865 327.689 26.2427 327.803 26.4768C327.917 26.7109 328.094 26.8975 328.334 27.0367C328.575 27.1759 328.882 27.2455 329.255 27.2455Z" fill="#121212"/>
<path d="M334.58 27.8528L337.199 20.9255H337.92L335.301 27.8528H334.58ZM334.068 24.6454C333.707 24.6454 333.413 24.5631 333.185 24.3986C332.964 24.2341 332.799 24.0159 332.692 23.7438C332.59 23.4718 332.54 23.1776 332.54 22.8613V22.6146C332.54 22.2729 332.594 21.9693 332.701 21.7036C332.809 21.4315 332.976 21.2196 333.204 21.0678C333.432 20.9096 333.72 20.8306 334.068 20.8306C334.422 20.8306 334.71 20.9096 334.931 21.0678C335.159 21.2196 335.327 21.4315 335.434 21.7036C335.542 21.9693 335.595 22.2729 335.595 22.6146V22.8613C335.595 23.1776 335.542 23.4718 335.434 23.7438C335.333 24.0159 335.172 24.2341 334.95 24.3986C334.729 24.5631 334.435 24.6454 334.068 24.6454ZM334.068 24.019C334.359 24.019 334.574 23.9147 334.713 23.7059C334.858 23.4908 334.931 23.1713 334.931 22.7474C334.931 22.2983 334.858 21.9725 334.713 21.77C334.567 21.5612 334.352 21.4569 334.068 21.4569C333.783 21.4569 333.568 21.5612 333.422 21.77C333.277 21.9725 333.204 22.2951 333.204 22.7379C333.204 23.1618 333.274 23.4813 333.413 23.6964C333.558 23.9115 333.777 24.019 334.068 24.019ZM338.395 27.9477C338.034 27.9477 337.74 27.8655 337.512 27.701C337.291 27.5365 337.126 27.3182 337.019 27.0462C336.918 26.7742 336.867 26.48 336.867 26.1637V25.9169C336.867 25.5753 336.921 25.2717 337.028 25.006C337.136 24.7339 337.304 24.522 337.531 24.3701C337.759 24.212 338.047 24.1329 338.395 24.1329C338.749 24.1329 339.037 24.212 339.258 24.3701C339.486 24.522 339.654 24.7339 339.761 25.006C339.869 25.2717 339.923 25.5753 339.923 25.9169V26.1637C339.923 26.48 339.869 26.7742 339.761 27.0462C339.66 27.3182 339.499 27.5365 339.277 27.701C339.056 27.8655 338.762 27.9477 338.395 27.9477ZM338.395 27.3214C338.686 27.3214 338.901 27.217 339.04 27.0083C339.186 26.7932 339.258 26.4737 339.258 26.0498C339.258 25.6006 339.186 25.2748 339.04 25.0724C338.895 24.8636 338.68 24.7592 338.395 24.7592C338.11 24.7592 337.895 24.8636 337.75 25.0724C337.604 25.2748 337.531 25.5974 337.531 26.0403C337.531 26.4641 337.601 26.7837 337.74 26.9987C337.886 27.2138 338.104 27.3214 338.395 27.3214Z" fill="#121212"/>
<path d="M345.627 28.0236C345.184 28.0236 344.795 27.9477 344.46 27.7959C344.125 27.644 343.84 27.4448 343.606 27.198C343.378 26.945 343.204 26.6635 343.084 26.3535C342.97 26.0435 342.913 25.7272 342.913 25.4045V25.2337C342.913 24.911 342.973 24.5948 343.094 24.2848C343.214 23.9684 343.391 23.6869 343.625 23.4402C343.859 23.1871 344.144 22.9878 344.479 22.8423C344.814 22.6905 345.197 22.6146 345.627 22.6146C346.058 22.6146 346.44 22.6905 346.776 22.8423C347.111 22.9878 347.396 23.1871 347.63 23.4402C347.864 23.6869 348.041 23.9684 348.161 24.2848C348.281 24.5948 348.341 24.911 348.341 25.2337V25.4045C348.341 25.7272 348.281 26.0435 348.161 26.3535C348.047 26.6635 347.873 26.945 347.639 27.198C347.411 27.4448 347.13 27.644 346.795 27.7959C346.459 27.9477 346.07 28.0236 345.627 28.0236ZM345.627 27.2075C346.007 27.2075 346.33 27.1253 346.595 26.9608C346.867 26.79 347.073 26.5622 347.212 26.2776C347.358 25.9929 347.43 25.6734 347.43 25.3191C347.43 24.9585 347.358 24.6359 347.212 24.3512C347.067 24.0665 346.858 23.8419 346.586 23.6774C346.32 23.5129 346.001 23.4307 345.627 23.4307C345.26 23.4307 344.941 23.5129 344.669 23.6774C344.397 23.8419 344.188 24.0665 344.043 24.3512C343.897 24.6359 343.824 24.9585 343.824 25.3191C343.824 25.6734 343.894 25.9929 344.033 26.2776C344.179 26.5622 344.384 26.79 344.65 26.9608C344.922 27.1253 345.248 27.2075 345.627 27.2075Z" fill="#121212"/>
<path d="M349.839 27.8528V22.5292C349.839 21.9661 349.987 21.5518 350.285 21.2861C350.582 21.0204 351.018 20.8875 351.594 20.8875H352.22V21.6466H351.442C351.208 21.6466 351.028 21.7131 350.901 21.8459C350.775 21.9725 350.712 22.1496 350.712 22.3773V27.8528H349.839ZM349.136 23.5256V22.8423H352.315V23.5256H349.136Z" fill="#121212"/>
<path d="M357.434 27.9097C357.055 27.9097 356.726 27.856 356.448 27.7484C356.175 27.6409 355.964 27.4574 355.812 27.198C355.666 26.9323 355.593 26.5749 355.593 26.1257V21.2481H356.467V26.2396C356.467 26.5116 356.539 26.7235 356.685 26.8754C356.837 27.0209 357.049 27.0937 357.321 27.0937H358.213V27.9097H357.434ZM354.72 23.4686V22.7854H358.213V23.4686H354.72Z" fill="#121212"/>
<path d="M359.501 27.8528V20.9255H360.412V25.0629H360.184C360.184 24.5631 360.248 24.1329 360.374 23.7723C360.507 23.4054 360.709 23.1239 360.981 22.9277C361.254 22.7316 361.601 22.6335 362.025 22.6335H362.063C362.671 22.6335 363.129 22.836 363.439 23.2409C363.749 23.6394 363.904 24.212 363.904 24.9585V27.8528H362.993V24.7687C362.993 24.3575 362.876 24.038 362.642 23.8103C362.414 23.5825 362.117 23.4686 361.75 23.4686C361.345 23.4686 361.019 23.6046 360.773 23.8767C360.532 24.1424 360.412 24.4935 360.412 24.93V27.8528H359.501Z" fill="#121212"/>
<path d="M367.725 28.0236C367.282 28.0236 366.9 27.9477 366.577 27.7959C366.254 27.644 365.992 27.4448 365.789 27.198C365.587 26.945 365.435 26.6635 365.334 26.3535C365.239 26.0435 365.191 25.7272 365.191 25.4045V25.2337C365.191 24.9047 365.239 24.5852 365.334 24.2752C365.435 23.9652 365.587 23.6869 365.789 23.4402C365.992 23.1871 366.248 22.9878 366.558 22.8423C366.874 22.6905 367.244 22.6146 367.668 22.6146C368.219 22.6146 368.671 22.7348 369.025 22.9752C369.386 23.2093 369.652 23.5129 369.822 23.8862C370 24.2595 370.088 24.658 370.088 25.0818V25.4899H365.59V24.8066H369.424L369.215 25.1768C369.215 24.8162 369.158 24.5061 369.044 24.2468C368.93 23.9811 368.76 23.7755 368.532 23.63C368.304 23.4845 368.016 23.4117 367.668 23.4117C367.308 23.4117 367.007 23.494 366.767 23.6584C366.533 23.8229 366.355 24.0475 366.235 24.3322C366.121 24.6169 366.065 24.9459 366.065 25.3191C366.065 25.6797 366.121 26.0055 366.235 26.2965C366.355 26.5812 366.539 26.809 366.786 26.9798C367.032 27.1443 367.346 27.2265 367.725 27.2265C368.124 27.2265 368.446 27.138 368.693 26.9608C368.946 26.7837 369.098 26.578 369.149 26.344H370.003C369.933 26.6919 369.794 26.9924 369.585 27.2455C369.376 27.4985 369.114 27.6915 368.797 27.8243C368.481 27.9572 368.124 28.0236 367.725 28.0236Z" fill="#121212"/>
<path d="M375.515 27.9097C375.135 27.9097 374.806 27.856 374.528 27.7484C374.256 27.6409 374.044 27.4574 373.892 27.198C373.746 26.9323 373.674 26.5749 373.674 26.1257V21.2481H374.547V26.2396C374.547 26.5116 374.619 26.7235 374.765 26.8754C374.917 27.0209 375.129 27.0937 375.401 27.0937H376.293V27.9097H375.515ZM372.801 23.4686V22.7854H376.293V23.4686H372.801Z" fill="#121212"/>
<path d="M377.828 27.8528V22.7854H378.739V27.8528H377.828ZM377.05 23.5066V22.7854H378.739V23.5066H377.05ZM378.084 21.9693C377.882 21.9693 377.73 21.9155 377.629 21.808C377.534 21.7004 377.486 21.5644 377.486 21.3999C377.486 21.2354 377.534 21.0994 377.629 20.9919C377.73 20.8843 377.882 20.8306 378.084 20.8306C378.287 20.8306 378.435 20.8843 378.53 20.9919C378.631 21.0994 378.682 21.2354 378.682 21.3999C378.682 21.5644 378.631 21.7004 378.53 21.808C378.435 21.9155 378.287 21.9693 378.084 21.9693Z" fill="#121212"/>
<path d="M380.5 27.8528V22.7854H381.222V24.9585H381.108C381.108 24.465 381.171 24.0475 381.298 23.7059C381.43 23.358 381.626 23.0922 381.886 22.9088C382.145 22.7253 382.474 22.6335 382.873 22.6335H382.911C383.309 22.6335 383.638 22.7253 383.898 22.9088C384.163 23.0922 384.359 23.358 384.486 23.7059C384.613 24.0475 384.676 24.465 384.676 24.9585H384.41C384.41 24.465 384.477 24.0475 384.609 23.7059C384.742 23.358 384.938 23.0922 385.198 22.9088C385.463 22.7253 385.796 22.6335 386.194 22.6335H386.232C386.631 22.6335 386.963 22.7253 387.228 22.9088C387.494 23.0922 387.69 23.358 387.817 23.7059C387.95 24.0475 388.016 24.465 388.016 24.9585V27.8528H387.105V24.7592C387.105 24.348 387.004 24.0317 386.801 23.8103C386.599 23.5825 386.317 23.4686 385.957 23.4686C385.584 23.4686 385.283 23.5889 385.055 23.8293C384.828 24.0633 384.714 24.3923 384.714 24.8162V27.8528H383.803V24.7592C383.803 24.348 383.702 24.0317 383.499 23.8103C383.297 23.5825 383.015 23.4686 382.654 23.4686C382.281 23.4686 381.981 23.5889 381.753 23.8293C381.525 24.0633 381.411 24.3923 381.411 24.8162V27.8528H380.5Z" fill="#121212"/>
<path d="M391.838 28.0236C391.395 28.0236 391.013 27.9477 390.69 27.7959C390.367 27.644 390.105 27.4448 389.902 27.198C389.7 26.945 389.548 26.6635 389.447 26.3535C389.352 26.0435 389.305 25.7272 389.305 25.4045V25.2337C389.305 24.9047 389.352 24.5852 389.447 24.2752C389.548 23.9652 389.7 23.6869 389.902 23.4402C390.105 23.1871 390.361 22.9878 390.671 22.8423C390.987 22.6905 391.357 22.6146 391.781 22.6146C392.332 22.6146 392.784 22.7348 393.138 22.9752C393.499 23.2093 393.765 23.5129 393.935 23.8862C394.113 24.2595 394.201 24.658 394.201 25.0818V25.4899H389.703V24.8066H393.537L393.328 25.1768C393.328 24.8162 393.271 24.5061 393.157 24.2468C393.043 23.9811 392.873 23.7755 392.645 23.63C392.417 23.4845 392.129 23.4117 391.781 23.4117C391.421 23.4117 391.12 23.494 390.88 23.6584C390.646 23.8229 390.469 24.0475 390.348 24.3322C390.234 24.6169 390.178 24.9459 390.178 25.3191C390.178 25.6797 390.234 26.0055 390.348 26.2965C390.469 26.5812 390.652 26.809 390.899 26.9798C391.145 27.1443 391.459 27.2265 391.838 27.2265C392.237 27.2265 392.559 27.138 392.806 26.9608C393.059 26.7837 393.211 26.578 393.262 26.344H394.116C394.046 26.6919 393.907 26.9924 393.698 27.2455C393.489 27.4985 393.227 27.6915 392.911 27.8243C392.594 27.9572 392.237 28.0236 391.838 28.0236Z" fill="#121212"/>
<path d="M397.155 28.0046C396.491 28.0046 395.975 27.8623 395.608 27.5776C395.248 27.2929 395.061 26.9039 395.049 26.4104H395.903C395.915 26.6065 396.013 26.7931 396.197 26.9703C396.387 27.1411 396.706 27.2265 397.155 27.2265C397.56 27.2265 397.87 27.1474 398.085 26.9893C398.3 26.8248 398.408 26.6255 398.408 26.3914C398.408 26.1826 398.329 26.0213 398.171 25.9074C398.012 25.7872 397.756 25.7082 397.402 25.6702L396.852 25.6133C396.371 25.5626 395.979 25.4203 395.675 25.1862C395.371 24.9458 395.219 24.6105 395.219 24.1803C395.219 23.8577 395.302 23.5825 395.466 23.3548C395.631 23.1207 395.858 22.9436 396.149 22.8234C396.44 22.6968 396.776 22.6335 397.155 22.6335C397.725 22.6335 398.186 22.7601 398.541 23.0131C398.895 23.2662 399.078 23.6426 399.091 24.1424H398.237C398.231 23.94 398.136 23.7692 397.952 23.63C397.775 23.4845 397.51 23.4117 397.155 23.4117C396.801 23.4117 396.532 23.4845 396.349 23.63C396.165 23.7755 396.073 23.9589 396.073 24.1803C396.073 24.3701 396.137 24.522 396.263 24.6359C396.396 24.7497 396.611 24.8225 396.909 24.8541L397.459 24.911C398.003 24.968 398.44 25.1198 398.768 25.3665C399.097 25.6069 399.262 25.9486 399.262 26.3914C399.262 26.7077 399.17 26.9893 398.987 27.236C398.81 27.4764 398.563 27.6662 398.247 27.8054C397.93 27.9382 397.566 28.0046 397.155 28.0046Z" fill="#121212"/>
<path d="M402.4 29.8266V29.0105H403.131C403.346 29.0105 403.526 28.9821 403.671 28.9251C403.823 28.8745 403.947 28.786 404.042 28.6594C404.143 28.5329 404.225 28.3652 404.288 28.1565L405.883 22.7854H406.775L405.085 28.3937C404.984 28.729 404.842 29.001 404.658 29.2098C404.475 29.4249 404.25 29.5799 403.985 29.6748C403.725 29.776 403.422 29.8266 403.074 29.8266H402.4ZM403.947 27.739V26.9798H405.047V27.739H403.947ZM403.852 27.739L402.039 22.7854H402.969L404.706 27.739H403.852Z" fill="#121212"/>
<path d="M410.173 28.0236C409.73 28.0236 409.341 27.9477 409.006 27.7959C408.67 27.644 408.386 27.4448 408.152 27.198C407.924 26.945 407.75 26.6635 407.63 26.3535C407.516 26.0435 407.459 25.7272 407.459 25.4045V25.2337C407.459 24.911 407.519 24.5948 407.639 24.2848C407.759 23.9684 407.936 23.6869 408.171 23.4402C408.405 23.1871 408.689 22.9878 409.025 22.8423C409.36 22.6905 409.743 22.6146 410.173 22.6146C410.603 22.6146 410.986 22.6905 411.321 22.8423C411.656 22.9878 411.941 23.1871 412.175 23.4402C412.409 23.6869 412.586 23.9684 412.707 24.2848C412.827 24.5948 412.887 24.911 412.887 25.2337V25.4045C412.887 25.7272 412.827 26.0435 412.707 26.3535C412.593 26.6635 412.419 26.945 412.185 27.198C411.957 27.4448 411.675 27.644 411.34 27.7959C411.005 27.9477 410.616 28.0236 410.173 28.0236ZM410.173 27.2075C410.552 27.2075 410.875 27.1253 411.141 26.9608C411.413 26.79 411.618 26.5622 411.758 26.2776C411.903 25.9929 411.976 25.6734 411.976 25.3191C411.976 24.9585 411.903 24.6359 411.758 24.3512C411.612 24.0665 411.403 23.8419 411.131 23.6774C410.866 23.5129 410.546 23.4307 410.173 23.4307C409.806 23.4307 409.486 23.5129 409.214 23.6774C408.942 23.8419 408.734 24.0665 408.588 24.3512C408.443 24.6359 408.37 24.9585 408.37 25.3191C408.37 25.6734 408.439 25.9929 408.579 26.2776C408.724 26.5622 408.93 26.79 409.195 26.9608C409.467 27.1253 409.793 27.2075 410.173 27.2075Z" fill="#121212"/>
<path d="M416.007 28.0046C415.406 28.0046 414.944 27.8085 414.621 27.4163C414.299 27.0241 414.137 26.4578 414.137 25.7177V22.7759H415.048V25.898C415.048 26.2965 415.156 26.6097 415.371 26.8374C415.586 27.0589 415.877 27.1696 416.244 27.1696C416.624 27.1696 416.934 27.0494 417.174 26.809C417.414 26.5622 417.535 26.2269 417.535 25.8031V22.7759H418.446V27.8528H417.724V25.6797H417.838C417.838 26.1795 417.772 26.6033 417.639 26.9513C417.506 27.2929 417.307 27.5555 417.041 27.739C416.782 27.9161 416.45 28.0046 416.045 28.0046H416.007Z" fill="#121212"/>
<path d="M419.792 23.8103V23.3168H419.878C420.08 23.3168 420.242 23.282 420.362 23.2124C420.482 23.1428 420.567 23.0353 420.618 22.8898C420.675 22.7379 420.703 22.5482 420.703 22.3204V21.6087L420.931 22.0357C420.887 22.061 420.827 22.08 420.751 22.0927C420.681 22.1053 420.612 22.1117 420.542 22.1117C420.365 22.1117 420.216 22.0579 420.096 21.9503C419.982 21.8364 419.925 21.6815 419.925 21.4854C419.925 21.3019 419.979 21.15 420.087 21.0298C420.201 20.9096 420.352 20.8495 420.542 20.8495C420.662 20.8495 420.776 20.878 420.884 20.9349C420.991 20.9919 421.08 21.0931 421.149 21.2386C421.219 21.3841 421.254 21.5929 421.254 21.8649V22.0642C421.254 22.526 421.197 22.8835 421.083 23.1365C420.969 23.3896 420.808 23.5667 420.599 23.6679C420.39 23.7628 420.144 23.8103 419.859 23.8103H419.792Z" fill="#121212"/>
<path d="M423.683 27.8528L421.956 22.7854H422.905L424.594 27.8528H423.683ZM423.91 27.8528V27.1316H425.011V27.8528H423.91ZM424.347 27.8528L425.818 22.7854H426.71L425.211 27.8528H424.347Z" fill="#121212"/>
<path d="M429.963 28.0236C429.52 28.0236 429.138 27.9477 428.815 27.7959C428.492 27.644 428.23 27.4448 428.027 27.198C427.825 26.945 427.673 26.6635 427.572 26.3535C427.477 26.0435 427.429 25.7272 427.429 25.4045V25.2337C427.429 24.9047 427.477 24.5852 427.572 24.2752C427.673 23.9652 427.825 23.6869 428.027 23.4402C428.23 23.1871 428.486 22.9878 428.796 22.8423C429.112 22.6905 429.482 22.6146 429.906 22.6146C430.457 22.6146 430.909 22.7348 431.263 22.9752C431.624 23.2093 431.89 23.5129 432.06 23.8862C432.238 24.2595 432.326 24.658 432.326 25.0818V25.4899H427.828V24.8066H431.662L431.453 25.1768C431.453 24.8162 431.396 24.5061 431.282 24.2468C431.168 23.9811 430.997 23.7755 430.77 23.63C430.542 23.4845 430.254 23.4117 429.906 23.4117C429.546 23.4117 429.245 23.494 429.005 23.6584C428.771 23.8229 428.594 24.0475 428.473 24.3322C428.359 24.6169 428.303 24.9459 428.303 25.3191C428.303 25.6797 428.359 26.0055 428.473 26.2965C428.594 26.5812 428.777 26.809 429.024 26.9798C429.27 27.1443 429.584 27.2265 429.963 27.2265C430.362 27.2265 430.684 27.138 430.931 26.9608C431.184 26.7837 431.336 26.578 431.387 26.344H432.241C432.171 26.6919 432.032 26.9924 431.823 27.2455C431.614 27.4985 431.352 27.6915 431.035 27.8243C430.719 27.9572 430.362 28.0236 429.963 28.0236Z" fill="#121212"/>
<path d="M437.753 27.9097C437.373 27.9097 437.044 27.856 436.766 27.7484C436.494 27.6409 436.282 27.4574 436.13 27.198C435.984 26.9323 435.912 26.5749 435.912 26.1257V21.2481H436.785V26.2396C436.785 26.5116 436.857 26.7235 437.003 26.8754C437.155 27.0209 437.367 27.0937 437.639 27.0937H438.531V27.9097H437.753ZM435.039 23.4686V22.7854H438.531V23.4686H435.039Z" fill="#121212"/>
<path d="M441.575 28.0046C440.974 28.0046 440.512 27.8085 440.189 27.4163C439.867 27.0241 439.705 26.4578 439.705 25.7177V22.7759H440.616V25.898C440.616 26.2965 440.724 26.6097 440.939 26.8374C441.154 27.0589 441.445 27.1696 441.812 27.1696C442.192 27.1696 442.502 27.0494 442.742 26.809C442.982 26.5622 443.103 26.2269 443.103 25.8031V22.7759H444.014V27.8528H443.292V25.6797H443.406C443.406 26.1795 443.34 26.6033 443.207 26.9513C443.074 27.2929 442.875 27.5555 442.609 27.739C442.35 27.9161 442.018 28.0046 441.613 28.0046H441.575Z" fill="#121212"/>
<path d="M445.778 27.8528V22.7854H446.499V24.8731H446.461C446.461 24.1329 446.623 23.592 446.945 23.2504C447.274 22.9024 447.764 22.7285 448.416 22.7285H448.587V23.5446H448.264C447.758 23.5446 447.369 23.6805 447.097 23.9526C446.825 24.2183 446.689 24.6042 446.689 25.1103V27.8528H445.778Z" fill="#121212"/>
<path d="M449.67 27.8528V22.7854H450.391V24.9585H450.277C450.277 24.4587 450.344 24.038 450.477 23.6964C450.616 23.3484 450.825 23.0859 451.103 22.9088C451.381 22.7253 451.733 22.6335 452.156 22.6335H452.194C452.833 22.6335 453.305 22.8329 453.608 23.2314C453.918 23.63 454.073 24.2057 454.073 24.9585V27.8528H453.162V24.7687C453.162 24.3765 453.052 24.0633 452.83 23.8293C452.609 23.5889 452.305 23.4686 451.919 23.4686C451.521 23.4686 451.198 23.592 450.951 23.8387C450.705 24.0855 450.581 24.4144 450.581 24.8257V27.8528H449.67Z" fill="#121212"/>
<path d="M457.894 28.0236C457.451 28.0236 457.069 27.9477 456.746 27.7959C456.423 27.644 456.161 27.4448 455.958 27.198C455.756 26.945 455.604 26.6635 455.503 26.3535C455.408 26.0435 455.361 25.7272 455.361 25.4045V25.2337C455.361 24.9047 455.408 24.5852 455.503 24.2752C455.604 23.9652 455.756 23.6869 455.958 23.4402C456.161 23.1871 456.417 22.9878 456.727 22.8423C457.043 22.6905 457.414 22.6146 457.837 22.6146C458.388 22.6146 458.84 22.7348 459.194 22.9752C459.555 23.2093 459.821 23.5129 459.991 23.8862C460.169 24.2595 460.257 24.658 460.257 25.0818V25.4899H455.759V24.8066H459.593L459.384 25.1768C459.384 24.8162 459.327 24.5061 459.213 24.2468C459.099 23.9811 458.929 23.7755 458.701 23.63C458.473 23.4845 458.185 23.4117 457.837 23.4117C457.477 23.4117 457.176 23.494 456.936 23.6584C456.702 23.8229 456.525 24.0475 456.404 24.3322C456.291 24.6169 456.234 24.9459 456.234 25.3191C456.234 25.6797 456.291 26.0055 456.404 26.2965C456.525 26.5812 456.708 26.809 456.955 26.9798C457.202 27.1443 457.515 27.2265 457.894 27.2265C458.293 27.2265 458.615 27.138 458.862 26.9608C459.115 26.7837 459.267 26.578 459.318 26.344H460.172C460.102 26.6919 459.963 26.9924 459.754 27.2455C459.545 27.4985 459.283 27.6915 458.967 27.8243C458.65 27.9572 458.293 28.0236 457.894 28.0236Z" fill="#121212"/>
<path d="M463.667 28.0236C463.306 28.0236 462.974 27.9572 462.67 27.8243C462.367 27.6915 462.101 27.5049 461.873 27.2645C461.652 27.0241 461.478 26.7457 461.351 26.4294C461.231 26.1131 461.171 25.7714 461.171 25.4045V25.2337C461.171 24.8731 461.231 24.5346 461.351 24.2183C461.472 23.902 461.639 23.6236 461.854 23.3832C462.076 23.1428 462.335 22.9562 462.632 22.8234C462.936 22.6842 463.271 22.6146 463.638 22.6146C464.024 22.6146 464.375 22.6968 464.692 22.8613C465.008 23.0195 465.267 23.2694 465.47 23.611C465.672 23.9526 465.786 24.3955 465.811 24.9395L465.432 24.3322V20.9255H466.343V27.8528H465.622V25.6038H465.887C465.862 26.1795 465.742 26.6477 465.527 27.0083C465.312 27.3625 465.04 27.6219 464.711 27.7864C464.388 27.9445 464.04 28.0236 463.667 28.0236ZM463.79 27.2265C464.1 27.2265 464.382 27.1569 464.635 27.0177C464.888 26.8786 465.09 26.6793 465.242 26.4199C465.394 26.1542 465.47 25.8442 465.47 25.4899V25.0534C465.47 24.7055 465.391 24.4113 465.233 24.1709C465.081 23.9241 464.875 23.7375 464.616 23.611C464.363 23.4781 464.084 23.4117 463.781 23.4117C463.445 23.4117 463.148 23.4908 462.889 23.6489C462.636 23.8071 462.436 24.0285 462.291 24.3132C462.152 24.5979 462.082 24.9332 462.082 25.3191C462.082 25.705 462.155 26.0435 462.3 26.3345C462.446 26.6192 462.648 26.8406 462.908 26.9987C463.167 27.1506 463.461 27.2265 463.79 27.2265Z" fill="#121212"/>
<path d="M472.587 28.0236C472.144 28.0236 471.755 27.9477 471.42 27.7959C471.084 27.644 470.8 27.4448 470.566 27.198C470.338 26.945 470.164 26.6635 470.044 26.3535C469.93 26.0435 469.873 25.7272 469.873 25.4045V25.2337C469.873 24.911 469.933 24.5948 470.053 24.2848C470.173 23.9684 470.35 23.6869 470.585 23.4402C470.819 23.1871 471.103 22.9878 471.439 22.8423C471.774 22.6905 472.157 22.6146 472.587 22.6146C473.017 22.6146 473.4 22.6905 473.735 22.8423C474.07 22.9878 474.355 23.1871 474.589 23.4402C474.823 23.6869 475 23.9684 475.121 24.2848C475.241 24.5948 475.301 24.911 475.301 25.2337V25.4045C475.301 25.7272 475.241 26.0435 475.121 26.3535C475.007 26.6635 474.833 26.945 474.599 27.198C474.371 27.4448 474.089 27.644 473.754 27.7959C473.419 27.9477 473.03 28.0236 472.587 28.0236ZM472.587 27.2075C472.966 27.2075 473.289 27.1253 473.555 26.9608C473.827 26.79 474.032 26.5622 474.172 26.2776C474.317 25.9929 474.39 25.6734 474.39 25.3191C474.39 24.9585 474.317 24.6359 474.172 24.3512C474.026 24.0665 473.817 23.8419 473.545 23.6774C473.28 23.5129 472.96 23.4307 472.587 23.4307C472.22 23.4307 471.9 23.5129 471.628 23.6774C471.356 23.8419 471.148 24.0665 471.002 24.3512C470.857 24.6359 470.784 24.9585 470.784 25.3191C470.784 25.6734 470.853 25.9929 470.993 26.2776C471.138 26.5622 471.344 26.79 471.609 26.9608C471.882 27.1253 472.207 27.2075 472.587 27.2075Z" fill="#121212"/>
<path d="M476.798 27.8528V22.4723C476.798 21.9092 476.947 21.4948 477.244 21.2291C477.542 20.9634 477.978 20.8306 478.554 20.8306H479.066V21.5897H478.402C478.168 21.5897 477.988 21.6561 477.861 21.789C477.735 21.9155 477.671 22.0927 477.671 22.3204V27.8528H476.798ZM480.053 27.8528V22.5292C480.053 21.9661 480.202 21.5518 480.499 21.2861C480.796 21.0204 481.233 20.8875 481.809 20.8875H482.435V21.6466H481.657C481.423 21.6466 481.242 21.7131 481.116 21.8459C480.989 21.9725 480.926 22.1496 480.926 22.3773V27.8528H480.053ZM476.096 23.5256V22.8423H482.53V23.5256H476.096Z" fill="#121212"/>
<path d="M487.789 28.0236C487.429 28.0236 487.096 27.9572 486.793 27.8243C486.489 27.6915 486.223 27.5049 485.996 27.2645C485.774 27.0241 485.6 26.7457 485.474 26.4294C485.353 26.1131 485.293 25.7714 485.293 25.4045V25.2337C485.293 24.8731 485.353 24.5346 485.474 24.2183C485.594 23.902 485.762 23.6236 485.977 23.3832C486.198 23.1428 486.457 22.9562 486.755 22.8234C487.058 22.6842 487.394 22.6146 487.761 22.6146C488.147 22.6146 488.498 22.6968 488.814 22.8613C489.13 23.0195 489.39 23.2694 489.592 23.611C489.795 23.9526 489.908 24.3955 489.934 24.9395L489.554 24.3322V20.9255H490.465V27.8528H489.744V25.6038H490.01C489.984 26.1795 489.864 26.6477 489.649 27.0083C489.434 27.3625 489.162 27.6219 488.833 27.7864C488.51 27.9445 488.162 28.0236 487.789 28.0236ZM487.912 27.2265C488.222 27.2265 488.504 27.1569 488.757 27.0177C489.01 26.8786 489.213 26.6793 489.364 26.4199C489.516 26.1542 489.592 25.8442 489.592 25.4899V25.0534C489.592 24.7055 489.513 24.4113 489.355 24.1709C489.203 23.9241 488.997 23.7375 488.738 23.611C488.485 23.4781 488.207 23.4117 487.903 23.4117C487.568 23.4117 487.27 23.4908 487.011 23.6489C486.758 23.8071 486.559 24.0285 486.413 24.3132C486.274 24.5979 486.204 24.9332 486.204 25.3191C486.204 25.705 486.277 26.0435 486.423 26.3345C486.568 26.6192 486.771 26.8406 487.03 26.9987C487.289 27.1506 487.583 27.2265 487.912 27.2265Z" fill="#121212"/>
<path d="M494.37 28.0236C493.927 28.0236 493.544 27.9477 493.221 27.7959C492.899 27.644 492.636 27.4448 492.434 27.198C492.231 26.945 492.08 26.6635 491.978 26.3535C491.883 26.0435 491.836 25.7272 491.836 25.4045V25.2337C491.836 24.9047 491.883 24.5852 491.978 24.2752C492.08 23.9652 492.231 23.6869 492.434 23.4402C492.636 23.1871 492.892 22.9878 493.202 22.8423C493.519 22.6905 493.889 22.6146 494.313 22.6146C494.863 22.6146 495.315 22.7348 495.67 22.9752C496.03 23.2093 496.296 23.5129 496.467 23.8862C496.644 24.2595 496.733 24.658 496.733 25.0818V25.4899H492.235V24.8066H496.068L495.86 25.1768C495.86 24.8162 495.803 24.5061 495.689 24.2468C495.575 23.9811 495.404 23.7755 495.176 23.63C494.948 23.4845 494.661 23.4117 494.313 23.4117C493.952 23.4117 493.652 23.494 493.411 23.6584C493.177 23.8229 493 24.0475 492.88 24.3322C492.766 24.6169 492.709 24.9459 492.709 25.3191C492.709 25.6797 492.766 26.0055 492.88 26.2965C493 26.5812 493.183 26.809 493.43 26.9798C493.677 27.1443 493.99 27.2265 494.37 27.2265C494.768 27.2265 495.091 27.138 495.338 26.9608C495.591 26.7837 495.742 26.578 495.793 26.344H496.647C496.578 26.6919 496.438 26.9924 496.23 27.2455C496.021 27.4985 495.758 27.6915 495.442 27.8243C495.126 27.9572 494.768 28.0236 494.37 28.0236Z" fill="#121212"/>
<path d="M499.071 27.8528L497.344 22.7854H498.293L499.982 27.8528H499.071ZM499.299 27.8528V27.1316H500.399V27.8528H499.299ZM499.735 27.8528L501.206 22.7854H502.098L500.599 27.8528H499.735Z" fill="#121212"/>
<path d="M503.536 27.8528V22.7854H504.447V27.8528H503.536ZM502.758 23.5066V22.7854H504.447V23.5066H502.758ZM503.793 21.9693C503.59 21.9693 503.438 21.9155 503.337 21.808C503.242 21.7004 503.195 21.5644 503.195 21.3999C503.195 21.2354 503.242 21.0994 503.337 20.9919C503.438 20.8843 503.59 20.8306 503.793 20.8306C503.995 20.8306 504.144 20.8843 504.239 20.9919C504.34 21.0994 504.391 21.2354 504.391 21.3999C504.391 21.5644 504.34 21.7004 504.239 21.808C504.144 21.9155 503.995 21.9693 503.793 21.9693Z" fill="#121212"/>
<path d="M508.382 28.0236C507.945 28.0236 507.566 27.9477 507.243 27.7959C506.927 27.644 506.664 27.4416 506.456 27.1885C506.247 26.9292 506.089 26.6445 505.981 26.3345C505.88 26.0245 505.829 25.7145 505.829 25.4045V25.2337C505.829 24.911 505.88 24.5948 505.981 24.2848C506.089 23.9748 506.247 23.6964 506.456 23.4497C506.671 23.1966 506.936 22.9941 507.253 22.8423C507.569 22.6905 507.939 22.6146 508.363 22.6146C508.787 22.6146 509.167 22.6937 509.502 22.8518C509.843 23.01 510.115 23.2346 510.318 23.5256C510.527 23.8103 510.644 24.1487 510.669 24.541H509.796C509.752 24.2246 509.606 23.9621 509.359 23.7534C509.113 23.5383 508.781 23.4307 508.363 23.4307C508.002 23.4307 507.702 23.5129 507.462 23.6774C507.221 23.8419 507.041 24.0665 506.921 24.3512C506.8 24.6359 506.74 24.9585 506.74 25.3191C506.74 25.6671 506.8 25.9865 506.921 26.2776C507.041 26.5622 507.221 26.79 507.462 26.9608C507.708 27.1253 508.015 27.2075 508.382 27.2075C508.667 27.2075 508.913 27.1569 509.122 27.0557C509.331 26.9544 509.499 26.8184 509.625 26.6476C509.752 26.4768 509.828 26.2839 509.853 26.0688H510.726C510.707 26.4673 510.59 26.8121 510.375 27.1031C510.166 27.3941 509.888 27.6219 509.54 27.7864C509.198 27.9445 508.812 28.0236 508.382 28.0236Z" fill="#121212"/>
<path d="M514.118 28.0236C513.675 28.0236 513.292 27.9477 512.97 27.7959C512.647 27.644 512.384 27.4448 512.182 27.198C511.98 26.945 511.828 26.6635 511.727 26.3535C511.632 26.0435 511.584 25.7272 511.584 25.4045V25.2337C511.584 24.9047 511.632 24.5852 511.727 24.2752C511.828 23.9652 511.98 23.6869 512.182 23.4402C512.384 23.1871 512.641 22.9878 512.951 22.8423C513.267 22.6905 513.637 22.6146 514.061 22.6146C514.611 22.6146 515.064 22.7348 515.418 22.9752C515.779 23.2093 516.044 23.5129 516.215 23.8862C516.392 24.2595 516.481 24.658 516.481 25.0818V25.4899H511.983V24.8066H515.816L515.608 25.1768C515.608 24.8162 515.551 24.5061 515.437 24.2468C515.323 23.9811 515.152 23.7755 514.925 23.63C514.697 23.4845 514.409 23.4117 514.061 23.4117C513.7 23.4117 513.4 23.494 513.16 23.6584C512.925 23.8229 512.748 24.0475 512.628 24.3322C512.514 24.6169 512.457 24.9459 512.457 25.3191C512.457 25.6797 512.514 26.0055 512.628 26.2965C512.748 26.5812 512.932 26.809 513.178 26.9798C513.425 27.1443 513.738 27.2265 514.118 27.2265C514.516 27.2265 514.839 27.138 515.086 26.9608C515.339 26.7837 515.491 26.578 515.541 26.344H516.395C516.326 26.6919 516.187 26.9924 515.978 27.2455C515.769 27.4985 515.507 27.6915 515.19 27.8243C514.874 27.9572 514.516 28.0236 514.118 28.0236Z" fill="#121212"/>
<path d="M519.435 28.0046C518.771 28.0046 518.255 27.8623 517.888 27.5776C517.528 27.2929 517.341 26.9039 517.328 26.4104H518.182C518.195 26.6065 518.293 26.7931 518.477 26.9703C518.666 27.1411 518.986 27.2265 519.435 27.2265C519.84 27.2265 520.15 27.1474 520.365 26.9893C520.58 26.8248 520.688 26.6255 520.688 26.3914C520.688 26.1826 520.608 26.0213 520.45 25.9074C520.292 25.7872 520.036 25.7082 519.682 25.6702L519.131 25.6133C518.65 25.5626 518.258 25.4203 517.955 25.1862C517.651 24.9458 517.499 24.6105 517.499 24.1803C517.499 23.8577 517.581 23.5825 517.746 23.3548C517.91 23.1207 518.138 22.9436 518.429 22.8234C518.72 22.6968 519.055 22.6335 519.435 22.6335C520.004 22.6335 520.466 22.7601 520.82 23.0131C521.175 23.2662 521.358 23.6426 521.371 24.1424H520.517C520.51 23.94 520.416 23.7692 520.232 23.63C520.055 23.4845 519.789 23.4117 519.435 23.4117C519.081 23.4117 518.812 23.4845 518.628 23.63C518.445 23.7755 518.353 23.9589 518.353 24.1803C518.353 24.3701 518.416 24.522 518.543 24.6359C518.676 24.7497 518.891 24.8225 519.188 24.8541L519.739 24.911C520.283 24.968 520.719 25.1198 521.048 25.3665C521.377 25.6069 521.542 25.9486 521.542 26.3914C521.542 26.7077 521.45 26.9893 521.266 27.236C521.089 27.4764 520.843 27.6662 520.526 27.8054C520.21 27.9382 519.846 28.0046 519.435 28.0046Z" fill="#121212"/>
<path d="M323.404 44.2914C322.986 44.2914 322.613 44.1997 322.284 44.0162C321.961 43.8327 321.705 43.567 321.515 43.2191C321.325 42.8648 321.221 42.4409 321.202 41.9475H321.449V44.1206H320.727V37.1932H321.638V40.562L321.316 41.2547C321.341 40.7043 321.452 40.2552 321.648 39.9072C321.844 39.5593 322.1 39.3031 322.417 39.1386C322.739 38.9678 323.094 38.8823 323.479 38.8823C323.84 38.8823 324.169 38.9519 324.466 39.0911C324.764 39.224 325.02 39.4106 325.235 39.651C325.45 39.8851 325.615 40.1603 325.728 40.4766C325.842 40.7866 325.899 41.1219 325.899 41.4825V41.6533C325.899 42.0139 325.839 42.3524 325.719 42.6687C325.605 42.985 325.437 43.2665 325.216 43.5132C324.995 43.7536 324.729 43.9435 324.419 44.0826C324.115 44.2218 323.777 44.2914 323.404 44.2914ZM323.299 43.4943C323.641 43.4943 323.938 43.412 324.191 43.2475C324.444 43.083 324.64 42.8585 324.779 42.5738C324.919 42.2828 324.988 41.9475 324.988 41.5679C324.988 41.1883 324.915 40.8562 324.77 40.5715C324.631 40.2868 324.435 40.0685 324.182 39.9167C323.929 39.7585 323.634 39.6795 323.299 39.6795C322.995 39.6795 322.714 39.7491 322.455 39.8882C322.195 40.0211 321.986 40.2172 321.828 40.4766C321.676 40.7297 321.6 41.0365 321.6 41.3971V41.8336C321.6 42.1815 321.68 42.4789 321.838 42.7256C321.996 42.9723 322.205 43.1621 322.464 43.295C322.723 43.4278 323.002 43.4943 323.299 43.4943Z" fill="#121212"/>
<path d="M329.424 44.2914C328.981 44.2914 328.599 44.2155 328.276 44.0637C327.953 43.9118 327.691 43.7125 327.488 43.4658C327.286 43.2127 327.134 42.9312 327.033 42.6212C326.938 42.3113 326.89 41.9949 326.89 41.6723V41.5015C326.89 41.1725 326.938 40.853 327.033 40.543C327.134 40.233 327.286 39.9547 327.488 39.7079C327.691 39.4549 327.947 39.2556 328.257 39.1101C328.573 38.9582 328.943 38.8823 329.367 38.8823C329.918 38.8823 330.37 39.0026 330.724 39.243C331.085 39.4771 331.351 39.7807 331.521 40.154C331.698 40.5272 331.787 40.9257 331.787 41.3496V41.7577H327.289V41.0744H331.123L330.914 41.4445C330.914 41.0839 330.857 40.7739 330.743 40.5146C330.629 40.2488 330.459 40.0432 330.231 39.8977C330.003 39.7522 329.715 39.6795 329.367 39.6795C329.007 39.6795 328.706 39.7617 328.466 39.9262C328.232 40.0907 328.055 40.3153 327.934 40.6C327.82 40.8847 327.763 41.2136 327.763 41.5869C327.763 41.9475 327.82 42.2733 327.934 42.5643C328.055 42.849 328.238 43.0767 328.485 43.2475C328.731 43.412 329.045 43.4943 329.424 43.4943C329.823 43.4943 330.145 43.4057 330.392 43.2286C330.645 43.0514 330.797 42.8458 330.848 42.6117H331.702C331.632 42.9597 331.493 43.2602 331.284 43.5132C331.075 43.7663 330.813 43.9592 330.496 44.0921C330.18 44.225 329.823 44.2914 329.424 44.2914Z" fill="#121212"/>
<path d="M333.213 44.1206V38.7969C333.213 38.2339 333.362 37.8195 333.659 37.5538C333.957 37.2881 334.393 37.1552 334.969 37.1552H335.595V37.9144H334.817C334.583 37.9144 334.403 37.9809 334.276 38.1137C334.15 38.2402 334.086 38.4174 334.086 38.6451V44.1206H333.213ZM332.511 39.7934V39.1101H335.69V39.7934H332.511Z" fill="#121212"/>
<path d="M338.974 44.2914C338.531 44.2914 338.142 44.2155 337.806 44.0637C337.471 43.9118 337.186 43.7125 336.952 43.4658C336.724 43.2127 336.551 42.9312 336.43 42.6212C336.316 42.3113 336.26 41.9949 336.26 41.6723V41.5015C336.26 41.1788 336.32 40.8625 336.44 40.5525C336.56 40.2362 336.737 39.9547 336.971 39.7079C337.205 39.4549 337.49 39.2556 337.825 39.1101C338.161 38.9582 338.543 38.8823 338.974 38.8823C339.404 38.8823 339.786 38.9582 340.122 39.1101C340.457 39.2556 340.742 39.4549 340.976 39.7079C341.21 39.9547 341.387 40.2362 341.507 40.5525C341.627 40.8625 341.688 41.1788 341.688 41.5015V41.6723C341.688 41.9949 341.627 42.3113 341.507 42.6212C341.393 42.9312 341.219 43.2127 340.985 43.4658C340.758 43.7125 340.476 43.9118 340.141 44.0637C339.805 44.2155 339.416 44.2914 338.974 44.2914ZM338.974 43.4753C339.353 43.4753 339.676 43.3931 339.941 43.2286C340.214 43.0578 340.419 42.83 340.558 42.5453C340.704 42.2606 340.777 41.9412 340.777 41.5869C340.777 41.2263 340.704 40.9036 340.558 40.6189C340.413 40.3342 340.204 40.1097 339.932 39.9452C339.666 39.7807 339.347 39.6985 338.974 39.6985C338.607 39.6985 338.287 39.7807 338.015 39.9452C337.743 40.1097 337.534 40.3342 337.389 40.6189C337.243 40.9036 337.171 41.2263 337.171 41.5869C337.171 41.9412 337.24 42.2606 337.379 42.5453C337.525 42.83 337.73 43.0578 337.996 43.2286C338.268 43.3931 338.594 43.4753 338.974 43.4753Z" fill="#121212"/>
<path d="M343.052 44.1206V39.0532H343.773V41.1409H343.735C343.735 40.4007 343.897 39.8598 344.219 39.5182C344.548 39.1702 345.038 38.9962 345.69 38.9962H345.861V39.8123H345.538C345.032 39.8123 344.643 39.9483 344.371 40.2204C344.099 40.4861 343.963 40.872 343.963 41.3781V44.1206H343.052Z" fill="#121212"/>
<path d="M349.043 44.2914C348.6 44.2914 348.217 44.2155 347.894 44.0637C347.572 43.9118 347.309 43.7125 347.107 43.4658C346.904 43.2127 346.753 42.9312 346.651 42.6212C346.556 42.3113 346.509 41.9949 346.509 41.6723V41.5015C346.509 41.1725 346.556 40.853 346.651 40.543C346.753 40.233 346.904 39.9547 347.107 39.7079C347.309 39.4549 347.565 39.2556 347.875 39.1101C348.192 38.9582 348.562 38.8823 348.986 38.8823C349.536 38.8823 349.988 39.0026 350.343 39.243C350.703 39.4771 350.969 39.7807 351.14 40.154C351.317 40.5272 351.406 40.9257 351.406 41.3496V41.7577H346.908V41.0744H350.741L350.533 41.4445C350.533 41.0839 350.476 40.7739 350.362 40.5146C350.248 40.2488 350.077 40.0432 349.849 39.8977C349.622 39.7522 349.334 39.6795 348.986 39.6795C348.625 39.6795 348.325 39.7617 348.084 39.9262C347.85 40.0907 347.673 40.3153 347.553 40.6C347.439 40.8847 347.382 41.2136 347.382 41.5869C347.382 41.9475 347.439 42.2733 347.553 42.5643C347.673 42.849 347.856 43.0767 348.103 43.2475C348.35 43.412 348.663 43.4943 349.043 43.4943C349.441 43.4943 349.764 43.4057 350.011 43.2286C350.264 43.0514 350.415 42.8458 350.466 42.6117H351.32C351.251 42.9597 351.111 43.2602 350.903 43.5132C350.694 43.7663 350.431 43.9592 350.115 44.0921C349.799 44.225 349.441 44.2914 349.043 44.2914Z" fill="#121212"/>
<path d="M357.534 44.2914C357.117 44.2914 356.744 44.1997 356.415 44.0162C356.092 43.8327 355.836 43.567 355.646 43.2191C355.456 42.8648 355.352 42.4409 355.333 41.9475H355.579V44.1206H354.858V37.1932H355.769V40.562L355.447 41.2547C355.472 40.7043 355.583 40.2552 355.779 39.9072C355.975 39.5593 356.231 39.3031 356.547 39.1386C356.87 38.9678 357.224 38.8823 357.61 38.8823C357.971 38.8823 358.3 38.9519 358.597 39.0911C358.894 39.224 359.151 39.4106 359.366 39.651C359.581 39.8851 359.745 40.1603 359.859 40.4766C359.973 40.7866 360.03 41.1219 360.03 41.4825V41.6533C360.03 42.0139 359.97 42.3524 359.85 42.6687C359.736 42.985 359.568 43.2665 359.347 43.5132C359.125 43.7536 358.86 43.9435 358.55 44.0826C358.246 44.2218 357.908 44.2914 357.534 44.2914ZM357.43 43.4943C357.772 43.4943 358.069 43.412 358.322 43.2475C358.575 43.083 358.771 42.8585 358.91 42.5738C359.049 42.2828 359.119 41.9475 359.119 41.5679C359.119 41.1883 359.046 40.8562 358.901 40.5715C358.762 40.2868 358.565 40.0685 358.312 39.9167C358.059 39.7585 357.765 39.6795 357.43 39.6795C357.126 39.6795 356.845 39.7491 356.585 39.8882C356.326 40.0211 356.117 40.2172 355.959 40.4766C355.807 40.7297 355.731 41.0365 355.731 41.3971V41.8336C355.731 42.1815 355.81 42.4789 355.969 42.7256C356.127 42.9723 356.335 43.1621 356.595 43.295C356.854 43.4278 357.133 43.4943 357.43 43.4943Z" fill="#121212"/>
<path d="M363.555 44.2914C363.112 44.2914 362.729 44.2155 362.407 44.0637C362.084 43.9118 361.822 43.7125 361.619 43.4658C361.417 43.2127 361.265 42.9312 361.164 42.6212C361.069 42.3113 361.021 41.9949 361.021 41.6723V41.5015C361.021 41.1725 361.069 40.853 361.164 40.543C361.265 40.233 361.417 39.9547 361.619 39.7079C361.822 39.4549 362.078 39.2556 362.388 39.1101C362.704 38.9582 363.074 38.8823 363.498 38.8823C364.048 38.8823 364.501 39.0026 364.855 39.243C365.216 39.4771 365.481 39.7807 365.652 40.154C365.829 40.5272 365.918 40.9257 365.918 41.3496V41.7577H361.42V41.0744H365.254L365.045 41.4445C365.045 41.0839 364.988 40.7739 364.874 40.5146C364.76 40.2488 364.589 40.0432 364.362 39.8977C364.134 39.7522 363.846 39.6795 363.498 39.6795C363.137 39.6795 362.837 39.7617 362.597 39.9262C362.362 40.0907 362.185 40.3153 362.065 40.6C361.951 40.8847 361.894 41.2136 361.894 41.5869C361.894 41.9475 361.951 42.2733 362.065 42.5643C362.185 42.849 362.369 43.0767 362.616 43.2475C362.862 43.412 363.175 43.4943 363.555 43.4943C363.954 43.4943 364.276 43.4057 364.523 43.2286C364.776 43.0514 364.928 42.8458 364.978 42.6117H365.832C365.763 42.9597 365.624 43.2602 365.415 43.5132C365.206 43.7663 364.944 43.9592 364.627 44.0921C364.311 44.225 363.954 44.2914 363.555 44.2914Z" fill="#121212"/>
<path d="M369.327 44.2914C368.967 44.2914 368.635 44.225 368.331 44.0921C368.027 43.9592 367.762 43.7726 367.534 43.5322C367.313 43.2918 367.139 43.0135 367.012 42.6972C366.892 42.3809 366.832 42.0392 366.832 41.6723V41.5015C366.832 41.1409 366.892 40.8024 367.012 40.4861C367.132 40.1698 367.3 39.8914 367.515 39.651C367.736 39.4106 367.996 39.224 368.293 39.0911C368.597 38.9519 368.932 38.8823 369.299 38.8823C369.685 38.8823 370.036 38.9646 370.352 39.1291C370.669 39.2872 370.928 39.5371 371.13 39.8788C371.333 40.2204 371.447 40.6632 371.472 41.2073L371.093 40.6V37.1932H372.004V44.1206H371.282V41.8716H371.548C371.523 42.4473 371.403 42.9154 371.187 43.276C370.972 43.6303 370.7 43.8897 370.371 44.0541C370.049 44.2123 369.701 44.2914 369.327 44.2914ZM369.451 43.4943C369.761 43.4943 370.042 43.4247 370.295 43.2855C370.548 43.1463 370.751 42.947 370.903 42.6877C371.055 42.4219 371.13 42.1119 371.13 41.7577V41.3212C371.13 40.9732 371.051 40.679 370.893 40.4386C370.741 40.1919 370.536 40.0053 370.276 39.8788C370.023 39.7459 369.745 39.6795 369.441 39.6795C369.106 39.6795 368.809 39.7585 368.549 39.9167C368.296 40.0748 368.097 40.2963 367.952 40.581C367.812 40.8657 367.743 41.201 367.743 41.5869C367.743 41.9728 367.815 42.3113 367.961 42.6023C368.107 42.8869 368.309 43.1084 368.568 43.2665C368.828 43.4183 369.122 43.4943 369.451 43.4943Z" fill="#121212"/>
<path d="M373.858 45.6104L373.128 45.3352L374.01 42.8869L374.76 43.1716L373.858 45.6104Z" fill="#121212"/>
<path d="M378.055 46.0944V45.2783H378.786C379.001 45.2783 379.181 45.2498 379.327 45.1929C379.479 45.1423 379.602 45.0537 379.697 44.9272C379.798 44.8007 379.88 44.633 379.944 44.4242L381.538 39.0532H382.43L380.741 44.6615C380.639 44.9968 380.497 45.2688 380.314 45.4776C380.13 45.6927 379.906 45.8477 379.64 45.9426C379.38 46.0438 379.077 46.0944 378.729 46.0944H378.055ZM379.602 44.0067V43.2475H380.703V44.0067H379.602ZM379.507 44.0067L377.695 39.0532H378.624L380.361 44.0067H379.507Z" fill="#121212"/>
<path d="M385.828 44.2914C385.385 44.2914 384.996 44.2155 384.661 44.0637C384.326 43.9118 384.041 43.7125 383.807 43.4658C383.579 43.2127 383.405 42.9312 383.285 42.6212C383.171 42.3113 383.114 41.9949 383.114 41.6723V41.5015C383.114 41.1788 383.174 40.8625 383.294 40.5525C383.415 40.2362 383.592 39.9547 383.826 39.7079C384.06 39.4549 384.345 39.2556 384.68 39.1101C385.015 38.9582 385.398 38.8823 385.828 38.8823C386.258 38.8823 386.641 38.9582 386.976 39.1101C387.312 39.2556 387.596 39.4549 387.83 39.7079C388.064 39.9547 388.242 40.2362 388.362 40.5525C388.482 40.8625 388.542 41.1788 388.542 41.5015V41.6723C388.542 41.9949 388.482 42.3113 388.362 42.6212C388.248 42.9312 388.074 43.2127 387.84 43.4658C387.612 43.7125 387.331 43.9118 386.995 44.0637C386.66 44.2155 386.271 44.2914 385.828 44.2914ZM385.828 43.4753C386.208 43.4753 386.53 43.3931 386.796 43.2286C387.068 43.0578 387.274 42.83 387.413 42.5453C387.558 42.2606 387.631 41.9412 387.631 41.5869C387.631 41.2263 387.558 40.9036 387.413 40.6189C387.267 40.3342 387.059 40.1097 386.787 39.9452C386.521 39.7807 386.201 39.6985 385.828 39.6985C385.461 39.6985 385.142 39.7807 384.87 39.9452C384.598 40.1097 384.389 40.3342 384.243 40.6189C384.098 40.9036 384.025 41.2263 384.025 41.5869C384.025 41.9412 384.095 42.2606 384.234 42.5453C384.379 42.83 384.585 43.0578 384.851 43.2286C385.123 43.3931 385.449 43.4753 385.828 43.4753Z" fill="#121212"/>
<path d="M391.662 44.2724C391.061 44.2724 390.599 44.0763 390.277 43.6841C389.954 43.2918 389.793 42.7256 389.793 41.9854V39.0437H390.704V42.1657C390.704 42.5643 390.811 42.8774 391.026 43.1052C391.241 43.3266 391.532 43.4373 391.899 43.4373C392.279 43.4373 392.589 43.3172 392.829 43.0768C393.07 42.83 393.19 42.4947 393.19 42.0708V39.0437H394.101V44.1206H393.38V41.9475H393.494C393.494 42.4473 393.427 42.8711 393.294 43.2191C393.161 43.5607 392.962 43.8232 392.696 44.0067C392.437 44.1839 392.105 44.2724 391.7 44.2724H391.662Z" fill="#121212"/>
<path d="M395.865 44.1206V39.0532H396.586V41.1409H396.549C396.549 40.4007 396.71 39.8598 397.032 39.5182C397.361 39.1702 397.852 38.9962 398.503 38.9962H398.674V39.8123H398.352C397.845 39.8123 397.456 39.9483 397.184 40.2204C396.912 40.4861 396.776 40.872 396.776 41.3781V44.1206H395.865Z" fill="#121212"/>
<path d="M401.917 44.1206V39.0532H402.638V41.2263H402.524C402.524 40.7328 402.587 40.3153 402.714 39.9737C402.847 39.6257 403.043 39.36 403.302 39.1765C403.562 38.993 403.891 38.9013 404.289 38.9013H404.327C404.726 38.9013 405.055 38.993 405.314 39.1765C405.58 39.36 405.776 39.6257 405.902 39.9737C406.029 40.3153 406.092 40.7328 406.092 41.2263H405.826C405.826 40.7328 405.893 40.3153 406.026 39.9737C406.159 39.6257 406.355 39.36 406.614 39.1765C406.88 38.993 407.212 38.9013 407.61 38.9013H407.648C408.047 38.9013 408.379 38.993 408.645 39.1765C408.911 39.36 409.107 39.6257 409.233 39.9737C409.366 40.3153 409.432 40.7328 409.432 41.2263V44.1206H408.521V41.027C408.521 40.6158 408.42 40.2995 408.218 40.078C408.015 39.8503 407.734 39.7364 407.373 39.7364C407 39.7364 406.699 39.8566 406.472 40.097C406.244 40.3311 406.13 40.6601 406.13 41.0839V44.1206H405.219V41.027C405.219 40.6158 405.118 40.2995 404.915 40.078C404.713 39.8503 404.431 39.7364 404.071 39.7364C403.698 39.7364 403.397 39.8566 403.169 40.097C402.942 40.3311 402.828 40.6601 402.828 41.0839V44.1206H401.917Z" fill="#121212"/>
<path d="M413.435 44.2914C412.992 44.2914 412.603 44.2155 412.268 44.0637C411.932 43.9118 411.648 43.7125 411.414 43.4658C411.186 43.2127 411.012 42.9312 410.892 42.6212C410.778 42.3113 410.721 41.9949 410.721 41.6723V41.5015C410.721 41.1788 410.781 40.8625 410.901 40.5525C411.021 40.2362 411.199 39.9547 411.433 39.7079C411.667 39.4549 411.951 39.2556 412.287 39.1101C412.622 38.9582 413.005 38.8823 413.435 38.8823C413.865 38.8823 414.248 38.9582 414.583 39.1101C414.918 39.2556 415.203 39.4549 415.437 39.7079C415.671 39.9547 415.848 40.2362 415.969 40.5525C416.089 40.8625 416.149 41.1788 416.149 41.5015V41.6723C416.149 41.9949 416.089 42.3113 415.969 42.6212C415.855 42.9312 415.681 43.2127 415.447 43.4658C415.219 43.7125 414.937 43.9118 414.602 44.0637C414.267 44.2155 413.878 44.2914 413.435 44.2914ZM413.435 43.4753C413.814 43.4753 414.137 43.3931 414.403 43.2286C414.675 43.0578 414.88 42.83 415.02 42.5453C415.165 42.2606 415.238 41.9412 415.238 41.5869C415.238 41.2263 415.165 40.9036 415.02 40.6189C414.874 40.3342 414.665 40.1097 414.393 39.9452C414.128 39.7807 413.808 39.6985 413.435 39.6985C413.068 39.6985 412.748 39.7807 412.476 39.9452C412.204 40.1097 411.996 40.3342 411.85 40.6189C411.705 40.9036 411.632 41.2263 411.632 41.5869C411.632 41.9412 411.701 42.2606 411.841 42.5453C411.986 42.83 412.192 43.0578 412.457 43.2286C412.729 43.3931 413.055 43.4753 413.435 43.4753Z" fill="#121212"/>
<path d="M419.848 44.2914C419.405 44.2914 419.016 44.2155 418.681 44.0637C418.345 43.9118 418.061 43.7125 417.826 43.4658C417.599 43.2127 417.425 42.9312 417.305 42.6212C417.191 42.3113 417.134 41.9949 417.134 41.6723V41.5015C417.134 41.1788 417.194 40.8625 417.314 40.5525C417.434 40.2362 417.611 39.9547 417.845 39.7079C418.079 39.4549 418.364 39.2556 418.699 39.1101C419.035 38.9582 419.418 38.8823 419.848 38.8823C420.278 38.8823 420.661 38.9582 420.996 39.1101C421.331 39.2556 421.616 39.4549 421.85 39.7079C422.084 39.9547 422.261 40.2362 422.381 40.5525C422.502 40.8625 422.562 41.1788 422.562 41.5015V41.6723C422.562 41.9949 422.502 42.3113 422.381 42.6212C422.268 42.9312 422.094 43.2127 421.859 43.4658C421.632 43.7125 421.35 43.9118 421.015 44.0637C420.68 44.2155 420.291 44.2914 419.848 44.2914ZM419.848 43.4753C420.227 43.4753 420.55 43.3931 420.816 43.2286C421.088 43.0578 421.293 42.83 421.432 42.5453C421.578 42.2606 421.651 41.9412 421.651 41.5869C421.651 41.2263 421.578 40.9036 421.432 40.6189C421.287 40.3342 421.078 40.1097 420.806 39.9452C420.54 39.7807 420.221 39.6985 419.848 39.6985C419.481 39.6985 419.161 39.7807 418.889 39.9452C418.617 40.1097 418.408 40.3342 418.263 40.6189C418.117 40.9036 418.045 41.2263 418.045 41.5869C418.045 41.9412 418.114 42.2606 418.253 42.5453C418.399 42.83 418.605 43.0578 418.87 43.2286C419.142 43.3931 419.468 43.4753 419.848 43.4753Z" fill="#121212"/>
<path d="M426.042 44.2914C425.682 44.2914 425.35 44.225 425.046 44.0921C424.742 43.9592 424.477 43.7726 424.249 43.5322C424.027 43.2918 423.853 43.0135 423.727 42.6972C423.607 42.3809 423.547 42.0392 423.547 41.6723V41.5015C423.547 41.1409 423.607 40.8024 423.727 40.4861C423.847 40.1698 424.015 39.8914 424.23 39.651C424.451 39.4106 424.711 39.224 425.008 39.0911C425.312 38.9519 425.647 38.8823 426.014 38.8823C426.4 38.8823 426.751 38.9646 427.067 39.1291C427.383 39.2872 427.643 39.5371 427.845 39.8788C428.048 40.2204 428.162 40.6632 428.187 41.2073L427.807 40.6V37.1932H428.718V44.1206H427.997V41.8716H428.263C428.238 42.4473 428.117 42.9154 427.902 43.276C427.687 43.6303 427.415 43.8897 427.086 44.0541C426.764 44.2123 426.416 44.2914 426.042 44.2914ZM426.166 43.4943C426.476 43.4943 426.757 43.4247 427.01 43.2855C427.263 43.1463 427.466 42.947 427.618 42.6877C427.769 42.4219 427.845 42.1119 427.845 41.7577V41.3212C427.845 40.9732 427.766 40.679 427.608 40.4386C427.456 40.1919 427.251 40.0053 426.991 39.8788C426.738 39.7459 426.46 39.6795 426.156 39.6795C425.821 39.6795 425.523 39.7585 425.264 39.9167C425.011 40.0748 424.812 40.2963 424.666 40.581C424.527 40.8657 424.457 41.201 424.457 41.5869C424.457 41.9728 424.53 42.3113 424.676 42.6023C424.821 42.8869 425.024 43.1084 425.283 43.2665C425.542 43.4183 425.837 43.4943 426.166 43.4943Z" fill="#121212"/>
<path d="M432.875 44.1206V39.0532H433.786V44.1206H432.875ZM432.097 39.7744V39.0532H433.786V39.7744H432.097ZM433.131 38.2371C432.928 38.2371 432.777 38.1833 432.675 38.0757C432.58 37.9682 432.533 37.8322 432.533 37.6677C432.533 37.5032 432.58 37.3672 432.675 37.2596C432.777 37.1521 432.928 37.0983 433.131 37.0983C433.333 37.0983 433.482 37.1521 433.577 37.2596C433.678 37.3672 433.729 37.5032 433.729 37.6677C433.729 37.8322 433.678 37.9682 433.577 38.0757C433.482 38.1833 433.333 38.2371 433.131 38.2371Z" fill="#121212"/>
<path d="M437.208 44.2724C436.543 44.2724 436.028 44.1301 435.661 43.8454C435.3 43.5607 435.114 43.1716 435.101 42.6782H435.955C435.968 42.8743 436.066 43.0609 436.249 43.238C436.439 43.4088 436.759 43.4943 437.208 43.4943C437.613 43.4943 437.923 43.4152 438.138 43.257C438.353 43.0926 438.46 42.8933 438.46 42.6592C438.46 42.4504 438.381 42.2891 438.223 42.1752C438.065 42.055 437.809 41.9759 437.454 41.938L436.904 41.881C436.423 41.8304 436.031 41.6881 435.727 41.454C435.424 41.2136 435.272 40.8783 435.272 40.4481C435.272 40.1255 435.354 39.8503 435.519 39.6226C435.683 39.3885 435.911 39.2113 436.202 39.0911C436.493 38.9646 436.828 38.9013 437.208 38.9013C437.777 38.9013 438.239 39.0279 438.593 39.2809C438.948 39.534 439.131 39.9104 439.144 40.4102H438.29C438.283 40.2077 438.188 40.0369 438.005 39.8977C437.828 39.7522 437.562 39.6795 437.208 39.6795C436.853 39.6795 436.585 39.7522 436.401 39.8977C436.218 40.0432 436.126 40.2267 436.126 40.4481C436.126 40.6379 436.189 40.7898 436.316 40.9037C436.449 41.0175 436.664 41.0903 436.961 41.1219L437.511 41.1788C438.056 41.2357 438.492 41.3876 438.821 41.6343C439.15 41.8747 439.314 42.2163 439.314 42.6592C439.314 42.9755 439.223 43.2571 439.039 43.5038C438.862 43.7442 438.615 43.9339 438.299 44.0731C437.983 44.206 437.619 44.2724 437.208 44.2724Z" fill="#121212"/>
<path d="M444.948 44.2914C444.505 44.2914 444.123 44.2155 443.8 44.0637C443.477 43.9118 443.215 43.7125 443.012 43.4658C442.81 43.2127 442.658 42.9312 442.557 42.6212C442.462 42.3113 442.414 41.9949 442.414 41.6723V41.5015C442.414 41.1725 442.462 40.853 442.557 40.543C442.658 40.233 442.81 39.9547 443.012 39.7079C443.215 39.4549 443.471 39.2556 443.781 39.1101C444.097 38.9582 444.467 38.8823 444.891 38.8823C445.442 38.8823 445.894 39.0026 446.248 39.243C446.609 39.4771 446.875 39.7807 447.045 40.154C447.222 40.5272 447.311 40.9257 447.311 41.3496V41.7577H442.813V41.0744H446.647L446.438 41.4445C446.438 41.0839 446.381 40.7739 446.267 40.5146C446.153 40.2488 445.982 40.0432 445.755 39.8977C445.527 39.7522 445.239 39.6795 444.891 39.6795C444.531 39.6795 444.23 39.7617 443.99 39.9262C443.756 40.0907 443.578 40.3153 443.458 40.6C443.344 40.8847 443.287 41.2136 443.287 41.5869C443.287 41.9475 443.344 42.2733 443.458 42.5643C443.578 42.849 443.762 43.0767 444.009 43.2475C444.255 43.412 444.569 43.4943 444.948 43.4943C445.347 43.4943 445.669 43.4057 445.916 43.2286C446.169 43.0514 446.321 42.8458 446.372 42.6117H447.226C447.156 42.9597 447.017 43.2602 446.808 43.5132C446.599 43.7663 446.337 43.9592 446.02 44.0921C445.704 44.225 445.347 44.2914 444.948 44.2914Z" fill="#121212"/>
<path d="M447.979 44.1206L449.791 41.454L449.763 41.6438L448.064 39.0532H449.07L450.294 40.9606H450.427L451.585 39.0532H452.524L450.92 41.5774L450.949 41.4066L452.847 44.1206H451.841L450.417 42.0613H450.285L448.918 44.1206H447.979Z" fill="#121212"/>
<path d="M455.958 44.2914C455.521 44.2914 455.142 44.2155 454.819 44.0637C454.503 43.9118 454.24 43.7094 454.032 43.4563C453.823 43.1969 453.665 42.9123 453.557 42.6023C453.456 42.2923 453.405 41.9823 453.405 41.6723V41.5015C453.405 41.1788 453.456 40.8625 453.557 40.5525C453.665 40.2425 453.823 39.9642 454.032 39.7174C454.247 39.4644 454.512 39.2619 454.829 39.1101C455.145 38.9582 455.515 38.8823 455.939 38.8823C456.363 38.8823 456.742 38.9614 457.078 39.1196C457.419 39.2778 457.691 39.5024 457.894 39.7934C458.103 40.0781 458.22 40.4165 458.245 40.8087H457.372C457.328 40.4924 457.182 40.2299 456.935 40.0211C456.689 39.806 456.356 39.6985 455.939 39.6985C455.578 39.6985 455.278 39.7807 455.037 39.9452C454.797 40.1097 454.617 40.3342 454.496 40.6189C454.376 40.9036 454.316 41.2263 454.316 41.5869C454.316 41.9348 454.376 42.2543 454.496 42.5453C454.617 42.83 454.797 43.0578 455.037 43.2286C455.284 43.3931 455.591 43.4753 455.958 43.4753C456.243 43.4753 456.489 43.4246 456.698 43.3234C456.907 43.2222 457.074 43.0862 457.201 42.9154C457.328 42.7446 457.404 42.5516 457.429 42.3365H458.302C458.283 42.7351 458.166 43.0799 457.951 43.3709C457.742 43.6619 457.464 43.8897 457.116 44.0541C456.774 44.2123 456.388 44.2914 455.958 44.2914Z" fill="#121212"/>
<path d="M461.694 44.2914C461.251 44.2914 460.868 44.2155 460.546 44.0637C460.223 43.9118 459.96 43.7125 459.758 43.4658C459.555 43.2127 459.404 42.9312 459.302 42.6212C459.208 42.3113 459.16 41.9949 459.16 41.6723V41.5015C459.16 41.1725 459.208 40.853 459.302 40.543C459.404 40.233 459.555 39.9547 459.758 39.7079C459.96 39.4549 460.217 39.2556 460.527 39.1101C460.843 38.9582 461.213 38.8823 461.637 38.8823C462.187 38.8823 462.64 39.0026 462.994 39.243C463.354 39.4771 463.62 39.7807 463.791 40.154C463.968 40.5272 464.057 40.9257 464.057 41.3496V41.7577H459.559V41.0744H463.392L463.184 41.4445C463.184 41.0839 463.127 40.7739 463.013 40.5146C462.899 40.2488 462.728 40.0432 462.5 39.8977C462.273 39.7522 461.985 39.6795 461.637 39.6795C461.276 39.6795 460.976 39.7617 460.735 39.9262C460.501 40.0907 460.324 40.3153 460.204 40.6C460.09 40.8847 460.033 41.2136 460.033 41.5869C460.033 41.9475 460.09 42.2733 460.204 42.5643C460.324 42.849 460.508 43.0767 460.754 43.2475C461.001 43.412 461.314 43.4943 461.694 43.4943C462.092 43.4943 462.415 43.4057 462.662 43.2286C462.915 43.0514 463.067 42.8458 463.117 42.6117H463.971C463.902 42.9597 463.763 43.2602 463.554 43.5132C463.345 43.7663 463.082 43.9592 462.766 44.0921C462.45 44.225 462.092 44.2914 461.694 44.2914Z" fill="#121212"/>
<path d="M465.407 44.1206V37.1932H466.318V44.1206H465.407ZM464.705 37.9144V37.1932H466.318V37.9144H464.705Z" fill="#121212"/>
<path d="M468.122 44.1206V37.1932H469.033V44.1206H468.122ZM467.42 37.9144V37.1932H469.033V37.9144H467.42Z" fill="#121212"/>
<path d="M472.935 44.2914C472.492 44.2914 472.109 44.2155 471.787 44.0637C471.464 43.9118 471.201 43.7125 470.999 43.4658C470.797 43.2127 470.645 42.9312 470.543 42.6212C470.449 42.3113 470.401 41.9949 470.401 41.6723V41.5015C470.401 41.1725 470.449 40.853 470.543 40.543C470.645 40.233 470.797 39.9547 470.999 39.7079C471.201 39.4549 471.458 39.2556 471.768 39.1101C472.084 38.9582 472.454 38.8823 472.878 38.8823C473.428 38.8823 473.881 39.0026 474.235 39.243C474.595 39.4771 474.861 39.7807 475.032 40.154C475.209 40.5272 475.298 40.9257 475.298 41.3496V41.7577H470.8V41.0744H474.633L474.425 41.4445C474.425 41.0839 474.368 40.7739 474.254 40.5146C474.14 40.2488 473.969 40.0432 473.741 39.8977C473.514 39.7522 473.226 39.6795 472.878 39.6795C472.517 39.6795 472.217 39.7617 471.976 39.9262C471.742 40.0907 471.565 40.3153 471.445 40.6C471.331 40.8847 471.274 41.2136 471.274 41.5869C471.274 41.9475 471.331 42.2733 471.445 42.5643C471.565 42.849 471.749 43.0767 471.995 43.2475C472.242 43.412 472.555 43.4943 472.935 43.4943C473.333 43.4943 473.656 43.4057 473.903 43.2286C474.156 43.0514 474.308 42.8458 474.358 42.6117H475.212C475.143 42.9597 475.004 43.2602 474.795 43.5132C474.586 43.7663 474.323 43.9592 474.007 44.0921C473.691 44.225 473.333 44.2914 472.935 44.2914Z" fill="#121212"/>
<path d="M476.591 44.1206V39.0532H477.312V41.2263H477.198C477.198 40.7265 477.265 40.3058 477.398 39.9641C477.537 39.6162 477.746 39.3537 478.024 39.1765C478.302 38.993 478.654 38.9013 479.077 38.9013H479.115C479.754 38.9013 480.226 39.1006 480.529 39.4992C480.839 39.8977 480.994 40.4734 480.994 41.2263V44.1206H480.083V41.0365C480.083 40.6443 479.973 40.3311 479.751 40.097C479.53 39.8566 479.226 39.7364 478.84 39.7364C478.442 39.7364 478.119 39.8598 477.872 40.1065C477.626 40.3532 477.502 40.6822 477.502 41.0934V44.1206H476.591Z" fill="#121212"/>
<path d="M484.635 44.1775C484.255 44.1775 483.926 44.1238 483.648 44.0162C483.376 43.9087 483.164 43.7252 483.012 43.4658C482.867 43.2001 482.794 42.8427 482.794 42.3935V37.5158H483.667V42.5074C483.667 42.7794 483.74 42.9913 483.885 43.1431C484.037 43.2886 484.249 43.3614 484.521 43.3614H485.413V44.1775H484.635ZM481.921 39.7364V39.0532H485.413V39.7364H481.921Z" fill="#121212"/>
<path d="M486.521 44.1206V42.9629H487.622V44.1206H486.521Z" fill="#121212"/>
<path d="M401.868 29.039H521.988V29.5135H401.868V29.039ZM319.854 45.3068H372.877V45.7812H319.854V45.3068Z" fill="#121212"/>
<path d="M17.8002 144.471V143.568H19.1586C19.4893 143.568 19.7849 143.517 20.0452 143.414C20.3054 143.305 20.5278 143.156 20.7121 142.966C20.8965 142.776 21.0348 142.554 21.127 142.299C21.2246 142.039 21.2734 141.76 21.2734 141.461C21.2734 141.142 21.2246 140.854 21.127 140.599C21.0348 140.344 20.8965 140.125 20.7121 139.94C20.5278 139.756 20.3054 139.615 20.0452 139.517C19.7849 139.414 19.4893 139.363 19.1586 139.363H17.8002V138.46H19.0772C19.614 138.46 20.0804 138.541 20.4762 138.704C20.8775 138.867 21.211 139.086 21.4767 139.363C21.7424 139.639 21.9404 139.951 22.0705 140.298C22.2006 140.645 22.2657 141.003 22.2657 141.372V141.551C22.2657 141.898 22.2006 142.248 22.0705 142.6C21.9404 142.947 21.7424 143.262 21.4767 143.544C21.211 143.82 20.8775 144.045 20.4762 144.219C20.0804 144.387 19.614 144.471 19.0772 144.471H17.8002ZM16.9868 144.471V138.46H17.9629V144.471H16.9868Z" fill="#121212"/>
<path d="M23.397 144.438V138.501H24.3649V144.438H23.397ZM24.2023 144.438V143.593H26.9841V144.438H24.2023ZM24.2023 141.844V140.998H26.7563V141.844H24.2023ZM24.2023 139.347V138.501H26.9109V139.347H24.2023Z" fill="#121212"/>
<path d="M30.8379 144.585C30.2956 144.585 29.832 144.493 29.447 144.308C29.0674 144.119 28.7583 143.872 28.5197 143.568C28.2865 143.259 28.113 142.928 27.9991 142.576C27.8907 142.218 27.8365 141.874 27.8365 141.543V141.364C27.8365 141.001 27.8934 140.64 28.0073 140.282C28.1211 139.924 28.2947 139.599 28.5278 139.306C28.7664 139.013 29.0728 138.777 29.447 138.598C29.8265 138.419 30.2739 138.33 30.7891 138.33C31.3259 138.33 31.7895 138.425 32.18 138.615C32.5704 138.804 32.8795 139.07 33.1072 139.412C33.3404 139.748 33.4787 140.147 33.522 140.607H32.5378C32.4945 140.304 32.3914 140.052 32.2288 139.851C32.0715 139.645 31.8682 139.49 31.6187 139.387C31.3747 139.284 31.0982 139.233 30.7891 139.233C30.4691 139.233 30.1844 139.29 29.935 139.404C29.691 139.518 29.4876 139.675 29.325 139.875C29.1623 140.076 29.0376 140.312 28.9508 140.583C28.8695 140.849 28.8288 141.142 28.8288 141.461C28.8288 141.765 28.8695 142.053 28.9508 142.324C29.0376 142.589 29.165 142.825 29.3331 143.031C29.5012 143.237 29.71 143.397 29.9594 143.511C30.2143 143.625 30.5071 143.682 30.8379 143.682C31.315 143.682 31.7163 143.565 32.0417 143.332C32.367 143.094 32.565 142.755 32.6355 142.316H33.6278C33.5736 142.733 33.4326 143.115 33.2048 143.462C32.9771 143.804 32.6653 144.078 32.2694 144.284C31.8736 144.485 31.3964 144.585 30.8379 144.585Z" fill="#121212"/>
<path d="M37.2844 144.438V139.054L37.6423 139.33H36.0155V138.501H38.2442V144.438H37.2844Z" fill="#121212"/>
<path d="M42.1879 144.585C41.7379 144.585 41.3529 144.509 41.0329 144.357C40.713 144.2 40.4527 143.988 40.2521 143.723C40.0569 143.457 39.9132 143.151 39.821 142.804C39.7288 142.451 39.6827 142.08 39.6827 141.689V141.242C39.6827 140.7 39.7695 140.209 39.943 139.77C40.1219 139.33 40.3958 138.981 40.7645 138.72C41.1387 138.46 41.6131 138.33 42.1879 138.33C42.7681 138.33 43.2399 138.46 43.6032 138.72C43.972 138.981 44.2458 139.33 44.4248 139.77C44.6037 140.209 44.6932 140.7 44.6932 141.242V141.689C44.6932 142.08 44.6471 142.451 44.5549 142.804C44.4627 143.151 44.3163 143.457 44.1157 143.723C43.9204 143.988 43.6629 144.2 43.343 144.357C43.0284 144.509 42.6434 144.585 42.1879 144.585ZM42.1879 143.698C42.7139 143.698 43.0989 143.522 43.343 143.17C43.5924 142.812 43.7171 142.248 43.7171 141.478C43.7171 140.67 43.5897 140.092 43.3348 139.745C43.0854 139.393 42.7031 139.217 42.1879 139.217C41.6728 139.217 41.2878 139.393 41.0329 139.745C40.7835 140.092 40.6588 140.664 40.6588 141.461C40.6588 142.237 40.7835 142.804 41.0329 143.161C41.2824 143.519 41.6674 143.698 42.1879 143.698Z" fill="#121212"/>
<path d="M46.1491 145.756L45.4008 145.463L46.1898 143.235L46.9869 143.536L46.1491 145.756Z" fill="#121212"/>
<path d="M49.7793 144.438V143.381C49.7793 143.137 49.8146 142.928 49.8851 142.755C49.961 142.576 50.0857 142.416 50.2592 142.275C50.4328 142.134 50.6659 141.998 50.9587 141.868L52.0161 141.388C52.2818 141.269 52.4852 141.12 52.6262 140.941C52.7726 140.757 52.8458 140.521 52.8458 140.233C52.8458 139.902 52.7509 139.642 52.5611 139.452C52.3713 139.257 52.1002 139.16 51.7477 139.16C51.4007 139.16 51.1296 139.257 50.9343 139.452C50.7446 139.642 50.6497 139.908 50.6497 140.25H49.7061C49.7061 139.897 49.7793 139.577 49.9257 139.29C50.0776 138.997 50.3053 138.764 50.609 138.59C50.9126 138.417 51.2922 138.33 51.7477 138.33C52.2032 138.33 52.5801 138.417 52.8783 138.59C53.182 138.758 53.407 138.983 53.5535 139.265C53.7053 139.542 53.7812 139.846 53.7812 140.176V140.29C53.7812 140.724 53.6565 141.09 53.407 141.388C53.163 141.681 52.816 141.928 52.3659 142.128L51.3004 142.608C51.0835 142.706 50.9343 142.806 50.853 142.909C50.7717 143.012 50.731 143.148 50.731 143.316V143.95L50.487 143.609H53.8381V144.438H49.7793Z" fill="#121212"/>
<path d="M57.3198 144.585C56.8698 144.585 56.4847 144.509 56.1648 144.357C55.8449 144.2 55.5846 143.988 55.384 143.723C55.1887 143.457 55.045 143.151 54.9529 142.804C54.8607 142.451 54.8146 142.08 54.8146 141.689V141.242C54.8146 140.7 54.9014 140.209 55.0749 139.77C55.2538 139.33 55.5277 138.981 55.8964 138.72C56.2705 138.46 56.745 138.33 57.3198 138.33C57.9 138.33 58.3718 138.46 58.7351 138.72C59.1039 138.981 59.3777 139.33 59.5566 139.77C59.7356 140.209 59.8251 140.7 59.8251 141.242V141.689C59.8251 142.08 59.779 142.451 59.6868 142.804C59.5946 143.151 59.4482 143.457 59.2476 143.723C59.0523 143.988 58.7948 144.2 58.4748 144.357C58.1603 144.509 57.7753 144.585 57.3198 144.585ZM57.3198 143.698C57.8458 143.698 58.2308 143.522 58.4748 143.17C58.7243 142.812 58.849 142.248 58.849 141.478C58.849 140.67 58.7216 140.092 58.4667 139.745C58.2173 139.393 57.835 139.217 57.3198 139.217C56.8047 139.217 56.4197 139.393 56.1648 139.745C55.9154 140.092 55.7906 140.664 55.7906 141.461C55.7906 142.237 55.9154 142.804 56.1648 143.161C56.4142 143.519 56.7993 143.698 57.3198 143.698Z" fill="#121212"/>
<path d="M60.9475 144.438V143.381C60.9475 143.137 60.9828 142.928 61.0533 142.755C61.1292 142.576 61.2539 142.416 61.4274 142.275C61.601 142.134 61.8341 141.998 62.127 141.868L63.1844 141.388C63.4501 141.269 63.6534 141.12 63.7944 140.941C63.9408 140.757 64.014 140.521 64.014 140.233C64.014 139.902 63.9191 139.642 63.7293 139.452C63.5395 139.257 63.2684 139.16 62.9159 139.16C62.5689 139.16 62.2978 139.257 62.1025 139.452C61.9128 139.642 61.8179 139.908 61.8179 140.25H60.8743C60.8743 139.897 60.9475 139.577 61.0939 139.29C61.2458 138.997 61.4735 138.764 61.7772 138.59C62.0809 138.417 62.4604 138.33 62.9159 138.33C63.3714 138.33 63.7483 138.417 64.0465 138.59C64.3502 138.758 64.5753 138.983 64.7217 139.265C64.8735 139.542 64.9494 139.846 64.9494 140.176V140.29C64.9494 140.724 64.8247 141.09 64.5753 141.388C64.3312 141.681 63.9842 141.928 63.5341 142.128L62.4686 142.608C62.2517 142.706 62.1025 142.806 62.0212 142.909C61.9399 143.012 61.8992 143.148 61.8992 143.316V143.95L61.6552 143.609H65.0063V144.438H60.9475Z" fill="#121212"/>
<path d="M68.488 144.585C68.0379 144.585 67.653 144.509 67.333 144.357C67.0131 144.2 66.7528 143.988 66.5522 143.723C66.357 143.457 66.2132 143.151 66.1211 142.804C66.0289 142.451 65.9828 142.08 65.9828 141.689V141.242C65.9828 140.7 66.0695 140.209 66.2431 139.77C66.422 139.33 66.6959 138.981 67.0646 138.72C67.4388 138.46 67.9132 138.33 68.488 138.33C69.0682 138.33 69.54 138.46 69.9033 138.72C70.2721 138.981 70.5459 139.33 70.7249 139.77C70.9038 140.209 70.9933 140.7 70.9933 141.242V141.689C70.9933 142.08 70.9472 142.451 70.855 142.804C70.7628 143.151 70.6164 143.457 70.4158 143.723C70.2205 143.988 69.963 144.2 69.643 144.357C69.3285 144.509 68.9435 144.585 68.488 144.585ZM68.488 143.698C69.014 143.698 69.399 143.522 69.643 143.17C69.8925 142.812 70.0172 142.248 70.0172 141.478C70.0172 140.67 69.8898 140.092 69.6349 139.745C69.3855 139.393 69.0032 139.217 68.488 139.217C67.9729 139.217 67.5879 139.393 67.333 139.745C67.0836 140.092 66.9589 140.664 66.9589 141.461C66.9589 142.237 67.0836 142.804 67.333 143.161C67.5825 143.519 67.9675 143.698 68.488 143.698Z" fill="#121212"/>
<path d="M17.9925 125.459V113.584H20.5954L26.6307 124.028H27.1513L26.8259 124.321V113.584H28.3551V125.459H25.7197L19.6844 115.016H19.1638L19.4892 114.723V125.459H17.9925Z" fill="#121212"/>
<path d="M35.2629 125.752C34.5037 125.752 33.8476 125.622 33.2945 125.362C32.7414 125.102 32.2913 124.76 31.9443 124.337C31.5972 123.903 31.337 123.421 31.1634 122.889C31.0008 122.358 30.9194 121.815 30.9194 121.262V120.97C30.9194 120.406 31.0008 119.858 31.1634 119.326C31.337 118.795 31.5972 118.318 31.9443 117.895C32.2913 117.461 32.7306 117.119 33.262 116.87C33.8042 116.61 34.4387 116.48 35.1653 116.48C36.1088 116.48 36.8843 116.686 37.4916 117.098C38.1098 117.499 38.5653 118.02 38.8581 118.66C39.1618 119.299 39.3136 119.983 39.3136 120.709V121.409H31.6027V120.237H38.1748L37.817 120.872C37.817 120.254 37.7194 119.722 37.5241 119.278C37.3289 118.822 37.0361 118.47 36.6457 118.22C36.2552 117.971 35.7618 117.846 35.1653 117.846C34.5471 117.846 34.032 117.987 33.6199 118.269C33.2186 118.551 32.9149 118.936 32.7089 119.424C32.5136 119.912 32.416 120.476 32.416 121.116C32.416 121.734 32.5136 122.293 32.7089 122.792C32.9149 123.28 33.2294 123.67 33.6524 123.963C34.0754 124.245 34.6122 124.386 35.2629 124.386C35.9462 124.386 36.4993 124.234 36.9222 123.93C37.356 123.627 37.6163 123.274 37.7031 122.873H39.1672C39.0479 123.469 38.8093 123.984 38.4514 124.418C38.0935 124.852 37.6434 125.183 37.1012 125.411C36.5589 125.638 35.9462 125.752 35.2629 125.752Z" fill="#121212"/>
<path d="M44.0052 125.459L45.7621 117.065H47.8769L49.9267 125.459H48.5927L46.543 117.098H47.0635L45.2903 125.459H44.0052ZM43.2081 125.459V124.223H45.0138V125.459H43.2081ZM42.8502 125.459L40.3937 116.772H41.8904L44.2817 125.459H42.8502ZM48.9181 125.459V124.223H50.7238V125.459H48.9181ZM49.6501 125.459L51.7324 116.772H53.1477L51.0166 125.459H49.6501Z" fill="#121212"/>
<path d="M64.3431 125.752C63.2586 125.752 62.3313 125.562 61.5613 125.183C60.8021 124.803 60.1894 124.31 59.723 123.703C59.2567 123.095 58.9151 122.439 58.6982 121.734C58.4812 121.018 58.3728 120.33 58.3728 119.668V119.31C58.3728 118.594 58.4812 117.879 58.6982 117.163C58.9259 116.447 59.273 115.796 59.7393 115.211C60.2056 114.625 60.813 114.153 61.5613 113.795C62.3096 113.438 63.2043 113.259 64.2455 113.259C65.3083 113.259 66.2193 113.443 66.9785 113.812C67.7376 114.18 68.3395 114.696 68.7842 115.357C69.2288 116.019 69.5 116.8 69.5976 117.7H67.9708C67.884 117.027 67.6671 116.474 67.3201 116.04C66.973 115.596 66.5338 115.265 66.0024 115.048C65.4818 114.831 64.8962 114.723 64.2455 114.723C63.5405 114.723 62.9224 114.847 62.3909 115.097C61.8595 115.335 61.4149 115.677 61.057 116.122C60.7099 116.556 60.4442 117.06 60.2599 117.635C60.0863 118.209 59.9996 118.833 59.9996 119.505C59.9996 120.145 60.0863 120.753 60.2599 121.327C60.4442 121.902 60.7154 122.412 61.0733 122.857C61.442 123.301 61.8975 123.654 62.4397 123.914C62.982 124.163 63.6165 124.288 64.3431 124.288C65.3625 124.288 66.2193 124.033 66.9134 123.524C67.6075 123.014 68.0304 122.276 68.1823 121.311H69.8091C69.7006 122.125 69.4241 122.867 68.9794 123.54C68.5456 124.212 67.9382 124.749 67.1574 125.15C66.3874 125.552 65.4493 125.752 64.3431 125.752Z" fill="#121212"/>
<path d="M75.8919 125.752C75.1328 125.752 74.4658 125.622 73.891 125.362C73.3162 125.102 72.8282 124.76 72.4269 124.337C72.0365 123.903 71.7382 123.421 71.5322 122.889C71.337 122.358 71.2393 121.815 71.2393 121.262V120.97C71.2393 120.416 71.3424 119.874 71.5484 119.343C71.7545 118.8 72.0582 118.318 72.4594 117.895C72.8607 117.461 73.3487 117.119 73.9235 116.87C74.4983 116.61 75.1544 116.48 75.8919 116.48C76.6294 116.48 77.2855 116.61 77.8603 116.87C78.4351 117.119 78.9231 117.461 79.3244 117.895C79.7257 118.318 80.0294 118.8 80.2354 119.343C80.4415 119.874 80.5445 120.416 80.5445 120.97V121.262C80.5445 121.815 80.4415 122.358 80.2354 122.889C80.0402 123.421 79.742 123.903 79.3407 124.337C78.9503 124.76 78.4676 125.102 77.8929 125.362C77.3181 125.622 76.6511 125.752 75.8919 125.752ZM75.8919 124.353C76.5426 124.353 77.0957 124.212 77.5512 123.93C78.0176 123.637 78.37 123.247 78.6086 122.759C78.8581 122.271 78.9828 121.723 78.9828 121.116C78.9828 120.498 78.8581 119.945 78.6086 119.457C78.3592 118.969 78.0013 118.584 77.535 118.302C77.0795 118.02 76.5318 117.879 75.8919 117.879C75.2629 117.879 74.7152 118.02 74.2489 118.302C73.7825 118.584 73.4246 118.969 73.1752 119.457C72.9258 119.945 72.801 120.498 72.801 121.116C72.801 121.723 72.9203 122.271 73.1589 122.759C73.4084 123.247 73.7608 123.637 74.2163 123.93C74.6827 124.212 75.2412 124.353 75.8919 124.353Z" fill="#121212"/>
<path d="M82.8835 125.459V116.772H84.1199V120.351H84.0548C84.0548 119.082 84.3313 118.155 84.8844 117.57C85.4484 116.973 86.2889 116.675 87.4059 116.675H87.6988V118.074H87.1457C86.278 118.074 85.6111 118.307 85.1447 118.773C84.6784 119.229 84.4452 119.89 84.4452 120.758V125.459H82.8835Z" fill="#121212"/>
<path d="M89.5558 125.459V116.772H90.7922V120.351H90.7271C90.7271 119.082 91.0037 118.155 91.5568 117.57C92.1207 116.973 92.9612 116.675 94.0783 116.675H94.3711V118.074H93.818C92.9504 118.074 92.2834 118.307 91.817 118.773C91.3507 119.229 91.1175 119.89 91.1175 120.758V125.459H89.5558Z" fill="#121212"/>
<path d="M99.8256 125.752C99.0665 125.752 98.4103 125.622 97.8572 125.362C97.3041 125.102 96.854 124.76 96.507 124.337C96.16 123.903 95.8997 123.421 95.7262 122.889C95.5635 122.358 95.4821 121.815 95.4821 121.262V120.97C95.4821 120.406 95.5635 119.858 95.7262 119.326C95.8997 118.795 96.16 118.318 96.507 117.895C96.854 117.461 97.2933 117.119 97.8247 116.87C98.367 116.61 99.0014 116.48 99.728 116.48C100.672 116.48 101.447 116.686 102.054 117.098C102.672 117.499 103.128 118.02 103.421 118.66C103.724 119.299 103.876 119.983 103.876 120.709V121.409H96.1654V120.237H102.738L102.38 120.872C102.38 120.254 102.282 119.722 102.087 119.278C101.892 118.822 101.599 118.47 101.208 118.22C100.818 117.971 100.325 117.846 99.728 117.846C99.1099 117.846 98.5947 117.987 98.1826 118.269C97.7813 118.551 97.4776 118.936 97.2716 119.424C97.0764 119.912 96.9788 120.476 96.9788 121.116C96.9788 121.734 97.0764 122.293 97.2716 122.792C97.4776 123.28 97.7922 123.67 98.2151 123.963C98.6381 124.245 99.1749 124.386 99.8256 124.386C100.509 124.386 101.062 124.234 101.485 123.93C101.919 123.627 102.179 123.274 102.266 122.873H103.73C103.611 123.469 103.372 123.984 103.014 124.418C102.656 124.852 102.206 125.183 101.664 125.411C101.122 125.638 100.509 125.752 99.8256 125.752Z" fill="#121212"/>
<path d="M106.191 125.459V113.584H107.753V125.459H106.191ZM104.987 114.82V113.584H107.753V114.82H104.987Z" fill="#121212"/>
<path d="M116.003 125.459V122.857H115.743V119.847C115.743 119.251 115.585 118.8 115.271 118.497C114.967 118.193 114.517 118.041 113.921 118.041C113.584 118.041 113.237 118.047 112.879 118.058C112.522 118.068 112.18 118.079 111.855 118.09C111.529 118.101 111.247 118.117 111.009 118.139V116.772C111.247 116.751 111.497 116.734 111.757 116.724C112.028 116.702 112.305 116.691 112.587 116.691C112.869 116.68 113.14 116.675 113.4 116.675C114.289 116.675 115.016 116.783 115.58 117C116.144 117.206 116.561 117.548 116.833 118.025C117.104 118.502 117.239 119.148 117.239 119.961V125.459H116.003ZM113.156 125.687C112.505 125.687 111.941 125.579 111.464 125.362C110.998 125.134 110.635 124.809 110.374 124.386C110.125 123.963 110 123.453 110 122.857C110 122.238 110.136 121.723 110.407 121.311C110.689 120.899 111.095 120.59 111.627 120.384C112.158 120.167 112.798 120.059 113.546 120.059H115.905V121.23H113.481C112.852 121.23 112.37 121.382 112.034 121.685C111.697 121.989 111.529 122.379 111.529 122.857C111.529 123.334 111.697 123.719 112.034 124.012C112.37 124.304 112.852 124.451 113.481 124.451C113.85 124.451 114.203 124.386 114.539 124.256C114.875 124.115 115.152 123.887 115.368 123.572C115.596 123.247 115.721 122.802 115.743 122.238L116.166 122.857C116.111 123.475 115.96 123.995 115.71 124.418C115.471 124.83 115.135 125.145 114.701 125.362C114.279 125.579 113.763 125.687 113.156 125.687Z" fill="#121212"/>
<path d="M123.489 125.557C122.839 125.557 122.275 125.465 121.797 125.28C121.331 125.096 120.968 124.782 120.707 124.337C120.458 123.881 120.333 123.269 120.333 122.499V114.137H121.83V122.694C121.83 123.16 121.955 123.524 122.204 123.784C122.464 124.033 122.828 124.158 123.294 124.158H124.823V125.557H123.489ZM118.837 117.944V116.772H124.823V117.944H118.837Z" fill="#121212"/>
<path d="M127.455 125.459V116.772H129.017V125.459H127.455ZM126.121 118.009V116.772H129.017V118.009H126.121ZM127.894 115.373C127.547 115.373 127.287 115.281 127.113 115.097C126.951 114.912 126.869 114.679 126.869 114.397C126.869 114.115 126.951 113.882 127.113 113.698C127.287 113.513 127.547 113.421 127.894 113.421C128.241 113.421 128.496 113.513 128.659 113.698C128.832 113.882 128.919 114.115 128.919 114.397C128.919 114.679 128.832 114.912 128.659 115.097C128.496 115.281 128.241 115.373 127.894 115.373Z" fill="#121212"/>
<path d="M136.038 125.752C135.279 125.752 134.612 125.622 134.037 125.362C133.462 125.102 132.974 124.76 132.573 124.337C132.183 123.903 131.884 123.421 131.678 122.889C131.483 122.358 131.386 121.815 131.386 121.262V120.97C131.386 120.416 131.489 119.874 131.695 119.343C131.901 118.8 132.204 118.318 132.606 117.895C133.007 117.461 133.495 117.119 134.07 116.87C134.645 116.61 135.301 116.48 136.038 116.48C136.776 116.48 137.432 116.61 138.007 116.87C138.581 117.119 139.069 117.461 139.471 117.895C139.872 118.318 140.176 118.8 140.382 119.343C140.588 119.874 140.691 120.416 140.691 120.97V121.262C140.691 121.815 140.588 122.358 140.382 122.889C140.186 123.421 139.888 123.903 139.487 124.337C139.097 124.76 138.614 125.102 138.039 125.362C137.464 125.622 136.797 125.752 136.038 125.752ZM136.038 124.353C136.689 124.353 137.242 124.212 137.698 123.93C138.164 123.637 138.516 123.247 138.755 122.759C139.004 122.271 139.129 121.723 139.129 121.116C139.129 120.498 139.004 119.945 138.755 119.457C138.505 118.969 138.148 118.584 137.681 118.302C137.226 118.02 136.678 117.879 136.038 117.879C135.409 117.879 134.861 118.02 134.395 118.302C133.929 118.584 133.571 118.969 133.321 119.457C133.072 119.945 132.947 120.498 132.947 121.116C132.947 121.723 133.067 122.271 133.305 122.759C133.555 123.247 133.907 123.637 134.363 123.93C134.829 124.212 135.387 124.353 136.038 124.353Z" fill="#121212"/>
<path d="M143.03 125.459V116.772H144.266V120.498H144.071C144.071 119.641 144.185 118.92 144.413 118.334C144.651 117.738 145.009 117.288 145.486 116.984C145.963 116.669 146.565 116.512 147.292 116.512H147.357C148.452 116.512 149.26 116.854 149.781 117.537C150.312 118.22 150.578 119.207 150.578 120.498V125.459H149.016V120.172C149.016 119.5 148.827 118.963 148.447 118.562C148.067 118.15 147.547 117.944 146.885 117.944C146.202 117.944 145.649 118.155 145.226 118.578C144.803 119.001 144.591 119.565 144.591 120.27V125.459H143.03Z" fill="#121212"/>
<defs>
<filter id="filter0_d" x="0" y="0.0622559" width="645.866" height="168.678" filterUnits="userSpaceOnUse" color-interpolation-filters="sRGB">
<feFlood flood-opacity="0" result="BackgroundImageFix"/>
<feColorMatrix in="SourceAlpha" type="matrix" values="0 0 0 0 0 0 0 0 0 0 0 0 0 0 0 0 0 0 127 0"/>
<feOffset dx="6" dy="6"/>
<feColorMatrix type="matrix" values="0 0 0 0 0 0 0 0 0 0 0 0 0 0 0 0 0 0 0.05 0"/>
<feBlend mode="normal" in2="BackgroundImageFix" result="effect1_dropShadow"/>
<feBlend mode="normal" in="SourceGraphic" in2="effect1_dropShadow" result="shape"/>
</filter>
</defs>
</svg>
