<svg width="361" height="360" viewBox="0 0 361 360" fill="none" xmlns="http://www.w3.org/2000/svg">
<mask id="mask0" mask-type="alpha" maskUnits="userSpaceOnUse" x="0" y="0" width="361" height="360">
<rect x="0.666626" width="360" height="360" fill="#EB5757"/>
</mask>
<g mask="url(#mask0)">
<path d="M182.211 248.896L297.428 228.066L287.665 79.7335L190.673 118.139L97.5059 81.1984L76.1082 228.066L182.211 248.896Z" fill="#A7C5C3"/>
<path fill-rule="evenodd" clip-rule="evenodd" d="M219.064 87.2234C240.102 77.1962 267.723 70.4199 294.061 72.6904C294.517 72.7297 294.877 73.0929 294.913 73.549L305.73 210.557L305.73 210.561C305.73 210.561 305.73 210.562 304.797 210.635L305.73 210.561C305.768 211.042 305.434 211.474 304.959 211.557C243.209 222.374 208.804 230.476 190.749 236.98C189.029 237.6 187.463 238.203 186.04 238.79C187.27 239.703 188.33 240.621 189.198 241.543C191.176 243.643 191.688 246.082 191.16 248.367C190.641 250.61 189.141 252.638 187.209 254.077C185.275 255.518 182.833 256.425 180.348 256.34C177.835 256.253 175.337 255.151 173.364 252.684C172.394 251.472 171.707 250.132 171.64 248.66C171.572 247.164 172.151 245.692 173.401 244.248C175.014 242.384 177.831 240.469 182.174 238.441C178.406 236.116 173.464 233.781 167.675 231.509C158.267 227.817 146.767 224.344 134.789 221.361C110.812 215.392 85.0489 211.422 70.4431 211.571C70.1689 211.574 69.9072 211.456 69.7273 211.249C69.5474 211.042 69.4674 210.766 69.5085 210.495L90.2405 73.4826C90.3017 73.0784 90.6182 72.7607 91.0222 72.6981C95.5471 71.9959 102.41 72.5919 110.458 74.1548C118.537 75.7235 127.906 78.2863 137.49 81.5869C156.634 88.1795 176.76 97.7587 189.191 108.338C189.209 108.354 189.227 108.369 189.245 108.384C190.452 106.933 191.819 105.488 193.327 104.058C199.628 98.0843 208.543 92.2379 219.064 87.2234ZM188.082 109.852C184.992 113.949 183.228 118.063 183.228 121.963C183.228 126.036 184.991 128.642 187.48 129.74C189.904 130.809 192.816 130.35 194.947 128.743C197.117 127.106 198.474 124.288 197.825 120.697C197.244 117.488 195.081 113.737 190.645 109.628C191.799 108.236 193.125 106.828 194.614 105.416C200.735 99.6132 209.471 93.8685 219.869 88.9126C240.458 79.0997 267.404 72.4541 293.11 74.4895L303.797 209.861C242.58 220.603 208.258 228.683 190.115 235.219C187.931 236.006 185.972 236.774 184.221 237.525C180.147 234.856 174.678 232.248 168.358 229.767C158.851 226.036 147.268 222.54 135.241 219.546C111.788 213.706 86.5198 209.744 71.522 209.696L91.986 74.4549C96.1916 73.9564 102.513 74.5181 110.102 75.9917C118.08 77.541 127.364 80.0787 136.881 83.3562C155.94 89.9196 175.81 99.4066 187.979 109.763C188.013 109.793 188.048 109.822 188.082 109.852ZM189.483 111.102C193.665 115.005 195.504 118.382 195.983 121.03C196.507 123.929 195.424 126.039 193.82 127.249C192.175 128.49 189.978 128.796 188.236 128.028C186.56 127.289 185.1 125.455 185.1 121.963C185.1 118.628 186.617 114.937 189.483 111.102ZM184.031 239.651C179.189 241.808 176.315 243.74 174.816 245.473C173.798 246.649 173.468 247.669 173.51 248.575C173.552 249.504 173.991 250.473 174.825 251.515C176.457 253.555 178.445 254.402 180.412 254.47C182.408 254.538 184.442 253.805 186.091 252.576C187.745 251.344 188.938 249.671 189.336 247.945C189.726 246.261 189.379 244.464 187.835 242.826C186.848 241.777 185.569 240.716 184.031 239.651Z" fill="#F4D8FE"/>
<path d="M305.73 210.561L305.73 210.557L294.913 73.549C294.877 73.0929 294.517 72.7297 294.061 72.6904C267.723 70.4199 240.102 77.1962 219.064 87.2234C208.543 92.2379 199.628 98.0843 193.327 104.058C191.819 105.488 190.452 106.933 189.245 108.384C189.227 108.369 189.209 108.354 189.191 108.338C176.76 97.7587 156.634 88.1795 137.49 81.5869C127.906 78.2863 118.537 75.7235 110.458 74.1548C102.41 72.5919 95.5471 71.9959 91.0221 72.6981C90.6182 72.7607 90.3017 73.0784 90.2405 73.4826L69.5085 210.495C69.4674 210.766 69.5474 211.042 69.7273 211.249C69.9072 211.456 70.1689 211.574 70.4431 211.571C85.0489 211.422 110.812 215.392 134.789 221.361C146.767 224.344 158.267 227.817 167.675 231.509C173.464 233.781 178.406 236.116 182.174 238.441C177.831 240.469 175.014 242.384 173.401 244.248C172.151 245.692 171.572 247.164 171.64 248.66C171.707 250.132 172.394 251.472 173.364 252.684C175.337 255.151 177.835 256.253 180.348 256.34C182.833 256.425 185.275 255.518 187.209 254.077C189.141 252.638 190.641 250.61 191.16 248.367C191.688 246.082 191.176 243.643 189.198 241.543C188.33 240.621 187.27 239.703 186.04 238.79C187.463 238.203 189.029 237.6 190.749 236.98C208.804 230.476 243.209 222.374 304.959 211.557C305.434 211.474 305.768 211.042 305.73 210.561ZM305.73 210.561C305.73 210.561 305.73 210.562 304.797 210.635L305.73 210.561ZM188.082 109.852C184.992 113.949 183.228 118.063 183.228 121.963C183.228 126.036 184.991 128.642 187.48 129.74C189.904 130.809 192.816 130.35 194.947 128.743C197.117 127.106 198.474 124.288 197.825 120.697C197.244 117.488 195.081 113.737 190.645 109.628C191.799 108.236 193.125 106.828 194.614 105.416C200.735 99.6132 209.471 93.8685 219.869 88.9126C240.458 79.0997 267.404 72.4541 293.11 74.4895L303.797 209.861C242.58 220.603 208.258 228.683 190.115 235.219C187.931 236.006 185.972 236.774 184.221 237.525C180.147 234.856 174.678 232.248 168.358 229.767C158.851 226.036 147.268 222.54 135.241 219.546C111.788 213.706 86.5198 209.744 71.522 209.696L91.986 74.4549C96.1916 73.9564 102.513 74.5181 110.102 75.9917C118.08 77.541 127.364 80.0787 136.881 83.3562C155.94 89.9196 175.81 99.4066 187.979 109.763C188.013 109.793 188.048 109.822 188.082 109.852ZM189.483 111.102C193.665 115.005 195.504 118.382 195.983 121.03C196.507 123.929 195.424 126.039 193.82 127.249C192.175 128.49 189.978 128.796 188.236 128.028C186.56 127.289 185.1 125.455 185.1 121.963C185.1 118.628 186.617 114.937 189.483 111.102ZM174.816 245.473C176.315 243.74 179.189 241.808 184.031 239.651C185.569 240.716 186.848 241.777 187.835 242.826C189.379 244.464 189.726 246.261 189.336 247.945C188.938 249.671 187.745 251.344 186.091 252.576C184.442 253.805 182.408 254.538 180.412 254.47C178.445 254.402 176.457 253.555 174.825 251.515C173.991 250.473 173.552 249.504 173.51 248.575C173.468 247.669 173.798 246.649 174.816 245.473Z" stroke="#F4D8FE" stroke-linecap="round" stroke-linejoin="round"/>
<path fill-rule="evenodd" clip-rule="evenodd" d="M265.156 104.779C262.289 104.969 259.902 106.42 258.692 109.445C258.039 111.077 257.316 112.669 256.459 114.029C255.604 115.386 254.58 116.57 253.299 117.319C251.991 118.085 250.476 118.361 248.743 117.991C247.041 117.627 245.165 116.651 243.06 114.989C241.05 113.402 238.187 112.526 235.827 113.031C234.67 113.279 233.634 113.856 232.838 114.851C232.036 115.853 231.428 117.342 231.249 119.49C230.746 125.524 222.514 129.939 214.766 124.926C213.054 123.818 211.564 123.385 210.269 123.39C208.978 123.396 207.793 123.838 206.686 124.632C204.43 126.251 202.578 129.276 201.088 132.681C200.881 133.155 200.33 133.37 199.856 133.163C199.383 132.956 199.167 132.405 199.374 131.931C200.893 128.46 202.91 125.038 205.596 123.111C206.96 122.133 208.515 121.527 210.26 121.519C212 121.511 213.841 122.099 215.782 123.355C222.647 127.796 229.027 123.616 229.384 119.335C229.586 116.912 230.289 115.041 231.377 113.682C232.469 112.316 233.9 111.53 235.435 111.202C238.457 110.554 241.875 111.669 244.22 113.521C246.198 115.083 247.814 115.879 249.134 116.161C250.423 116.436 251.46 116.228 252.354 115.704C253.276 115.165 254.106 114.254 254.876 113.032C255.644 111.813 256.317 110.343 256.954 108.751C258.457 104.992 261.518 103.144 265.033 102.912C268.494 102.684 272.365 104.012 275.72 106.473C276.137 106.778 276.227 107.364 275.921 107.78C275.616 108.197 275.03 108.287 274.613 107.982C271.522 105.714 268.077 104.586 265.156 104.779Z" fill="white" stroke="white" stroke-linecap="round" stroke-linejoin="round"/>
<path fill-rule="evenodd" clip-rule="evenodd" d="M265.156 127.71C262.289 127.899 259.902 129.351 258.692 132.376C258.039 134.008 257.316 135.6 256.459 136.96C255.604 138.317 254.58 139.501 253.299 140.25C251.991 141.016 250.476 141.291 248.743 140.921C247.041 140.558 245.165 139.581 243.06 137.92C241.05 136.333 238.187 135.456 235.827 135.962C234.67 136.21 233.634 136.787 232.838 137.782C232.036 138.784 231.428 140.273 231.249 142.421C230.746 148.455 222.514 152.87 214.766 147.856C213.054 146.749 211.564 146.315 210.269 146.321C208.978 146.327 207.793 146.769 206.686 147.563C204.43 149.182 202.578 152.207 201.088 155.612C200.881 156.085 200.33 156.301 199.856 156.094C199.383 155.887 199.167 155.335 199.374 154.862C200.893 151.391 202.91 147.969 205.596 146.042C206.96 145.063 208.515 144.457 210.26 144.45C212 144.442 213.841 145.029 215.782 146.285C222.647 150.727 229.027 146.546 229.384 142.266C229.586 139.843 230.289 137.972 231.377 136.613C232.469 135.247 233.9 134.461 235.435 134.132C238.457 133.485 241.875 134.6 244.22 136.451C246.198 138.013 247.814 138.81 249.134 139.091C250.423 139.366 251.46 139.159 252.354 138.635C253.276 138.095 254.106 137.184 254.876 135.962C255.644 134.744 256.317 133.274 256.954 131.681C258.457 127.923 261.518 126.075 265.033 125.843C268.494 125.614 272.365 126.943 275.72 129.403C276.137 129.709 276.227 130.294 275.921 130.711C275.616 131.128 275.03 131.218 274.613 130.912C271.522 128.645 268.077 127.517 265.156 127.71Z" fill="white" stroke="white" stroke-linecap="round" stroke-linejoin="round"/>
<path fill-rule="evenodd" clip-rule="evenodd" d="M265.156 147.202C262.289 147.392 259.902 148.843 258.692 151.869C258.039 153.5 257.316 155.092 256.459 156.452C255.604 157.809 254.58 158.993 253.299 159.743C251.991 160.508 250.476 160.784 248.743 160.414C247.041 160.051 245.165 159.074 243.06 157.413C241.05 155.825 238.187 154.949 235.827 155.454C234.67 155.702 233.634 156.279 232.838 157.274C232.036 158.276 231.428 159.765 231.249 161.913C230.746 167.947 222.514 172.362 214.766 167.349C213.054 166.241 211.564 165.808 210.269 165.813C208.978 165.819 207.793 166.261 206.686 167.055C204.43 168.674 202.578 171.699 201.088 175.104C200.881 175.578 200.33 175.794 199.856 175.586C199.383 175.379 199.167 174.828 199.374 174.354C200.893 170.883 202.91 167.461 205.596 165.535C206.96 164.556 208.515 163.95 210.26 163.942C212 163.934 213.841 164.522 215.782 165.778C222.647 170.219 229.027 166.039 229.384 161.758C229.586 159.335 230.289 157.465 231.377 156.105C232.469 154.739 233.9 153.953 235.435 153.625C238.457 152.977 241.875 154.093 244.22 155.944C246.198 157.506 247.814 158.302 249.134 158.584C250.423 158.859 251.46 158.651 252.354 158.128C253.276 157.588 254.106 156.677 254.876 155.455C255.644 154.236 256.317 152.766 256.954 151.174C258.457 147.415 261.518 145.567 265.033 145.335C268.494 145.107 272.365 146.435 275.72 148.896C276.137 149.201 276.227 149.787 275.921 150.204C275.616 150.62 275.03 150.71 274.613 150.405C271.522 148.137 268.077 147.01 265.156 147.202Z" fill="white" stroke="white" stroke-linecap="round" stroke-linejoin="round"/>
<path fill-rule="evenodd" clip-rule="evenodd" d="M265.156 168.997C262.289 169.187 259.902 170.638 258.692 173.663C258.039 175.295 257.316 176.887 256.459 178.247C255.604 179.604 254.58 180.788 253.299 181.537C251.991 182.303 250.476 182.579 248.743 182.209C247.041 181.845 245.165 180.869 243.06 179.207C241.05 177.62 238.187 176.744 235.827 177.249C234.67 177.497 233.634 178.074 232.838 179.069C232.036 180.071 231.428 181.56 231.249 183.708C230.746 189.742 222.514 194.157 214.766 189.144C213.054 188.036 211.564 187.603 210.269 187.608C208.978 187.614 207.793 188.056 206.686 188.85C204.43 190.469 202.578 193.494 201.088 196.899C200.881 197.373 200.33 197.589 199.856 197.381C199.383 197.174 199.167 196.623 199.374 196.149C200.893 192.678 202.91 189.256 205.596 187.329C206.96 186.351 208.515 185.745 210.26 185.737C212 185.729 213.841 186.317 215.782 187.573C222.647 192.014 229.027 187.834 229.384 183.553C229.586 181.13 230.289 179.259 231.377 177.9C232.469 176.534 233.9 175.748 235.435 175.42C238.457 174.772 241.875 175.887 244.22 177.739C246.198 179.301 247.814 180.097 249.134 180.379C250.423 180.654 251.46 180.446 252.354 179.922C253.276 179.383 254.106 178.472 254.876 177.25C255.644 176.031 256.317 174.561 256.954 172.969C258.457 169.21 261.518 167.362 265.033 167.13C268.494 166.902 272.365 168.23 275.72 170.691C276.137 170.996 276.227 171.582 275.921 171.998C275.616 172.415 275.03 172.505 274.613 172.2C271.522 169.932 268.077 168.805 265.156 168.997Z" fill="white" stroke="white" stroke-linecap="round" stroke-linejoin="round"/>
<path fill-rule="evenodd" clip-rule="evenodd" d="M265.156 191.472C262.289 191.661 259.902 193.113 258.692 196.138C258.039 197.77 257.316 199.362 256.459 200.722C255.604 202.079 254.58 203.263 253.299 204.012C251.991 204.778 250.476 205.053 248.743 204.684C247.041 204.32 245.165 203.343 243.06 201.682C241.05 200.095 238.187 199.218 235.827 199.724C234.67 199.972 233.634 200.549 232.838 201.544C232.036 202.546 231.428 204.035 231.249 206.183C230.746 212.217 222.514 216.632 214.766 211.618C213.054 210.511 211.564 210.077 210.269 210.083C208.978 210.089 207.793 210.531 206.686 211.325C204.43 212.944 202.578 215.969 201.088 219.374C200.881 219.847 200.33 220.063 199.856 219.856C199.383 219.649 199.167 219.097 199.374 218.624C200.893 215.153 202.91 211.731 205.596 209.804C206.96 208.825 208.515 208.22 210.26 208.212C212 208.204 213.841 208.791 215.782 210.047C222.647 214.489 229.027 210.308 229.384 206.028C229.586 203.605 230.289 201.734 231.377 200.375C232.469 199.009 233.9 198.223 235.435 197.894C238.457 197.247 241.875 198.362 244.22 200.213C246.198 201.776 247.814 202.572 249.134 202.853C250.423 203.129 251.46 202.921 252.354 202.397C253.276 201.858 254.106 200.947 254.876 199.724C255.644 198.506 256.317 197.036 256.954 195.443C258.457 191.685 261.518 189.837 265.033 189.605C268.494 189.376 272.365 190.705 275.72 193.165C276.137 193.471 276.227 194.056 275.921 194.473C275.616 194.89 275.03 194.98 274.613 194.674C271.522 192.407 268.077 191.279 265.156 191.472Z" fill="white" stroke="white" stroke-linecap="round" stroke-linejoin="round"/>
<path d="M167.771 189.609C164.561 190.626 153.979 182.873 151.713 180.975C155.672 180.674 168.116 175.128 170.78 172.435C170.78 174.491 170.948 188.602 167.771 189.609Z" fill="#A88DFF"/>
<path d="M136.396 70.6071C136.396 70.6071 119.264 89.1563 89.3926 91.29L126.661 162.951L140.16 167.497L139.344 158.289L149.834 162.951L150.534 151.995L160.091 157.59L161.373 146.401L170.131 153.343L171.484 142.521L136.396 70.6071Z" fill="#FEBD6D"/>
<path fill-rule="evenodd" clip-rule="evenodd" d="M120.219 46.2672C124.185 50.0736 126.647 55.3486 128.331 59.1506C131.029 65.243 156.411 117.673 169.67 144.246L170.323 143.919L169.67 144.246C169.744 144.394 169.846 144.699 169.96 145.193C170.071 145.671 170.184 146.281 170.297 147.007C170.521 148.459 170.738 150.345 170.928 152.516C171.309 156.856 171.582 162.304 171.609 167.637C171.636 172.977 171.416 178.169 170.818 182.012C170.518 183.94 170.13 185.478 169.658 186.514C169.159 187.609 168.709 187.855 168.421 187.855C167.838 187.855 166.833 187.553 165.429 186.901C164.058 186.264 162.406 185.343 160.569 184.214C156.896 181.957 152.536 178.9 148.302 175.718C144.069 172.536 139.976 169.238 136.838 166.502C135.269 165.134 133.945 163.912 132.965 162.919C132.475 162.423 132.078 161.991 131.781 161.631C131.474 161.26 131.309 161.006 131.244 160.861C131.237 160.847 131.231 160.833 131.223 160.819L100.059 101.859L100.059 101.859C98.7756 99.4397 97.5939 97.1853 96.7425 95.028C95.8919 92.8728 95.3914 90.8628 95.4385 88.9401C95.476 87.4076 95.8644 85.8829 96.767 84.3504C98.4737 84.6652 100.511 84.6783 102.87 84.3299C107.458 83.6521 113.36 81.5952 120.65 77.5832C123.172 76.1948 125.144 74.9601 126.619 73.883C128.083 72.8146 129.102 71.8701 129.674 71.0525C129.96 70.6436 130.169 70.2186 130.232 69.7887C130.298 69.3314 130.194 68.8864 129.891 68.5234C129.609 68.1845 129.208 67.9819 128.794 67.8589C128.375 67.7342 127.882 67.6735 127.34 67.6609C125.196 67.6114 121.825 68.3129 117.763 69.7353C113.68 71.1652 108.833 73.3463 103.719 76.3117C100.107 78.4064 97.6447 80.5201 96.0993 82.6973C95.129 82.4217 94.3429 82.0279 93.7292 81.5565C92.215 80.3932 91.6388 78.6715 91.9979 76.749C95.0968 76.5958 98.8237 75.6075 102.619 74.1942C110.301 71.3343 118.489 66.6473 122.743 63.1752C123.818 62.297 124.611 61.4699 125.101 60.714C125.577 59.9802 125.854 59.1747 125.611 58.4245C125.356 57.6383 124.637 57.221 123.845 57.0354C123.043 56.8478 122.006 56.8503 120.788 57.0211C115.922 57.7033 107.28 61.2064 96.1066 68.8999C93.4393 70.7365 91.6484 73.0197 90.8717 75.3061C88.4701 75.2524 86.8448 74.5448 86.056 73.1723C83.7533 69.0263 82.7336 65.3947 82.7011 62.2057C82.6687 59.0251 83.6173 56.2388 85.329 53.7692C88.7731 48.8001 95.3251 45.0892 103.244 42.2211C110.919 40.1732 116.305 42.5109 120.219 46.2672ZM90.5165 76.7544C88.0167 76.6376 85.899 75.8361 84.7864 73.8942L84.7817 73.8859C82.3931 69.5864 81.2763 65.7152 81.2407 62.2206C81.2049 58.7163 82.2572 55.6373 84.1286 52.9372C87.8465 47.5731 94.7779 43.7307 102.776 40.8371C102.796 40.83 102.816 40.8238 102.836 40.8184C111.075 38.6093 116.986 41.1395 121.231 45.2135C125.428 49.2421 127.988 54.7682 129.666 58.5592C132.348 64.6155 157.715 117.015 170.977 143.593C171.132 143.905 171.264 144.352 171.383 144.863C171.505 145.389 171.625 146.038 171.74 146.784C171.971 148.279 172.191 150.199 172.383 152.388C172.767 156.768 173.042 162.256 173.07 167.629C173.097 172.996 172.877 178.279 172.261 182.236C171.955 184.208 171.542 185.901 170.987 187.12C170.458 188.281 169.653 189.316 168.421 189.316C167.486 189.316 166.223 188.88 164.814 188.226C163.371 187.556 161.665 186.602 159.804 185.458C156.079 183.168 151.678 180.083 147.424 176.885C143.169 173.687 139.048 170.367 135.878 167.603C134.295 166.222 132.941 164.974 131.926 163.946C131.419 163.432 130.989 162.966 130.655 162.561C130.338 162.177 130.073 161.808 129.922 161.483L98.7684 102.543C97.4916 100.136 96.2703 97.8101 95.3839 95.5642C94.4967 93.3161 93.9246 91.0997 93.9784 88.9043C94.0198 87.2134 94.4297 85.5776 95.2973 83.9797C94.3435 83.6669 93.5235 83.2401 92.8395 82.7147C90.9081 81.231 90.1737 79.0472 90.5165 76.7544ZM92.4522 75.2561C93.1953 73.4861 94.6854 71.6517 96.9349 70.1029C108.036 62.4593 116.455 59.1034 120.991 58.4674C122.123 58.3087 122.958 58.3279 123.512 58.4575C124.074 58.5891 124.193 58.7893 124.221 58.8751C124.261 58.997 124.265 59.3181 123.876 59.9195C123.5 60.4987 122.834 61.2154 121.819 62.0438C117.71 65.3978 109.668 70.0113 102.11 72.8255C98.5961 74.1338 95.2354 75.0344 92.4522 75.2561ZM97.685 83.0157C99.0965 81.2273 101.267 79.4221 104.452 77.5751C109.492 74.653 114.254 72.5114 118.246 71.1138C122.259 69.7086 125.43 69.0777 127.306 69.1211C127.769 69.1318 128.124 69.1833 128.378 69.259C128.639 69.3363 128.739 69.422 128.77 69.4584C128.77 69.4591 128.771 69.4597 128.771 69.4604C128.782 69.4726 128.799 69.4927 128.786 69.5784C128.769 69.6965 128.694 69.9053 128.478 70.2148C128.044 70.8343 127.179 71.6657 125.758 72.7034C124.348 73.7325 122.434 74.9341 119.945 76.3036C112.75 80.2639 107.017 82.2409 102.656 82.8851C100.715 83.1717 99.065 83.1923 97.685 83.0157Z" fill="#D287A5" stroke="#D287A5" stroke-linecap="round" stroke-linejoin="round"/>
<path fill-rule="evenodd" clip-rule="evenodd" d="M103.779 88.1379C103.422 88.3258 103.286 88.7675 103.473 89.1243L139.736 157.971C139.924 158.328 140.366 158.465 140.723 158.277C141.08 158.089 141.216 157.647 141.028 157.29L104.766 88.4437C104.578 88.0868 104.136 87.9499 103.779 88.1379Z" fill="#D287A5" stroke="#D287A5" stroke-linecap="round"/>
<path fill-rule="evenodd" clip-rule="evenodd" d="M115.11 83.9821C114.753 84.1701 114.616 84.6117 114.804 84.9686L151.067 153.815C151.255 154.172 151.696 154.309 152.053 154.121C152.41 153.933 152.547 153.491 152.359 153.134L116.096 84.2879C115.908 83.9311 115.466 83.7942 115.11 83.9821Z" fill="#D287A5" stroke="#D287A5" stroke-linecap="round"/>
<path fill-rule="evenodd" clip-rule="evenodd" d="M124.644 77.123C124.287 77.3109 124.151 77.7526 124.338 78.1094L160.601 146.956C160.789 147.313 161.231 147.45 161.588 147.262C161.945 147.074 162.081 146.632 161.893 146.275L125.631 77.4288C125.443 77.0719 125.001 76.935 124.644 77.123Z" fill="#D287A5" stroke="#D287A5" stroke-linecap="round"/>
<path fill-rule="evenodd" clip-rule="evenodd" d="M260.475 210.837C268.739 215.452 281.8 226.494 294.303 240.815C303.766 251.653 312.654 268.95 319.896 289.611C327.144 310.29 332.769 334.41 335.666 358.954C335.727 359.468 335.36 359.933 334.847 359.993C334.334 360.054 333.869 359.687 333.808 359.174C330.926 334.76 325.331 310.774 318.13 290.23C310.923 269.668 302.131 252.626 292.894 242.046C280.462 227.807 267.565 216.94 259.563 212.471C257.561 211.353 255.926 210.67 254.717 210.413C253.44 210.142 253.013 210.409 252.878 210.591C252.792 210.709 252.692 210.945 252.694 211.402C252.696 211.86 252.8 212.477 253.053 213.276C253.558 214.875 254.606 217.049 256.32 219.865C256.89 220.801 257.446 221.701 257.99 222.565C260.908 224.566 263.423 226.592 265.547 228.538C270.555 233.128 273.466 237.344 274.316 239.806C274.525 240.411 274.657 241.041 274.562 241.587C274.512 241.879 274.386 242.204 274.113 242.463C273.832 242.731 273.485 242.841 273.158 242.856C272.569 242.883 271.951 242.609 271.385 242.262C270.782 241.892 270.084 241.342 269.296 240.61C266.467 237.981 262.196 232.731 256.614 223.892C252.773 221.288 248.217 218.725 242.913 216.452C238.179 214.424 234.745 213.374 232.368 213.064C229.918 212.744 228.956 213.245 228.607 213.769C228.418 214.052 228.301 214.477 228.337 215.112C228.373 215.75 228.561 216.537 228.912 217.467C229.614 219.328 230.908 221.602 232.623 224.117C233.649 225.622 234.816 227.198 236.079 228.805C244.421 233.209 251.137 238.676 255.68 243.327C257.49 245.179 258.964 246.912 260.065 248.409C261.152 249.887 261.917 251.192 262.251 252.181C262.408 252.648 262.53 253.211 262.383 253.726C262.301 254.014 262.131 254.298 261.841 254.5C261.562 254.695 261.252 254.76 260.981 254.765C260.471 254.774 259.913 254.579 259.367 254.313C258.795 254.034 258.125 253.62 257.357 253.071C254.31 250.895 249.481 246.467 244.566 241.34C241.217 237.845 237.801 233.998 234.857 230.277C230.143 227.82 224.908 225.717 219.258 224.32C215.329 223.348 212.814 223.216 211.364 223.586C210.665 223.765 210.295 224.04 210.097 224.315C209.901 224.588 209.787 224.982 209.839 225.572C209.946 226.81 210.752 228.577 212.242 230.761C213.708 232.911 215.751 235.347 218.166 237.898C220.771 240.651 223.789 243.519 226.94 246.282C235.473 248.485 243.294 252.573 248.367 256.134C249.998 257.279 251.364 258.382 252.387 259.366C253.377 260.318 254.151 261.254 254.45 262.07C254.602 262.484 254.699 263.054 254.399 263.586C254.093 264.129 253.539 264.339 253.068 264.411C252.157 264.549 250.817 264.293 249.113 263.739C245.545 262.58 239.886 258.98 233.976 254.467C231.354 252.464 228.659 250.264 226.045 247.985C223.855 247.438 221.621 247.022 219.383 246.781C215.208 246.331 212.639 246.521 211.237 247.078C210.564 247.346 210.247 247.664 210.099 247.955C209.95 248.248 209.897 248.661 210.046 249.268C210.356 250.534 211.448 252.251 213.242 254.34C215.008 256.397 217.355 258.705 220.021 261.146C223.25 264.103 226.89 267.207 230.48 270.269C232.838 272.28 235.175 274.273 237.36 276.194C240.1 278.603 242.592 280.892 244.541 282.929C246.462 284.936 247.953 286.796 248.571 288.34C248.855 289.052 249.052 289.676 249.15 290.214C249.245 290.737 249.264 291.273 249.093 291.749C248.899 292.288 248.493 292.653 247.971 292.809C247.509 292.946 247.011 292.905 246.563 292.813C245.66 292.626 244.533 292.132 243.305 291.505C242.058 290.868 240.623 290.049 239.086 289.157C238.751 288.963 238.411 288.765 238.066 288.565C235.228 286.914 232.081 285.083 228.974 283.604C225.467 281.935 222.148 280.784 219.483 280.784C218.61 280.784 218.197 280.955 218.018 281.101C217.893 281.203 217.772 281.381 217.8 281.844C217.829 282.338 218.029 283.03 218.448 283.943C218.86 284.843 219.454 285.894 220.209 287.089C222.075 290.042 224.81 293.707 227.955 297.921C229.946 300.589 232.102 303.477 234.304 306.544C239.946 314.398 245.828 323.336 249.743 332.403C253.653 341.459 255.654 350.767 253.365 359.306C253.231 359.805 252.718 360.102 252.219 359.968C251.72 359.834 251.423 359.321 251.557 358.822C253.688 350.872 251.863 342.033 248.025 333.145C244.192 324.268 238.406 315.462 232.784 307.635C230.642 304.653 228.513 301.8 226.529 299.14C223.341 294.867 220.526 291.094 218.627 288.088C217.85 286.858 217.207 285.729 216.746 284.723C216.292 283.73 215.981 282.79 215.932 281.956C215.88 281.09 216.11 280.243 216.835 279.651C217.506 279.103 218.442 278.913 219.483 278.913C222.592 278.913 226.232 280.227 229.778 281.915C232.96 283.429 236.177 285.301 239.007 286.947C239.352 287.148 239.692 287.346 240.024 287.539C241.564 288.432 242.959 289.227 244.156 289.839C245.373 290.46 246.306 290.849 246.942 290.98C247.14 291.021 247.27 291.029 247.347 291.026C247.354 290.94 247.352 290.789 247.309 290.549C247.242 290.18 247.093 289.684 246.833 289.035C246.363 287.86 245.108 286.228 243.189 284.222C241.297 282.246 238.854 279.999 236.125 277.6C233.988 275.721 231.669 273.743 229.316 271.736C225.698 268.65 222 265.495 218.757 262.526C216.072 260.066 213.66 257.7 211.822 255.559C210.011 253.45 208.652 251.444 208.228 249.713C208.01 248.822 208.019 247.918 208.431 247.107C208.845 246.293 209.589 245.719 210.546 245.339C212.406 244.6 215.377 244.467 219.583 244.92C220.797 245.051 222.008 245.231 223.211 245.454C220.928 243.363 218.756 241.244 216.806 239.184C214.354 236.593 212.238 234.077 210.696 231.815C209.177 229.588 208.127 227.482 207.974 225.735C207.896 224.832 208.051 223.955 208.578 223.222C209.104 222.492 209.912 222.026 210.901 221.773C212.829 221.281 215.732 221.52 219.707 222.503C224.19 223.612 228.415 225.151 232.333 226.955C231.896 226.352 231.476 225.757 231.077 225.171C229.328 222.608 227.939 220.191 227.161 218.128C226.771 217.096 226.519 216.112 226.468 215.218C226.418 214.322 226.567 213.454 227.05 212.73C228.044 211.241 230.049 210.874 232.61 211.208C235.244 211.552 238.864 212.681 243.65 214.732C247.616 216.432 251.177 218.292 254.347 220.215C252.812 217.631 251.797 215.514 251.268 213.84C250.983 212.936 250.826 212.122 250.823 211.41C250.82 210.697 250.972 210.024 251.372 209.481C252.21 208.343 253.696 208.283 255.107 208.583C256.585 208.898 258.411 209.684 260.475 210.837ZM230.453 249.273C232.009 250.561 233.573 251.804 235.112 252.979C241.027 257.497 246.46 260.909 249.691 261.96C251.21 262.453 252.143 262.598 252.633 262.575C252.436 262.174 251.95 261.542 251.09 260.715C250.154 259.816 248.869 258.773 247.292 257.666C243.158 254.764 237.148 251.508 230.453 249.273ZM252.724 262.825C252.724 262.825 252.723 262.822 252.723 262.818C252.724 262.823 252.724 262.825 252.724 262.825ZM252.89 262.537C252.893 262.536 252.896 262.535 252.896 262.535C252.896 262.535 252.894 262.536 252.89 262.537ZM239.385 232.835C241.48 235.291 243.709 237.741 245.917 240.045C250.809 245.149 255.542 249.475 258.444 251.549C259.164 252.063 259.742 252.414 260.188 252.631C260.294 252.683 260.388 252.725 260.471 252.759C260.226 252.047 259.601 250.937 258.557 249.518C257.517 248.103 256.102 246.436 254.341 244.634C250.693 240.899 245.605 236.625 239.385 232.835ZM260.879 227.019C265.102 233.313 268.358 237.184 270.57 239.24C271.306 239.923 271.903 240.385 272.363 240.666C272.478 240.737 272.581 240.794 272.671 240.839C272.644 240.723 272.605 240.583 272.547 240.417C271.847 238.388 269.202 234.425 264.283 229.918C263.246 228.968 262.113 227.998 260.879 227.019Z" fill="#A88DFF" stroke="#A88DFF" stroke-linecap="round" stroke-linejoin="round"/>
<path fill-rule="evenodd" clip-rule="evenodd" d="M99.306 113.815C99.8406 114.519 100.748 114.979 102.248 114.907C105.459 114.755 109.704 113.127 113.834 110.746C117.948 108.374 121.825 105.324 124.306 102.449C125.551 101.007 126.4 99.6589 126.781 98.5032C127.157 97.3622 127.048 96.5214 126.564 95.8996C126.045 95.2335 124.943 94.6129 122.87 94.3046C120.818 93.9995 117.949 94.0214 114.089 94.504C111.231 94.8612 108.415 95.4899 105.645 96.3709C105.16 96.9366 104.699 97.5064 104.26 98.0776C100.822 102.555 98.8898 107.033 98.6046 110.265C98.4618 111.883 98.7405 113.07 99.306 113.815ZM102.615 97.4416C99.2487 101.937 97.2309 106.55 96.9163 110.116C96.7545 111.95 97.0342 113.626 97.956 114.84C98.9087 116.095 100.418 116.691 102.329 116.6C105.94 116.428 110.466 114.645 114.681 112.214C118.913 109.774 122.954 106.611 125.589 103.557C126.903 102.034 127.911 100.489 128.391 99.0335C128.876 97.5628 128.848 96.0737 127.901 94.858C126.988 93.6866 125.364 92.9621 123.12 92.6282C120.854 92.2912 117.815 92.3301 113.879 92.8221C111.853 93.0754 109.85 93.4596 107.872 93.9677C115.121 86.7229 126.211 80.8205 139.89 82.1616C148.027 82.9593 152.463 85.7646 154.528 89.3454C156.608 92.9527 156.432 97.6015 154.766 102.4C154.34 103.626 153.82 104.853 153.223 106.063C146.592 105.68 140.298 109.064 136.152 112.855C134.688 114.193 133.464 115.605 132.56 116.959C131.665 118.301 131.049 119.639 130.871 120.826C130.69 122.03 130.954 123.232 132.023 123.958C133.009 124.628 134.46 124.721 136.233 124.384C139.905 123.684 144.078 120.768 147.718 116.893C150.179 114.271 152.449 111.155 154.204 107.862C156.256 108.122 158.32 108.793 160.332 109.986C164.57 112.497 166.1 115.195 166.161 117.684C166.181 118.511 166.041 119.346 165.76 120.179C162.422 119.731 158.238 120.701 154.444 122.194C150.566 123.721 146.929 125.861 144.816 127.835C144.283 128.333 143.83 128.836 143.491 129.334C143.157 129.825 142.902 130.358 142.835 130.91C142.764 131.494 142.911 132.068 143.326 132.541C143.717 132.986 144.284 133.275 144.938 133.462C147.476 134.187 150.895 133.625 154.217 132.341C157.57 131.046 160.982 128.957 163.552 126.429C164.88 125.123 166.012 123.669 166.782 122.122C167.717 122.403 168.477 122.851 169.044 123.473C169.81 124.315 170.313 125.575 170.313 127.45C170.313 131.749 169.664 135.302 168.533 138.14C168.341 138.113 168.148 138.09 167.953 138.072C166.089 137.891 164 138.037 161.922 138.39C157.779 139.095 153.523 140.65 150.969 142.278C150.326 142.688 149.766 143.118 149.336 143.561C148.918 143.992 148.56 144.501 148.442 145.074C148.311 145.711 148.501 146.317 148.97 146.794C149.397 147.23 150.029 147.534 150.779 147.755C156.514 149.441 161.872 148.625 165.794 145.138C167.289 143.81 168.55 142.115 169.538 140.065C170.41 140.301 171.129 140.647 171.671 141.103C172.499 141.8 173.001 142.827 172.913 144.398C172.822 146.013 172.103 148.193 170.428 151.063C167.161 156.663 161.027 160.096 153.49 164.017C153.046 164.248 152.597 164.481 152.144 164.716C144.985 168.429 136.828 172.658 129.326 179.619C113.301 194.488 100.459 221.6 105.342 282.155C105.38 282.621 105.788 282.969 106.255 282.931C106.721 282.894 107.069 282.485 107.031 282.019C102.169 221.722 114.991 195.232 130.478 180.862C137.807 174.062 145.776 169.928 152.956 166.204C153.398 165.975 153.837 165.747 154.273 165.52C161.721 161.645 168.337 158.012 171.892 151.917C173.629 148.939 174.493 146.489 174.605 144.493C174.72 142.452 174.045 140.885 172.762 139.806C172.048 139.206 171.177 138.782 170.214 138.495C171.375 135.461 172.008 131.77 172.008 127.45C172.008 125.263 171.414 123.559 170.297 122.332C169.519 121.477 168.531 120.903 167.424 120.547C167.724 119.601 167.88 118.629 167.855 117.642C167.774 114.364 165.73 111.214 161.197 108.528C159.153 107.317 157.074 106.594 155.011 106.259C155.527 105.168 155.983 104.063 156.367 102.956C158.113 97.9278 158.424 92.7086 155.996 88.4988C153.553 84.2624 148.487 81.3014 140.056 80.4747C124.434 78.9432 112.08 86.4572 104.675 94.9028C93.2936 98.6391 82.7718 106.462 73.3725 116.965C61.4839 130.251 51.3327 147.888 43.4418 167.191C27.6703 205.771 20.8443 251.223 27.3891 282.262C27.4856 282.719 27.9352 283.012 28.3932 282.916C28.8511 282.819 29.1441 282.37 29.0475 281.912C22.5957 251.314 29.3177 206.221 45.0107 167.832C52.8521 148.65 62.9122 131.196 74.6356 118.096C83.1801 108.547 92.5772 101.344 102.615 97.4416ZM167.796 139.759C167.794 139.759 167.791 139.759 167.789 139.759C166.12 139.597 164.188 139.724 162.206 140.061C158.227 140.738 154.199 142.229 151.88 143.707C151.305 144.074 150.86 144.424 150.553 144.74C150.235 145.068 150.127 145.297 150.102 145.415C150.091 145.47 150.084 145.51 150.179 145.607C150.315 145.745 150.628 145.943 151.258 146.129C156.569 147.691 161.281 146.883 164.668 143.872C165.873 142.801 166.931 141.433 167.796 139.759ZM165.034 121.804C162.192 121.566 158.558 122.396 155.065 123.771C151.309 125.25 147.88 127.292 145.973 129.074C145.5 129.516 145.139 129.924 144.892 130.287C144.64 130.658 144.539 130.933 144.517 131.114C144.499 131.262 144.531 131.343 144.601 131.424C144.696 131.532 144.921 131.695 145.404 131.833C147.414 132.407 150.411 131.995 153.606 130.76C156.771 129.538 159.978 127.567 162.363 125.221C163.474 124.128 164.384 122.978 165.034 121.804ZM152.342 107.736C146.598 107.678 141.106 110.622 137.296 114.106C135.918 115.366 134.787 116.675 133.97 117.9C133.144 119.137 132.674 120.235 132.547 121.078C132.423 121.904 132.637 122.327 132.974 122.555C133.394 122.84 134.278 123.031 135.916 122.719C139.066 122.119 142.934 119.511 146.482 115.733C148.684 113.387 150.72 110.636 152.342 107.736Z" fill="#A88DFF" stroke="#A88DFF" stroke-linecap="round" stroke-linejoin="round"/>
</g>
</svg>
