<svg width="360" height="361" viewBox="0 0 360 361" fill="none" xmlns="http://www.w3.org/2000/svg">
<mask id="mask0" mask-type="alpha" maskUnits="userSpaceOnUse" x="0" y="0" width="360" height="361">
<rect y="0.251221" width="360" height="360" fill="#56CCF2"/>
</mask>
<g mask="url(#mask0)">
<path d="M182.889 190.981C213.872 191.736 207.071 145.964 207.071 114.982C256.946 48.1587 142.408 85.942 123.516 91.2318C104.624 96.5216 100.138 149.306 97.9307 169.822C96.3785 184.248 86.3436 302.82 80.55 360.251H218.547L210.308 320.051C218.547 316.847 266.654 245.79 262.944 230.079C256.192 201.481 231.916 245.79 231.916 245.79C231.916 245.79 234.472 233.704 230.666 233.704C226.859 233.704 210.308 264.59 198.339 262.383L182.889 190.981Z" fill="#FFD9D0"/>
<path fill-rule="evenodd" clip-rule="evenodd" d="M192.955 218.478C193.174 218.635 193.315 218.879 193.342 219.147L195.531 241.161C195.557 241.417 195.475 241.674 195.305 241.868L186.215 252.289C185.928 252.617 185.453 252.704 185.068 252.499L172.539 245.794C172.256 245.643 172.07 245.357 172.047 245.037L170.544 224.245C170.511 223.786 170.815 223.372 171.262 223.266L192.196 218.329C192.459 218.267 192.735 218.322 192.955 218.478ZM172.468 224.905L173.876 244.388L185.294 250.497L193.629 240.943L191.586 220.396L172.468 224.905Z" fill="#A7C5C3" stroke="#A7C5C3" stroke-linecap="round" stroke-linejoin="round"/>
<path fill-rule="evenodd" clip-rule="evenodd" d="M193.447 220.915C193.438 221.869 193.43 222.761 193.43 223.556V223.561C193.43 225.375 193.43 229.817 193.173 233.813C193.045 235.806 192.85 237.73 192.55 239.17C192.401 239.883 192.214 240.539 191.965 241.038C191.757 241.455 191.302 242.167 190.455 242.167C189.745 242.167 189.319 241.61 189.123 241.302C188.881 240.924 188.674 240.425 188.489 239.871C188.116 238.749 187.768 237.188 187.455 235.363C186.826 231.701 186.312 226.836 186.025 221.969C185.738 217.105 185.675 212.201 185.959 208.466C186.101 206.608 186.332 204.988 186.685 203.796C186.86 203.204 187.082 202.659 187.377 202.234C187.672 201.812 188.124 201.394 188.771 201.326C189.607 201.238 190.33 201.529 190.899 202.06C191.439 202.564 191.829 203.269 192.125 204.038C192.717 205.577 193.043 207.685 193.229 209.94C193.518 213.46 193.479 217.576 193.447 220.915ZM189.013 203.183C189.233 203.171 189.419 203.239 189.622 203.428C189.869 203.659 190.132 204.069 190.378 204.71C190.87 205.989 191.181 207.875 191.364 210.094C191.645 213.518 191.608 217.506 191.576 220.837C191.567 221.809 191.559 222.726 191.559 223.556C191.559 225.371 191.558 229.762 191.306 233.693C191.179 235.665 190.991 237.481 190.718 238.788C190.633 239.197 190.543 239.533 190.454 239.797C190.394 239.65 190.331 239.478 190.265 239.279C189.936 238.292 189.607 236.84 189.299 235.047C188.686 231.472 188.178 226.679 187.893 221.859C187.608 217.036 187.55 212.225 187.825 208.609C187.963 206.792 188.182 205.328 188.479 204.327C188.628 203.822 188.781 203.493 188.913 203.304C188.959 203.237 188.993 203.201 189.013 203.183ZM190.172 240.393C190.172 240.392 190.177 240.386 190.188 240.377C190.178 240.39 190.173 240.394 190.172 240.393ZM190.769 240.392C190.781 240.401 190.787 240.408 190.787 240.409C190.787 240.41 190.781 240.405 190.769 240.392ZM189.028 203.171C189.031 203.169 189.033 203.168 189.033 203.168C189.033 203.168 189.031 203.169 189.028 203.171Z" fill="#A7C5C3" stroke="#A7C5C3" stroke-linecap="round" stroke-linejoin="round"/>
<path fill-rule="evenodd" clip-rule="evenodd" d="M178.975 209.604C177.768 209.78 176.451 211.068 176.601 213.13C176.862 216.72 177.549 223.504 178.173 229.405C178.484 232.352 178.779 235.074 178.996 237.06C179.105 238.052 179.194 238.861 179.256 239.421L179.317 239.967L182.035 242.686L184.038 238.847L181.76 213.27C181.636 211.654 181.16 210.699 180.65 210.182C180.155 209.681 179.561 209.519 178.975 209.604ZM178.423 240.397C177.493 240.5 177.493 240.5 177.493 240.5L177.396 239.627C177.334 239.066 177.245 238.257 177.136 237.263C176.919 235.276 176.624 232.552 176.312 229.601C175.689 223.707 174.999 216.892 174.735 213.266C174.52 210.31 176.445 208.081 178.706 207.752C179.855 207.585 181.051 207.925 181.981 208.867C182.895 209.793 183.478 211.222 183.625 213.121L185.926 238.954C185.942 239.132 185.907 239.311 185.824 239.47L183.105 244.681C182.967 244.945 182.712 245.128 182.417 245.173C182.123 245.219 181.824 245.121 181.614 244.91L177.761 241.058C177.611 240.908 177.517 240.711 177.493 240.5L178.423 240.397Z" fill="#A7C5C3"/>
<path d="M177.493 240.5C177.493 240.5 177.493 240.5 178.423 240.397L177.493 240.5ZM177.493 240.5C177.517 240.711 177.611 240.908 177.761 241.058L181.614 244.91C181.824 245.121 182.123 245.219 182.417 245.173C182.712 245.128 182.967 244.945 183.105 244.681L185.824 239.47C185.907 239.311 185.942 239.132 185.926 238.954L183.625 213.121C183.478 211.222 182.895 209.793 181.981 208.867C181.051 207.925 179.855 207.585 178.706 207.752C176.445 208.081 174.52 210.31 174.735 213.266C174.999 216.892 175.689 223.707 176.312 229.601C176.624 232.552 176.919 235.276 177.136 237.263C177.245 238.257 177.334 239.066 177.396 239.627L177.493 240.5ZM176.601 213.13C176.451 211.068 177.768 209.78 178.975 209.604C179.561 209.519 180.155 209.681 180.65 210.182C181.16 210.699 181.636 211.654 181.76 213.27L184.038 238.847L182.035 242.686L179.317 239.967L179.256 239.421C179.194 238.861 179.105 238.052 178.996 237.06C178.779 235.074 178.484 232.352 178.173 229.405C177.549 223.504 176.862 216.72 176.601 213.13Z" stroke="#A7C5C3" stroke-linecap="round" stroke-linejoin="round"/>
<path d="M268.625 229.747L279.45 166.903C265.618 170.211 256.898 180.735 246.674 192.762C227.43 185.305 201.496 184.965 190.475 189.649V251.917L244.569 259.516L268.625 229.747Z" fill="#F7F7F9"/>
<path fill-rule="evenodd" clip-rule="evenodd" d="M269.246 164.035C271.665 162.852 274.015 162.119 276.111 162.119C276.389 162.119 276.653 162.243 276.831 162.457C277.009 162.672 277.082 162.954 277.03 163.228C274.988 174.067 272.159 190.712 269.839 204.655C268.679 211.624 267.647 217.916 266.904 222.465C266.533 224.74 266.235 226.579 266.029 227.849L265.71 229.818C265.71 229.819 265.71 229.82 264.786 229.672L265.71 229.82C265.683 229.988 265.611 230.145 265.502 230.274L243.826 256.013C243.618 256.259 243.298 256.382 242.979 256.336L196.745 249.775C196.284 249.71 195.941 249.315 195.941 248.849H196.877C195.941 248.849 195.941 248.849 195.941 248.849V184.756C195.941 184.497 196.048 184.25 196.236 184.074C197.619 182.775 199.878 181.984 202.534 181.521C205.227 181.052 208.483 180.894 212.012 180.98C219.073 181.151 227.341 182.3 234.611 183.98C238.22 184.813 241.597 185.781 244.469 186.831C245.368 185.533 246.382 184.188 247.483 182.828C251.44 177.94 256.573 172.796 261.686 168.865C264.243 166.9 266.814 165.223 269.246 164.035ZM243.401 188.435C243.099 188.91 242.815 189.376 242.55 189.832C241.306 191.972 240.446 193.965 240.226 195.585C240.115 196.401 240.155 197.207 240.47 197.905C240.8 198.636 241.391 199.157 242.183 199.432C242.942 199.697 243.859 199.729 244.895 199.587C245.939 199.445 247.168 199.116 248.59 198.597C250.018 198.075 251.153 197.512 251.993 196.9C252.829 196.29 253.44 195.582 253.694 194.752C254.233 192.992 253.014 191.459 251.459 190.292C250.167 189.322 248.38 188.395 246.266 187.527C247.069 186.388 247.965 185.206 248.937 184.005C252.812 179.218 257.842 174.18 262.827 170.349C265.319 168.433 267.781 166.833 270.068 165.716C271.871 164.835 273.523 164.274 274.968 164.073C272.943 174.936 270.23 190.907 267.993 204.347C266.833 211.319 265.8 217.613 265.058 222.164C264.686 224.439 264.388 226.279 264.182 227.55L263.904 229.267L242.728 254.411L197.812 248.037L197.812 185.186C198.833 184.395 200.531 183.77 202.856 183.365C205.384 182.924 208.508 182.767 211.967 182.85C218.882 183.018 227.023 184.147 234.19 185.803C237.565 186.582 240.71 187.476 243.401 188.435ZM245.192 189.111C247.391 189.99 249.148 190.897 250.336 191.789C251.826 192.906 252.059 193.702 251.905 194.204C251.813 194.506 251.542 194.913 250.89 195.388C250.243 195.86 249.285 196.351 247.948 196.839C246.603 197.33 245.511 197.615 244.642 197.733C243.764 197.854 243.174 197.796 242.798 197.665C242.454 197.545 242.279 197.365 242.176 197.135C242.057 196.872 241.996 196.456 242.08 195.837C242.25 194.587 242.96 192.851 244.168 190.772C244.48 190.234 244.822 189.68 245.192 189.111Z" fill="#A7C5C3"/>
<path d="M195.941 248.849C195.941 249.315 196.284 249.71 196.745 249.775L242.979 256.336C243.298 256.382 243.618 256.259 243.826 256.013L265.502 230.274C265.611 230.145 265.683 229.988 265.71 229.82L264.786 229.672C265.71 229.82 265.71 229.819 265.71 229.818L266.029 227.849C266.235 226.579 266.533 224.74 266.904 222.465C267.647 217.916 268.679 211.624 269.839 204.655C272.159 190.712 274.988 174.067 277.03 163.228C277.082 162.954 277.009 162.672 276.831 162.457C276.653 162.243 276.389 162.119 276.111 162.119C274.015 162.119 271.665 162.852 269.246 164.035C266.814 165.223 264.243 166.9 261.686 168.865C256.573 172.796 251.44 177.94 247.483 182.828C246.382 184.188 245.368 185.533 244.469 186.831C241.597 185.781 238.22 184.813 234.611 183.98C227.341 182.3 219.073 181.151 212.012 180.98C208.483 180.894 205.227 181.052 202.534 181.521C199.878 181.984 197.619 182.775 196.236 184.074C196.048 184.25 195.941 184.497 195.941 184.756V248.849ZM195.941 248.849H196.877C195.941 248.849 195.941 248.849 195.941 248.849ZM243.401 188.435C243.099 188.91 242.815 189.376 242.55 189.832C241.306 191.972 240.446 193.965 240.226 195.585C240.115 196.401 240.155 197.207 240.47 197.905C240.8 198.636 241.391 199.157 242.183 199.432C242.942 199.697 243.859 199.729 244.895 199.587C245.939 199.445 247.168 199.116 248.59 198.597C250.018 198.075 251.153 197.512 251.993 196.9C252.829 196.29 253.44 195.582 253.694 194.752C254.233 192.992 253.014 191.459 251.459 190.292C250.167 189.322 248.38 188.395 246.266 187.527C247.069 186.388 247.965 185.206 248.937 184.005C252.812 179.218 257.842 174.18 262.827 170.349C265.319 168.433 267.781 166.833 270.068 165.716C271.871 164.835 273.523 164.274 274.968 164.073C272.943 174.936 270.23 190.907 267.993 204.347C266.833 211.319 265.8 217.613 265.058 222.164C264.686 224.439 264.388 226.279 264.182 227.55L263.904 229.267L242.728 254.411L197.812 248.037L197.812 185.186C198.833 184.395 200.531 183.77 202.856 183.365C205.384 182.924 208.508 182.767 211.967 182.85C218.882 183.018 227.023 184.147 234.19 185.803C237.565 186.582 240.71 187.476 243.401 188.435ZM245.192 189.111C247.391 189.99 249.148 190.897 250.336 191.789C251.826 192.906 252.059 193.702 251.905 194.204C251.813 194.506 251.542 194.913 250.89 195.388C250.243 195.86 249.285 196.351 247.948 196.839C246.603 197.33 245.511 197.615 244.642 197.733C243.764 197.854 243.174 197.796 242.798 197.665C242.454 197.545 242.279 197.365 242.176 197.135C242.057 196.872 241.996 196.456 242.08 195.837C242.25 194.587 242.96 192.851 244.168 190.772C244.48 190.234 244.822 189.68 245.192 189.111Z" stroke="#A7C5C3" stroke-linecap="round" stroke-linejoin="round"/>
<path fill-rule="evenodd" clip-rule="evenodd" d="M147.926 76.9743C138.592 79.2278 130.341 81.0045 124.784 81.0045C119.892 81.0045 116.2 84.2864 113.358 90.2859C110.517 96.2843 108.659 104.754 107.37 114.549C105.757 126.809 105.055 140.936 104.376 154.628C103.968 162.843 103.568 170.902 102.984 178.307C100.503 209.725 91.6161 311.96 87.4829 359.146C87.4378 359.661 86.9839 360.041 86.4692 359.996C85.9544 359.951 85.5736 359.497 85.6187 358.983C89.7523 311.792 98.6387 209.568 101.118 178.16C101.693 170.876 102.091 162.871 102.499 154.677C103.183 140.916 103.894 126.62 105.515 114.305C106.809 104.466 108.696 95.7571 111.667 89.4848C114.638 83.2137 118.825 79.1332 124.784 79.1332C130.075 79.1332 138.096 77.4225 147.487 75.1553C149.802 74.5963 152.196 74.0047 154.645 73.3994C162.076 71.5632 170.016 69.6011 177.803 68.0432C188.151 65.9728 198.324 64.5954 206.782 65.1857C215.218 65.7744 222.2 68.3433 225.795 74.4262C227.546 77.3898 228.325 80.2214 228.287 82.8797C228.248 85.5396 227.39 87.9642 225.965 90.112C223.969 93.118 220.859 95.5912 217.265 97.4806C217.297 97.5228 217.329 97.565 217.361 97.6074C218.655 99.3375 219.434 101.284 219.343 103.377C219.252 105.474 218.294 107.582 216.373 109.64C212.612 113.67 207.189 116.579 201.351 118.465C197.186 119.811 192.775 120.648 188.54 120.994C188.548 121.761 188.482 122.525 188.333 123.278C187.539 127.304 184.436 130.75 178.259 132.63C154.147 139.968 136.299 132.614 124.297 125.3C121.212 123.421 116.894 125.225 115.506 129.633C114.153 133.927 115.7 140.885 125.363 148.514C125.769 148.834 125.838 149.423 125.518 149.828C125.198 150.234 124.609 150.303 124.204 149.983C114.234 142.112 112.037 134.416 113.721 129.071C115.369 123.839 120.867 121.019 125.27 123.702C137.009 130.855 154.293 137.968 177.714 130.84C183.419 129.103 185.871 126.09 186.497 122.916C186.613 122.328 186.669 121.726 186.668 121.116C185.602 121.167 184.551 121.187 183.523 121.175C177.904 121.109 172.827 120.101 169.578 118.079C167.941 117.059 166.699 115.737 166.158 114.081C165.612 112.411 165.83 110.555 166.816 108.583C167.805 106.606 169.174 105.309 170.802 104.659C172.419 104.014 174.187 104.048 175.914 104.533C179.342 105.495 182.798 108.276 185.209 111.691C186.785 113.924 187.969 116.507 188.381 119.129C192.479 118.795 196.75 117.985 200.776 116.685C206.431 114.857 211.534 112.083 215.005 108.363C216.701 106.546 217.406 104.844 217.474 103.296C217.541 101.744 216.972 100.212 215.863 98.7286C215.761 98.5929 215.655 98.458 215.545 98.3239C214.561 98.774 213.55 99.1829 212.523 99.5496C206.986 101.528 200.865 102.331 195.821 101.696C190.84 101.069 186.547 98.9703 185.353 94.7923C184.77 92.752 185.074 91.0224 186.229 89.7412C187.331 88.5194 189.067 87.867 191.009 87.5869C194.912 87.0244 200.24 87.8779 205.163 89.6509C209.301 91.1409 213.299 93.3331 215.99 96.033C219.556 94.2234 222.555 91.8647 224.405 89.0773C225.659 87.1887 226.382 85.1087 226.415 82.8523C226.449 80.5943 225.791 78.0978 224.184 75.3782C221.062 70.0946 214.872 67.6261 206.651 67.0524C198.452 66.4802 188.481 67.8152 178.17 69.8781C170.428 71.427 162.548 73.3743 155.126 75.2082C152.668 75.8155 150.261 76.4104 147.926 76.9743ZM214.177 96.8853C211.772 94.6694 208.291 92.7661 204.529 91.4115C199.768 89.6971 194.766 88.936 191.276 89.439C189.523 89.6918 188.297 90.2422 187.619 90.9942C186.995 91.6868 186.702 92.7019 187.152 94.2782C188.025 97.3334 191.287 99.239 196.055 99.8391C200.76 100.431 206.584 99.6843 211.894 97.7874C212.67 97.5099 213.433 97.2089 214.177 96.8853ZM186.504 119.25C186.125 117.043 185.11 114.797 183.68 112.77C181.441 109.598 178.31 107.149 175.409 106.334C173.971 105.931 172.64 105.941 171.495 106.397C170.363 106.849 169.31 107.781 168.49 109.42C167.668 111.065 167.579 112.406 167.936 113.5C168.299 114.61 169.171 115.621 170.567 116.49C173.388 118.246 178.059 119.24 183.545 119.303C184.512 119.315 185.501 119.297 186.504 119.25Z" fill="#A7C5C3" stroke="#A7C5C3" stroke-linecap="round" stroke-linejoin="round"/>
<path fill-rule="evenodd" clip-rule="evenodd" d="M212.718 118.187C205.152 118.187 199.019 124.32 199.019 131.886C199.019 139.452 205.152 145.585 212.718 145.585C220.284 145.585 226.417 139.452 226.417 131.886C226.417 124.32 220.284 118.187 212.718 118.187ZM197.148 131.886C197.148 123.287 204.119 116.316 212.718 116.316C221.317 116.316 228.288 123.287 228.288 131.886C228.288 140.485 221.317 147.456 212.718 147.456C204.119 147.456 197.148 140.485 197.148 131.886Z" fill="#A7C5C3" stroke="#A7C5C3" stroke-linecap="round" stroke-linejoin="round"/>
<path fill-rule="evenodd" clip-rule="evenodd" d="M171.586 129.941C164.02 129.941 157.887 136.075 157.887 143.64C157.887 151.206 164.02 157.339 171.586 157.339C179.152 157.339 185.285 151.206 185.285 143.64C185.285 136.075 179.152 129.941 171.586 129.941ZM156.016 143.64C156.016 135.041 162.987 128.07 171.586 128.07C180.185 128.07 187.156 135.041 187.156 143.64C187.156 152.239 180.185 159.21 171.586 159.21C162.987 159.21 156.016 152.239 156.016 143.64Z" fill="#A7C5C3" stroke="#A7C5C3" stroke-linecap="round" stroke-linejoin="round"/>
<path fill-rule="evenodd" clip-rule="evenodd" d="M145.519 223.821C140.122 214.478 132.63 209.072 125.903 206.958C122.542 205.901 119.339 205.657 116.672 206.19C114.005 206.722 111.806 208.054 110.636 210.198C110.389 210.652 110.556 211.22 111.01 211.468C111.463 211.715 112.031 211.548 112.279 211.094C113.111 209.569 114.747 208.482 117.039 208.025C119.331 207.566 122.21 207.758 125.342 208.743C131.595 210.708 138.727 215.796 143.907 224.771C143.912 224.78 143.918 224.789 143.923 224.799C145.996 228.116 147.946 231.261 149.79 234.232C156.114 244.427 161.174 252.583 165.533 258.692C168.35 262.64 170.903 265.775 173.346 268.07C175.789 270.365 178.171 271.868 180.652 272.473C185.684 273.701 190.638 271.14 196.638 265.584C202.669 260 210.038 251.121 219.951 239.091C221.569 237.128 222.874 235.671 223.927 234.62C224.99 233.56 225.759 232.951 226.306 232.643C226.731 232.404 226.914 232.404 226.957 232.409C226.978 232.426 227.076 232.52 227.193 232.867C227.329 233.273 227.423 233.81 227.525 234.471C227.535 234.539 227.546 234.607 227.556 234.677C227.645 235.256 227.744 235.902 227.893 236.5C228.058 237.161 228.31 237.877 228.769 238.439C229.265 239.047 229.97 239.432 230.886 239.432C231.518 239.432 232.076 239.102 232.515 238.75C232.975 238.381 233.443 237.874 233.911 237.291C234.848 236.123 235.896 234.513 237.007 232.724C237.498 231.933 238.003 231.105 238.521 230.257C240.374 227.221 242.385 223.925 244.465 221.168C245.793 219.407 247.114 217.913 248.399 216.869C249.696 215.816 250.852 215.305 251.864 215.312C252.824 215.319 253.869 215.795 254.972 217.22C256.091 218.667 257.203 221.016 258.242 224.566C259.885 230.183 258.759 236.408 254.521 245.457C250.28 254.511 243.018 266.207 232.63 282.705C222.12 299.397 213.176 311.041 204.836 318.202C196.524 325.34 188.893 327.963 180.938 326.781C172.91 325.588 164.373 320.498 154.339 311.769C144.318 303.051 132.918 290.81 119.154 275.482C118.808 275.097 118.217 275.065 117.832 275.411C117.448 275.756 117.416 276.348 117.761 276.732C131.519 292.052 142.991 304.377 153.11 313.18C163.216 321.972 172.09 327.358 180.662 328.632C189.308 329.916 197.466 326.998 206.055 319.622C214.616 312.271 223.682 300.429 234.214 283.702C244.578 267.241 251.915 255.434 256.215 246.251C260.518 237.063 261.874 230.318 260.038 224.041C258.971 220.394 257.777 217.789 256.452 216.075C255.111 214.342 253.574 213.453 251.878 213.441C250.235 213.429 248.661 214.245 247.219 215.417C245.765 216.598 244.338 218.228 242.971 220.041C240.829 222.88 238.752 226.286 236.894 229.331C236.384 230.166 235.891 230.974 235.418 231.736C234.305 233.527 233.311 235.05 232.452 236.12C232.021 236.656 231.652 237.044 231.344 237.29C231.046 237.53 230.903 237.557 230.887 237.56C230.886 237.56 230.885 237.56 230.886 237.56C230.561 237.56 230.377 237.451 230.218 237.256C230.022 237.015 229.852 236.62 229.709 236.047C229.582 235.539 229.497 234.982 229.406 234.389C229.395 234.322 229.385 234.254 229.374 234.185C229.276 233.55 229.162 232.853 228.966 232.27C228.78 231.716 228.438 231.013 227.708 230.693C226.95 230.361 226.137 230.591 225.388 231.013C224.62 231.445 223.709 232.195 222.605 233.296C221.493 234.406 220.146 235.913 218.507 237.901C208.559 249.973 201.283 258.734 195.367 264.211C189.42 269.717 185.126 271.639 181.095 270.655C179.044 270.155 176.94 268.878 174.628 266.706C172.316 264.534 169.846 261.514 167.056 257.605C162.736 251.55 157.721 243.466 151.405 233.287C149.559 230.311 147.602 227.156 145.519 223.821ZM226.967 232.411C226.967 232.411 226.966 232.41 226.964 232.41L226.967 232.411Z" fill="#A7C5C3" stroke="#A7C5C3" stroke-linecap="round" stroke-linejoin="round"/>
</g>
</svg>
