<svg width="160" height="106" viewBox="0 0 160 106" fill="none" xmlns="http://www.w3.org/2000/svg">
<path fill-rule="evenodd" clip-rule="evenodd" d="M57.2604 41.8793C56.8433 41.8116 56.4153 41.7764 55.9792 41.7764C51.5954 41.7764 48.0416 45.3301 48.0416 49.7139C48.0416 54.0978 51.5954 57.6515 55.9792 57.6515C58.6107 57.6515 60.9431 56.3708 62.3873 54.3989C59.7927 50.749 57.9984 46.4905 57.2604 41.8793ZM78.7036 65.8806C74.9363 66.4994 72.0623 69.7704 72.0623 73.7129C72.0623 78.0967 75.616 81.6504 79.9998 81.6504C84.3836 81.6504 87.9374 78.0967 87.9374 73.7129C87.9374 70.7825 86.3495 68.2231 83.9873 66.848C82.1743 66.6829 80.4082 66.3555 78.7036 65.8806ZM61.9499 20.4845C60.4951 18.8251 58.3594 17.7773 55.9792 17.7773C51.5954 17.7773 48.0416 21.3311 48.0416 25.7148C48.0416 30.0988 51.5954 33.6525 55.9792 33.6525C56.3572 33.6525 56.729 33.6261 57.0929 33.575C57.1337 33.2306 57.1804 32.8882 57.2328 32.5475C56.8262 32.6216 56.4072 32.6603 55.9792 32.6603C52.1434 32.6603 49.0338 29.5508 49.0338 25.7148C49.0338 21.879 52.1434 18.7695 55.9792 18.7695C58.1637 18.7695 60.1127 19.7781 61.3859 21.355C61.569 21.0614 61.757 20.7711 61.9499 20.4845ZM7.93756 33.6525C12.3214 33.6525 15.8751 30.0988 15.8751 25.7148C15.8751 21.3311 12.3214 17.7773 7.93756 17.7773C3.55377 17.7773 0 21.3311 0 25.7148C0 30.0988 3.55377 33.6525 7.93756 33.6525ZM14.8829 49.7139C14.8829 53.5498 11.7734 56.6593 7.93756 56.6593C4.10175 56.6593 0.992188 53.5498 0.992188 49.7139C0.992188 45.8781 4.10175 42.7686 7.93756 42.7686C11.7734 42.7686 14.8829 45.8781 14.8829 49.7139ZM15.8751 49.7139C15.8751 54.0978 12.3214 57.6515 7.93756 57.6515C3.55377 57.6515 0 54.0978 0 49.7139C0 45.3301 3.55377 41.7764 7.93756 41.7764C12.3214 41.7764 15.8751 45.3301 15.8751 49.7139ZM15.8751 73.7129C15.8751 78.0967 12.3214 81.6504 7.93756 81.6504C3.55377 81.6504 0 78.0967 0 73.7129C0 69.329 3.55377 65.7753 7.93756 65.7753C12.3214 65.7753 15.8751 69.329 15.8751 73.7129ZM7.93756 105.649C12.3214 105.649 15.8751 102.096 15.8751 97.7119C15.8751 93.328 12.3214 89.7743 7.93756 89.7743C3.55377 89.7743 0 93.328 0 97.7119C0 102.096 3.55377 105.649 7.93756 105.649ZM39.896 25.7148C39.896 30.0988 36.3422 33.6525 31.9584 33.6525C27.5746 33.6525 24.0209 30.0988 24.0209 25.7148C24.0209 21.3311 27.5746 17.7773 31.9584 17.7773C36.3422 17.7773 39.896 21.3311 39.896 25.7148ZM38.9038 49.7139C38.9038 53.5498 35.7943 56.6593 31.9584 56.6593C28.1226 56.6593 25.0131 53.5498 25.0131 49.7139C25.0131 45.8781 28.1226 42.7686 31.9584 42.7686C35.7943 42.7686 38.9038 45.8781 38.9038 49.7139ZM39.896 49.7139C39.896 54.0978 36.3422 57.6515 31.9584 57.6515C27.5746 57.6515 24.0209 54.0978 24.0209 49.7139C24.0209 45.3301 27.5746 41.7764 31.9584 41.7764C36.3422 41.7764 39.896 45.3301 39.896 49.7139ZM39.896 73.7129C39.896 78.0967 36.3422 81.6504 31.9584 81.6504C27.5746 81.6504 24.0209 78.0967 24.0209 73.7129C24.0209 69.329 27.5746 65.7753 31.9584 65.7753C36.3422 65.7753 39.896 69.329 39.896 73.7129ZM31.9584 105.649C36.3422 105.649 39.896 102.096 39.896 97.7119C39.896 93.328 36.3422 89.7743 31.9584 89.7743C27.5746 89.7743 24.0209 93.328 24.0209 97.7119C24.0209 102.096 27.5746 105.649 31.9584 105.649ZM55.9792 80.6582C59.815 80.6582 62.9246 77.5487 62.9246 73.7129C62.9246 69.877 59.815 66.7675 55.9792 66.7675C52.1434 66.7675 49.0338 69.877 49.0338 73.7129C49.0338 77.5487 52.1434 80.6582 55.9792 80.6582ZM55.9792 81.6504C60.363 81.6504 63.9167 78.0967 63.9167 73.7129C63.9167 69.329 60.363 65.7753 55.9792 65.7753C51.5954 65.7753 48.0416 69.329 48.0416 73.7129C48.0416 78.0967 51.5954 81.6504 55.9792 81.6504ZM55.9792 105.649C60.363 105.649 63.9167 102.096 63.9167 97.7119C63.9167 93.328 60.363 89.7743 55.9792 89.7743C51.5954 89.7743 48.0416 93.328 48.0416 97.7119C48.0416 102.096 51.5954 105.649 55.9792 105.649ZM79.9998 80.6582C83.8356 80.6582 86.9452 77.5487 86.9452 73.7129C86.9452 69.877 83.8356 66.7675 79.9998 66.7675C76.164 66.7675 73.0544 69.877 73.0544 73.7129C73.0544 77.5487 76.164 80.6582 79.9998 80.6582ZM79.9998 105.649C84.3836 105.649 87.9374 102.096 87.9374 97.7119C87.9374 93.328 84.3836 89.7743 79.9998 89.7743C75.616 89.7743 72.0623 93.328 72.0623 97.7119C72.0623 102.096 75.616 105.649 79.9998 105.649ZM111.958 73.7129C111.958 78.0967 108.404 81.6504 104.021 81.6504C99.6368 81.6504 96.083 78.0967 96.083 73.7129C96.083 69.329 99.6368 65.7753 104.021 65.7753C108.404 65.7753 111.958 69.329 111.958 73.7129ZM110.966 97.7119C110.966 101.548 107.856 104.657 104.021 104.657C100.185 104.657 97.0752 101.548 97.0752 97.7119C97.0752 93.876 100.185 90.7665 104.021 90.7665C107.856 90.7665 110.966 93.876 110.966 97.7119ZM111.958 97.7119C111.958 102.096 108.404 105.649 104.021 105.649C99.6368 105.649 96.083 102.096 96.083 97.7119C96.083 93.328 99.6368 89.7743 104.021 89.7743C108.404 89.7743 111.958 93.328 111.958 97.7119ZM135.979 25.7148C135.979 30.0988 132.425 33.6525 128.041 33.6525C123.657 33.6525 120.104 30.0988 120.104 25.7148C120.104 21.3311 123.657 17.7773 128.041 17.7773C132.425 17.7773 135.979 21.3311 135.979 25.7148ZM128.041 57.6515C132.425 57.6515 135.979 54.0978 135.979 49.7139C135.979 45.3301 132.425 41.7764 128.041 41.7764C123.657 41.7764 120.104 45.3301 120.104 49.7139C120.104 54.0978 123.657 57.6515 128.041 57.6515ZM135.979 73.7129C135.979 78.0967 132.425 81.6504 128.041 81.6504C123.657 81.6504 120.104 78.0967 120.104 73.7129C120.104 69.329 123.657 65.7753 128.041 65.7753C132.425 65.7753 135.979 69.329 135.979 73.7129ZM128.041 105.649C132.425 105.649 135.979 102.096 135.979 97.7119C135.979 93.328 132.425 89.7743 128.041 89.7743C123.657 89.7743 120.104 93.328 120.104 97.7119C120.104 102.096 123.657 105.649 128.041 105.649ZM160 25.7148C160 30.0988 156.446 33.6525 152.062 33.6525C147.679 33.6525 144.125 30.0988 144.125 25.7148C144.125 21.3311 147.679 17.7773 152.062 17.7773C156.446 17.7773 160 21.3311 160 25.7148ZM152.062 57.6515C156.446 57.6515 160 54.0978 160 49.7139C160 45.3301 156.446 41.7764 152.062 41.7764C147.679 41.7764 144.125 45.3301 144.125 49.7139C144.125 54.0978 147.679 57.6515 152.062 57.6515ZM152.062 80.6582C155.898 80.6582 159.008 77.5487 159.008 73.7129C159.008 69.877 155.898 66.7675 152.062 66.7675C148.227 66.7675 145.117 69.877 145.117 73.7129C145.117 77.5487 148.227 80.6582 152.062 80.6582ZM152.062 81.6504C156.446 81.6504 160 78.0967 160 73.7129C160 69.329 156.446 65.7753 152.062 65.7753C147.679 65.7753 144.125 69.329 144.125 73.7129C144.125 78.0967 147.679 81.6504 152.062 81.6504ZM159.008 97.7119C159.008 101.548 155.898 104.657 152.062 104.657C148.227 104.657 145.117 101.548 145.117 97.7119C145.117 93.876 148.227 90.7665 152.062 90.7665C155.898 90.7665 159.008 93.876 159.008 97.7119ZM160 97.7119C160 102.096 156.446 105.649 152.062 105.649C147.679 105.649 144.125 102.096 144.125 97.7119C144.125 93.328 147.679 89.7743 152.062 89.7743C156.446 89.7743 160 93.328 160 97.7119Z" fill="#D287A5"/>
<mask id="mask0" mask-type="alpha" maskUnits="userSpaceOnUse" x="56" y="7" width="61" height="60">
<path fill-rule="evenodd" clip-rule="evenodd" d="M56.8839 37.1255C56.8839 20.6416 70.2468 7.27869 86.7308 7.27869C103.215 7.27869 116.578 20.6416 116.578 37.1255C116.578 53.6095 103.215 66.9724 86.7308 66.9724C70.2468 66.9724 56.8839 53.6095 56.8839 37.1255Z" fill="#A5B8FD"/>
</mask>
<g mask="url(#mask0)">
<path fill-rule="evenodd" clip-rule="evenodd" d="M60.2572 28.1585C64.6874 28.1585 68.2787 24.5671 68.2787 20.137C68.2787 15.7068 64.6874 12.1154 60.2572 12.1154C55.827 12.1154 52.2357 15.7068 52.2357 20.137C52.2357 24.5671 55.827 28.1585 60.2572 28.1585ZM60.2572 29.3044C65.3203 29.3044 69.4247 25.2 69.4247 20.137C69.4247 15.0739 65.3203 10.9695 60.2572 10.9695C55.1941 10.9695 51.0897 15.0739 51.0897 20.137C51.0897 25.2 55.1941 29.3044 60.2572 29.3044Z" fill="#D287A5"/>
<circle cx="60.2572" cy="47.8546" r="9.16748" fill="#D287A5"/>
<path fill-rule="evenodd" clip-rule="evenodd" d="M60.2572 83.5937C64.6874 83.5937 68.2787 80.0023 68.2787 75.5721C68.2787 71.142 64.6874 67.5506 60.2572 67.5506C55.827 67.5506 52.2357 71.142 52.2357 75.5721C52.2357 80.0023 55.827 83.5937 60.2572 83.5937ZM60.2572 84.7396C65.3203 84.7396 69.4247 80.6352 69.4247 75.5721C69.4247 70.5091 65.3203 66.4047 60.2572 66.4047C55.1941 66.4047 51.0897 70.5091 51.0897 75.5721C51.0897 80.6352 55.1941 84.7396 60.2572 84.7396Z" fill="#D287A5"/>
<circle cx="87.9998" cy="20.137" r="9.16748" fill="#D287A5"/>
<circle cx="87.9998" cy="47.8546" r="9.16748" fill="#D287A5"/>
<path fill-rule="evenodd" clip-rule="evenodd" d="M87.9998 83.5937C92.4299 83.5937 96.0213 80.0023 96.0213 75.5721C96.0213 71.142 92.4299 67.5506 87.9998 67.5506C83.5696 67.5506 79.9782 71.142 79.9782 75.5721C79.9782 80.0023 83.5696 83.5937 87.9998 83.5937ZM87.9998 84.7396C93.0628 84.7396 97.1672 80.6352 97.1672 75.5721C97.1672 70.5091 93.0628 66.4047 87.9998 66.4047C82.9367 66.4047 78.8323 70.5091 78.8323 75.5721C78.8323 80.6352 82.9367 84.7396 87.9998 84.7396Z" fill="#D287A5"/>
<path fill-rule="evenodd" clip-rule="evenodd" d="M115.743 28.1585C120.173 28.1585 123.764 24.5671 123.764 20.137C123.764 15.7068 120.173 12.1154 115.743 12.1154C111.312 12.1154 107.721 15.7068 107.721 20.137C107.721 24.5671 111.312 28.1585 115.743 28.1585ZM115.743 29.3044C120.806 29.3044 124.91 25.2 124.91 20.137C124.91 15.0739 120.806 10.9695 115.743 10.9695C110.679 10.9695 106.575 15.0739 106.575 20.137C106.575 25.2 110.679 29.3044 115.743 29.3044Z" fill="#D287A5"/>
<circle cx="115.743" cy="47.8546" r="9.16748" fill="#D287A5"/>
<circle cx="115.743" cy="75.5721" r="9.16748" fill="#D287A5"/>
</g>
<path fill-rule="evenodd" clip-rule="evenodd" d="M86.7308 8.27088C70.7948 8.27088 57.8761 21.1896 57.8761 37.1255C57.8761 53.0615 70.7948 65.9802 86.7308 65.9802C102.667 65.9802 115.585 53.0615 115.585 37.1255C115.585 21.1896 102.667 8.27088 86.7308 8.27088ZM56.8839 37.1255C56.8839 20.6416 70.2468 7.27869 86.7308 7.27869C103.215 7.27869 116.578 20.6416 116.578 37.1255C116.578 53.6095 103.215 66.9724 86.7308 66.9724C70.2468 66.9724 56.8839 53.6095 56.8839 37.1255Z" fill="#A5B8FD" stroke="#A5B8FD" stroke-linecap="round" stroke-linejoin="round"/>
<path fill-rule="evenodd" clip-rule="evenodd" d="M111.754 12.4177C102.198 2.42417 91.4385 0.230518 81.9252 2.06208C72.4403 3.88818 64.2133 9.70961 59.6423 15.7192C55.0151 21.8028 51.9344 30.6985 52.3918 39.8281C52.8502 48.9748 56.8615 58.3581 66.4142 65.3641C75.9725 72.3742 86.0867 73.0698 94.4039 71.434C102.679 69.8064 109.218 65.8636 111.725 63.4858C113.56 62.0596 115.722 59.3959 117.625 55.9255C119.539 52.4339 121.21 48.0926 122.025 43.3032C123.659 33.7127 121.863 22.323 111.754 12.4177ZM82.1128 3.03638C72.8852 4.81293 64.8663 10.49 60.4321 16.3199C55.9437 22.2209 52.9373 30.8872 53.3828 39.7785C53.8275 48.6527 57.7091 57.7493 67.001 64.564C76.2874 71.3746 86.1027 72.0554 94.2124 70.4604C102.343 68.8613 108.717 64.9818 111.059 62.7499C111.071 62.7381 111.084 62.727 111.097 62.7165C112.792 61.4067 114.883 58.8622 116.755 55.4485C118.622 52.0433 120.252 47.8061 121.047 43.1366C122.636 33.8112 120.899 22.7642 111.054 13.1209C111.05 13.117 111.046 13.1132 111.042 13.1092C101.727 3.36395 91.3102 1.26564 82.1128 3.03638Z" fill="#A5B8FD" stroke="#A5B8FD" stroke-linecap="round" stroke-linejoin="round"/>
<path fill-rule="evenodd" clip-rule="evenodd" d="M113.089 57.5651C114.444 57.3118 115.819 57.4962 116.721 58.5421C119.741 62.0432 123.094 65.7818 126.44 69.5137C126.773 69.8843 127.105 70.2547 127.437 70.6249C131.109 74.7211 134.733 78.7802 137.85 82.4677C140.965 86.1513 143.589 89.4821 145.252 92.1196C146.081 93.4353 146.689 94.6058 146.992 95.5782C147.286 96.5203 147.344 97.4429 146.802 98.0864C146.256 98.7348 145.415 98.8061 144.538 98.6012C143.655 98.395 142.591 97.8826 141.39 97.1452C138.977 95.6651 135.866 93.1872 132.287 90.0669C126.744 85.2356 120.023 78.8143 112.947 72.0533C110.876 70.0752 108.776 68.0681 106.665 66.0632C106.17 65.5927 105.906 65.0291 105.852 64.4198C105.798 63.8217 105.948 63.2117 106.218 62.631C106.757 61.4759 107.818 60.3379 109.046 59.4344C110.277 58.5286 111.727 57.8196 113.089 57.5651ZM106.84 64.3312C106.873 64.6953 107.024 65.036 107.348 65.3438C109.466 67.3554 111.572 69.367 113.645 71.3478C120.718 78.1053 127.415 84.5041 132.939 89.319C136.512 92.4342 139.571 94.8655 141.908 96.2996C143.081 97.0193 144.037 97.4653 144.764 97.6351C145.496 97.8062 145.854 97.6712 146.043 97.4473C146.235 97.2186 146.319 96.7531 146.045 95.8735C145.78 95.0241 145.226 93.9395 144.412 92.6488C142.789 90.0736 140.203 86.7871 137.093 83.1083C133.986 79.4334 130.371 75.3847 126.698 71.2872C126.366 70.9168 126.033 70.5461 125.701 70.1752C122.356 66.4447 118.997 62.699 115.97 59.1901C115.396 58.5246 114.456 58.319 113.271 58.5404C112.093 58.7607 110.779 59.3912 109.634 60.2335C108.486 61.0781 107.562 62.0965 107.118 63.0501C106.897 63.5237 106.806 63.9561 106.84 64.3312Z" fill="#A5B8FD" stroke="#A5B8FD" stroke-linecap="round" stroke-linejoin="round"/>
</svg>
