<svg width="361" height="360" viewBox="0 0 361 360" fill="none" xmlns="http://www.w3.org/2000/svg">
<mask id="mask0" mask-type="alpha" maskUnits="userSpaceOnUse" x="0" y="-1" width="361" height="361">
<rect x="0.326904" y="-0.00012207" width="360" height="360" fill="#EB5757"/>
</mask>
<g mask="url(#mask0)">
<path fill-rule="evenodd" clip-rule="evenodd" d="M171.058 116.708C177.666 120.468 188.938 129.313 199.168 138.399C217.103 154.33 229.487 164.949 241.294 171.753C253.049 178.528 264.252 181.53 279.839 182.133C280.355 182.153 280.757 182.588 280.737 183.104C280.717 183.62 280.283 184.023 279.766 184.003C263.924 183.39 252.416 180.323 240.36 173.375C228.356 166.457 215.826 155.699 197.925 139.798C187.71 130.724 176.56 121.992 170.132 118.334C168.515 117.414 167.279 116.864 166.467 116.679C166.272 116.634 166.122 116.616 166.012 116.614C165.997 116.613 165.982 116.613 165.969 116.614C165.973 116.751 166.011 116.996 166.145 117.381C166.317 117.873 166.613 118.51 167.063 119.309C167.962 120.906 169.422 123.06 171.55 125.855C175.247 130.714 178.38 134.237 180.989 136.735C181.324 136.525 181.661 136.329 182 136.149C185.691 134.187 188.732 134.769 190.665 136.424C191.603 137.227 192.248 138.259 192.563 139.297C192.873 140.32 192.888 141.445 192.415 142.37C191.91 143.356 190.932 143.953 189.641 143.973C188.409 143.993 186.908 143.496 185.144 142.431C183.884 141.67 182.444 140.591 180.815 139.126C177.916 141.303 175.186 144.684 173.229 148.445C170.804 153.104 169.682 158.119 170.698 161.909C171.74 165.799 173.44 167.872 175.447 169.067C177.505 170.292 180.005 170.671 182.83 170.916C183.337 170.961 183.854 171 184.38 171.04C189.562 171.433 195.483 171.883 199.708 177.597C222.433 208.335 248.082 231.875 290.989 236.373C291.503 236.427 291.876 236.887 291.822 237.401C291.768 237.915 291.308 238.288 290.794 238.234C247.137 233.657 221.072 209.642 198.203 178.709C194.511 173.716 189.461 173.319 184.205 172.906C183.694 172.866 183.181 172.825 182.667 172.781C179.835 172.534 176.949 172.138 174.49 170.675C171.98 169.18 170.031 166.651 168.89 162.393C167.7 157.953 169.047 152.428 171.569 147.581C173.557 143.761 176.348 140.221 179.429 137.83C176.771 135.251 173.661 131.72 170.061 126.988C167.912 124.165 166.393 121.933 165.433 120.227C164.953 119.375 164.599 118.632 164.378 117.996C164.164 117.381 164.038 116.769 164.124 116.221C164.17 115.932 164.278 115.64 164.481 115.386C164.686 115.13 164.95 114.961 165.231 114.862C165.756 114.677 166.348 114.733 166.883 114.855C167.979 115.104 169.416 115.774 171.058 116.708ZM182.425 138.054C183.825 139.284 185.051 140.189 186.111 140.829C187.733 141.808 188.878 142.114 189.612 142.102C190.286 142.092 190.593 141.823 190.749 141.518C190.937 141.151 190.99 140.556 190.772 139.841C190.56 139.14 190.112 138.414 189.448 137.846C188.18 136.759 185.988 136.148 182.878 137.802C182.727 137.882 182.576 137.966 182.425 138.054Z" fill="#A88DFF" stroke="#A88DFF" stroke-linecap="round" stroke-linejoin="round"/>
<path d="M232.557 95.4793C249.292 69.0274 291.94 57.6913 313.533 121.392C324.463 153.634 349.702 301.697 352.402 360H214.995C216.615 338.406 244.434 219.643 249.293 185.093C203.406 194.27 215.822 121.931 232.557 95.4793Z" fill="#F4D8FE"/>
<path d="M220.602 266.802L261.412 314.322L232.341 339.479L190.972 296.432L220.602 266.802Z" fill="#A5B8FD"/>
<path fill-rule="evenodd" clip-rule="evenodd" d="M217.105 120.432C218.516 121.817 220.594 123.1 223.082 124.249C225.742 125.477 228.804 126.523 231.878 127.373C237.823 129.015 243.698 129.891 246.638 129.952C248.34 128.612 249.793 127.335 251.026 126.131C251.027 125.76 251.028 125.408 251.028 125.075C251.028 120.148 252.108 116.815 253.511 114.904C254.209 113.954 255.035 113.295 255.906 113.048C256.819 112.787 257.754 113.002 258.392 113.74C258.989 114.43 259.203 115.432 259.112 116.537C259.019 117.659 258.609 118.994 257.82 120.496C256.845 122.353 255.266 124.513 252.894 126.912C252.891 127.741 252.886 128.647 252.88 129.625C252.814 141.319 252.689 163.237 254.669 185.155C255.808 197.764 257.641 210.337 260.569 220.94C263.507 231.58 267.507 240.073 272.869 244.695C283.663 254.001 301.687 254.294 316.273 247.48C330.805 240.69 341.581 227.011 338.215 208.685C334.752 189.832 329.644 164.705 323.453 141.663C320.357 130.141 316.995 119.154 313.436 109.738C309.872 100.309 306.134 92.5162 302.306 87.3432C288.335 68.464 268.549 65.3327 251.486 72.6206C234.479 79.8846 220.145 97.5293 217.105 120.432ZM251.014 128.71C251.012 129.001 251.011 129.299 251.009 129.604C250.942 141.289 250.817 163.306 252.805 185.324C253.949 197.985 255.795 210.682 258.765 221.438C261.725 232.156 265.845 241.11 271.647 246.113C283.183 256.057 302.063 256.184 317.065 249.175C332.122 242.14 343.619 227.751 340.056 208.347C336.588 189.471 331.47 164.289 325.26 141.177C322.155 129.621 318.775 118.57 315.187 109.077C311.604 99.5985 307.793 91.613 303.81 86.2301C289.291 66.6101 268.559 63.2934 250.751 70.8997C232.996 78.4829 218.182 96.8928 215.191 120.644C215.156 120.92 215.246 121.197 215.436 121.4C217.083 123.16 219.533 124.671 222.298 125.948C225.077 127.231 228.242 128.309 231.38 129.176C237.637 130.905 243.909 131.827 246.957 131.827C247.165 131.827 247.368 131.757 247.532 131.629C248.817 130.627 249.975 129.653 251.014 128.71ZM252.912 124.161C254.429 122.457 255.477 120.934 256.164 119.626C256.872 118.278 257.181 117.189 257.247 116.384C257.314 115.563 257.126 115.136 256.977 114.964C256.87 114.841 256.718 114.762 256.418 114.847C256.077 114.945 255.565 115.269 255.019 116.012C254.007 117.39 253.037 120 252.912 124.161Z" fill="#A88DFF" stroke="#A88DFF" stroke-linecap="round" stroke-linejoin="round"/>
<path fill-rule="evenodd" clip-rule="evenodd" d="M228.922 137.713C227.82 139.429 226.895 141.955 226.456 144.884C226.017 147.812 226.161 150.499 226.712 152.462C227.288 154.519 228.182 155.408 228.949 155.523C229.716 155.638 230.831 155.05 231.985 153.252C233.087 151.536 234.012 149.01 234.451 146.082C234.89 143.153 234.746 140.467 234.195 138.503C233.619 136.446 232.725 135.558 231.958 135.443C231.19 135.328 230.076 135.915 228.922 137.713ZM227.347 136.702C228.569 134.798 230.284 133.3 232.235 133.592C234.187 133.884 235.387 135.819 235.997 137.998C236.634 140.27 236.77 143.231 236.302 146.359C235.833 149.487 234.835 152.278 233.56 154.263C232.338 156.167 230.623 157.666 228.672 157.373C226.72 157.081 225.52 155.146 224.91 152.967C224.273 150.695 224.137 147.734 224.605 144.606C225.074 141.479 226.072 138.688 227.347 136.702Z" fill="#A88DFF" stroke="#A88DFF" stroke-linecap="round" stroke-linejoin="round"/>
<path fill-rule="evenodd" clip-rule="evenodd" d="M105.388 47.29C105.806 47.2785 106.181 47.5458 106.306 47.9449L124.839 106.949L135.936 83.4881C136.104 83.132 136.478 82.9195 136.87 82.9566C137.262 82.9938 137.589 83.2726 137.687 83.654L156.731 157.331C156.86 157.831 156.559 158.342 156.059 158.471C155.559 158.6 155.048 158.299 154.919 157.799L136.522 86.6243L125.509 109.91C125.344 110.258 124.983 110.47 124.599 110.443C124.215 110.417 123.886 110.158 123.771 109.79L105.509 51.6494L89.5057 114.591C89.4194 114.93 89.1511 115.193 88.8102 115.272C88.4692 115.351 88.1127 115.233 87.886 114.966L76.4744 101.541L61.6501 141.778C61.5497 142.051 61.3284 142.261 61.0511 142.348L9.467 158.458C8.97376 158.612 8.44903 158.337 8.29499 157.844C8.14095 157.351 8.41592 156.826 8.90916 156.672L60.0535 140.699L75.2722 99.3913C75.3871 99.0792 75.6591 98.8517 75.9865 98.7935C76.3139 98.7354 76.6476 98.8554 76.863 99.1088L88.1385 112.374L104.507 47.9948C104.61 47.5893 104.97 47.3016 105.388 47.29Z" fill="#A88DFF" stroke="#A88DFF" stroke-linecap="round" stroke-linejoin="round"/>
<path fill-rule="evenodd" clip-rule="evenodd" d="M251.693 222.777C252.208 222.818 252.591 223.27 252.55 223.785C248.931 240.221 244.991 246.953 226.859 276.769C223.586 282.151 221.997 287.107 221.895 291.108C221.793 295.094 223.156 298.048 225.705 299.689C228.29 301.354 232.328 301.824 237.883 300.291C243.423 298.762 250.349 295.271 258.557 289.218C275.472 276.745 283.667 266.416 287.856 259.713C288.13 259.275 288.707 259.142 289.145 259.416C289.583 259.69 289.717 260.267 289.443 260.705C285.148 267.577 276.8 278.091 259.667 290.724C251.349 296.858 244.216 300.485 238.38 302.095C232.559 303.701 227.903 303.33 224.692 301.262C221.446 299.172 219.911 295.501 220.024 291.06C220.137 286.634 221.877 281.36 225.26 275.796C243.255 246.206 248.117 237.78 250.685 223.634C250.726 223.119 251.177 222.735 251.693 222.777Z" fill="#A88DFF" stroke="#A88DFF" stroke-linecap="round" stroke-linejoin="round"/>
<path fill-rule="evenodd" clip-rule="evenodd" d="M220.637 258.382C220.897 258.392 221.142 258.509 221.311 258.707L262.122 306.227C262.458 306.618 262.414 307.207 262.024 307.544L232.954 332.702C232.577 333.027 232.012 333.001 231.667 332.642L190.297 289.595C189.944 289.228 189.95 288.646 190.31 288.285L219.94 258.655C220.124 258.471 220.377 258.372 220.637 258.382ZM192.282 288.96L232.401 330.706L260.095 306.739L220.549 260.692L192.282 288.96Z" fill="#A88DFF" stroke="#A88DFF" stroke-linecap="round" stroke-linejoin="round"/>
</g>
</svg>
