<?xml version="1.0" standalone="no"?>
<!DOCTYPE svg PUBLIC "-//W3C//DTD SVG 20010904//EN"
 "http://www.w3.org/TR/2001/REC-SVG-20010904/DTD/svg10.dtd">
<svg version="1.0" xmlns="http://www.w3.org/2000/svg"
 width="848.000000pt" height="848.000000pt" viewBox="0 0 848.000000 848.000000"
 preserveAspectRatio="xMidYMid meet">
<metadata>
Created by potrace 1.11, written by Peter Selinger 2001-2013
</metadata>
<g transform="translate(0.000000,848.000000) scale(0.100000,-0.100000)"
fill="#000000" stroke="none">
<path d="M2937 8324 c-2 -2 -20 -6 -41 -10 -21 -3 -57 -14 -81 -24 -24 -10
-46 -16 -49 -13 -3 4 -6 1 -6 -5 0 -7 -4 -12 -10 -12 -10 0 -110 -58 -120 -70
-3 -3 -25 -21 -50 -40 -53 -40 -208 -195 -265 -264 -22 -26 -45 -53 -50 -60
-6 -6 -33 -42 -62 -81 -169 -232 -304 -479 -299 -550 7 -107 105 -176 204
-144 53 17 79 44 121 129 50 102 84 159 155 263 34 49 68 99 76 111 63 95 232
278 328 354 46 36 152 97 152 86 0 -3 6 -2 13 3 31 25 117 -23 117 -64 0 -7 5
-13 12 -13 6 0 8 -3 5 -7 -4 -3 -2 -12 4 -20 6 -7 8 -13 4 -13 -4 0 -3 -6 3
-12 13 -17 38 -106 47 -173 3 -16 7 -45 10 -63 18 -113 17 -119 -12 -130 -16
-5 -82 -29 -148 -52 -66 -24 -148 -56 -183 -72 -34 -15 -64 -28 -66 -28 -12 0
-207 -97 -300 -149 -60 -34 -111 -61 -113 -61 -3 0 -19 -11 -37 -25 -18 -14
-36 -25 -39 -25 -16 0 -355 -244 -382 -274 -5 -6 -32 -29 -60 -51 -134 -106
-350 -327 -490 -500 -31 -38 -62 -77 -69 -86 -32 -40 -96 -129 -96 -134 0 -3
-11 -18 -25 -33 -14 -15 -25 -32 -25 -39 0 -6 -3 -13 -7 -15 -11 -4 -63 -86
-63 -98 0 -5 -4 -10 -8 -10 -4 0 -18 -19 -30 -42 -12 -24 -26 -50 -32 -58 -30
-46 -70 -123 -70 -135 0 -7 -3 -15 -7 -17 -14 -6 -107 -204 -163 -347 -70
-178 -145 -420 -165 -528 -2 -16 -9 -43 -14 -61 -5 -18 -10 -36 -10 -40 -1 -4
-4 -20 -7 -37 -3 -16 -7 -39 -9 -50 -2 -11 -4 -20 -5 -20 -1 0 -3 -16 -5 -35
-7 -53 -13 -95 -15 -95 -1 0 -3 -21 -5 -47 -2 -25 -6 -61 -9 -80 -27 -157 -28
-638 -2 -828 3 -19 7 -61 10 -93 3 -32 7 -61 10 -65 2 -4 6 -29 10 -57 8 -63
15 -106 22 -124 2 -8 7 -30 10 -50 3 -20 14 -69 25 -109 10 -40 21 -80 23 -90
1 -9 6 -24 9 -32 3 -8 15 -49 27 -90 11 -41 25 -83 30 -92 6 -10 10 -24 10
-31 0 -14 67 -189 101 -264 10 -24 19 -45 19 -48 0 -12 135 -276 197 -385 56
-97 240 -370 263 -390 3 -3 19 -23 35 -45 16 -22 34 -45 39 -50 6 -6 31 -35
56 -65 74 -90 191 -213 317 -331 67 -64 240 -209 247 -209 4 0 17 -9 29 -21
12 -11 42 -35 67 -52 25 -17 47 -34 48 -39 2 -4 9 -8 16 -8 7 0 21 -9 31 -20
10 -11 24 -20 32 -20 7 0 13 -4 13 -10 0 -5 7 -10 15 -10 8 0 15 -4 15 -10 0
-5 6 -10 13 -10 8 0 22 -9 32 -20 10 -11 20 -18 23 -15 2 2 19 -7 37 -20 17
-14 34 -25 37 -25 3 0 48 -24 99 -53 52 -29 121 -66 154 -81 33 -16 83 -39
110 -53 28 -14 51 -24 53 -24 1 1 15 -5 30 -13 15 -7 38 -17 51 -21 13 -4 40
-14 60 -23 20 -9 41 -17 46 -18 6 -2 64 -22 130 -44 102 -36 211 -68 290 -85
11 -3 47 -11 80 -19 33 -9 74 -18 90 -21 17 -2 41 -7 55 -10 14 -3 41 -8 60
-11 19 -3 46 -7 60 -9 14 -3 45 -7 70 -10 25 -4 61 -8 80 -11 154 -19 595 -26
745 -11 39 4 93 9 120 11 28 3 64 7 80 11 17 3 44 7 60 9 17 2 59 9 95 16 36
6 74 13 85 14 12 1 26 6 33 10 7 4 12 5 12 3 0 -3 33 4 73 14 39 11 84 22 100
24 15 2 32 7 37 10 6 4 21 8 35 11 28 5 291 90 320 104 11 5 61 25 110 45 50
20 96 41 103 47 6 6 12 7 12 4 0 -4 10 0 22 8 12 9 30 16 40 16 10 0 18 4 18
8 0 9 100 57 113 54 4 -1 7 2 7 7 0 5 8 11 18 15 9 3 40 19 67 35 28 17 61 36
75 43 64 34 303 193 361 240 19 15 66 53 104 83 175 139 419 380 540 533 11
14 41 50 66 81 25 31 71 92 102 136 31 44 61 85 67 92 5 7 15 24 22 38 6 14
15 25 20 25 4 0 8 4 8 9 0 5 18 38 40 72 46 75 50 82 123 222 32 59 78 153
103 210 25 56 52 116 60 134 8 17 14 34 14 38 0 4 16 50 36 103 20 53 37 103
39 112 2 8 10 35 19 60 21 62 83 306 90 355 4 23 9 52 12 65 11 55 14 67 19
105 9 54 14 101 20 155 2 25 4 45 5 45 11 0 27 421 17 431 -3 3 -1 18 3 34 4
16 7 30 5 32 -2 2 -7 57 -10 122 -4 66 -8 128 -10 137 -2 10 -7 49 -10 86 -4
37 -8 75 -10 83 -2 8 -7 35 -11 60 -3 25 -7 54 -9 65 -2 11 -6 40 -10 64 -3
25 -9 49 -12 54 -3 4 -7 23 -9 40 -3 18 -8 39 -11 47 -3 8 -7 22 -8 30 -3 19
-11 53 -25 105 -6 22 -12 47 -15 55 -2 8 -14 47 -26 85 -12 39 -23 75 -25 80
-4 19 -92 251 -114 300 -35 77 -147 304 -177 360 -36 65 -105 179 -112 185 -3
3 -12 16 -19 30 -26 51 -223 317 -274 372 -10 10 -17 18 -15 18 13 0 -295 316
-380 390 -160 140 -398 320 -423 320 -5 0 -10 4 -10 9 0 6 -11 16 -24 23 -14
7 -82 47 -153 89 -128 77 -388 208 -443 224 -3 1 -23 9 -45 19 -22 10 -44 19
-50 20 -5 2 -23 8 -40 15 -16 7 -64 24 -105 38 -80 26 -125 45 -130 53 -2 3 2
15 9 28 8 15 8 22 1 22 -6 0 -9 4 -6 9 5 8 11 37 21 106 9 70 49 194 78 247
29 53 59 77 92 73 50 -7 114 -39 181 -90 41 -32 191 -179 234 -230 114 -136
238 -320 318 -475 71 -139 96 -161 177 -165 44 -2 95 12 95 26 0 5 6 9 13 9 6
0 22 18 35 40 35 62 30 109 -26 220 -52 102 -74 142 -82 150 -3 3 -25 37 -48
75 -67 109 -120 182 -229 315 -100 122 -339 340 -373 340 -5 0 -10 4 -10 8 0
12 -129 69 -186 83 -126 29 -259 5 -339 -63 -43 -36 -78 -74 -104 -111 -29
-44 -81 -149 -86 -176 -2 -9 -4 -17 -5 -18 -2 -2 -3 -6 -4 -10 -2 -5 -8 -28
-15 -53 -7 -25 -15 -56 -17 -70 -3 -14 -6 -30 -9 -37 -2 -6 -7 -38 -11 -69 -3
-32 -8 -65 -9 -73 -2 -9 -4 -22 -4 -28 -1 -12 -20 -12 -51 0 -8 3 -49 11 -90
17 -41 6 -86 14 -100 17 -25 5 -38 6 -145 17 -33 4 -78 9 -100 12 -22 3 -95 7
-163 9 -68 1 -125 5 -128 8 -3 3 -19 1 -35 -3 -18 -5 -29 -5 -29 1 0 6 -4 7
-10 4 -5 -3 -67 -8 -137 -10 -70 -3 -153 -7 -183 -11 -30 -3 -68 -7 -85 -9
-33 -3 -106 -13 -145 -19 -14 -3 -43 -7 -65 -11 -22 -3 -51 -8 -65 -11 -14 -2
-35 -6 -48 -9 -13 -2 -32 -7 -42 -10 -14 -4 -19 -1 -19 12 0 10 -5 50 -11 88
-7 39 -13 79 -15 90 -12 80 -75 265 -102 296 -7 9 -11 18 -8 21 3 3 -4 13 -15
23 -11 10 -20 22 -20 26 0 5 -15 24 -32 42 -83 84 -176 127 -285 132 -29 1
-54 0 -56 -1z"/>
</g>
</svg>
