<?xml version="1.0" standalone="no"?>
<!DOCTYPE svg PUBLIC "-//W3C//DTD SVG 20010904//EN"
 "http://www.w3.org/TR/2001/REC-SVG-20010904/DTD/svg10.dtd">
<svg version="1.0" xmlns="http://www.w3.org/2000/svg"
 width="866.000000pt" height="866.000000pt" viewBox="0 0 866.000000 866.000000"
 preserveAspectRatio="xMidYMid meet">
<metadata>
Created by potrace 1.11, written by Peter Selinger 2001-2013
</metadata>
<g transform="translate(0.000000,866.000000) scale(0.100000,-0.100000)"
fill="#000000" stroke="none">
<path d="M2869 8630 c-73 -18 -146 -53 -229 -108 -96 -64 -282 -244 -384 -372
-166 -208 -376 -561 -376 -632 0 -41 28 -85 66 -103 79 -37 125 -9 186 116
162 328 478 710 683 824 150 85 227 61 295 -90 57 -126 88 -313 98 -597 l7
-198 33 -32 c28 -28 39 -33 82 -33 43 0 54 5 82 33 l33 33 -2 182 c-3 303 -47
554 -127 722 -80 169 -192 255 -339 261 -40 2 -88 -1 -108 -6z"/>
<path d="M5603 8625 c-114 -35 -193 -112 -259 -250 -80 -168 -124 -418 -127
-722 l-2 -182 33 -33 c28 -28 39 -33 82 -33 43 0 54 5 82 33 l33 32 7 196 c10
291 39 467 98 599 67 151 145 175 295 90 206 -115 511 -484 682 -824 64 -126
108 -153 188 -115 36 17 65 65 65 107 0 66 -217 427 -376 627 -90 112 -273
294 -354 352 -168 119 -324 162 -447 123z"/>
<path d="M2000 6308 c0 -24 7 -122 15 -218 135 -1578 598 -2800 1275 -3360
220 -182 500 -310 777 -357 214 -35 486 -20 703 39 516 141 961 561 1290 1219
339 676 567 1641 597 2532 l6 187 -2331 0 -2332 0 0 -42z"/>
</g>
</svg>
