<svg width="193" height="168" viewBox="0 0 193 168" fill="none" xmlns="http://www.w3.org/2000/svg">
<path d="M152.804 101.851C129.674 99.4264 115.857 86.7195 103.674 70.2411C99.0231 63.9508 90.4231 70.3977 88.0899 61.6898C86.9112 57.2911 90.7283 50.4257 94.8476 48.2359C102.116 44.3721 102.681 61.0598 88.6303 42.596C79.4897 30.5842 92.5297 39.6657 103.455 49.3704C122.606 66.3812 130.083 72.2177 146.878 72.8676" stroke="#224887" stroke-linecap="round" stroke-linejoin="round"/>
<path d="M128.129 26.0603C137.072 11.9245 159.863 5.86646 171.402 39.908C177.243 57.1382 190.731 136.263 192.174 167.42H118.744C119.609 155.881 134.476 92.4132 137.072 73.9499C112.551 78.8542 119.186 40.1962 128.129 26.0603Z" fill="#F4D8FE"/>
<path d="M121.739 116.615L143.549 142.01L128.013 155.454L105.905 132.449L121.739 116.615Z" fill="#A5B8FD"/>
<path d="M119.344 39.571C122.498 14.5234 150.579 0.841236 165.804 21.4151C174.153 32.6973 181.381 66.3048 185.084 86.4673C188.787 106.63 161.278 116.467 149.345 106.18C137.412 95.8932 138.499 52.1634 138.499 41.8765C138.499 31.5897 147.545 35.8463 135.824 44.9845C132.689 44.9845 122.609 43.0603 119.344 39.571Z" stroke="#224887" stroke-linecap="round" stroke-linejoin="round"/>
<ellipse cx="127.005" cy="52.7821" rx="2.66016" ry="5.92529" transform="rotate(8.52192 127.005 52.7821)" stroke="#224887" stroke-linecap="round" stroke-linejoin="round"/>
<path d="M79.1229 59.239L68.9462 19.8661L62.4701 33.5583L52.1832 0.807861L43.1974 36.1504L36.5447 28.3238L28.3268 50.6297L0.760254 59.2389" stroke="#224887" stroke-linecap="round" stroke-linejoin="round"/>
<path d="M139.773 78.2243C138.522 93.7029 134.31 106.808 124.657 122.681C117.542 134.379 124.657 143.021 142.32 129.996C151.418 123.288 156.825 116.138 159.092 112.511" stroke="#224887" stroke-linecap="round" stroke-linejoin="round"/>
<path d="M121.739 113.615L143.549 139.01L128.013 152.454L105.905 129.449L121.739 113.615Z" stroke="#224887" stroke-linecap="round" stroke-linejoin="round"/>
</svg>
