<?xml version="1.0" standalone="no"?>
<!DOCTYPE svg PUBLIC "-//W3C//DTD SVG 20010904//EN"
 "http://www.w3.org/TR/2001/REC-SVG-20010904/DTD/svg10.dtd">
<svg version="1.0" xmlns="http://www.w3.org/2000/svg"
 width="1280.000000pt" height="1068.000000pt" viewBox="0 0 1280.000000 1068.000000"
 preserveAspectRatio="xMidYMid meet">
<metadata>
Created by potrace 1.15, written by Peter Selinger 2001-2017
</metadata>
<g transform="translate(0.000000,1068.000000) scale(0.100000,-0.100000)"
fill="#000000" stroke="none">
<path d="M10464 10664 c-175 -21 -325 -57 -551 -133 -114 -39 -307 -97 -428
-130 -214 -59 -455 -136 -815 -259 -287 -99 -575 -162 -735 -162 -75 0 -166
17 -282 51 -56 17 -84 32 -122 68 -64 59 -68 80 -18 103 21 10 35 23 32 28
-10 17 -97 10 -165 -13 -60 -20 -67 -26 -97 -77 -94 -161 -101 -168 -231 -271
-70 -56 -203 -171 -295 -257 -93 -87 -236 -218 -318 -292 -82 -74 -187 -178
-234 -231 -50 -58 -97 -101 -115 -107 -27 -10 -34 -7 -79 28 -67 53 -72 66
-65 148 6 66 6 69 -25 104 -17 20 -31 44 -31 55 0 10 18 37 40 58 48 47 50 60
8 51 -69 -14 -161 -96 -195 -177 -13 -30 -1 -65 46 -133 17 -24 39 -66 50 -94
11 -27 42 -84 70 -126 27 -42 55 -93 62 -113 12 -38 7 -135 -11 -201 -48 -176
-147 -608 -181 -787 -49 -266 -89 -429 -135 -551 -19 -51 -34 -100 -34 -111 0
-11 -11 -30 -24 -42 l-24 -23 -32 69 c-82 177 -78 172 -191 260 -118 91 -117
89 -334 438 -212 340 -353 538 -482 676 -105 112 -213 263 -253 351 l-34 76
-126 46 c-159 57 -227 76 -426 120 -254 57 -365 102 -494 201 -92 71 -253 264
-287 343 -11 27 -19 32 -46 32 -18 0 -102 12 -187 26 -111 18 -219 28 -380 34
-226 9 -325 22 -433 59 -86 30 -241 113 -378 203 -168 110 -359 212 -372 199
-22 -22 57 -194 197 -425 46 -77 79 -164 72 -192 -13 -49 -116 -55 -200 -12
-77 40 -76 40 -76 20 0 -31 26 -57 115 -111 47 -29 118 -80 157 -114 40 -34
196 -157 347 -272 l276 -210 -3 -38 c-8 -93 38 -159 150 -217 46 -23 110 -59
143 -80 33 -20 99 -59 147 -86 71 -40 123 -83 275 -230 104 -99 215 -205 247
-235 108 -99 245 -259 440 -513 231 -300 526 -741 526 -787 0 -8 -18 -50 -40
-94 -39 -76 -110 -278 -110 -310 0 -14 -46 -39 -97 -51 -23 -6 -23 -6 -23 96
0 77 -3 101 -12 98 -18 -6 -76 -105 -90 -153 -14 -50 -26 -65 -48 -65 -18 0
-46 64 -70 158 -6 23 -15 40 -20 37 -18 -11 -40 -109 -40 -175 0 -74 -12 -95
-43 -78 -17 9 -19 17 -13 67 3 31 9 66 12 79 17 62 -78 -23 -121 -109 -19 -37
-31 -49 -49 -49 -19 0 -24 7 -34 53 -6 28 -15 71 -18 95 -4 24 -11 41 -17 39
-19 -6 -55 -90 -68 -155 -12 -64 -12 -64 -42 -58 -16 3 -33 6 -38 6 -5 0 -9
23 -9 50 0 28 -4 50 -8 50 -12 0 -37 -30 -56 -67 -9 -18 -23 -33 -32 -33 -12
0 -12 4 -4 20 16 30 104 115 156 150 25 18 44 34 41 36 -7 8 -151 -56 -218
-96 -65 -40 -104 -51 -97 -27 3 6 21 21 41 32 20 11 37 23 37 28 0 16 -78 5
-117 -17 -37 -22 -44 -22 -62 -9 -20 13 -20 16 -6 43 8 16 25 36 37 44 l22 16
-26 0 c-16 0 -42 -13 -62 -31 -34 -30 -35 -30 -66 -14 -31 16 -31 17 -13 37
10 11 34 28 53 37 l35 16 -40 3 c-25 2 -56 -4 -86 -19 l-47 -22 -31 22 c-30
22 -30 23 -16 51 8 16 25 36 37 44 l22 16 -26 0 c-16 0 -41 -12 -60 -29 -31
-27 -35 -28 -61 -15 -15 8 -27 19 -27 24 0 35 26 115 46 146 14 20 22 39 19
42 -14 14 -77 -31 -103 -74 -48 -81 -44 -78 -79 -61 -39 20 -43 33 -43 120 0
50 7 85 20 116 24 52 20 60 -16 37 -34 -23 -65 -94 -71 -168 -3 -32 -9 -60
-12 -62 -3 -2 -26 6 -51 18 -40 19 -47 28 -67 81 -12 33 -22 77 -22 98 -1 20
-5 37 -11 37 -16 0 -23 -48 -17 -116 l6 -64 -57 6 c-31 4 -60 10 -65 14 -14
13 -27 120 -16 147 11 30 8 36 -14 27 -21 -8 -47 -76 -47 -125 l0 -42 -42 7
c-22 4 -45 9 -50 12 -11 7 0 63 15 82 16 19 3 23 -21 6 -12 -8 -31 -33 -43
-55 -27 -54 -54 -50 -53 6 0 22 4 48 9 59 7 17 6 17 -22 2 -27 -13 -63 -67
-63 -94 0 -5 -19 -12 -42 -16 -49 -8 -58 1 -58 59 0 37 -1 38 -17 23 -9 -10
-19 -37 -22 -60 l-6 -43 -50 -6 c-27 -4 -58 -10 -69 -15 -18 -7 -19 -1 -13
152 5 171 14 209 74 329 17 33 36 86 43 117 12 51 11 66 -10 155 -22 95 -24
99 -80 155 -44 43 -64 73 -84 125 -14 38 -26 80 -26 93 l-1 25 -15 -28 c-8
-15 -15 -47 -15 -70 0 -114 2 -136 16 -147 8 -7 15 -25 15 -41 0 -15 5 -31 10
-34 6 -3 7 -17 4 -30 -3 -13 -1 -33 6 -44 9 -18 7 -27 -15 -55 -14 -18 -25
-44 -25 -58 0 -18 -13 -36 -46 -63 -37 -30 -44 -42 -40 -61 5 -18 -1 -29 -30
-50 -29 -23 -35 -33 -32 -60 2 -25 -4 -40 -26 -63 -21 -22 -26 -35 -21 -51 5
-16 0 -29 -21 -51 -25 -26 -26 -31 -15 -55 11 -24 9 -30 -15 -55 -25 -26 -26
-31 -15 -55 11 -25 9 -30 -19 -59 -24 -25 -30 -39 -30 -77 0 -47 -28 -98 -55
-98 -7 0 -17 -15 -21 -32 l-7 -33 -13 30 c-7 17 -13 42 -14 57 0 34 -16 45
-23 15 -3 -12 -9 -69 -12 -127 -10 -166 -16 -177 -48 -93 -9 23 -39 81 -66
128 -28 49 -56 113 -62 144 -33 151 -175 353 -289 411 -81 41 -85 37 -38 -32
24 -34 49 -79 57 -98 7 -19 22 -55 34 -80 12 -26 20 -61 19 -85 -4 -71 -9
-109 -17 -138 -5 -18 -3 -33 3 -39 8 -8 7 -19 -4 -40 -14 -27 -14 -32 1 -48
13 -14 14 -23 6 -38 -12 -22 -5 -52 11 -52 5 0 7 -12 3 -29 -4 -19 -1 -34 9
-44 10 -10 15 -31 14 -57 -1 -24 4 -45 11 -49 9 -6 8 -18 -5 -51 -14 -35 -15
-46 -5 -62 10 -17 8 -26 -13 -57 -33 -47 -33 -69 -1 -77 31 -8 32 -32 5 -91
l-19 -43 30 -16 30 -15 -27 -47 c-15 -26 -33 -56 -41 -67 -19 -28 -16 -49 8
-71 36 -32 39 -48 24 -106 -12 -48 -12 -63 1 -118 8 -35 13 -65 10 -67 -16
-16 -96 169 -96 223 0 7 -4 14 -10 14 -6 0 -10 -44 -10 -111 0 -104 2 -114 34
-182 18 -40 45 -83 60 -96 14 -14 26 -30 26 -37 0 -7 19 -28 41 -48 25 -21 39
-41 36 -49 -3 -8 9 -28 28 -47 42 -41 59 -101 46 -167 -5 -26 -12 -74 -15
-105 l-5 -58 44 0 c51 0 69 -20 102 -110 20 -52 22 -55 78 -73 45 -15 59 -17
65 -7 11 17 32 -23 24 -44 -4 -10 10 -33 36 -63 48 -55 91 -134 114 -212 22
-75 6 -92 -48 -50 -15 12 -30 19 -33 15 -9 -8 44 -151 83 -226 53 -101 41
-108 -45 -25 -92 88 -95 78 -26 -93 45 -112 70 -151 155 -238 98 -101 187
-153 369 -215 79 -27 151 -38 151 -23 0 4 -33 42 -74 84 -46 48 -76 89 -81
109 -7 33 19 130 39 143 8 6 7 10 -1 16 -10 6 -10 12 1 27 12 17 16 14 42 -43
32 -67 45 -78 74 -60 16 10 31 9 77 -7 141 -46 232 -156 287 -349 13 -42 20
-56 28 -48 17 17 -4 125 -41 213 -17 41 -56 106 -86 144 -30 38 -55 75 -55 82
0 8 -9 31 -20 53 l-20 39 22 14 c13 8 46 22 73 32 43 15 59 16 107 6 81 -17
210 -83 268 -137 57 -54 63 -48 19 19 -57 86 -199 196 -289 222 -14 4 -50 25
-81 47 -47 33 -62 50 -87 106 -25 56 -32 88 -41 197 -28 326 53 589 251 812
73 83 120 156 155 244 28 70 25 86 -6 35 -34 -54 -201 -203 -201 -178 0 4 23
42 51 83 29 41 56 91 61 113 9 38 81 171 100 182 16 10 63 -54 121 -161 61
-115 159 -279 224 -377 89 -135 427 -397 601 -467 73 -29 87 -40 157 -117 42
-46 103 -104 134 -129 54 -41 65 -57 140 -202 93 -182 178 -292 255 -334 l48
-26 -47 -17 c-58 -19 -211 -113 -280 -171 -27 -23 -81 -64 -120 -91 -38 -26
-117 -91 -175 -142 -150 -135 -390 -290 -528 -343 -45 -17 -84 -35 -88 -40 -3
-5 -13 -9 -23 -9 -10 0 -24 -7 -31 -15 -7 -9 -74 -59 -149 -112 -75 -53 -167
-127 -206 -163 -73 -70 -134 -102 -227 -121 -29 -6 -72 -15 -96 -20 -23 -5
-82 -13 -130 -19 -130 -16 -182 -58 -182 -147 0 -21 -7 -72 -17 -115 -15 -71
-15 -81 0 -118 11 -30 13 -49 6 -73 -12 -42 -11 -94 4 -137 20 -57 96 -95 151
-74 22 8 20 24 -3 24 -10 0 -30 9 -45 21 -21 16 -26 29 -26 64 0 43 10 58 53
80 57 29 83 115 48 163 l-21 30 31 7 c24 5 36 2 54 -15 16 -15 41 -24 73 -28
44 -4 54 -1 102 34 49 36 52 36 45 13 -4 -13 -25 -58 -48 -99 -88 -165 -82
-143 -79 -274 4 -130 8 -145 46 -165 14 -8 28 -26 31 -42 9 -40 43 -79 69 -79
25 0 70 43 81 78 7 25 -6 29 -25 7 -7 -8 -16 -15 -21 -15 -18 0 -8 41 21 87
38 59 38 74 -1 118 l-31 35 17 51 c21 68 88 222 109 254 24 37 44 31 57 -17
16 -62 6 -153 -26 -228 -71 -167 -88 -244 -62 -286 62 -103 79 -115 99 -66 7
15 27 44 45 65 33 37 36 47 33 103 -2 44 33 175 73 270 34 80 87 155 229 316
33 38 93 125 134 195 l74 128 73 22 c39 13 76 23 81 23 24 0 -11 -155 -68
-302 -15 -41 -22 -70 -16 -73 6 -4 34 18 63 48 50 51 85 111 172 299 21 47 32
59 61 68 19 7 37 10 40 8 2 -3 8 -28 14 -56 12 -65 -3 -241 -32 -380 -25 -120
-18 -140 30 -91 67 69 124 212 177 446 14 62 30 123 36 137 10 21 53 46 80 46
18 0 29 -82 29 -213 0 -91 3 -136 10 -132 36 22 71 150 85 307 l7 77 51 15
c95 27 91 28 97 -39 6 -68 14 -63 33 22 l13 58 60 18 c32 10 74 24 92 32 28
13 32 13 32 -1 0 -12 7 -10 31 10 27 23 40 26 104 26 80 0 161 21 215 57 19
13 46 23 60 23 14 0 36 8 50 17 13 9 25 13 27 7 22 -65 233 -307 315 -361 21
-14 38 -31 38 -37 0 -6 -27 -72 -61 -146 -75 -166 -89 -206 -140 -395 -68
-251 -146 -481 -199 -587 -27 -55 -50 -106 -50 -113 0 -8 -25 -53 -55 -101
-30 -49 -68 -122 -84 -164 -29 -75 -68 -297 -57 -325 17 -45 -117 -193 -217
-240 -29 -13 -64 -34 -80 -47 l-27 -22 -78 20 c-56 15 -87 18 -115 12 -27 -6
-55 -3 -94 8 -96 28 -182 3 -256 -73 -26 -27 -40 -52 -44 -79 l-6 -39 29 26
c52 48 96 69 146 69 62 0 67 -13 15 -36 -52 -23 -127 -96 -127 -124 0 -26 5
-25 49 9 36 28 87 48 128 49 14 0 23 -7 27 -24 14 -53 113 -90 231 -86 17 1
44 -3 62 -9 21 -7 44 -7 67 0 l36 9 -6 -37 c-5 -33 -3 -41 17 -55 26 -18 85
-21 109 -6 12 7 8 12 -18 21 -26 9 -30 14 -21 25 8 9 34 14 80 14 65 0 70 2
121 43 142 114 132 109 226 118 81 8 89 11 119 43 21 22 35 52 44 91 l13 56
32 -35 c27 -30 40 -36 73 -36 50 0 74 -30 75 -95 1 -38 -4 -49 -38 -84 -22
-22 -37 -43 -33 -47 3 -3 25 0 48 7 113 37 142 178 62 302 -18 29 -25 55 -28
108 l-3 69 35 -30 c19 -17 48 -33 64 -37 21 -4 28 -10 25 -22 -2 -9 -7 -26
-11 -38 -3 -13 1 -36 11 -55 l17 -33 13 46 c11 38 21 50 49 63 41 20 70 14
101 -20 38 -40 125 -51 163 -20 7 6 22 30 32 53 15 36 23 43 47 43 27 0 40
-12 96 -94 14 -21 16 -19 61 44 62 88 66 96 62 125 -8 56 11 92 71 139 31 24
97 85 146 135 72 72 93 88 104 79 23 -20 61 -103 83 -185 27 -102 42 -118 60
-67 17 51 15 172 -5 257 -21 88 -20 120 2 140 29 26 46 21 94 -31 60 -64 97
-120 151 -229 26 -50 51 -94 56 -98 17 -10 31 32 31 95 0 71 -38 195 -100 327
l-39 83 44 30 c24 16 48 30 54 30 6 0 41 -38 78 -85 37 -47 70 -85 75 -85 27
0 -15 134 -62 200 l-23 32 46 42 c37 35 46 50 52 90 6 40 3 55 -19 97 -14 28
-26 58 -26 66 0 8 29 58 65 112 36 53 65 104 65 114 0 16 -3 16 -35 3 -39 -17
-118 -69 -148 -99 -25 -25 -36 -10 -38 53 -2 66 -2 67 47 139 65 96 58 112
-28 66 l-48 -25 -5 22 c-12 47 -8 65 30 120 21 32 41 58 44 58 29 -2 89 -56
158 -140 118 -145 234 -236 373 -292 114 -46 102 -27 139 -217 42 -208 29
-271 -96 -478 -53 -87 -117 -203 -143 -258 -26 -55 -60 -113 -74 -129 -15 -16
-39 -47 -54 -68 -34 -52 -212 -186 -255 -192 -17 -3 -48 -8 -67 -11 -19 -3
-65 -10 -101 -14 -40 -5 -81 -17 -104 -31 -21 -13 -52 -23 -70 -22 -18 1 -44
-7 -57 -16 -12 -10 -49 -31 -80 -46 -68 -32 -97 -74 -104 -148 -4 -42 -1 -60
15 -85 30 -48 46 -42 46 16 0 38 6 55 24 75 23 25 87 53 97 43 3 -3 -4 -24
-16 -47 -30 -59 -14 -70 39 -26 l41 35 51 -35 c28 -19 62 -34 75 -34 27 0 31
-12 9 -30 -27 -22 -39 -83 -24 -115 20 -40 34 -41 36 -2 5 73 108 116 154 63
30 -34 95 -59 136 -51 18 3 46 21 65 40 18 19 40 35 49 35 9 0 36 13 60 30 45
30 111 41 124 20 3 -5 17 -10 31 -10 32 0 32 -31 -1 -74 -57 -75 -5 -136 93
-110 31 9 27 20 -9 28 -50 10 -19 36 42 36 62 0 94 15 120 56 12 20 31 35 49
39 18 4 58 34 99 75 64 63 69 72 76 121 5 43 79 283 91 298 7 8 116 -50 151
-83 22 -20 43 -36 47 -36 3 0 6 20 6 45 0 55 -24 104 -84 175 -50 58 -54 74
-30 108 11 16 25 22 54 22 49 0 148 -37 214 -79 28 -17 54 -31 59 -31 18 0 -1
81 -28 120 -14 21 -67 70 -116 109 -49 40 -89 78 -89 86 0 8 10 25 23 40 20
23 25 24 62 14 22 -6 61 -22 87 -35 56 -29 69 -30 61 -7 -10 29 -64 83 -111
110 l-43 25 8 47 c12 68 7 139 -12 168 -21 31 -18 29 108 -65 92 -69 169 -115
338 -206 41 -23 115 -63 164 -90 140 -78 448 -215 601 -268 165 -56 420 -123
525 -137 41 -5 137 -19 214 -30 528 -77 474 -72 1005 -82 626 -11 762 -1 1150
86 58 13 159 35 225 50 155 33 266 69 335 107 30 17 89 49 130 72 135 75 194
117 274 194 84 83 146 168 146 202 0 12 7 34 15 51 25 48 10 144 -45 280 -41
101 -58 129 -126 209 -104 124 -191 181 -324 211 -52 12 -102 28 -111 36 -14
12 -18 12 -22 1 -4 -10 -10 -8 -21 6 -9 11 -16 14 -16 8 0 -16 -37 -15 -44 1
-5 9 -7 9 -12 0 -9 -20 -24 -15 -34 10 -7 17 -9 18 -9 5 -1 -26 -29 -22 -34 5
l-4 22 -2 -22 c-2 -34 -31 -29 -32 5 -1 27 -1 27 -8 3 -10 -36 -27 -36 -38 1
-11 33 -11 33 -12 6 -1 -34 -21 -37 -21 -4 0 14 -4 28 -10 31 -6 4 -10 -7 -10
-25 0 -42 -23 -34 -31 11 l-6 34 -2 -38 c-1 -31 -4 -38 -18 -35 -13 2 -20 16
-24 48 l-6 45 -1 -42 c-2 -31 -6 -43 -17 -43 -10 0 -15 11 -15 35 0 19 -4 35
-10 35 -5 0 -10 -16 -10 -36 0 -21 -4 -33 -10 -29 -5 3 -10 24 -10 46 0 21 -4
39 -10 39 -5 0 -10 -16 -10 -35 0 -19 -4 -35 -10 -35 -5 0 -10 11 -10 24 0 13
-3 33 -7 43 -6 14 -9 11 -13 -16 -3 -19 -11 -36 -18 -39 -9 -3 -11 6 -6 36 4
25 2 42 -5 46 -7 5 -11 -6 -11 -33 0 -34 -3 -41 -20 -41 -17 0 -20 7 -21 48
l-1 47 -10 -43 c-13 -57 -26 -53 -30 10 l-4 53 -8 -43 c-12 -61 -26 -62 -27 0
-1 52 -1 52 -10 18 -18 -64 -23 -65 -29 -5 l-6 60 -9 -44 c-15 -67 -38 -67
-29 0 5 38 4 50 -5 45 -6 -4 -11 -19 -11 -34 0 -15 -5 -34 -10 -42 -7 -11 -10
2 -11 45 -1 61 -7 56 -23 -18 -10 -45 -26 -20 -19 31 4 33 2 44 -5 37 -6 -5
-12 -23 -14 -40 -2 -18 -9 -30 -18 -30 -11 0 -14 13 -12 55 1 56 -7 47 -22
-23 -11 -48 -28 -20 -21 34 5 33 3 49 -4 49 -6 0 -11 -12 -12 -27 0 -16 -4
-37 -9 -48 -6 -14 -9 -3 -10 40 -1 60 -10 58 -24 -8 -10 -45 -26 -30 -27 26
l-1 52 -10 -42 c-13 -59 -28 -54 -29 10 l-1 52 -11 -42 c-18 -63 -27 -63 -28
3 -1 62 -3 63 -14 2 -9 -57 -25 -45 -26 20 l-2 57 -10 -53 c-13 -67 -33 -63
-30 7 1 28 -2 51 -7 51 -6 0 -10 -11 -10 -24 0 -32 -10 -56 -22 -56 -7 0 -9
18 -6 45 3 25 2 48 -3 51 -5 3 -9 -6 -9 -20 0 -30 -9 -56 -21 -56 -4 0 -6 24
-3 53 5 53 -8 44 -21 -16 -10 -46 -28 -20 -20 29 4 29 2 44 -4 44 -6 0 -11
-11 -11 -24 0 -32 -10 -56 -22 -56 -7 0 -8 18 -4 50 4 32 3 50 -4 50 -5 0 -10
-12 -10 -27 0 -16 -5 -35 -10 -43 -11 -17 -12 -12 -11 50 0 35 -2 40 -9 25 -5
-11 -9 -30 -9 -42 -1 -13 -7 -23 -15 -23 -10 0 -12 13 -9 52 2 39 1 48 -6 33
-5 -11 -10 -30 -10 -43 -1 -14 -6 -22 -13 -19 -8 2 -13 21 -12 46 0 22 -3 41
-8 41 -4 0 -8 -9 -8 -19 0 -27 -10 -51 -22 -51 -7 0 -8 18 -4 51 5 34 4 49 -4
44 -5 -3 -10 -16 -10 -28 0 -12 -5 -29 -10 -37 -7 -11 -10 0 -11 40 l-1 55
-11 -42 c-13 -57 -27 -54 -28 5 l-1 47 -10 -37 c-14 -52 -28 -47 -29 10 -1 45
-1 45 -9 14 -12 -53 -20 -50 -21 9 l-1 54 -10 -38 c-13 -49 -28 -47 -29 6 -2
30 -3 34 -6 14 -6 -40 -27 -28 -34 19 -3 21 -7 29 -8 17 -1 -24 -20 -32 -23
-10 0 6 -2 17 -3 22 -2 6 -3 15 -4 20 -1 6 -6 3 -11 -5 -8 -13 -11 -11 -16 7
-4 13 -10 21 -14 18 -22 -14 -141 219 -170 331 -47 181 -70 606 -38 699 10 28
27 91 37 142 14 63 33 117 63 170 51 94 122 189 151 204 12 6 45 29 72 50 91
69 261 129 366 129 141 0 427 73 574 146 96 48 132 71 123 79 -2 3 -71 -6
-152 -20 -210 -36 -222 -34 -166 20 17 16 30 34 30 40 0 16 48 59 87 79 18 9
83 34 144 56 164 57 178 81 58 94 -33 4 -59 9 -59 13 0 3 20 28 45 55 25 28
45 54 45 59 0 4 30 25 66 45 71 39 124 80 124 95 0 5 -23 9 -50 9 -33 0 -52 5
-56 14 -3 7 17 105 45 217 98 398 89 477 -29 257 -164 -306 -302 -488 -468
-616 -47 -37 -264 -172 -276 -172 -2 0 4 24 14 53 16 44 16 53 4 55 -8 2 -25
-5 -38 -15 -12 -10 -83 -64 -157 -119 -143 -109 -168 -130 -211 -182 l-28 -34
-24 29 c-29 34 -104 88 -112 81 -3 -3 10 -15 29 -27 42 -26 93 -89 81 -101
-21 -20 -53 -13 -101 23 -60 44 -145 85 -194 92 -32 5 -33 5 -9 -6 14 -7 48
-22 75 -34 28 -12 71 -40 98 -63 l47 -41 -39 -20 -39 -21 -65 30 c-98 44 -202
70 -284 70 -42 0 -73 -4 -73 -10 0 -6 28 -10 63 -10 35 0 88 -7 118 -16 52
-16 189 -80 189 -88 0 -3 -13 -14 -29 -26 l-30 -21 -100 21 c-157 32 -298 25
-415 -20 -46 -17 -27 -19 49 -4 106 20 188 17 295 -11 51 -14 96 -28 98 -30 2
-2 -9 -15 -24 -29 -27 -24 -36 -25 -135 -26 -151 0 -305 -45 -394 -114 -27
-21 -12 -20 33 3 84 43 170 61 286 61 62 0 116 -3 119 -6 12 -12 -54 -84 -76
-84 -45 0 -189 -41 -250 -70 -62 -31 -182 -118 -173 -127 2 -2 26 12 54 31 76
55 175 96 263 108 43 7 81 9 84 6 4 -3 -1 -20 -9 -37 -12 -22 -41 -43 -107
-77 -88 -46 -197 -133 -221 -178 -6 -12 16 4 50 36 56 51 186 128 218 128 10
0 8 -14 -7 -58 -14 -43 -27 -63 -50 -76 -42 -25 -150 -133 -172 -174 -26 -47
-14 -39 28 18 38 52 147 138 153 121 6 -19 -18 -125 -31 -133 -29 -18 -94 -74
-114 -99 -38 -46 -39 -66 -1 -24 20 22 54 51 77 63 38 21 41 22 41 5 0 -29
-20 -93 -29 -93 -11 0 -103 -81 -98 -87 3 -2 22 7 42 22 52 34 58 32 50 -17
-5 -30 -20 -56 -46 -85 -47 -51 -51 -65 -8 -29 17 14 35 26 40 26 18 0 9 -67
-12 -86 -27 -24 -47 -60 -27 -49 7 5 21 15 30 23 15 13 18 12 24 -13 4 -16 2
-35 -4 -44 -7 -9 -19 -29 -28 -46 -17 -30 -16 -30 3 -13 11 10 25 18 31 18 17
0 15 -64 -3 -107 -18 -44 -19 -54 -1 -30 13 17 15 15 21 -20 3 -22 1 -51 -4
-67 -13 -34 -14 -39 -2 -32 13 9 24 -49 16 -85 -5 -21 -4 -29 3 -25 13 8 35
-68 29 -100 -2 -14 0 -21 8 -18 13 6 25 -25 25 -68 0 -14 6 -28 12 -30 7 -3
13 -22 13 -45 0 -28 3 -39 12 -36 17 7 28 -44 13 -62 -8 -10 -9 -15 -2 -15 6
0 14 5 18 11 4 8 12 2 21 -16 14 -25 13 -29 -6 -48 -18 -18 -39 -23 -133 -29
-279 -20 -260 -21 -302 4 -96 56 -108 138 -37 258 40 66 48 74 110 104 92 43
56 45 -138 6 -85 -16 -175 -30 -200 -30 -61 1 -126 31 -150 72 -48 78 -39 149
31 254 49 74 55 78 142 120 80 39 87 44 56 43 -19 0 -62 -5 -95 -10 -61 -9
-205 -23 -354 -35 -80 -7 -84 -6 -103 17 -48 59 -78 115 -78 144 0 56 34 138
84 202 44 57 56 66 127 93 43 16 83 30 88 30 5 0 13 5 17 11 9 15 -139 4 -211
-15 -84 -23 -146 -27 -227 -15 -72 12 -78 14 -101 50 -18 27 -22 40 -14 48 8
8 5 11 -10 11 -23 0 -123 107 -123 131 0 36 24 93 52 124 16 19 27 35 23 35
-4 0 -1 7 6 17 20 24 124 71 186 83 29 6 53 14 53 17 0 3 -51 3 -112 1 -79 -3
-123 -9 -145 -21 -18 -9 -47 -17 -65 -17 -18 0 -64 -9 -102 -20 l-69 -19 -53
48 c-29 26 -91 74 -138 106 -97 66 -102 77 -67 158 20 47 56 79 131 118 36 19
41 24 24 27 -12 2 -50 -4 -85 -12 -35 -8 -65 -13 -67 -11 -2 2 5 21 17 42 34
63 90 219 106 293 8 38 21 138 30 222 8 84 22 194 30 243 20 118 28 307 18
420 -8 87 -3 146 27 324 17 100 63 206 141 326 98 151 295 348 464 461 323
217 585 352 854 438 250 81 303 88 681 83 173 -2 330 -8 348 -12 28 -6 32 -5
32 13 0 27 -139 180 -337 372 -180 174 -226 236 -242 324 -28 157 75 275 323
371 242 93 398 110 730 76 115 -12 238 -21 273 -21 61 0 64 1 61 22 -2 15 -40
49 -118 105 -161 116 -256 175 -496 304 -285 153 -319 176 -423 285 -102 106
-151 193 -195 346 -34 119 -44 303 -22 408 22 106 76 210 144 276 72 71 126
106 299 194 186 94 206 117 125 140 -47 13 -118 11 -258 -6z m-8356 -1864 c32
-29 35 -50 7 -50 -16 0 -75 54 -75 69 0 21 36 11 68 -19z m1876 -2222 c8 -13
24 -47 36 -76 l20 -54 -24 -28 c-13 -16 -29 -52 -36 -79 -7 -28 -15 -51 -18
-51 -4 0 -9 70 -11 155 -3 159 2 180 33 133z m-2166 -1015 l22 -28 -46 -39
c-43 -37 -51 -40 -113 -42 -38 -1 -77 -5 -89 -8 -19 -6 -21 -2 -27 49 -6 43
-4 60 6 70 21 20 97 34 164 30 51 -3 63 -8 83 -32z m-510 -1912 c3 -21 3 -21
-17 -5 -11 10 -18 22 -15 26 10 15 29 3 32 -21z m8603 -1215 c-33 -35 -25 -40
16 -9 l36 28 21 -30 c12 -16 51 -62 89 -101 37 -39 67 -73 67 -76 0 -4 -14
-10 -31 -13 -18 -4 -50 -16 -73 -26 -55 -25 -91 -24 -152 5 -59 27 -94 67 -94
106 0 29 40 110 65 130 20 16 69 28 74 18 2 -5 -6 -20 -18 -32z m351 -278 l72
-53 -40 -3 c-69 -6 -124 7 -133 31 -9 23 5 77 20 77 5 0 41 -24 81 -52z
m-4754 0 c16 -24 58 -112 92 -196 58 -140 62 -157 57 -207 -5 -52 -11 -61
-125 -197 -66 -79 -135 -158 -155 -177 l-36 -34 -7 29 c-10 43 -50 118 -115
220 -33 50 -59 94 -59 98 0 12 64 116 71 116 4 0 32 -26 63 -57 31 -32 56 -53
56 -48 0 5 -19 46 -41 91 l-41 82 37 64 c56 93 55 91 77 71 19 -17 19 -17 12
12 -4 16 -7 35 -7 41 0 15 74 134 84 134 4 0 21 -19 37 -42z m-3903 3 c-56
-32 -95 -46 -95 -34 1 21 23 39 62 50 75 20 86 14 33 -16z m3575 -678 c41 -43
88 -97 104 -121 l30 -43 -65 -65 -65 -65 -56 113 c-82 168 -85 180 -65 223 9
19 22 35 29 35 7 0 46 -35 88 -77z m-216 -250 c21 -21 52 -58 69 -82 l30 -44
-29 -23 c-53 -43 -93 -60 -111 -48 -20 13 -53 114 -53 163 0 35 23 71 45 71 6
0 29 -17 49 -37z m-205 -177 c13 -14 20 -30 16 -36 -10 -16 -73 -42 -84 -35
-9 5 28 95 39 95 4 0 17 -11 29 -24z m1551 -775 c0 -5 -6 -13 -12 -19 -15 -11
-110 -33 -117 -26 -11 10 27 33 69 42 61 13 60 13 60 3z"/>
</g>
</svg>
