<svg width="51" height="50" viewBox="0 0 51 50" fill="none" xmlns="http://www.w3.org/2000/svg">
<path d="M19.4163 49C28.806 49 32.6946 45.231 35.0396 38.9984C37.5226 32.3988 37.232 23.308 35.0396 23.0095C32.8471 22.711 25.529 29.4958 23.3197 32.3988C23.5301 31.2194 23.6359 25.555 22.4147 24.3703C21.7835 23.758 16.339 25.0507 11.2891 31.8545C6.23913 38.6582 10.0266 49 19.4163 49Z" fill="#FEBD6D"/>
<path d="M20.6976 49C34.4354 49 46.3599 46.6434 49.0319 30.8612C51.8939 13.9563 47.1238 16.8766 41.0181 22.964C45.3112 15.6838 46.1698 1 42.306 1C36.5819 1 24.7044 13.2571 20.6976 18.5219C21.0792 16.383 28.3503 6.48014 26.1354 4.33163C24.9906 3.22109 15.1166 5.56556 5.958 17.9049C-3.20057 30.2442 3.66834 49 20.6976 49Z" stroke="#A88DFF" stroke-width="2" stroke-linejoin="round"/>
</svg>
