<svg width="356" height="91" viewBox="0 0 356 91" fill="none" xmlns="http://www.w3.org/2000/svg">
<path fill-rule="evenodd" clip-rule="evenodd" d="M49.1361 70.7879V39.2999H8.24009V68.5373L0.944092 70.7822V2.70795L8.24009 0.707947V32.7719H49.1361V2.70795L56.4321 0.707947V68.545L49.1425 70.7879H49.1361ZM72.1438 90.5639V84.132H78.6718C80.9118 84.132 82.8318 83.8439 84.4318 83.268C86.0318 82.756 87.3758 81.8279 88.4638 80.4839C89.5518 79.1399 90.4798 77.284 91.2478 74.9159L92.9208 69.5399H88.6558H87.7918L70.1213 22.0502L76.7538 20.0094L92.3435 63.492H94.8029L107.592 22.3943L115.342 20.0096L97.4878 76.9319C96.4638 80.1959 95.0558 82.8199 93.2638 84.8039C91.4718 86.8519 89.3278 88.3239 86.8318 89.2199C84.3358 90.116 81.4878 90.5639 78.2878 90.5639H72.1438ZM127.937 89.9817L135.137 87.7664V61.7335C137.235 65.2378 139.923 67.9039 143.201 69.7319C146.593 71.5239 150.305 72.42 154.337 72.42C158.113 72.42 161.505 71.7159 164.513 70.3079C167.585 68.8359 170.177 66.8839 172.289 64.452C174.465 61.9559 176.129 59.1399 177.281 56.0039C178.433 52.8039 179.009 49.4759 179.009 46.0199V44.6759C179.009 41.2199 178.433 37.9239 177.281 34.7879C176.193 31.5879 174.561 28.7719 172.385 26.3399C170.273 23.8439 167.681 21.8919 164.609 20.4839C161.601 19.0119 158.241 18.2759 154.529 18.2759C150.369 18.2759 146.593 19.2039 143.201 21.0599C139.873 22.8519 137.217 25.5079 135.233 29.0279C134.642 30.111 134.13 31.2698 133.697 32.5044V20.0039L127.937 22.0039V89.9817ZM163.265 63.396C160.513 65.188 157.217 66.0839 153.377 66.0839C149.921 66.0839 146.785 65.3159 143.969 63.7799C141.153 62.2439 138.913 60.1319 137.249 57.4439C135.649 54.6919 134.849 51.5239 134.849 47.9399V43.2359C134.849 39.4599 135.649 36.1959 137.249 33.4439C138.913 30.6279 141.153 28.4519 143.969 26.9159C146.785 25.3799 149.921 24.6119 153.377 24.6119C157.153 24.6119 160.417 25.5399 163.169 27.3959C165.921 29.1879 168.033 31.6519 169.505 34.7879C171.041 37.8599 171.809 41.3799 171.809 45.3479C171.809 49.1879 171.073 52.708 169.601 55.908C168.129 59.044 166.017 61.54 163.265 63.396ZM193.562 70.7667V22.0039L199.322 20.0039V31.9222C199.594 30.9435 199.914 30.0108 200.282 29.1239C201.69 25.7319 203.802 23.1079 206.618 21.2519C209.434 19.3959 212.986 18.4679 217.274 18.4679H217.562C223.962 18.4679 228.73 20.4839 231.866 24.5159C235.002 28.4839 236.57 34.0839 236.57 41.3159V68.5993L229.466 70.7851V39.7799C229.466 35.3639 228.25 31.8119 225.818 29.1239C223.386 26.4359 219.994 25.0919 215.642 25.0919C211.162 25.0919 207.546 26.4999 204.794 29.3159C202.106 32.0679 200.762 35.716 200.762 40.2599V68.5513L193.562 70.7667ZM265.732 70.212C269.06 71.684 272.9 72.42 277.252 72.42C281.604 72.42 285.444 71.684 288.772 70.212C292.1 68.6759 294.884 66.66 297.124 64.1639C299.428 61.6039 301.156 58.756 302.308 55.6199C303.46 52.4839 304.036 49.2839 304.036 46.0199V44.6759C304.036 41.4119 303.428 38.2119 302.212 35.0759C301.06 31.8759 299.332 29.0279 297.028 26.5319C294.724 24.0359 291.908 22.0519 288.58 20.5799C285.316 19.0439 281.54 18.2759 277.252 18.2759C273.028 18.2759 269.252 19.0439 265.924 20.5799C262.66 22.0519 259.876 24.0359 257.572 26.5319C255.268 29.0279 253.508 31.8759 252.292 35.0759C251.076 38.2119 250.468 41.4119 250.468 44.6759V46.0199C250.468 49.2839 251.044 52.4839 252.196 55.6199C253.412 58.756 255.14 61.6039 257.38 64.1639C259.684 66.66 262.468 68.6759 265.732 70.212ZM287.908 63.2039C285.028 65.06 281.476 65.9879 277.252 65.9879C273.092 65.9879 269.54 65.06 266.596 63.2039C263.716 61.284 261.508 58.7879 259.972 55.716C258.436 52.5799 257.668 49.1239 257.668 45.3479C257.668 41.5079 258.436 38.0519 259.972 34.9799C261.572 31.8439 263.844 29.3799 266.788 27.5879C269.732 25.7319 273.22 24.8039 277.252 24.8039C281.348 24.8039 284.868 25.7319 287.812 27.5879C290.756 29.3799 292.996 31.8439 294.532 34.9799C296.132 38.0519 296.932 41.5079 296.932 45.3479C296.932 49.1239 296.164 52.5799 294.628 55.716C293.092 58.7879 290.852 61.284 287.908 63.2039ZM334.75 72.228C328.222 72.228 323.198 70.82 319.678 68.004C316.158 65.124 314.302 60.788 314.302 58.4839L321.022 56.4839C321.15 58.9159 322.238 61.1239 324.286 63.1079C326.398 65.0919 329.886 66.0839 334.75 66.0839C339.294 66.0839 342.686 65.156 344.926 63.2999C347.23 61.38 348.382 59.0759 348.382 56.3879C348.382 53.8919 347.422 51.9719 345.502 50.6279C343.646 49.2199 340.926 48.3239 337.342 47.9399L331.582 47.3639C326.974 46.8519 323.23 45.4439 320.35 43.1399C317.534 40.7719 316.126 37.5399 316.126 33.4439C316.126 30.4359 316.894 27.8119 318.43 25.5719C319.966 23.3319 322.11 21.6039 324.862 20.3879C327.678 19.1079 330.974 18.4679 334.75 18.4679C340.19 18.4679 344.606 19.7479 347.998 22.3079C351.454 24.8679 353.278 28.288 353.278 31.2519L346.558 33.2519C346.494 30.8199 345.47 28.7719 343.486 27.1079C341.502 25.4439 338.59 24.6119 334.75 24.6119C330.782 24.6119 327.806 25.4759 325.822 27.2039C323.902 28.9319 322.942 31.0439 322.942 33.5399C322.942 35.6519 323.678 37.4119 325.15 38.8199C326.622 40.1639 328.926 40.9959 332.062 41.3159L337.822 41.8919C342.942 42.4679 347.102 43.9399 350.302 46.3079C353.566 48.6759 355.198 52.0679 355.198 56.4839C355.198 59.4919 354.334 62.212 352.606 64.644C350.942 67.0119 348.574 68.868 345.502 70.212C342.43 71.556 338.846 72.228 334.75 72.228Z" fill="#121212"/>
<circle cx="277" cy="44.788" r="28" fill="#FEBD6D"/>
</svg>
