<svg width="26" height="25" viewBox="0 0 26 25" fill="none" xmlns="http://www.w3.org/2000/svg">
<path d="M13.4765 16.7948C17.2819 15.2764 19.7282 17.0838 20 21.4219C20 25.76 7.22491 25.1816 4.23499 24.6032C1.24507 24.0248 -2.16507 19.976 1.7886 15.3487C7.22494 8.9861 11.302 17.6624 13.4765 16.7948Z" fill="#F4D8FE"/>
<path d="M9.68512 15.65C2.51055 7.22174 14.249 -4.98002 20.8935 4.36633C21.217 5.57363 16.8666 2.85769 14.8752 7.01395C13.0296 10.8656 16.3205 14.0476 19.3422 13.0623C22.4358 12.0537 23.1928 8.52291 23.5238 9.35431C26.689 17.3041 15.6797 22.6919 9.68512 15.65Z" stroke="#224887" stroke-width="2" stroke-linejoin="round"/>
</svg>
