<svg width="459" height="516" viewBox="0 0 459 516" fill="none" xmlns="http://www.w3.org/2000/svg">
<path d="M16.123 463.304L48.5649 98.9534H340.545L314.12 475.782L16.123 463.304Z" fill="#A5B8FD"/>
<path d="M0.540039 515.636L19.4358 131.258H284.52L292.52 515.636H0.540039Z" fill="white"/>
<path d="M43.513 239.272C48.3144 221.321 65.0849 213.418 80.8817 217.658C84.8899 218.734 109.768 228.703 105.914 243.111C102.061 257.519 93.7176 258.95 83.4039 264.915C72.0438 271.486 66.3514 271.983 57.8635 269.705C49.3756 267.426 38.7117 257.222 43.513 239.272Z" fill="#A7C5C3"/>
<path d="M97.2203 332.838C92.6473 349.904 75.1049 360.032 58.0382 355.459C40.9715 350.886 30.8434 333.344 35.4164 316.277C39.9894 299.211 57.5318 289.082 74.5985 293.655C91.6652 298.228 101.793 315.771 97.2203 332.838Z" fill="#D287A5"/>
<path d="M93.7696 390.571C87.2697 379.313 55.8376 375.376 43.2855 382.623C31.3804 389.496 29.7553 402.286 34.4346 413.613C39.114 424.94 55.1799 435.798 72.1317 426.011C92.448 414.282 100.269 401.829 93.7696 390.571Z" fill="#FFD9D0"/>
<path d="M123.049 247.01C127.244 246.915 129.944 245.427 132.921 242.565C134.468 241.077 136.674 238.053 138.752 237.253C142.572 235.784 147.21 241.309 150.587 243.142C155.655 245.893 160.93 247.781 165.655 243.142C169.424 239.442 176.894 234.561 181.359 239.736C184.707 243.617 191.846 249.161 197.466 246.664C201.343 244.94 202.991 240.45 207.454 239.736C210.073 239.317 212.603 238.927 215.19 239.851C217.915 240.824 220.047 243.939 222.551 245.422C225.051 246.904 228.193 247.994 231.124 248.049C234.444 248.112 236.724 248.162 239.524 246.173C241.972 244.433 244.628 242.334 247.751 242.334" stroke="#A88DFF" stroke-width="4" stroke-linejoin="round"/>
<path d="M201.145 329.485C197.376 333.185 193.905 338.066 189.441 332.892C186.093 329.011 178.953 323.466 173.334 325.964C169.457 327.687 167.809 332.178 163.346 332.892C160.727 333.311 158.197 333.7 155.61 332.776C152.885 331.803 150.753 328.689 148.249 327.205C145.749 325.723 142.607 324.633 139.676 324.578C136.356 324.515 134.076 324.465 131.276 326.454C128.827 328.194 126.171 330.294 123.049 330.294" stroke="#A88DFF" stroke-width="4" stroke-linejoin="round"/>
<path d="M220.212 409.318C215.144 406.567 209.869 404.679 205.144 409.318C201.375 413.018 193.905 417.898 189.441 412.724C186.092 408.843 178.953 403.299 173.333 405.796C169.456 407.519 167.808 412.01 163.345 412.724C160.727 413.143 158.196 413.533 155.609 412.609C152.884 411.635 150.752 408.521 148.248 407.037C145.748 405.556 142.606 404.466 139.675 404.411C136.355 404.348 134.075 404.297 131.275 406.287C128.827 408.027 126.171 410.126 123.048 410.126" stroke="#A88DFF" stroke-width="4" stroke-linejoin="round"/>
<path d="M221.283 410.306C230.077 413.093 259.056 391.858 265.264 386.661C254.422 385.836 220.339 370.645 213.043 363.272C213.043 368.903 212.584 407.549 221.283 410.306Z" fill="#A88DFF"/>
<path d="M307.211 84.3882C307.211 84.3882 347.888 135.19 429.7 141.034L327.631 337.297L296.902 349.746L299.137 324.528L270.408 337.297L268.492 307.291L242.317 322.613L238.805 291.968L214.821 310.981L211.115 281.343L307.211 84.3882Z" fill="#FEBD6D"/>
<path d="M446.823 92.3974C472.529 46.1274 442.238 20.5206 398.608 4.73679C354.978 -6.96055 336.681 31.4073 327.472 52.2025C320.106 68.8388 250.612 212.39 214.293 285.174C209.261 295.257 202.867 407.503 219.503 407.503C236.139 407.503 318.462 342.827 323.148 332.392L408.499 170.916C422.52 144.483 433.105 123.43 395.703 101.743C340.085 69.4937 296.41 71.5302 351.302 101.743C430.644 145.411 447.541 102.788 416.421 81.3607C355.416 39.3562 322.969 43.7905 345.871 62.4855C368.772 81.1804 434.773 113.429 446.823 92.3974Z" stroke="#D287A5" stroke-width="4"/>
<path d="M395.61 134.172L296.295 322.726" stroke="#D287A5" stroke-width="4" stroke-linecap="round"/>
<path d="M364.579 122.79L265.264 311.344" stroke="#D287A5" stroke-width="4" stroke-linecap="round"/>
<path d="M338.466 104.003L239.151 292.557" stroke="#D287A5" stroke-width="4" stroke-linecap="round"/>
</svg>
