<svg width="209" height="56" viewBox="0 0 209 56" fill="none" xmlns="http://www.w3.org/2000/svg">
<path d="M170.144 27.683C171.329 4.87096 153.653 7.17225 139.549 4.77908C123.838 2.12592 116.304 10.6263 114.716 25.7346C114.072 33.0893 112.614 48.8152 120.857 51.0751C161.207 54.9302 168.989 49.9189 170.144 27.683Z" fill="#D287A5"/>
<path fill-rule="evenodd" clip-rule="evenodd" d="M111.894 25.0395C112.419 20.0437 113.056 16.4279 113.851 13.7858C114.646 11.1471 115.571 9.5765 116.612 8.57416C117.637 7.58632 118.891 7.03614 120.585 6.66224C121.869 6.37896 123.299 6.21507 125.001 6.02002C125.62 5.94905 126.275 5.87396 126.973 5.7875C129.537 5.46953 131.581 5.21943 133.306 5.27382C134.997 5.32713 136.229 5.67212 137.225 6.43299C138.236 7.20543 139.168 8.53327 139.988 10.8818C140.809 13.2332 141.479 16.4944 142.037 20.996C142.683 26.1997 143.004 30.7497 142.848 34.6231C142.692 38.5045 142.06 41.6178 140.865 44.0019C139.69 46.3469 137.95 48.0308 135.447 49.0654C132.905 50.1166 129.493 50.5292 124.957 50.1423C120.326 49.7473 117.149 49.1563 114.975 48.246C112.876 47.367 111.778 46.2217 111.177 44.6534C110.535 42.9772 110.406 40.6841 110.62 37.3983C110.762 35.2056 111.046 32.6873 111.378 29.738C111.542 28.2812 111.718 26.7193 111.894 25.0395ZM124.822 3.34216L124.822 3.34216C123.068 3.54288 121.438 3.72953 120.008 4.04512C118.037 4.48006 116.259 5.1919 114.752 6.64429C113.26 8.08218 112.153 10.13 111.285 13.013C110.418 15.8926 109.76 19.7018 109.229 24.7593C109.059 26.3777 108.886 27.9086 108.724 29.353C108.387 32.3467 108.092 34.9683 107.945 37.2244C107.728 40.5587 107.81 43.3557 108.674 45.6121C109.58 47.9765 111.285 49.6064 113.94 50.7181C116.52 51.7984 120.048 52.4134 124.729 52.8127C129.505 53.22 133.389 52.8164 136.471 51.5422C139.594 50.2513 141.808 48.1005 143.261 45.2028C144.694 42.3443 145.362 38.8068 145.526 34.7308C145.69 30.6467 145.35 25.9324 144.697 20.6662C144.13 16.0939 143.432 12.6145 142.519 9.99835C141.604 7.37941 140.435 5.5128 138.852 4.30347C137.255 3.08258 135.402 2.65849 133.391 2.59506C131.435 2.53339 129.189 2.81194 126.725 3.11755L126.643 3.12778C126.024 3.20456 125.416 3.27417 124.822 3.34216ZM118.86 15.4493C122.2 14.8835 127.534 14.5735 131.271 14.5044L131.293 14.504L131.316 14.5043C133.281 14.5338 134.757 14.6407 135.799 14.8154C136.315 14.902 136.779 15.0138 137.162 15.167C137.482 15.2952 138.03 15.5603 138.325 16.1292C138.496 16.4587 138.551 16.8342 138.475 17.2036C138.404 17.5453 138.238 17.8052 138.091 17.9815C137.814 18.3155 137.441 18.5504 137.131 18.7151C136.478 19.0618 135.567 19.3738 134.55 19.6455C132.487 20.1966 129.676 20.6629 126.828 20.8621C123.996 21.0602 121.015 21.0026 118.652 20.4423C117.545 20.1798 116.678 19.9083 116.083 19.6046C115.799 19.4595 115.445 19.2424 115.183 18.9085C114.866 18.5046 114.673 17.8897 114.947 17.2478C115.158 16.7532 115.56 16.4749 115.793 16.3369C116.062 16.1774 116.368 16.0545 116.664 15.9558C117.263 15.7566 118.025 15.5908 118.86 15.4493ZM119.994 17.9836C121.878 18.318 124.241 18.3564 126.641 18.1885C129.004 18.0233 131.317 17.6645 133.114 17.2424C132.58 17.2147 131.977 17.1949 131.298 17.1845C127.862 17.2488 123.157 17.519 119.994 17.9836ZM136.236 17.6885C136.236 17.6888 136.227 17.6845 136.212 17.6749C136.23 17.6834 136.237 17.6883 136.236 17.6885ZM116.933 33.4897C120.285 32.8385 125.653 32.357 129.425 32.2872L129.448 32.2868L129.47 32.2871C133.375 32.3456 136.134 32.7892 137.66 33.5017C138.055 33.686 138.443 33.9223 138.752 34.2364C139.068 34.5577 139.362 35.0287 139.376 35.6327C139.39 36.2368 139.118 36.7194 138.82 37.0516C138.529 37.3762 138.158 37.6244 137.785 37.819C136.342 38.5715 133.767 39.0729 130.349 39.2065C126.871 39.3424 122.354 39.1026 116.907 38.245C115.787 38.0686 114.913 37.8712 114.312 37.6312C114.031 37.5191 113.658 37.3403 113.369 37.0339C113.211 36.8666 113.035 36.6164 112.957 36.2784C112.875 35.9216 112.927 35.5787 113.054 35.2934C113.273 34.8036 113.686 34.5351 113.898 34.412C114.157 34.2608 114.454 34.1392 114.747 34.0384C115.338 33.8346 116.095 33.6526 116.933 33.4897ZM115.245 36.7288C115.232 36.7387 115.224 36.7434 115.223 36.7433C115.222 36.7431 115.229 36.7382 115.245 36.7288ZM119.027 35.8495C122.157 35.3725 126.354 35.0259 129.453 34.9673C132.646 35.0164 134.747 35.3351 135.924 35.7028C134.837 36.078 132.958 36.4223 130.245 36.5284C127.327 36.6425 123.564 36.4774 119.027 35.8495Z" fill="#A5B8FD"/>
<path fill-rule="evenodd" clip-rule="evenodd" d="M57.2445 51.0632C66.2 52.5967 73.1613 50.9503 78.1565 47.3614C80.1718 45.9135 81.8419 44.1674 83.1824 42.2243C85.8421 41.8665 88.3491 41.3894 90.4385 40.7964C92.6315 40.1739 94.6154 39.358 95.7466 38.2349C96.3458 37.64 96.821 36.8412 96.7901 35.8614C96.7598 34.9039 96.2542 34.0813 95.5747 33.4034C93.917 31.7496 91.2535 30.7767 88.3591 30.1838C88.0246 30.1152 87.6839 30.0512 87.3379 29.9915C87.42 28.843 87.4294 27.6856 87.3669 26.5313C91.5727 26.0685 94.756 25.5844 97.0207 24.9771C98.7293 24.5189 100.13 23.9392 101.034 23.079C101.511 22.6252 101.866 22.0781 102.034 21.4317C102.2 20.7914 102.158 20.15 101.994 19.541C101.684 18.3845 100.808 17.5384 99.8356 16.921C98.8461 16.293 97.5864 15.7914 96.1973 15.3832C93.4119 14.5648 89.8437 14.0477 86.2091 13.7539C85.2026 13.6726 84.1863 13.608 83.1744 13.5591C80.5533 9.67797 76.7345 6.70758 71.7725 5.53457L71.7307 5.52467L71.6883 5.51748C64.7913 4.34801 56.8133 5.54491 50.0651 8.60899C43.7484 11.4771 38.321 16.0739 35.9804 22.1244L1.34005 22.1244C0.599959 22.1244 0 22.7243 0 23.4644C0 24.2045 0.599959 24.8045 1.34005 24.8045L35.1306 24.8045C34.6308 26.6216 34.2579 28.4152 34.0744 30.1646L1.34005 30.1646C0.599959 30.1646 0 30.7646 0 31.5047C0 32.2448 0.599958 32.8447 1.34005 32.8447L33.9504 32.8447C33.9985 35.6135 34.6361 38.236 36.1339 40.6218C39.2585 45.5988 45.8553 49.1128 57.2445 51.0632ZM84.6804 29.6235C84.7429 28.6836 84.7517 27.7428 84.708 26.8084C83.1963 26.9584 81.573 27.1083 79.8344 27.2616L79.2465 27.3135L65.5928 14.8022L68.0176 14.2013C69.5937 13.8106 72.361 13.5611 75.5554 13.4734C76.867 13.4374 78.2687 13.4283 79.7154 13.4499C78.5569 12.0917 77.2087 10.9193 75.6825 9.99361C73.8701 8.98489 72.1027 8.76368 70.4004 9.11098C68.627 9.47278 66.8391 10.4711 65.1214 12.0164C61.6725 15.1191 58.728 20.2326 57.0174 25.7697C55.3043 31.3151 54.8995 37.0546 56.2728 41.3863C56.9531 43.5323 58.0555 45.293 59.6126 46.5495C61.1628 47.8004 63.252 48.6231 66.0359 48.7532L66.0308 48.8614C70.3672 48.5013 73.8623 47.1465 76.5927 45.1849C77.6458 44.4283 78.5943 43.5748 79.4397 42.6423C77.5342 42.8142 75.6139 42.9279 73.7672 42.9825L73.2524 42.9977L58.9334 30.8285L61.8222 30.377C64.9674 29.8853 71.8242 29.1743 78.6058 29.2757C80.6574 29.3063 82.7192 29.4115 84.6804 29.6235ZM96.3266 22.3884C94.2382 22.9485 91.222 23.4103 87.0932 23.8648C86.6947 21.2385 85.9189 18.6791 84.775 16.3355C85.1822 16.3627 85.5886 16.3926 85.9932 16.4253C89.5507 16.7128 92.9111 17.2111 95.4417 17.9546C96.7106 18.3275 97.7057 18.7435 98.3993 19.1838C99.1097 19.6347 99.3447 20.0075 99.4056 20.2347C99.4772 20.5022 99.4646 20.6619 99.4396 20.758C99.4162 20.8482 99.359 20.973 99.1862 21.1374C98.791 21.5135 97.9435 21.9548 96.3266 22.3884ZM84.4384 24.1416C83.9923 21.2878 83.0494 18.5616 81.6505 16.1784C79.5473 16.1061 77.4932 16.1013 75.6289 16.1525C73.985 16.1976 72.5176 16.2857 71.3077 16.4039L80.1866 24.5398C81.7021 24.4047 83.1179 24.2727 84.4384 24.1416ZM84.3571 32.2842C82.517 32.0868 80.5541 31.9852 78.5657 31.9555C73.6425 31.8819 68.666 32.2497 65.2001 32.6372L74.2013 40.2869C76.6464 40.2004 79.1853 40.0096 81.6097 39.7219C82.976 37.4626 83.8875 34.9274 84.3571 32.2842ZM57.6663 48.4163C55.7653 46.7873 54.4879 44.6249 53.718 42.1962C52.1206 37.1576 52.6518 30.8213 54.4567 24.9786C56.2643 19.1276 59.4199 13.5406 63.3289 10.0239C64.3188 9.13338 65.3709 8.36341 66.4748 7.75701C61.3793 7.72433 55.9536 8.8787 51.1731 11.0493C44.8464 13.922 39.8636 18.4693 38.1188 24.1319C36.248 30.2034 35.9181 35.2374 38.4038 39.1968C40.9004 43.1735 46.5093 46.5014 57.6663 48.4163ZM84.9081 39.2566C85.915 37.1787 86.6097 34.9577 87.007 32.6902L87.013 32.6554C87.2871 32.7038 87.5566 32.7551 87.8213 32.8093C90.5897 33.3765 92.6002 34.2217 93.6818 35.3007C94.0952 35.7131 94.1107 35.9256 94.1113 35.946C94.1117 35.9585 94.1114 35.9846 94.0856 36.0388C94.0565 36.0998 93.9924 36.1999 93.8584 36.333C93.2535 36.9335 91.8668 37.6049 89.7066 38.2181C88.2983 38.6179 86.6666 38.9652 84.9081 39.2566Z" fill="#A5B8FD"/>
<path fill-rule="evenodd" clip-rule="evenodd" d="M169.252 23.4645L206.813 23.4645L204.133 31.5048L169.252 31.5048L169.252 23.4645Z" fill="#D287A5"/>
<path fill-rule="evenodd" clip-rule="evenodd" d="M205.405 31.9284C205.222 32.4756 204.71 32.8447 204.133 32.8447L169.252 32.8447C168.512 32.8447 167.912 32.2448 167.912 31.5047L167.912 23.4644C167.912 22.7243 168.512 22.1243 169.252 22.1243L206.813 22.1243C207.244 22.1243 207.649 22.3314 207.901 22.6809C208.152 23.0303 208.221 23.4795 208.085 23.8882L205.405 31.9284ZM203.167 30.1646L204.954 24.8044L170.592 24.8044L170.592 30.1646L203.167 30.1646Z" fill="#D287A5"/>
</svg>
