<svg width="595" height="348" viewBox="0 0 595 348" fill="none" xmlns="http://www.w3.org/2000/svg">
<path d="M429.209 314.588C488.924 272.848 493.22 255.822 451.28 267.119C542.989 131.024 454.576 58.1173 426.406 20.7751C411.055 0.425758 345.516 47.1748 357.308 58.9674C455.775 157.433 420.579 226.717 407.974 245.85C384.813 212.394 376.968 214.082 377.15 276.674C377.332 339.585 386.519 344.428 429.209 314.588Z" fill="#FFD9D0"/>
<path d="M445.209 314.588C504.924 272.848 509.22 255.822 467.28 267.119C558.989 131.024 470.576 58.1173 442.406 20.7751C427.055 0.425758 361.516 47.1748 373.308 58.9674C471.775 157.433 436.579 226.717 423.974 245.85C400.813 212.394 392.968 214.082 393.15 276.674C393.332 339.585 402.519 344.428 445.209 314.588Z" stroke="#FEBD6D" stroke-width="4" stroke-linecap="round" stroke-linejoin="round"/>
<path d="M166.392 33.1418C106.677 74.8822 102.381 91.9079 144.322 80.6106C52.6124 216.706 141.025 289.612 169.195 326.955C184.546 347.304 250.086 300.555 238.293 288.762C139.826 190.296 175.022 121.013 187.628 101.88C210.789 135.335 218.633 133.648 218.452 71.0559C218.269 8.14433 209.083 3.30144 166.392 33.1418Z" fill="#FFD9D0"/>
<path d="M150.392 33.1418C90.6772 74.8822 86.3813 91.9079 128.322 80.6106C36.6124 216.706 125.025 289.612 153.195 326.955C168.546 347.304 234.086 300.555 222.293 288.762C123.826 190.296 159.022 121.013 171.628 101.88C194.789 135.335 202.633 133.648 202.452 71.0559C202.269 8.14433 193.083 3.30144 150.392 33.1418Z" stroke="#FEBD6D" stroke-width="4" stroke-linecap="round" stroke-linejoin="round"/>
</svg>
