<svg width="27" height="26" viewBox="0 0 27 26" fill="none" xmlns="http://www.w3.org/2000/svg">
<path d="M24.6476 18.8639L22.4658 17.9912" stroke="#FEBD6D" stroke-width="2" stroke-linecap="round" stroke-linejoin="round"/>
<path d="M1.08398 15.1547L3.70217 14.9365" stroke="#FEBD6D" stroke-width="2" stroke-linecap="round" stroke-linejoin="round"/>
<path d="M20.8342 20.7499C21.3342 5.49991 5.66602 0.999812 5.66602 18.1816" stroke="#FEBD6D" stroke-width="2" stroke-linejoin="round"/>
<path d="M17.0869 20.3971C19.5546 18.2392 22.2653 20.2557 23.5304 22.9556C24.3462 24.6968 19.2351 25.6749 13.3854 25.4741C8.15348 25.2944 2.82912 26.1926 2.8291 21.7225C2.82907 16.0172 8.72415 17.068 11.8773 19.2259C13.9525 20.646 14.6192 22.5551 17.0869 20.3971Z" fill="#FFD9D0"/>
<path d="M25.0838 10.5088L22.0293 11.3815" stroke="#FEBD6D" stroke-width="2" stroke-linecap="round" stroke-linejoin="round"/>
<path d="M20.284 4.11816L18.5386 6.95453" stroke="#FEBD6D" stroke-width="2" stroke-linecap="round" stroke-linejoin="round"/>
<path d="M10.6838 1.5L11.1201 4.77273" stroke="#FEBD6D" stroke-width="2" stroke-linecap="round" stroke-linejoin="round"/>
<path d="M2.39307 7.2998L5.01125 8.82708" stroke="#FEBD6D" stroke-width="2" stroke-linecap="round" stroke-linejoin="round"/>
</svg>
