<svg width="646" height="421" viewBox="0 0 646 421" fill="none" xmlns="http://www.w3.org/2000/svg">
<circle cx="32.2842" cy="98.6792" r="32" fill="#FEBD6D"/>
<circle cx="32.2842" cy="195.431" r="30" stroke="#FEBD6D" stroke-width="4"/>
<circle cx="32.2842" cy="292.182" r="32" fill="#FEBD6D"/>
<circle cx="32.2842" cy="388.933" r="32" fill="#FEBD6D"/>
<circle cx="129.123" cy="98.6792" r="32" fill="#FEBD6D"/>
<circle cx="129.123" cy="195.431" r="30" stroke="#FEBD6D" stroke-width="4"/>
<circle cx="129.123" cy="292.182" r="32" fill="#FEBD6D"/>
<circle cx="129.123" cy="388.933" r="32" fill="#FEBD6D"/>
<circle cx="225.962" cy="98.6792" r="30" stroke="#FEBD6D" stroke-width="4"/>
<circle cx="225.962" cy="195.431" r="32" fill="#FEBD6D"/>
<circle cx="225.962" cy="292.182" r="30" stroke="#FEBD6D" stroke-width="4"/>
<circle cx="225.962" cy="388.933" r="32" fill="#FEBD6D"/>
<circle cx="322.801" cy="98.6792" r="32" fill="#FEBD6D"/>
<circle cx="322.801" cy="195.431" r="32" fill="#FEBD6D"/>
<circle cx="322.801" cy="292.182" r="30" stroke="#FEBD6D" stroke-width="4"/>
<circle cx="322.801" cy="388.933" r="32" fill="#FEBD6D"/>
<circle cx="419.64" cy="98.6792" r="30" stroke="#FEBD6D" stroke-width="4"/>
<circle cx="419.64" cy="195.431" r="32" fill="#FEBD6D"/>
<circle cx="419.64" cy="292.182" r="32" fill="#FEBD6D"/>
<circle cx="419.64" cy="388.933" r="30" stroke="#FEBD6D" stroke-width="4"/>
<circle cx="516.479" cy="98.6792" r="32" fill="#FEBD6D"/>
<circle cx="516.479" cy="195.431" r="32" fill="#FEBD6D"/>
<circle cx="516.479" cy="292.182" r="32" fill="#FEBD6D"/>
<circle cx="516.479" cy="388.933" r="32" fill="#FEBD6D"/>
<circle cx="613.317" cy="98.6792" r="32" fill="#FEBD6D"/>
<circle cx="613.317" cy="195.431" r="32" fill="#FEBD6D"/>
<circle cx="613.317" cy="292.182" r="30" stroke="#FEBD6D" stroke-width="4"/>
<circle cx="613.317" cy="388.933" r="30" stroke="#FEBD6D" stroke-width="4"/>
<circle cx="349.936" cy="144.682" r="118.327" stroke="#A5B8FD" stroke-width="4" stroke-linecap="round" stroke-linejoin="round"/>
<path d="M242.321 59.5932C278.626 11.8629 373.311 -33.1184 449.392 46.4785C529.858 125.293 477.89 227.405 449.392 249.433C429.903 268.009 345.184 312.629 269.213 256.911C193.242 201.194 205.572 107.909 242.321 59.5932Z" stroke="#A5B8FD" stroke-width="4" stroke-linecap="round" stroke-linejoin="round"/>
<path d="M590.58 389.155C602.425 375.089 522.928 294.464 469.327 232.328C457.425 218.529 418.466 247.342 431.678 259.892C506.932 331.377 578.735 403.22 590.58 389.155Z" stroke="#A5B8FD" stroke-width="4" stroke-linecap="round" stroke-linejoin="round"/>
</svg>
