<svg width="239" height="321" viewBox="0 0 239 321" fill="none" xmlns="http://www.w3.org/2000/svg">
<path d="M91.5763 13.7063C96.9112 32.9123 101.379 75.5036 101.825 115.426C103.367 253.79 74.5043 282.088 68.1024 298.093C64.9323 306.018 -23.6587 351.442 7.28399 282.088C38.2267 212.733 33.9589 45.7158 29.6909 20.1081C25.4229 -5.4997 86.2414 -5.4997 91.5763 13.7063Z" fill="#FEBD6D"/>
<path fill-rule="evenodd" clip-rule="evenodd" d="M136.415 37.7103C138.24 37.6052 140.153 38.384 142.071 39.8802C145.393 42.4702 146.787 46.7775 147.191 50.4538C147.397 52.3302 147.359 54.1532 147.142 55.691C147.075 56.1615 146.988 56.6362 146.875 57.0958C159.17 59.531 168.398 64.0299 175.28 70.1154C182.569 76.561 187.107 84.6811 189.923 93.7124C194.721 109.097 194.579 127.419 194.442 145.025C194.42 147.929 194.397 150.815 194.397 153.664C194.397 188.967 181.787 221.603 159.128 243.558C136.427 265.553 103.774 276.692 64.0557 269.171C44.3062 265.432 29.3595 259.459 19.0726 252.447C8.81187 245.453 3.00423 237.284 2.00924 229.134C1.00178 220.882 4.98613 213.177 13.1484 207.37C21.2721 201.59 33.6164 197.598 49.798 196.499C60.5877 195.766 68.2287 194.629 73.3589 193.183C75.9235 192.46 77.7854 191.681 79.0785 190.885C80.3731 190.089 80.9878 189.345 81.253 188.733C81.7224 187.651 81.4208 186.016 79.1719 183.456C77.0063 180.99 73.5017 178.225 69.0883 175.206C64.6987 172.204 59.5325 169.031 54.1172 165.73C53.6845 165.466 53.2504 165.202 52.815 164.937C47.8158 161.891 42.6532 158.746 37.7992 155.565C32.5253 152.11 27.5641 148.581 23.525 145.047C19.5126 141.537 16.2674 137.901 14.5977 134.202C12.7463 130.1 12.1482 125.856 13.2284 121.952C14.3177 118.016 17.0512 114.655 21.417 112.256C29.8058 107.645 44.3499 106.486 66.1466 111.139C68.7905 101.714 74.4186 88.2748 84.1983 76.9609C93.4904 66.2111 106.565 57.3526 124.329 55.761C123.243 54.6083 122.356 53.043 122.065 50.9277C121.933 49.9699 122.002 48.994 122.472 48.1402C122.964 47.2473 123.75 46.7457 124.537 46.4989C125.944 46.0577 127.639 46.3403 128.9 46.6327C129.537 46.7803 130.199 46.967 130.802 47.1463C130.468 44.6595 130.901 42.0852 132.155 40.2304C133.083 38.8571 134.522 37.8194 136.415 37.7103ZM135.164 42.2654C134.229 43.6488 133.969 46.3432 134.938 48.6847C135.016 48.8739 135.128 49.2146 135.094 49.6406C135.055 50.1342 134.826 50.6145 134.418 50.9597C134.063 51.2592 133.689 51.3601 133.476 51.3992C133.249 51.4406 133.048 51.4403 132.91 51.4337C132.428 51.4104 131.856 51.2533 131.434 51.1319C131.106 51.0377 130.77 50.9348 130.426 50.8293C129.685 50.6022 128.904 50.3628 128.08 50.172C126.841 49.8849 126.031 49.8493 125.646 49.959C125.636 50.0414 125.631 50.1909 125.664 50.4325C125.949 52.4992 127.125 53.6459 128.408 54.3762C129.066 54.7507 129.738 55.0038 130.313 55.1904C130.516 55.2561 130.683 55.3067 130.847 55.3561C130.928 55.3806 131.008 55.4047 131.091 55.4303C131.202 55.4645 131.332 55.5056 131.453 55.5502L131.454 55.5505C131.539 55.5817 131.774 55.6683 132.004 55.8241C132.669 56.2739 132.959 57.1067 132.719 57.8726C132.479 58.6384 131.764 59.1557 130.962 59.145C111.039 58.879 96.8229 67.9113 86.9469 79.3367C77.0324 90.8066 71.5367 104.653 69.2114 113.734C68.968 114.685 68.0133 115.271 67.0555 115.057C44.5306 110.022 30.567 111.373 23.1668 115.44C19.53 117.438 17.5209 120.063 16.7299 122.921C15.9299 125.812 16.3139 129.173 17.9092 132.707C19.2578 135.695 22.0368 138.918 25.9172 142.313C29.7709 145.685 34.5711 149.107 39.7901 152.526C44.5914 155.672 49.7036 158.787 54.7127 161.839C55.1454 162.102 55.5773 162.365 56.0082 162.628C61.4117 165.922 66.6586 169.143 71.1394 172.208C75.5964 175.256 79.4193 178.232 81.9014 181.058C84.3001 183.789 85.9664 186.995 84.5864 190.178C83.927 191.7 82.6628 192.946 80.9822 193.98C79.2999 195.015 77.0901 195.906 74.3445 196.68C68.8542 198.227 60.9205 199.385 50.0442 200.124C34.2674 201.195 22.6496 205.069 15.2546 210.33C7.8982 215.564 4.80737 222.074 5.61555 228.694C6.43621 235.416 11.335 242.776 21.119 249.445C30.8767 256.097 45.3129 261.925 64.7316 265.602C103.35 272.914 134.79 262.08 156.599 240.949C178.45 219.778 190.764 188.136 190.764 153.664C190.764 150.752 190.786 147.827 190.807 144.901C190.938 127.246 191.068 109.587 186.455 94.7938C183.788 86.2413 179.557 78.747 172.873 72.8371C166.189 66.9265 156.933 62.4952 144.044 60.2659C143.417 60.1573 142.892 59.7276 142.661 59.1337C142.43 58.5397 142.527 57.8683 142.917 57.3643C143.056 57.1849 143.359 56.4949 143.545 55.1826C143.717 53.9606 143.754 52.442 143.579 50.8505C143.221 47.591 142.033 44.4573 139.837 42.7452C138.308 41.5526 137.247 41.3015 136.624 41.3374C136.069 41.3694 135.585 41.6437 135.164 42.2654Z" fill="white"/>
<path fill-rule="evenodd" clip-rule="evenodd" d="M52.0626 110.357C52.2359 109.369 53.1776 108.709 54.1657 108.882C109.176 118.535 140.615 136.421 168.095 153.072C168.953 153.591 169.227 154.708 168.707 155.566C168.187 156.425 167.07 156.699 166.212 156.179C138.909 139.635 107.914 122.002 53.5378 112.461C52.5497 112.287 51.8892 111.346 52.0626 110.357Z" fill="white"/>
<path fill-rule="evenodd" clip-rule="evenodd" d="M40.8745 89.5368C52.5086 90.4477 65.9012 98.6287 69.0661 111.744C69.3014 112.72 68.7016 113.701 67.7263 113.936C66.7511 114.172 65.7697 113.572 65.5343 112.597C62.8373 101.42 51.1225 93.9834 40.5909 93.1589C35.3725 92.7503 30.793 94.0005 27.8719 96.8727C25.01 99.6867 23.3745 104.424 24.7753 111.834C24.9617 112.819 24.3136 113.77 23.3278 113.956C22.342 114.142 21.3918 113.494 21.2054 112.508C19.6537 104.3 21.348 98.1923 25.3247 94.2822C29.2421 90.4303 35.01 89.0777 40.8745 89.5368Z" fill="white"/>
<path fill-rule="evenodd" clip-rule="evenodd" d="M32.8906 166.525C33.0491 167.516 32.3745 168.447 31.3839 168.606C28.6716 169.04 24.529 170.795 20.2338 173.516C15.9692 176.218 11.758 179.745 8.84843 183.542C5.91212 187.375 4.50889 191.198 5.22902 194.633C5.93668 198.009 8.83975 201.661 16.0502 204.853C16.9676 205.259 17.3822 206.332 16.9761 207.249C16.57 208.166 15.4972 208.581 14.5798 208.175C6.84804 204.753 2.7218 200.38 1.67322 195.378C0.637113 190.436 2.75071 185.527 5.96449 181.333C9.20504 177.103 13.7771 173.306 18.2893 170.447C22.7708 167.608 27.3984 165.564 30.8099 165.018C31.8006 164.86 32.7321 165.534 32.8906 166.525Z" fill="white"/>
<path fill-rule="evenodd" clip-rule="evenodd" d="M197.893 60.5985C189.85 60.9771 182.065 67.2577 178.294 73.2293C177.758 74.0775 176.636 74.3308 175.788 73.7951C174.94 73.2594 174.686 72.1375 175.222 71.2892C179.384 64.6993 188.104 57.4222 197.723 56.9694C202.62 56.7389 207.648 58.2919 212.242 62.4426C216.655 66.4292 220.603 72.7479 223.755 82.022C224.972 82.4655 226.232 83.191 227.43 84.0244C228.999 85.116 230.596 86.4887 232.046 87.9415C233.495 89.3937 234.83 90.9593 235.859 92.4512C236.852 93.8913 237.693 95.4498 237.928 96.8582C238.254 98.8169 237.492 100.378 236.218 101.44C235.052 102.413 233.499 102.95 232.066 103.262C230.25 103.656 228.275 103.761 226.705 103.722C226.797 104.03 226.903 104.372 227.022 104.751C227.069 104.901 227.117 105.055 227.167 105.213C227.809 107.255 228.662 109.965 228.985 112.389C229.159 113.694 229.207 115.082 228.896 116.32C228.571 117.615 227.813 118.864 226.351 119.52C224.987 120.133 223.338 120.074 221.539 119.608C220.167 119.253 218.574 118.627 216.728 117.705C215.755 120.095 214.374 121.809 212.537 122.746C210.19 123.944 207.582 123.628 205.178 122.696C200.439 120.858 195.321 116.183 191.293 111.839C190.611 111.103 190.654 109.954 191.39 109.271C192.125 108.589 193.275 108.633 193.957 109.368C197.968 113.695 202.599 117.799 206.491 119.309C208.402 120.049 209.83 120.049 210.885 119.51C211.945 118.97 213.112 117.641 213.935 114.623C214.082 114.085 214.468 113.644 214.982 113.427C215.496 113.211 216.082 113.242 216.569 113.513C219.121 114.93 221.038 115.726 222.45 116.091C223.889 116.464 224.581 116.332 224.863 116.206C225.047 116.123 225.239 115.967 225.372 115.435C225.52 114.847 225.533 113.988 225.384 112.87C225.104 110.773 224.343 108.349 223.681 106.24C223.638 106.104 223.596 105.969 223.555 105.836C223.23 104.799 222.914 103.772 222.772 103.011C222.711 102.683 222.622 102.126 222.735 101.585C222.796 101.293 222.965 100.765 223.474 100.36C224.035 99.9139 224.666 99.8834 225.093 99.9571C226.087 100.129 228.897 100.232 231.294 99.7113C232.501 99.4491 233.384 99.0731 233.891 98.6507C234.289 98.3178 234.435 98.0006 234.344 97.4554C234.245 96.8607 233.785 95.8439 232.868 94.5141C231.987 93.236 230.801 91.8371 229.474 90.5077C228.148 89.1789 226.715 87.953 225.355 87.0066C223.963 86.0381 222.776 85.4527 221.926 85.2593C221.304 85.1178 220.801 84.66 220.603 84.0536C217.522 74.6486 213.735 68.6871 209.807 65.1385C205.919 61.6263 201.827 60.4133 197.893 60.5985Z" fill="white"/>
<path fill-rule="evenodd" clip-rule="evenodd" d="M92.8302 44.1713C99.0628 47.3837 102.98 55.2039 103.809 61.3369C103.944 62.3311 104.859 63.028 105.853 62.8936C106.847 62.7591 107.544 61.8441 107.41 60.8499C106.482 53.9922 102.13 44.8771 94.4947 40.9419C90.5987 38.9338 85.9361 38.3306 80.6728 39.9923C75.6428 41.5803 70.1504 45.2062 64.2296 51.4628C63.0894 51.3847 61.83 51.5075 60.593 51.7313C58.9189 52.0343 57.1211 52.5536 55.4151 53.1911C53.71 53.8282 52.0522 54.6001 50.6659 55.4275C49.3337 56.2226 48.0536 57.1844 47.3213 58.2686C46.2935 59.7905 46.3353 61.4042 46.9961 62.7845C47.5965 64.0386 48.6776 65.0643 49.7243 65.8483C50.9595 66.7735 52.3981 67.5455 53.6308 68.0928C53.4966 68.2441 53.3513 68.4065 53.1951 68.5802C53.1019 68.6838 53.0058 68.7905 52.9069 68.9001C51.6445 70.3005 49.9542 72.1756 48.7946 74.0184C48.1703 75.0105 47.6068 76.1336 47.3946 77.28C47.1718 78.4841 47.3256 79.8366 48.3119 80.9618C49.2281 82.0069 50.6283 82.5778 52.2648 82.8679C53.4623 83.0802 54.9112 83.1643 56.6392 83.116C56.5826 85.325 57.0745 87.1824 58.2067 88.6113C59.7037 90.5004 61.9827 91.2156 64.2853 91.3515C68.8151 91.6188 74.6781 89.7265 79.5058 87.7179C80.4321 87.3325 80.8706 86.2692 80.4852 85.3429C80.0998 84.4166 79.0365 83.9781 78.1102 84.3635C73.3051 86.3628 68.1231 87.9386 64.4994 87.7247C62.7253 87.62 61.6504 87.1072 61.0542 86.3549C60.4551 85.5988 60.002 84.1755 60.4437 81.4815C60.5339 80.9309 60.3662 80.3693 59.9887 79.9585C59.6112 79.5477 59.0658 79.3331 58.5096 79.3765C55.9514 79.5764 54.1406 79.5107 52.8989 79.2906C51.6287 79.0654 51.1772 78.7189 51.0439 78.5669C50.9809 78.495 50.8875 78.3707 50.967 77.9411C51.0572 77.4538 51.3454 76.7862 51.8696 75.9533C52.8538 74.3891 54.3417 72.7365 55.6506 71.2828C55.7334 71.1908 55.8155 71.0997 55.8966 71.0094C56.5351 70.2993 57.175 69.581 57.577 69.0096C57.7474 68.7675 58.0457 68.323 58.1636 67.8028C58.2273 67.5219 58.294 66.979 58.0025 66.4051C57.6808 65.7719 57.1254 65.486 56.7151 65.3777C55.8795 65.1572 53.6117 64.2209 51.9025 62.9406C51.0414 62.2956 50.5024 61.6948 50.273 61.2156C50.1039 60.8626 50.1063 60.6363 50.332 60.3021C50.6026 59.9014 51.3107 59.2737 52.5279 58.5471C53.6911 57.8529 55.1441 57.1708 56.6868 56.5943C58.2287 56.0182 59.816 55.5641 61.24 55.3064C62.702 55.0418 63.8381 55.013 64.5513 55.1615C65.1761 55.2915 65.8233 55.0841 66.2561 54.6152C72.1641 48.2152 77.3598 44.8481 81.7666 43.4568C86.1217 42.0819 89.7923 42.6055 92.8302 44.1713Z" fill="white"/>
<path d="M121.759 104.712C121.988 95.7657 128.411 84.5244 135.982 84.5244C144.24 84.5244 144.928 99.4359 143.552 107.236C141.584 118.386 134.146 120.541 130.247 119.394C126.347 118.247 121.529 113.659 121.759 104.712Z" fill="#FEBD6D"/>
<path fill-rule="evenodd" clip-rule="evenodd" d="M174.511 109.389C176.254 107.776 177.647 105.704 178.424 103.57C178.767 102.627 178.281 101.584 177.338 101.241C176.395 100.898 175.353 101.384 175.01 102.327C174.44 103.893 173.382 105.484 172.043 106.724C170.698 107.969 169.183 108.759 167.731 108.933C166.35 109.098 164.869 108.729 163.396 107.346C161.871 105.915 160.308 103.342 159.067 99.04C158.788 98.0761 157.781 97.5202 156.818 97.7984C155.854 98.0765 155.298 99.0834 155.576 100.047C156.918 104.699 158.734 107.953 160.91 109.995C163.137 112.086 165.677 112.837 168.162 112.54C170.577 112.251 172.774 110.998 174.511 109.389Z" fill="white"/>
<path fill-rule="evenodd" clip-rule="evenodd" d="M94.2377 92.8257C93.4593 90.6142 93.1463 88.1488 93.341 85.9227C93.4285 84.9233 94.3096 84.184 95.309 84.2714C96.3084 84.3588 97.0477 85.2399 96.9603 86.2394C96.8119 87.9361 97.0534 89.8828 97.6647 91.6195C98.2827 93.3752 99.2114 94.7341 100.288 95.4765C101.272 96.155 102.524 96.4283 104.228 95.7731C106.035 95.0786 108.383 93.3154 111.205 89.7288C111.825 88.9403 112.967 88.8041 113.756 89.4244C114.544 90.0448 114.681 91.1868 114.06 91.9753C111.046 95.8066 108.205 98.1365 105.532 99.1642C102.757 100.231 100.239 99.8555 98.2259 98.4675C96.3054 97.1434 95.0094 95.0181 94.2377 92.8257Z" fill="white"/>
<path fill-rule="evenodd" clip-rule="evenodd" d="M161.813 253.339C158.751 251.464 155.122 250.262 151.452 250.313C150.449 250.327 149.624 249.525 149.61 248.522C149.596 247.519 150.398 246.695 151.401 246.681C155.882 246.618 160.178 248.077 163.711 250.241C167.231 252.398 170.12 255.333 171.715 258.38C173.293 261.393 173.778 264.944 171.575 267.738C169.756 270.044 166.473 271.324 161.88 271.562C162.866 272.67 164.137 274.152 165.057 275.775C166.35 278.057 167.202 281.043 165.572 284.142C164.024 287.086 160.462 289.653 154.305 291.867C150.417 293.264 147.01 293.465 144.121 292.715C141.223 291.963 138.99 290.29 137.41 288.194C135.881 286.166 134.946 283.721 134.583 281.263C134.177 281.535 133.755 281.779 133.323 281.996C130.696 283.311 127.483 283.718 124.651 282.943C121.749 282.149 119.213 280.086 118.325 276.572C117.467 273.172 118.235 268.741 121.048 263.256C121.506 262.364 122.6 262.011 123.493 262.469C124.386 262.927 124.738 264.021 124.281 264.914C121.659 270.025 121.297 273.501 121.848 275.682C122.37 277.748 123.784 278.94 125.61 279.439C127.506 279.958 129.8 279.697 131.696 278.747C133.1 278.044 134.168 277.03 134.738 275.805C134.867 275.22 135.033 274.655 135.237 274.117C135.567 273.247 136.5 272.767 137.4 273.004C138.299 273.242 138.874 274.121 138.731 275.04C138.628 275.7 138.454 276.323 138.221 276.908C137.69 279.776 138.335 283.387 140.311 286.007C141.448 287.516 143.008 288.673 145.034 289.199C147.069 289.727 149.719 289.654 153.076 288.448C158.986 286.324 161.458 284.16 162.356 282.451C163.173 280.899 162.884 279.31 161.896 277.567C161.084 276.134 159.966 274.879 158.955 273.745C158.691 273.449 158.434 273.161 158.192 272.88C157.917 272.561 157.64 272.224 157.417 271.898C157.229 271.624 156.917 271.132 156.828 270.535C156.777 270.194 156.786 269.737 157.009 269.268C157.236 268.79 157.6 268.48 157.944 268.294C158.534 267.976 159.19 267.954 159.614 267.963C165.107 268.073 167.694 266.791 168.722 265.488C169.66 264.299 169.749 262.458 168.497 260.066C167.262 257.708 164.887 255.223 161.813 253.339ZM160.345 269.734C160.346 269.734 160.348 269.738 160.351 269.745C160.347 269.737 160.345 269.734 160.345 269.734ZM159.382 271.599C159.374 271.6 159.369 271.601 159.369 271.601C159.369 271.6 159.373 271.6 159.382 271.599Z" fill="white"/>
</svg>
