<svg width="50" height="49" viewBox="0 0 50 49" fill="none" xmlns="http://www.w3.org/2000/svg">
<path d="M48.1273 35.7274L43.7637 33.9819" stroke="#FEBD6D" stroke-width="2" stroke-linecap="round" stroke-linejoin="round"/>
<path d="M1 28.3089L6.23636 27.8726" stroke="#FEBD6D" stroke-width="2" stroke-linecap="round" stroke-linejoin="round"/>
<path d="M40.5 39.5003C41.5 9.00031 10.1636 0.000112534 10.1636 34.3637" stroke="#FEBD6D" stroke-width="2" stroke-linejoin="round"/>
<path d="M33.0064 38.7942C37.9418 34.4783 43.3632 38.5114 45.8933 43.9112C47.5249 47.3935 37.3027 49.3498 25.6033 48.9482C15.1395 48.5889 4.49077 50.3851 4.49072 41.4449C4.49067 30.0345 16.2808 32.136 22.5872 36.4517C26.7374 39.292 28.0709 43.1101 33.0064 38.7942Z" fill="#FFD9D0"/>
<path d="M49.0002 19.0181L42.8911 20.7635" stroke="#FEBD6D" stroke-width="2" stroke-linecap="round" stroke-linejoin="round"/>
<path d="M39.4001 6.23633L35.9092 11.9091" stroke="#FEBD6D" stroke-width="2" stroke-linecap="round" stroke-linejoin="round"/>
<path d="M20.2 1L21.0728 7.54545" stroke="#FEBD6D" stroke-width="2" stroke-linecap="round" stroke-linejoin="round"/>
<path d="M3.61816 12.6001L8.85453 15.6546" stroke="#FEBD6D" stroke-width="2" stroke-linecap="round" stroke-linejoin="round"/>
</svg>
