<svg width="50" height="49" viewBox="0 0 50 49" fill="none" xmlns="http://www.w3.org/2000/svg">
<path d="M26.9531 32.5896C34.5638 29.5529 39.4564 33.1676 40 41.8438C40 50.5201 14.4498 49.3633 8.46998 48.2064C2.49013 47.0496 -4.33015 38.952 3.5772 29.6974C14.4499 16.9722 22.6041 34.3248 26.9531 32.5896Z" fill="#F4D8FE"/>
<path d="M19.3702 30.2999C5.02109 13.4435 28.4979 -10.96 41.7871 7.73266C42.4341 10.1473 33.7333 4.71537 29.7503 13.0279C26.0593 20.7313 32.641 27.0951 38.6844 25.1247C44.8716 23.1074 46.3856 16.0458 47.0476 17.7086C53.378 33.6082 31.3593 44.3839 19.3702 30.2999Z" stroke="#224887" stroke-width="2" stroke-linejoin="round"/>
</svg>
