<svg width="313" height="322" viewBox="0 0 313 322" fill="none" xmlns="http://www.w3.org/2000/svg">
<path d="M158.211 209.896L273.428 189.066L263.665 40.7335L166.673 79.139L73.5059 42.1984L52.1082 189.066L158.211 209.896Z" fill="#A7C5C3"/>
<path fill-rule="evenodd" clip-rule="evenodd" d="M195.064 48.2234C216.102 38.1962 243.723 31.4199 270.061 33.6904C270.517 33.7297 270.877 34.0929 270.913 34.549L281.73 171.557L281.73 171.561C281.73 171.561 281.73 171.562 280.797 171.635L281.73 171.561C281.768 172.042 281.434 172.474 280.959 172.557C219.209 183.374 184.804 191.476 166.749 197.98C165.029 198.6 163.463 199.203 162.04 199.79C163.27 200.703 164.33 201.621 165.198 202.543C167.176 204.643 167.688 207.082 167.16 209.367C166.641 211.61 165.141 213.638 163.209 215.077C161.275 216.518 158.833 217.425 156.348 217.34C153.835 217.253 151.337 216.151 149.364 213.684C148.394 212.472 147.707 211.132 147.64 209.66C147.572 208.164 148.151 206.692 149.401 205.248C151.014 203.384 153.831 201.469 158.174 199.441C154.406 197.116 149.464 194.781 143.675 192.509C134.267 188.817 122.767 185.344 110.789 182.361C86.8118 176.392 61.0489 172.422 46.4431 172.571C46.1689 172.574 45.9072 172.456 45.7273 172.249C45.5474 172.042 45.4674 171.766 45.5085 171.495L66.2405 34.4826C66.3017 34.0784 66.6182 33.7607 67.0222 33.6981C71.5471 32.9959 78.4099 33.5919 86.4584 35.1548C94.5366 36.7235 103.906 39.2863 113.49 42.5869C132.634 49.1795 152.76 58.7587 165.191 69.3384C165.209 69.3537 165.227 69.3691 165.245 69.3844C166.452 67.9333 167.819 66.4878 169.327 65.0582C175.628 59.0843 184.543 53.2379 195.064 48.2234ZM164.082 70.8516C160.992 74.9486 159.228 79.0625 159.228 82.9634C159.228 87.0359 160.991 89.642 163.48 90.7401C165.904 91.809 168.816 91.3499 170.947 89.7431C173.117 88.1059 174.474 85.2876 173.825 81.6973C173.244 78.4879 171.081 74.7375 166.645 70.6278C167.799 69.2357 169.125 67.8285 170.614 66.4162C176.735 60.6132 185.471 54.8685 195.869 49.9126C216.458 40.0997 243.404 33.4541 269.11 35.4895L279.797 170.861C218.58 181.603 184.258 189.683 166.115 196.219C163.931 197.006 161.972 197.774 160.221 198.525C156.147 195.856 150.678 193.248 144.358 190.767C134.851 187.036 123.268 183.54 111.241 180.546C87.7881 174.706 62.5198 170.744 47.522 170.696L67.986 35.4549C72.1916 34.9564 78.5128 35.5181 86.1017 36.9917C94.0796 38.541 103.364 41.0787 112.881 44.3562C131.94 50.9196 151.81 60.4066 163.979 70.7634C164.013 70.7928 164.048 70.8222 164.082 70.8516ZM165.483 72.1022C169.665 76.0055 171.504 79.3818 171.983 82.0303C172.507 84.9289 171.424 87.0393 169.82 88.2492C168.175 89.4896 165.978 89.7962 164.236 89.0279C162.56 88.2888 161.1 86.455 161.1 82.9634C161.1 79.6276 162.617 75.9365 165.483 72.1022ZM160.031 200.651C155.189 202.808 152.315 204.74 150.816 206.473C149.798 207.649 149.468 208.669 149.51 209.575C149.552 210.504 149.991 211.473 150.825 212.515C152.457 214.555 154.445 215.402 156.412 215.47C158.408 215.538 160.442 214.805 162.091 213.576C163.745 212.344 164.938 210.671 165.336 208.945C165.726 207.261 165.379 205.464 163.835 203.826C162.848 202.777 161.569 201.716 160.031 200.651Z" fill="#F4D8FE"/>
<path d="M281.73 171.561L281.73 171.557L270.913 34.549C270.877 34.0929 270.517 33.7297 270.061 33.6904C243.723 31.4199 216.102 38.1962 195.064 48.2234C184.543 53.2379 175.628 59.0843 169.327 65.0582C167.819 66.4878 166.452 67.9333 165.245 69.3844C165.227 69.3691 165.209 69.3537 165.191 69.3384C152.76 58.7587 132.634 49.1795 113.49 42.5869C103.906 39.2863 94.5366 36.7235 86.4584 35.1548C78.4099 33.5919 71.5471 32.9959 67.0221 33.6981C66.6182 33.7607 66.3017 34.0784 66.2405 34.4826L45.5085 171.495C45.4674 171.766 45.5474 172.042 45.7273 172.249C45.9072 172.456 46.1689 172.574 46.4431 172.571C61.0489 172.422 86.8118 176.392 110.789 182.361C122.767 185.344 134.267 188.817 143.675 192.509C149.464 194.781 154.406 197.116 158.174 199.441C153.831 201.469 151.014 203.384 149.401 205.248C148.151 206.692 147.572 208.164 147.64 209.66C147.707 211.132 148.394 212.472 149.364 213.684C151.337 216.151 153.835 217.253 156.348 217.34C158.833 217.425 161.275 216.518 163.209 215.077C165.141 213.638 166.641 211.61 167.16 209.367C167.688 207.082 167.176 204.643 165.198 202.543C164.33 201.621 163.27 200.703 162.04 199.79C163.463 199.203 165.029 198.6 166.749 197.98C184.804 191.476 219.209 183.374 280.959 172.557C281.434 172.474 281.768 172.042 281.73 171.561ZM281.73 171.561C281.73 171.561 281.73 171.562 280.797 171.635L281.73 171.561ZM164.082 70.8516C160.992 74.9486 159.228 79.0625 159.228 82.9634C159.228 87.0359 160.991 89.642 163.48 90.7401C165.904 91.809 168.816 91.3499 170.947 89.7431C173.117 88.1059 174.474 85.2876 173.825 81.6973C173.244 78.4879 171.081 74.7375 166.645 70.6278C167.799 69.2357 169.125 67.8285 170.614 66.4162C176.735 60.6132 185.471 54.8685 195.869 49.9126C216.458 40.0997 243.404 33.4541 269.11 35.4895L279.797 170.861C218.58 181.603 184.258 189.683 166.115 196.219C163.931 197.006 161.972 197.774 160.221 198.525C156.147 195.856 150.678 193.248 144.358 190.767C134.851 187.036 123.268 183.54 111.241 180.546C87.7881 174.706 62.5198 170.744 47.522 170.696L67.986 35.4549C72.1916 34.9564 78.5128 35.5181 86.1017 36.9917C94.0796 38.541 103.364 41.0787 112.881 44.3562C131.94 50.9196 151.81 60.4066 163.979 70.7634C164.013 70.7928 164.048 70.8222 164.082 70.8516ZM165.483 72.1022C169.665 76.0055 171.504 79.3818 171.983 82.0303C172.507 84.9289 171.424 87.0393 169.82 88.2492C168.175 89.4896 165.978 89.7962 164.236 89.0279C162.56 88.2888 161.1 86.455 161.1 82.9634C161.1 79.6276 162.617 75.9365 165.483 72.1022ZM150.816 206.473C152.315 204.74 155.189 202.808 160.031 200.651C161.569 201.716 162.848 202.777 163.835 203.826C165.379 205.464 165.726 207.261 165.336 208.945C164.938 210.671 163.745 212.344 162.091 213.576C160.442 214.805 158.408 215.538 156.412 215.47C154.445 215.402 152.457 214.555 150.825 212.515C149.991 211.473 149.552 210.504 149.51 209.575C149.468 208.669 149.798 207.649 150.816 206.473Z" stroke="#F4D8FE" stroke-linecap="round" stroke-linejoin="round"/>
<path fill-rule="evenodd" clip-rule="evenodd" d="M241.156 65.7794C238.289 65.9687 235.902 67.4201 234.692 70.4455C234.039 72.0769 233.316 73.669 232.459 75.0293C231.604 76.3858 230.58 77.57 229.299 78.3194C227.991 79.0852 226.476 79.3605 224.743 78.9908C223.041 78.6275 221.165 77.6507 219.06 75.9894C217.05 74.4023 214.187 73.5257 211.827 74.0314C210.67 74.2791 209.634 74.8558 208.838 75.8512C208.036 76.8533 207.428 78.3424 207.249 80.4902C206.746 86.5243 198.514 90.9391 190.766 85.9257C189.054 84.8181 187.564 84.3846 186.269 84.3903C184.978 84.3961 183.793 84.8379 182.686 85.6319C180.43 87.251 178.578 90.2759 177.088 93.6812C176.881 94.1546 176.33 94.3705 175.856 94.1634C175.383 93.9562 175.167 93.4046 175.374 92.9311C176.893 89.4599 178.91 86.0381 181.596 84.1114C182.96 83.1326 184.515 82.5268 186.26 82.5191C188 82.5114 189.841 83.0986 191.782 84.3547C198.647 88.7963 205.027 84.6157 205.384 80.3348C205.586 77.9121 206.289 76.0414 207.377 74.6823C208.469 73.3164 209.9 72.5304 211.435 72.2016C214.457 71.5542 217.875 72.6695 220.22 74.5207C222.198 76.0828 223.814 76.8791 225.134 77.1607C226.423 77.4358 227.46 77.2278 228.354 76.7045C229.276 76.1648 230.106 75.2538 230.876 74.0316C231.644 72.8132 232.317 71.3429 232.954 69.7506C234.457 65.9922 237.518 64.1443 241.033 63.9122C244.494 63.6836 248.365 65.0121 251.72 67.4726C252.137 67.7782 252.227 68.3637 251.921 68.7804C251.616 69.1971 251.03 69.2872 250.613 68.9816C247.522 66.7144 244.077 65.5865 241.156 65.7794Z" fill="white" stroke="white" stroke-linecap="round" stroke-linejoin="round"/>
<path fill-rule="evenodd" clip-rule="evenodd" d="M241.156 88.71C238.289 88.8994 235.902 90.3507 234.692 93.3761C234.039 95.0076 233.316 96.5997 232.459 97.96C231.604 99.3165 230.58 100.501 229.299 101.25C227.991 102.016 226.476 102.291 224.743 101.921C223.041 101.558 221.165 100.581 219.06 98.9201C217.05 97.333 214.187 96.4564 211.827 96.962C210.67 97.2098 209.634 97.7865 208.838 98.7819C208.036 99.784 207.428 101.273 207.249 103.421C206.746 109.455 198.514 113.87 190.766 108.856C189.054 107.749 187.564 107.315 186.269 107.321C184.978 107.327 183.793 107.769 182.686 108.563C180.43 110.182 178.578 113.207 177.088 116.612C176.881 117.085 176.33 117.301 175.856 117.094C175.383 116.887 175.167 116.335 175.374 115.862C176.893 112.391 178.91 108.969 181.596 107.042C182.96 106.063 184.515 105.457 186.26 105.45C188 105.442 189.841 106.029 191.782 107.285C198.647 111.727 205.027 107.546 205.384 103.266C205.586 100.843 206.289 98.9721 207.377 97.6129C208.469 96.2471 209.9 95.461 211.435 95.1323C214.457 94.4849 217.875 95.6001 220.22 97.4514C222.198 99.0135 223.814 99.8098 225.134 100.091C226.423 100.366 227.46 100.159 228.354 99.6351C229.276 99.0954 230.106 98.1845 230.876 96.9623C231.644 95.7438 232.317 94.2735 232.954 92.6812C234.457 88.9229 237.518 87.0749 241.033 86.8428C244.494 86.6143 248.365 87.9428 251.72 90.4033C252.137 90.7089 252.227 91.2944 251.921 91.7111C251.616 92.1278 251.03 92.2179 250.613 91.9123C247.522 89.645 244.077 88.5172 241.156 88.71Z" fill="white" stroke="white" stroke-linecap="round" stroke-linejoin="round"/>
<path fill-rule="evenodd" clip-rule="evenodd" d="M241.156 108.202C238.289 108.392 235.902 109.843 234.692 112.869C234.039 114.5 233.316 116.092 232.459 117.452C231.604 118.809 230.58 119.993 229.299 120.743C227.991 121.508 226.476 121.784 224.743 121.414C223.041 121.051 221.165 120.074 219.06 118.413C217.05 116.825 214.187 115.949 211.827 116.454C210.67 116.702 209.634 117.279 208.838 118.274C208.036 119.276 207.428 120.765 207.249 122.913C206.746 128.947 198.514 133.362 190.766 128.349C189.054 127.241 187.564 126.808 186.269 126.813C184.978 126.819 183.793 127.261 182.686 128.055C180.43 129.674 178.578 132.699 177.088 136.104C176.881 136.578 176.33 136.794 175.856 136.586C175.383 136.379 175.167 135.828 175.374 135.354C176.893 131.883 178.91 128.461 181.596 126.535C182.96 125.556 184.515 124.95 186.26 124.942C188 124.934 189.841 125.522 191.782 126.778C198.647 131.219 205.027 127.039 205.384 122.758C205.586 120.335 206.289 118.465 207.377 117.105C208.469 115.739 209.9 114.953 211.435 114.625C214.457 113.977 217.875 115.093 220.22 116.944C222.198 118.506 223.814 119.302 225.134 119.584C226.423 119.859 227.46 119.651 228.354 119.128C229.276 118.588 230.106 117.677 230.876 116.455C231.644 115.236 232.317 113.766 232.954 112.174C234.457 108.415 237.518 106.567 241.033 106.335C244.494 106.107 248.365 107.435 251.72 109.896C252.137 110.201 252.227 110.787 251.921 111.204C251.616 111.62 251.03 111.71 250.613 111.405C247.522 109.137 244.077 108.01 241.156 108.202Z" fill="white" stroke="white" stroke-linecap="round" stroke-linejoin="round"/>
<path fill-rule="evenodd" clip-rule="evenodd" d="M241.156 129.997C238.289 130.187 235.902 131.638 234.692 134.663C234.039 136.295 233.316 137.887 232.459 139.247C231.604 140.604 230.58 141.788 229.299 142.537C227.991 143.303 226.476 143.579 224.743 143.209C223.041 142.845 221.165 141.869 219.06 140.207C217.05 138.62 214.187 137.744 211.827 138.249C210.67 138.497 209.634 139.074 208.838 140.069C208.036 141.071 207.428 142.56 207.249 144.708C206.746 150.742 198.514 155.157 190.766 150.144C189.054 149.036 187.564 148.603 186.269 148.608C184.978 148.614 183.793 149.056 182.686 149.85C180.43 151.469 178.578 154.494 177.088 157.899C176.881 158.373 176.33 158.589 175.856 158.381C175.383 158.174 175.167 157.623 175.374 157.149C176.893 153.678 178.91 150.256 181.596 148.329C182.96 147.351 184.515 146.745 186.26 146.737C188 146.729 189.841 147.317 191.782 148.573C198.647 153.014 205.027 148.834 205.384 144.553C205.586 142.13 206.289 140.259 207.377 138.9C208.469 137.534 209.9 136.748 211.435 136.42C214.457 135.772 217.875 136.887 220.22 138.739C222.198 140.301 223.814 141.097 225.134 141.379C226.423 141.654 227.46 141.446 228.354 140.922C229.276 140.383 230.106 139.472 230.876 138.25C231.644 137.031 232.317 135.561 232.954 133.969C234.457 130.21 237.518 128.362 241.033 128.13C244.494 127.902 248.365 129.23 251.72 131.691C252.137 131.996 252.227 132.582 251.921 132.998C251.616 133.415 251.03 133.505 250.613 133.2C247.522 130.932 244.077 129.805 241.156 129.997Z" fill="white" stroke="white" stroke-linecap="round" stroke-linejoin="round"/>
<path fill-rule="evenodd" clip-rule="evenodd" d="M241.156 152.472C238.289 152.661 235.902 154.113 234.692 157.138C234.039 158.77 233.316 160.362 232.459 161.722C231.604 163.079 230.58 164.263 229.299 165.012C227.991 165.778 226.476 166.053 224.743 165.684C223.041 165.32 221.165 164.343 219.06 162.682C217.05 161.095 214.187 160.218 211.827 160.724C210.67 160.972 209.634 161.549 208.838 162.544C208.036 163.546 207.428 165.035 207.249 167.183C206.746 173.217 198.514 177.632 190.766 172.618C189.054 171.511 187.564 171.077 186.269 171.083C184.978 171.089 183.793 171.531 182.686 172.325C180.43 173.944 178.578 176.969 177.088 180.374C176.881 180.847 176.33 181.063 175.856 180.856C175.383 180.649 175.167 180.097 175.374 179.624C176.893 176.153 178.91 172.731 181.596 170.804C182.96 169.825 184.515 169.22 186.26 169.212C188 169.204 189.841 169.791 191.782 171.047C198.647 175.489 205.027 171.308 205.384 167.028C205.586 164.605 206.289 162.734 207.377 161.375C208.469 160.009 209.9 159.223 211.435 158.894C214.457 158.247 217.875 159.362 220.22 161.213C222.198 162.776 223.814 163.572 225.134 163.853C226.423 164.129 227.46 163.921 228.354 163.397C229.276 162.858 230.106 161.947 230.876 160.724C231.644 159.506 232.317 158.036 232.954 156.443C234.457 152.685 237.518 150.837 241.033 150.605C244.494 150.376 248.365 151.705 251.72 154.165C252.137 154.471 252.227 155.056 251.921 155.473C251.616 155.89 251.03 155.98 250.613 155.674C247.522 153.407 244.077 152.279 241.156 152.472Z" fill="white" stroke="white" stroke-linecap="round" stroke-linejoin="round"/>
<path d="M143.771 150.609C140.561 151.626 129.979 143.873 127.713 141.975C131.672 141.674 144.116 136.128 146.78 133.435C146.78 135.491 146.948 149.602 143.771 150.609Z" fill="#A88DFF"/>
<path d="M112.396 31.6071C112.396 31.6071 95.2644 50.1563 65.3926 52.29L102.661 123.951L116.16 128.497L115.344 119.289L125.834 123.951L126.534 112.995L136.091 118.59L137.373 107.401L146.131 114.343L147.484 103.521L112.396 31.6071Z" fill="#FEBD6D"/>
<path fill-rule="evenodd" clip-rule="evenodd" d="M96.2192 7.26719C100.185 11.0736 102.647 16.3486 104.331 20.1506C107.029 26.243 132.411 78.6731 145.67 105.246L146.323 104.919L145.67 105.246C145.744 105.394 145.846 105.699 145.96 106.193C146.071 106.671 146.184 107.281 146.297 108.007C146.521 109.459 146.738 111.345 146.928 113.516C147.309 117.856 147.582 123.304 147.609 128.637C147.636 133.977 147.416 139.169 146.818 143.012C146.518 144.94 146.13 146.478 145.658 147.514C145.159 148.609 144.709 148.855 144.421 148.855C143.838 148.855 142.833 148.553 141.429 147.901C140.058 147.264 138.406 146.343 136.569 145.214C132.896 142.957 128.536 139.9 124.302 136.718C120.069 133.536 115.976 130.238 112.838 127.502C111.269 126.134 109.945 124.912 108.965 123.919C108.475 123.423 108.078 122.991 107.781 122.631C107.474 122.26 107.309 122.006 107.244 121.861C107.237 121.847 107.231 121.833 107.223 121.819L76.0591 62.8595L76.0586 62.8586C74.7756 60.4397 73.5939 58.1853 72.7425 56.028C71.8919 53.8728 71.3914 51.8628 71.4385 49.9401C71.476 48.4076 71.8644 46.8829 72.767 45.3504C74.4737 45.6652 76.5108 45.6783 78.8695 45.3299C83.4581 44.6521 89.3602 42.5952 96.6497 38.5832C99.1722 37.1948 101.144 35.9601 102.619 34.883C104.083 33.8146 105.102 32.8701 105.674 32.0525C105.96 31.6436 106.169 31.2186 106.232 30.7887C106.298 30.3314 106.194 29.8864 105.891 29.5234C105.609 29.1845 105.208 28.9819 104.794 28.8589C104.375 28.7342 103.882 28.6735 103.34 28.6609C101.196 28.6114 97.8254 29.3129 93.7632 30.7353C89.6795 32.1652 84.8334 34.3463 79.7193 37.3117C76.1066 39.4064 73.6447 41.5201 72.0993 43.6973C71.129 43.4217 70.3429 43.0279 69.7292 42.5565C68.215 41.3932 67.6388 39.6715 67.9979 37.749C71.0968 37.5958 74.8237 36.6075 78.6194 35.1942C86.3009 32.3343 94.4894 27.6473 98.7426 24.1752C99.8184 23.297 100.611 22.4699 101.101 21.714C101.577 20.9802 101.854 20.1747 101.611 19.4245C101.356 18.6383 100.637 18.221 99.8445 18.0354C99.043 17.8478 98.0062 17.8503 96.7881 18.0211C91.9221 18.7033 83.2803 22.2064 72.1066 29.8999C69.4393 31.7365 67.6484 34.0197 66.8717 36.3061C64.4701 36.2524 62.8448 35.5448 62.056 34.1723C59.7533 30.0263 58.7336 26.3947 58.7011 23.2057C58.6687 20.0251 59.6173 17.2388 61.329 14.7692C64.7731 9.80015 71.3251 6.08918 79.2439 3.2211C86.919 1.17319 92.3054 3.51091 96.2192 7.26719ZM66.5165 37.7544C64.0167 37.6376 61.899 36.8361 60.7864 34.8942L60.7817 34.8859C58.3931 30.5864 57.2763 26.7152 57.2407 23.2206C57.2049 19.7163 58.2572 16.6373 60.1286 13.9372C63.8465 8.57311 70.7779 4.73066 78.7765 1.83705C78.796 1.83 78.8158 1.82378 78.8358 1.81841C87.0754 -0.39065 92.9858 2.13953 97.2305 6.21346C101.428 10.2421 103.988 15.7682 105.666 19.5592C108.348 25.6155 133.715 78.015 146.977 104.593C147.132 104.905 147.264 105.352 147.383 105.863C147.505 106.389 147.625 107.038 147.74 107.784C147.971 109.279 148.191 111.199 148.383 113.388C148.767 117.768 149.042 123.256 149.07 128.629C149.097 133.996 148.877 139.279 148.261 143.236C147.955 145.208 147.542 146.901 146.987 148.12C146.458 149.281 145.653 150.316 144.421 150.316C143.486 150.316 142.223 149.88 140.814 149.226C139.371 148.556 137.665 147.602 135.804 146.458C132.079 144.168 127.678 141.083 123.424 137.885C119.169 134.687 115.048 131.367 111.878 128.603C110.295 127.222 108.941 125.974 107.926 124.946C107.419 124.432 106.989 123.966 106.655 123.561C106.338 123.177 106.073 122.808 105.922 122.483L74.7684 63.5429C73.4916 61.136 72.2703 58.8101 71.3839 56.5642C70.4967 54.3161 69.9246 52.0997 69.9784 49.9043C70.0198 48.2134 70.4297 46.5776 71.2973 44.9797C70.3435 44.6669 69.5235 44.2401 68.8395 43.7147C66.9081 42.231 66.1737 40.0472 66.5165 37.7544ZM68.4522 36.2561C69.1953 34.4861 70.6854 32.6517 72.9349 31.1029C84.0359 23.4593 92.4551 20.1034 96.9909 19.4674C98.1233 19.3087 98.9583 19.3279 99.5116 19.4575C100.074 19.5891 100.193 19.7893 100.221 19.8751C100.261 19.997 100.265 20.3181 99.8756 20.9195C99.5001 21.4987 98.8338 22.2154 97.819 23.0438C93.7104 26.3978 85.6683 31.0113 78.1098 33.8255C74.5961 35.1338 71.2354 36.0344 68.4522 36.2561ZM73.685 44.0157C75.0965 42.2273 77.2666 40.4221 80.4519 38.5751C85.4916 35.653 90.2543 33.5114 94.2459 32.1138C98.259 30.7086 101.43 30.0777 103.306 30.1211C103.769 30.1318 104.124 30.1833 104.378 30.259C104.639 30.3363 104.739 30.422 104.77 30.4584C104.77 30.4591 104.771 30.4597 104.771 30.4604C104.782 30.4726 104.799 30.4927 104.786 30.5784C104.769 30.6965 104.694 30.9053 104.478 31.2148C104.044 31.8343 103.179 32.6657 101.758 33.7034C100.348 34.7325 98.4337 35.9341 95.9455 37.3036C88.75 41.2639 83.0171 43.2409 78.6561 43.8851C76.7154 44.1717 75.065 44.1923 73.685 44.0157Z" fill="#D287A5" stroke="#D287A5" stroke-linecap="round" stroke-linejoin="round"/>
<path fill-rule="evenodd" clip-rule="evenodd" d="M79.7793 49.1379C79.4224 49.3258 79.2855 49.7675 79.4735 50.1243L115.736 118.971C115.924 119.328 116.366 119.465 116.723 119.277C117.08 119.089 117.216 118.647 117.028 118.29L80.7657 49.4437C80.5777 49.0868 80.1361 48.9499 79.7793 49.1379Z" fill="#D287A5" stroke="#D287A5" stroke-linecap="round"/>
<path fill-rule="evenodd" clip-rule="evenodd" d="M91.1096 44.9821C90.7528 45.1701 90.6158 45.6117 90.8038 45.9686L127.067 114.815C127.255 115.172 127.696 115.309 128.053 115.121C128.41 114.933 128.547 114.491 128.359 114.134L92.096 45.2879C91.9081 44.9311 91.4664 44.7942 91.1096 44.9821Z" fill="#D287A5" stroke="#D287A5" stroke-linecap="round"/>
<path fill-rule="evenodd" clip-rule="evenodd" d="M100.644 38.123C100.287 38.3109 100.151 38.7526 100.338 39.1094L136.601 107.956C136.789 108.313 137.231 108.45 137.588 108.262C137.945 108.074 138.081 107.632 137.893 107.275L101.631 38.4288C101.443 38.0719 101.001 37.935 100.644 38.123Z" fill="#D287A5" stroke="#D287A5" stroke-linecap="round"/>
<path fill-rule="evenodd" clip-rule="evenodd" d="M236.475 171.837C244.739 176.452 257.8 187.494 270.303 201.815C279.766 212.653 288.654 229.95 295.896 250.611C303.144 271.29 308.769 295.41 311.666 319.954C311.727 320.468 311.36 320.933 310.847 320.993C310.334 321.054 309.869 320.687 309.808 320.174C306.926 295.76 301.331 271.774 294.13 251.23C286.923 230.668 278.131 213.626 268.894 203.046C256.462 188.807 243.565 177.94 235.563 173.471C233.561 172.353 231.926 171.67 230.717 171.413C229.44 171.142 229.013 171.409 228.878 171.591C228.792 171.709 228.692 171.945 228.694 172.402C228.696 172.86 228.8 173.477 229.053 174.276C229.558 175.875 230.606 178.049 232.32 180.865C232.89 181.801 233.446 182.701 233.99 183.565C236.908 185.566 239.423 187.592 241.547 189.538C246.555 194.128 249.466 198.344 250.316 200.806C250.525 201.411 250.657 202.041 250.562 202.587C250.512 202.879 250.386 203.204 250.113 203.463C249.832 203.731 249.485 203.841 249.158 203.856C248.569 203.883 247.951 203.609 247.385 203.262C246.782 202.892 246.084 202.342 245.296 201.61C242.467 198.981 238.196 193.731 232.614 184.892C228.773 182.288 224.217 179.725 218.913 177.452C214.179 175.424 210.745 174.374 208.368 174.064C205.918 173.744 204.956 174.245 204.607 174.769C204.418 175.052 204.301 175.477 204.337 176.112C204.373 176.75 204.561 177.537 204.912 178.467C205.614 180.328 206.908 182.602 208.623 185.117C209.649 186.622 210.816 188.198 212.079 189.805C220.421 194.209 227.137 199.676 231.68 204.327C233.49 206.179 234.964 207.912 236.065 209.409C237.152 210.887 237.917 212.192 238.251 213.181C238.408 213.648 238.53 214.211 238.383 214.726C238.301 215.014 238.131 215.298 237.841 215.5C237.562 215.695 237.252 215.76 236.981 215.765C236.471 215.774 235.913 215.579 235.367 215.313C234.795 215.034 234.125 214.62 233.357 214.071C230.31 211.895 225.481 207.467 220.566 202.34C217.217 198.845 213.801 194.998 210.857 191.277C206.143 188.82 200.908 186.717 195.258 185.32C191.329 184.348 188.814 184.216 187.364 184.586C186.665 184.765 186.295 185.04 186.097 185.315C185.901 185.588 185.787 185.982 185.839 186.572C185.946 187.81 186.752 189.577 188.242 191.761C189.708 193.911 191.751 196.347 194.166 198.898C196.771 201.651 199.789 204.519 202.94 207.282C211.473 209.485 219.294 213.573 224.367 217.134C225.998 218.279 227.364 219.382 228.387 220.366C229.377 221.318 230.151 222.254 230.45 223.07C230.602 223.484 230.699 224.054 230.399 224.586C230.093 225.129 229.539 225.339 229.068 225.411C228.157 225.549 226.817 225.293 225.113 224.739C221.545 223.58 215.886 219.98 209.976 215.467C207.354 213.464 204.659 211.264 202.045 208.985C199.855 208.438 197.621 208.022 195.383 207.781C191.208 207.331 188.639 207.521 187.237 208.078C186.564 208.346 186.247 208.664 186.099 208.955C185.95 209.248 185.897 209.661 186.046 210.268C186.356 211.534 187.448 213.251 189.242 215.34C191.008 217.397 193.355 219.705 196.021 222.146C199.25 225.103 202.89 228.207 206.48 231.269C208.838 233.28 211.175 235.273 213.36 237.194C216.1 239.603 218.592 241.892 220.541 243.929C222.462 245.936 223.953 247.796 224.571 249.34C224.855 250.052 225.052 250.676 225.15 251.214C225.245 251.737 225.264 252.273 225.093 252.749C224.899 253.288 224.493 253.653 223.971 253.809C223.509 253.946 223.011 253.905 222.563 253.813C221.66 253.626 220.533 253.132 219.305 252.505C218.058 251.868 216.623 251.049 215.086 250.157C214.751 249.963 214.411 249.765 214.066 249.565C211.228 247.914 208.081 246.083 204.974 244.604C201.467 242.935 198.148 241.784 195.483 241.784C194.61 241.784 194.197 241.955 194.018 242.101C193.893 242.203 193.772 242.381 193.8 242.844C193.829 243.338 194.029 244.03 194.448 244.943C194.86 245.843 195.454 246.894 196.209 248.089C198.075 251.042 200.81 254.707 203.955 258.921C205.946 261.589 208.102 264.477 210.304 267.544C215.946 275.398 221.828 284.336 225.743 293.403C229.653 302.459 231.654 311.767 229.365 320.306C229.231 320.805 228.718 321.102 228.219 320.968C227.72 320.834 227.423 320.321 227.557 319.822C229.688 311.872 227.863 303.033 224.025 294.145C220.192 285.268 214.406 276.462 208.784 268.635C206.642 265.653 204.513 262.8 202.529 260.14C199.341 255.867 196.526 252.094 194.627 249.088C193.85 247.858 193.207 246.729 192.746 245.723C192.292 244.73 191.981 243.79 191.932 242.956C191.88 242.09 192.11 241.243 192.835 240.651C193.506 240.103 194.442 239.913 195.483 239.913C198.592 239.913 202.232 241.227 205.778 242.915C208.96 244.429 212.177 246.301 215.007 247.947C215.352 248.148 215.692 248.346 216.024 248.539C217.564 249.432 218.959 250.227 220.156 250.839C221.373 251.46 222.306 251.849 222.942 251.98C223.14 252.021 223.27 252.029 223.347 252.026C223.354 251.94 223.352 251.789 223.309 251.549C223.242 251.18 223.093 250.684 222.833 250.035C222.363 248.86 221.108 247.228 219.189 245.222C217.297 243.246 214.854 240.999 212.125 238.6C209.988 236.721 207.669 234.743 205.316 232.736C201.698 229.65 198 226.495 194.757 223.526C192.072 221.066 189.66 218.7 187.822 216.559C186.011 214.45 184.652 212.444 184.228 210.713C184.01 209.822 184.019 208.918 184.431 208.107C184.845 207.293 185.589 206.719 186.546 206.339C188.406 205.6 191.377 205.467 195.583 205.92C196.797 206.051 198.008 206.231 199.211 206.454C196.928 204.363 194.756 202.244 192.806 200.184C190.354 197.593 188.238 195.077 186.696 192.815C185.177 190.588 184.127 188.482 183.974 186.735C183.896 185.832 184.051 184.955 184.578 184.222C185.104 183.492 185.912 183.026 186.901 182.773C188.829 182.281 191.732 182.52 195.707 183.503C200.19 184.612 204.415 186.151 208.333 187.955C207.896 187.352 207.476 186.757 207.077 186.171C205.328 183.608 203.939 181.191 203.161 179.128C202.771 178.096 202.519 177.112 202.468 176.218C202.418 175.322 202.567 174.454 203.05 173.73C204.044 172.241 206.049 171.874 208.61 172.208C211.244 172.552 214.864 173.681 219.65 175.732C223.616 177.432 227.177 179.292 230.347 181.215C228.812 178.631 227.797 176.514 227.268 174.84C226.983 173.936 226.826 173.122 226.823 172.41C226.82 171.697 226.972 171.024 227.372 170.481C228.21 169.343 229.696 169.283 231.107 169.583C232.585 169.898 234.411 170.684 236.475 171.837ZM206.453 210.273C208.009 211.561 209.573 212.804 211.112 213.979C217.027 218.497 222.46 221.909 225.691 222.96C227.21 223.453 228.143 223.598 228.633 223.575C228.436 223.174 227.95 222.542 227.09 221.715C226.154 220.816 224.869 219.773 223.292 218.666C219.158 215.764 213.148 212.508 206.453 210.273ZM228.724 223.825C228.724 223.825 228.723 223.822 228.723 223.818C228.724 223.823 228.724 223.825 228.724 223.825ZM228.89 223.537C228.893 223.536 228.896 223.535 228.896 223.535C228.896 223.535 228.894 223.536 228.89 223.537ZM215.385 193.835C217.48 196.291 219.709 198.741 221.917 201.045C226.809 206.149 231.542 210.475 234.444 212.549C235.164 213.063 235.742 213.414 236.188 213.631C236.294 213.683 236.388 213.725 236.471 213.759C236.226 213.047 235.601 211.937 234.557 210.518C233.517 209.103 232.102 207.436 230.341 205.634C226.693 201.899 221.605 197.625 215.385 193.835ZM236.879 188.019C241.102 194.313 244.358 198.184 246.57 200.24C247.306 200.923 247.903 201.385 248.363 201.666C248.478 201.737 248.581 201.794 248.671 201.839C248.644 201.723 248.605 201.583 248.547 201.417C247.847 199.388 245.202 195.425 240.283 190.918C239.246 189.968 238.113 188.998 236.879 188.019Z" fill="#A88DFF" stroke="#A88DFF" stroke-linecap="round" stroke-linejoin="round"/>
<path fill-rule="evenodd" clip-rule="evenodd" d="M75.306 74.8152C75.8406 75.5194 76.7475 75.9789 78.248 75.9075C81.4588 75.7546 85.7042 74.1273 89.8343 71.7458C93.9476 69.3739 97.8254 66.324 100.306 63.4493C101.551 62.0074 102.4 60.6589 102.781 59.5032C103.157 58.3622 103.048 57.5214 102.564 56.8996C102.045 56.2335 100.943 55.6129 98.8702 55.3046C96.8184 54.9995 93.9493 55.0214 90.0888 55.504C87.2311 55.8612 84.4152 56.4899 81.6453 57.3709C81.1605 57.9366 80.6985 58.5064 80.2599 59.0776C76.8219 63.5549 74.8898 68.0331 74.6046 71.2651C74.4618 72.8832 74.7405 74.0702 75.306 74.8152ZM78.6151 58.4416C75.2487 62.9365 73.2309 67.5496 72.9163 71.1161C72.7545 72.9497 73.0342 74.6257 73.956 75.84C74.9087 77.0951 76.4179 77.6914 78.3286 77.6004C81.94 77.4285 86.466 75.6446 90.681 73.2141C94.9127 70.7739 98.9536 67.6108 101.589 64.5567C102.903 63.0343 103.911 61.4894 104.391 60.0335C104.876 58.5628 104.848 57.0737 103.901 55.858C102.988 54.6866 101.364 53.9621 99.1196 53.6282C96.8542 53.2912 93.8148 53.3301 89.8786 53.8221C87.8527 54.0754 85.8501 54.4596 83.872 54.9677C91.121 47.7229 102.211 41.8205 115.89 43.1616C124.027 43.9593 128.463 46.7646 130.528 50.3454C132.608 53.9527 132.432 58.6015 130.766 63.4004C130.34 64.6264 129.82 65.8531 129.223 67.0627C122.592 66.6797 116.298 70.064 112.152 73.8546C110.688 75.1934 109.464 76.6049 108.56 77.9589C107.665 79.3006 107.049 80.6388 106.871 81.8264C106.69 83.0304 106.954 84.2324 108.023 84.9579C109.009 85.6276 110.46 85.7213 112.233 85.3836C115.905 84.6841 120.078 81.7685 123.718 77.8927C126.179 75.2712 128.449 72.1552 130.204 68.862C132.256 69.122 134.32 69.7933 136.332 70.9859C140.57 73.4972 142.1 76.1949 142.161 78.6837C142.181 79.5107 142.041 80.3465 141.76 81.1789C138.422 80.7312 134.238 81.7007 130.444 83.194C126.566 84.7206 122.929 86.8609 120.816 88.8353C120.283 89.3326 119.83 89.8362 119.491 90.3339C119.157 90.8245 118.902 91.3584 118.835 91.9096C118.764 92.4939 118.911 93.0676 119.326 93.541C119.717 93.986 120.284 94.2754 120.938 94.4622C123.476 95.1873 126.895 94.6248 130.217 93.3415C133.57 92.0462 136.982 89.9567 139.552 87.4293C140.88 86.1228 142.012 84.6693 142.782 83.122C143.717 83.403 144.477 83.8507 145.044 84.4731C145.81 85.3147 146.313 86.5747 146.313 88.4495C146.313 92.7491 145.664 96.3024 144.533 99.1396C144.341 99.1131 144.148 99.0905 143.953 99.0716C142.089 98.8908 140 99.0372 137.922 99.3905C133.779 100.095 129.523 101.65 126.969 103.278C126.326 103.688 125.766 104.118 125.336 104.561C124.918 104.992 124.56 105.501 124.442 106.074C124.311 106.711 124.501 107.317 124.97 107.794C125.397 108.23 126.029 108.534 126.779 108.755C132.514 110.441 137.872 109.625 141.794 106.138C143.289 104.81 144.55 103.115 145.538 101.065C146.41 101.301 147.129 101.647 147.671 102.103C148.499 102.8 149.001 103.827 148.913 105.398C148.822 107.013 148.103 109.193 146.428 112.063C143.161 117.663 137.027 121.096 129.49 125.017C129.046 125.248 128.597 125.481 128.144 125.716C120.985 129.429 112.828 133.658 105.326 140.619C89.3009 155.488 76.4585 182.6 81.342 243.155C81.3796 243.621 81.7883 243.969 82.2548 243.931C82.7213 243.894 83.069 243.485 83.0314 243.019C78.1688 182.722 90.991 156.232 106.478 141.862C113.807 135.062 121.776 130.928 128.956 127.204C129.398 126.975 129.837 126.747 130.273 126.52C137.721 122.645 144.337 119.012 147.892 112.917C149.629 109.939 150.493 107.489 150.605 105.493C150.72 103.452 150.045 101.885 148.762 100.806C148.048 100.206 147.177 99.7816 146.214 99.4954C147.375 96.4612 148.008 92.77 148.008 88.4495C148.008 86.2634 147.414 84.559 146.297 83.3321C145.519 82.4774 144.531 81.903 143.424 81.5471C143.724 80.6014 143.88 79.6294 143.855 78.6419C143.774 75.3643 141.73 72.2143 137.197 69.5277C135.153 68.317 133.074 67.5937 131.011 67.2586C131.527 66.1676 131.983 65.0631 132.367 63.9562C134.113 58.9278 134.424 53.7086 131.996 49.4988C129.553 45.2624 124.487 42.3014 116.056 41.4747C100.434 39.9432 88.0796 47.4572 80.6752 55.9028C69.2936 59.6391 58.7718 67.4617 49.3725 77.9653C37.4839 91.2508 27.3327 108.888 19.4418 128.191C3.67032 166.771 -3.15572 212.223 3.38908 243.262C3.48565 243.719 3.93519 244.012 4.39316 243.916C4.85112 243.819 5.1441 243.37 5.04753 242.912C-1.40431 212.314 5.31769 167.221 21.0107 128.832C28.8521 109.65 38.9122 92.1964 50.6356 79.0956C59.1801 69.5471 68.5772 62.344 78.6151 58.4416ZM143.796 100.759C143.794 100.759 143.791 100.759 143.789 100.759C142.12 100.597 140.188 100.724 138.206 101.061C134.227 101.738 130.199 103.229 127.88 104.707C127.305 105.074 126.86 105.424 126.553 105.74C126.235 106.068 126.127 106.297 126.102 106.415C126.091 106.47 126.084 106.51 126.179 106.607C126.315 106.745 126.628 106.943 127.258 107.129C132.569 108.691 137.281 107.883 140.668 104.872C141.873 103.801 142.931 102.433 143.796 100.759ZM141.034 82.8045C138.192 82.5657 134.558 83.3962 131.065 84.7711C127.309 86.2495 123.88 88.2919 121.973 90.0738C121.5 90.5156 121.139 90.9244 120.892 91.2874C120.64 91.6575 120.539 91.9326 120.517 92.1137C120.499 92.2616 120.531 92.3433 120.601 92.4236C120.696 92.5321 120.921 92.6945 121.404 92.8325C123.414 93.407 126.411 92.9948 129.606 91.7604C132.771 90.538 135.978 88.5666 138.363 86.221C139.474 85.1281 140.384 83.9776 141.034 82.8045ZM128.342 68.7359C122.598 68.6782 117.106 71.622 113.296 75.1055C111.918 76.3657 110.787 77.6751 109.97 78.8997C109.144 80.1366 108.674 81.235 108.547 82.0778C108.423 82.9042 108.637 83.3266 108.974 83.5555C109.394 83.8401 110.278 84.0306 111.916 83.7186C115.066 83.1186 118.934 80.5115 122.482 76.7325C124.684 74.3869 126.72 71.6363 128.342 68.7359Z" fill="#A88DFF" stroke="#A88DFF" stroke-linecap="round" stroke-linejoin="round"/>
</svg>
