<svg width="136" height="102" viewBox="0 0 136 102" fill="none" xmlns="http://www.w3.org/2000/svg">
<path d="M109.148 94.4193C127.759 81.4108 129.098 76.1046 116.027 79.6255C144.608 37.2108 117.054 14.4891 108.275 2.85127C103.491 -3.4907 83.0649 11.0788 86.7402 14.7541C117.428 45.4414 106.459 67.034 102.53 72.9967C95.312 62.5703 92.8673 63.0961 92.9238 82.6032C92.9806 102.21 95.8437 103.719 109.148 94.4193Z" fill="#FFD9D0"/>
<path fill-rule="evenodd" clip-rule="evenodd" d="M93.1005 13.1028C92.9237 13.7065 93.0249 14.0693 93.2692 14.3136C108.693 29.7372 113.713 42.9432 114.327 53.1098C114.94 63.2694 111.148 70.2914 109.139 73.3399C109.025 73.5129 108.833 73.6179 108.626 73.6203C108.419 73.6227 108.224 73.5221 108.106 73.3518C106.302 70.746 104.832 68.879 103.649 67.8208C103.054 67.2891 102.585 67.0101 102.228 66.9123C101.913 66.8262 101.695 66.8787 101.488 67.0523C101.241 67.26 100.968 67.6819 100.715 68.4399C100.466 69.1857 100.257 70.1905 100.093 71.4853C99.7638 74.0736 99.6213 77.7313 99.6354 82.6017C99.6496 87.4981 99.8396 91.2236 100.314 93.9212C100.795 96.6535 101.541 98.1615 102.513 98.8404C103.44 99.4874 104.782 99.5123 106.864 98.6756C108.933 97.8444 111.556 96.2317 114.88 93.9087C119.521 90.6642 123.072 87.9093 125.585 85.6605C126.842 84.536 127.831 83.5449 128.565 82.6882C129.304 81.8252 129.759 81.1268 129.979 80.5883C130.203 80.0422 130.139 79.7828 130.063 79.6627C129.976 79.5253 129.728 79.3328 129.083 79.2395C127.799 79.0539 125.542 79.3482 122.277 80.2276C122.026 80.2953 121.759 80.1998 121.608 79.9882C121.457 79.7765 121.453 79.4932 121.598 79.2775C135.794 58.2104 136 42.1312 131.662 29.9058C128.3 20.4316 122.226 13.2538 117.566 7.74792C116.168 6.09606 114.897 4.59467 113.866 3.22692C112.898 1.94471 111.06 1.61042 108.591 2.129C106.159 2.63986 103.343 3.94177 100.756 5.57365C98.1704 7.20494 95.869 9.13137 94.4506 10.8491C93.7373 11.7129 93.2823 12.4823 93.1005 13.1028ZM108.335 0.909005C110.927 0.364622 113.436 0.587383 114.861 2.47616C115.835 3.76832 117.061 5.21572 118.426 6.82743C123.094 12.3392 129.389 19.7726 132.837 29.4889C137.23 41.8698 137.028 57.9305 123.526 78.6259C126.026 78.0381 127.962 77.8178 129.261 78.0057C130.038 78.118 130.738 78.3981 131.117 78.9961C131.506 79.6113 131.424 80.3498 131.133 81.06C130.84 81.7777 130.287 82.5939 129.511 83.4992C128.73 84.411 127.698 85.4421 126.417 86.5894C123.852 88.8841 120.257 91.6708 115.594 94.9305C112.265 97.2575 109.541 98.9436 107.329 99.8323C105.131 100.715 103.259 100.881 101.8 99.8626C100.386 98.8759 99.5743 96.9115 99.0863 94.1371C98.5922 91.3279 98.403 87.5123 98.3888 82.6053C98.3747 77.7222 98.5166 73.999 98.8559 71.3282C99.0254 69.9933 99.2469 68.899 99.5324 68.0448C99.8138 67.2027 100.18 66.5237 100.686 66.0981C101.233 65.6384 101.882 65.5253 102.557 65.71C103.189 65.883 103.831 66.3111 104.48 66.8916C105.652 67.9402 107.018 69.6448 108.594 71.8739C110.581 68.6296 113.626 62.1934 113.082 53.185C112.491 43.3928 107.652 30.4589 92.3877 15.1951C91.7132 14.5206 91.6488 13.6241 91.9042 12.7523C92.1547 11.8974 92.7298 10.9751 93.4894 10.0553C95.0166 8.20576 97.4316 6.19707 100.091 4.51932C102.749 2.84216 105.707 1.4611 108.335 0.909005Z" fill="#FEBD6D" stroke="#FEBD6D" stroke-linecap="round" stroke-linejoin="round"/>
<path d="M27.2404 6.70544C8.62991 19.714 7.29109 25.0202 20.362 21.4993C-8.21963 63.914 19.3347 86.6357 28.1139 98.2735C32.8981 104.615 53.3238 90.0459 49.6486 86.3707C18.961 55.6834 29.9299 34.0908 33.8584 28.128C41.0767 38.5545 43.5215 38.0287 43.465 18.5215C43.4081 -1.08513 40.5451 -2.59444 27.2404 6.70544Z" fill="#FFD9D0"/>
<path fill-rule="evenodd" clip-rule="evenodd" d="M43.2886 88.0222C43.4654 87.4185 43.3642 87.0557 43.1199 86.8114C27.6962 71.3879 22.6763 58.1818 22.0623 48.0152C21.4488 37.8556 25.2415 30.8336 27.25 27.7851C27.3639 27.6122 27.5563 27.5071 27.7633 27.5047C27.9704 27.5024 28.1651 27.603 28.283 27.7732C30.087 30.379 31.5571 32.246 32.7402 33.3042C33.3346 33.8359 33.8043 34.1149 34.1616 34.2127C34.4764 34.2988 34.6942 34.2463 34.9007 34.0728C35.1477 33.8651 35.421 33.4432 35.6744 32.6851C35.9236 31.9393 36.1321 30.9345 36.2965 29.6398C36.6253 27.0515 36.7678 23.3937 36.7537 18.5233C36.7395 13.6269 36.5495 9.9014 36.075 7.20385C35.5944 4.47152 34.8484 2.9635 33.8759 2.28458C32.9491 1.63757 31.6074 1.61268 29.5248 2.44945C27.4562 3.28062 24.8328 4.89329 21.5095 7.21627C16.8677 10.4608 13.3167 13.2157 10.8039 15.4645C9.54751 16.589 8.55835 17.5801 7.82456 18.4368C7.08529 19.2998 6.62982 19.9982 6.40964 20.5367C6.18641 21.0828 6.24999 21.3423 6.32598 21.4623C6.4129 21.5997 6.66148 21.7922 7.30657 21.8855C8.59002 22.0711 10.8471 21.7768 14.1119 20.8974C14.3631 20.8297 14.6299 20.9252 14.7811 21.1368C14.9324 21.3485 14.9363 21.6318 14.7909 21.8476C0.594651 42.9146 0.388853 58.9938 4.72708 71.2192C8.089 80.6934 14.1636 87.8712 18.8232 93.3771C20.2212 95.029 21.4918 96.5303 22.5236 97.8981C23.4908 99.1803 25.329 99.5146 27.7978 98.996C30.2299 98.4852 33.0464 97.1832 35.633 95.5514C38.2187 93.9201 40.5201 91.9937 41.9385 90.276C42.6518 89.4121 43.1068 88.6428 43.2886 88.0222ZM28.0541 100.216C25.4624 100.76 22.9532 100.538 21.5284 98.6488C20.5536 97.3567 19.3278 95.9093 17.9629 94.2976C13.2952 88.7858 7.00009 81.3524 3.55224 71.6361C-0.841172 59.2552 -0.639158 43.1945 12.863 22.4992C10.3629 23.087 8.42749 23.3072 7.12817 23.1193C6.35146 23.007 5.65091 22.7269 5.27255 22.1289C4.88325 21.5137 4.96539 20.7752 5.25573 20.065C5.54913 19.3473 6.10227 18.5311 6.8778 17.6258C7.6588 16.714 8.69064 15.6829 9.97258 14.5356C12.5366 12.2409 16.1319 9.45423 20.7953 6.19452C24.1243 3.86755 26.8482 2.18143 29.06 1.29272C31.258 0.409606 33.1303 0.243728 34.5895 1.2624C36.0029 2.24915 36.8148 4.21347 37.3028 6.9879C37.7969 9.79709 37.9861 13.6127 38.0003 18.5197C38.0144 23.4028 37.8725 27.126 37.5332 29.7969C37.3637 31.1317 37.1422 32.226 36.8567 33.0803C36.5753 33.9223 36.2091 34.6014 35.7029 35.0269C35.1561 35.4866 34.5071 35.5997 33.8325 35.4151C33.2003 35.2421 32.5581 34.8139 31.9091 34.2334C30.7367 33.1848 29.3713 31.4802 27.7953 29.2511C25.8085 32.4954 22.7627 38.9316 23.3067 47.94C23.898 57.7323 28.7375 70.6662 44.0014 85.9299C44.6759 86.6045 44.7403 87.5009 44.4849 88.3727C44.2344 89.2276 43.6593 90.1499 42.8997 91.0697C41.3725 92.9193 38.9575 94.9279 36.2982 96.6057C33.6398 98.2829 30.6825 99.6639 28.0541 100.216Z" fill="#FEBD6D" stroke="#FEBD6D" stroke-linecap="round" stroke-linejoin="round"/>
</svg>
