<svg width="209" height="57" viewBox="0 0 209 57" fill="none" xmlns="http://www.w3.org/2000/svg">
<path d="M170.144 28.3507C171.329 5.53863 153.654 7.83991 139.549 5.44674C123.838 2.79358 116.304 11.294 114.716 26.4022C114.072 33.757 112.615 49.4829 120.857 51.7428C161.207 55.5979 168.989 50.5865 170.144 28.3507Z" fill="#D287A5"/>
<path fill-rule="evenodd" clip-rule="evenodd" d="M111.894 25.7072C112.419 20.7115 113.056 17.0956 113.851 14.4536C114.646 11.8148 115.571 10.2442 116.612 9.24188C117.637 8.25405 118.891 7.70387 120.585 7.32996C121.869 7.04669 123.299 6.88279 125.001 6.68774C125.62 6.61678 126.275 6.54169 126.973 6.45523C129.537 6.13726 131.581 5.88715 133.306 5.94155C134.997 5.99485 136.229 6.33984 137.225 7.10072C138.236 7.87315 139.168 9.201 139.988 11.5496C140.809 13.901 141.479 17.1621 142.037 21.6638C142.683 26.8674 143.004 31.4174 142.848 35.2908C142.692 39.1723 142.06 42.2855 140.865 44.6697C139.69 47.0146 137.95 48.6986 135.448 49.7331C132.905 50.7844 129.493 51.1969 124.957 50.81C120.326 50.4151 117.149 49.824 114.975 48.9137C112.876 48.0347 111.778 46.8894 111.177 45.3211C110.535 43.6449 110.406 41.3518 110.62 38.066C110.762 35.8733 111.046 33.355 111.378 30.4057C111.542 28.9489 111.718 27.387 111.894 25.7072ZM124.822 4.00989L124.822 4.00989C123.068 4.21061 121.438 4.39725 120.008 4.71285C118.037 5.14779 116.259 5.85962 114.752 7.31202C113.26 8.74991 112.153 10.7978 111.285 13.6807C110.418 16.5604 109.76 20.3695 109.229 25.4271C109.059 27.0454 108.886 28.5764 108.724 30.0207C108.387 33.0145 108.092 35.636 107.945 37.8921C107.728 41.2264 107.81 44.0234 108.674 46.2799C109.58 48.6442 111.285 50.2741 113.94 51.3858C116.52 52.4662 120.048 53.0812 124.729 53.4804C129.505 53.8877 133.389 53.4841 136.471 52.2099C139.594 50.919 141.808 48.7683 143.261 45.8705C144.694 43.012 145.362 39.4746 145.526 35.3985C145.69 31.3144 145.35 26.6001 144.697 21.3339C144.13 16.7616 143.432 13.2822 142.519 10.6661C141.604 8.04713 140.435 6.18053 138.852 4.97119C137.255 3.7503 135.402 3.32622 133.391 3.26278C131.435 3.20112 129.189 3.47966 126.725 3.78528L126.643 3.7955C126.024 3.87229 125.416 3.94189 124.822 4.00989ZM118.86 16.1171C122.2 15.5513 127.534 15.2413 131.271 15.1721L131.293 15.1717L131.316 15.1721C133.281 15.2015 134.757 15.3084 135.799 15.4831C136.315 15.5697 136.779 15.6816 137.162 15.8347C137.482 15.9629 138.03 16.228 138.325 16.7969C138.496 17.1264 138.551 17.502 138.475 17.8713C138.404 18.213 138.238 18.473 138.091 18.6493C137.814 18.9833 137.441 19.2181 137.131 19.3828C136.478 19.7296 135.567 20.0415 134.55 20.3132C132.487 20.8644 129.676 21.3306 126.828 21.5298C123.996 21.7279 121.015 21.6703 118.652 21.1101C117.545 20.8476 116.678 20.576 116.083 20.2723C115.799 20.1272 115.445 19.9101 115.183 19.5762C114.866 19.1723 114.673 18.5575 114.947 17.9156C115.158 17.421 115.56 17.1426 115.793 17.0046C116.062 16.8451 116.368 16.7223 116.664 16.6235C117.263 16.4243 118.025 16.2585 118.86 16.1171ZM119.994 18.6514C121.878 18.9857 124.241 19.0242 126.641 18.8563C129.004 18.691 131.317 18.3322 133.114 17.9102C132.58 17.8825 131.977 17.8626 131.298 17.8522C127.862 17.9166 123.157 18.1867 119.994 18.6514ZM136.236 18.3562C136.236 18.3565 136.227 18.3522 136.212 18.3426C136.23 18.3512 136.237 18.356 136.236 18.3562ZM116.933 34.1574C120.285 33.5062 125.653 33.0248 129.425 32.955L129.448 32.9545L129.47 32.9549C133.375 33.0133 136.134 33.4569 137.66 34.1694C138.055 34.3538 138.443 34.59 138.752 34.9042C139.068 35.2255 139.362 35.6964 139.376 36.3004C139.39 36.9045 139.118 37.3871 138.82 37.7193C138.529 38.0439 138.158 38.2921 137.785 38.4868C136.342 39.2392 133.767 39.7406 130.349 39.8742C126.871 40.0102 122.354 39.7703 116.907 38.9128C115.787 38.7363 114.913 38.5389 114.312 38.2989C114.031 38.1868 113.658 38.008 113.369 37.7016C113.211 37.5344 113.035 37.2842 112.957 36.9461C112.875 36.5894 112.927 36.2465 113.054 35.9611C113.273 35.4713 113.686 35.2028 113.898 35.0797C114.157 34.9285 114.454 34.8069 114.747 34.7061C115.338 34.5023 116.095 34.3203 116.933 34.1574ZM115.245 37.3965C115.232 37.4064 115.224 37.4111 115.223 37.411C115.222 37.4108 115.229 37.4059 115.245 37.3965ZM119.027 36.5173C122.157 36.0402 126.354 35.6936 129.453 35.635C132.646 35.6842 134.747 36.0028 135.924 36.3705C134.837 36.7457 132.958 37.0901 130.245 37.1962C127.327 37.3102 123.564 37.1451 119.027 36.5173Z" fill="#A5B8FD"/>
<path fill-rule="evenodd" clip-rule="evenodd" d="M57.2445 51.7309C66.2 53.2645 73.1613 51.618 78.1565 48.0292C80.1718 46.5813 81.8419 44.8352 83.1824 42.8921C85.8421 42.5342 88.3491 42.0572 90.4385 41.4641C92.6315 40.8416 94.6154 40.0257 95.7466 38.9027C96.3458 38.3078 96.821 37.5089 96.7901 36.5291C96.7598 35.5716 96.2542 34.749 95.5747 34.0711C93.917 32.4174 91.2535 31.4444 88.3591 30.8515C88.0246 30.783 87.6839 30.7189 87.3379 30.6592C87.42 29.5108 87.4294 28.3533 87.3669 27.199C91.5727 26.7362 94.756 26.2521 97.0207 25.6448C98.7293 25.1866 100.13 24.6069 101.034 23.7467C101.511 23.2929 101.866 22.7458 102.034 22.0995C102.2 21.4591 102.158 20.8177 101.994 20.2088C101.684 19.0523 100.808 18.2061 99.8356 17.5887C98.8461 16.9607 97.5864 16.4591 96.1973 16.051C93.4119 15.2325 89.8437 14.7154 86.2091 14.4217C85.2026 14.3403 84.1863 14.2758 83.1744 14.2268C80.5533 10.3457 76.7345 7.37531 71.7725 6.20229L71.7307 6.1924L71.6883 6.18521C64.7913 5.01574 56.8133 6.21263 50.0651 9.27671C43.7484 12.1449 38.321 16.7416 35.9804 22.7921L1.34005 22.7921C0.599959 22.7921 9.53674e-07 23.392 9.53674e-07 24.1321C9.53674e-07 24.8722 0.599959 25.4722 1.34005 25.4722L35.1306 25.4722C34.6308 27.2893 34.2579 29.083 34.0744 30.8324L1.34005 30.8324C0.599958 30.8324 0 31.4323 0 32.1724C0 32.9125 0.599958 33.5125 1.34005 33.5125L33.9504 33.5125C33.9985 36.2813 34.6361 38.9037 36.1339 41.2895C39.2585 46.2665 45.8553 49.7806 57.2445 51.7309ZM84.6804 30.2912C84.7429 29.3513 84.7517 28.4106 84.708 27.4762C83.1963 27.6261 81.573 27.776 79.8344 27.9293L79.2465 27.9812L65.5928 15.4699L68.0176 14.869C69.5937 14.4783 72.361 14.2288 75.5554 14.1411C76.867 14.1051 78.2687 14.096 79.7154 14.1176C78.5568 12.7594 77.2086 11.587 75.6824 10.6613C73.8701 9.65261 72.1027 9.43141 70.4004 9.77871C68.627 10.1405 66.8391 11.1388 65.1214 12.6841C61.6725 15.7869 58.728 20.9003 57.0174 26.4374C55.3043 31.9828 54.8995 37.7223 56.2728 42.054C56.9531 44.2 58.0555 45.9608 59.6126 47.2172C61.1628 48.4681 63.252 49.2908 66.0359 49.4209L66.0309 49.5291C70.3672 49.169 73.8623 47.8142 76.5927 45.8526C77.6458 45.096 78.5943 44.2426 79.4397 43.3101C77.5342 43.4819 75.6139 43.5957 73.7672 43.6502L73.2524 43.6654L58.9334 31.4963L61.8222 31.0447C64.9674 30.553 71.8242 29.8421 78.6058 29.9434C80.6574 29.9741 82.7192 30.0792 84.6804 30.2912ZM96.3266 23.0562C94.2382 23.6162 91.222 24.078 87.0932 24.5325C86.6947 21.9062 85.9189 19.3468 84.775 17.0032C85.1822 17.0304 85.5886 17.0603 85.9932 17.093C89.5507 17.3805 92.9111 17.8788 95.4417 18.6224C96.7106 18.9952 97.7057 19.4113 98.3993 19.8515C99.1097 20.3024 99.3447 20.6752 99.4056 20.9025C99.4772 21.1699 99.4646 21.3296 99.4396 21.4258C99.4162 21.5159 99.359 21.6408 99.1862 21.8052C98.791 22.1812 97.9435 22.6225 96.3266 23.0562ZM84.4384 24.8094C83.9923 21.9555 83.0494 19.2293 81.6505 16.8461C79.5473 16.7738 77.4932 16.7691 75.6289 16.8202C73.985 16.8654 72.5176 16.9534 71.3078 17.0716L80.1866 25.2075C81.7021 25.0724 83.1179 24.9404 84.4384 24.8094ZM84.3571 32.952C82.517 32.7545 80.5541 32.6529 78.5657 32.6232C73.6425 32.5496 68.666 32.9174 65.2001 33.3049L74.2013 40.9546C76.6464 40.8681 79.1853 40.6773 81.6097 40.3896C82.976 38.1303 83.8875 35.5951 84.3571 32.952ZM57.6663 49.084C55.7653 47.455 54.4879 45.2926 53.718 42.864C52.1206 37.8254 52.6518 31.489 54.4567 25.6463C56.2643 19.7953 59.4199 14.2083 63.3289 10.6916C64.3188 9.8011 65.3709 9.03113 66.4748 8.42474C61.3793 8.39206 55.9536 9.54642 51.1731 11.717C44.8464 14.5897 39.8636 19.137 38.1188 24.7996C36.248 30.8711 35.9181 35.9051 38.4038 39.8645C40.9004 43.8412 46.5093 47.1691 57.6663 49.084ZM84.9081 39.9243C85.915 37.8464 86.6097 35.6254 87.007 33.3579L87.013 33.3231C87.2871 33.3716 87.5566 33.4229 87.8213 33.4771C90.5897 34.0442 92.6002 34.8894 93.6818 35.9685C94.0952 36.3808 94.1107 36.5933 94.1113 36.6138C94.1117 36.6262 94.1114 36.6523 94.0856 36.7065C94.0565 36.7676 93.9924 36.8676 93.8584 37.0007C93.2535 37.6012 91.8668 38.2727 89.7066 38.8859C88.2983 39.2856 86.6666 39.6329 84.9081 39.9243Z" fill="#A5B8FD"/>
<path fill-rule="evenodd" clip-rule="evenodd" d="M169.252 24.1321L206.813 24.1321L204.133 32.1724L169.252 32.1724L169.252 24.1321Z" fill="#D287A5"/>
<path fill-rule="evenodd" clip-rule="evenodd" d="M205.405 32.5962C205.222 33.1434 204.71 33.5125 204.133 33.5125L169.252 33.5125C168.512 33.5125 167.912 32.9125 167.912 32.1725L167.912 24.1322C167.912 23.3921 168.512 22.7921 169.252 22.7921L206.813 22.7921C207.244 22.7921 207.649 22.9992 207.9 23.3486C208.152 23.6981 208.221 24.1473 208.085 24.5559L205.405 32.5962ZM203.167 30.8324L204.954 25.4722L170.592 25.4722L170.592 30.8324L203.167 30.8324Z" fill="#D287A5"/>
</svg>
