<svg width="200" height="297" viewBox="0 0 200 297" fill="none" xmlns="http://www.w3.org/2000/svg">
<path d="M102.889 126.981C133.872 127.736 127.071 81.9645 127.071 50.9819C176.946 -15.8413 62.4078 21.942 43.516 27.2318C24.6242 32.5216 20.1382 85.3059 17.9307 105.822C16.3785 120.248 6.3436 238.82 0.550049 296.251H138.547L130.308 256.051C138.547 252.847 186.654 181.79 182.944 166.079C176.192 137.481 151.916 181.79 151.916 181.79C151.916 181.79 154.472 169.704 150.666 169.704C146.859 169.704 130.308 200.59 118.339 198.383L102.889 126.981Z" fill="#FFD9D0"/>
<path fill-rule="evenodd" clip-rule="evenodd" d="M112.955 154.478C113.174 154.635 113.315 154.879 113.342 155.147L115.531 177.161C115.557 177.417 115.475 177.674 115.305 177.868L106.215 188.289C105.928 188.617 105.453 188.704 105.068 188.499L92.5386 181.794C92.2556 181.643 92.07 181.357 92.0468 181.037L90.5438 160.245C90.5106 159.786 90.815 159.372 91.2622 159.266L112.196 154.329C112.459 154.267 112.735 154.322 112.955 154.478ZM92.4676 160.905L93.8761 180.388L105.294 186.497L113.629 176.943L111.586 156.396L92.4676 160.905Z" fill="#A7C5C3" stroke="#A7C5C3" stroke-linecap="round" stroke-linejoin="round"/>
<path fill-rule="evenodd" clip-rule="evenodd" d="M113.447 156.915C113.438 157.869 113.43 158.761 113.43 159.556V159.561C113.43 161.375 113.43 165.817 113.173 169.813C113.045 171.806 112.85 173.73 112.55 175.17C112.401 175.883 112.214 176.539 111.965 177.038C111.757 177.455 111.302 178.167 110.455 178.167C109.745 178.167 109.319 177.61 109.123 177.302C108.881 176.924 108.674 176.425 108.489 175.871C108.116 174.749 107.768 173.188 107.455 171.363C106.826 167.701 106.312 162.836 106.025 157.969C105.738 153.105 105.675 148.201 105.959 144.466C106.101 142.608 106.332 140.988 106.685 139.796C106.86 139.204 107.082 138.659 107.377 138.234C107.672 137.812 108.124 137.394 108.771 137.326C109.607 137.238 110.33 137.529 110.899 138.06C111.439 138.564 111.829 139.269 112.125 140.038C112.717 141.577 113.043 143.685 113.229 145.94C113.518 149.46 113.479 153.576 113.447 156.915ZM109.013 139.183C109.233 139.171 109.419 139.239 109.622 139.428C109.869 139.659 110.132 140.069 110.378 140.71C110.87 141.989 111.181 143.875 111.364 146.094C111.645 149.518 111.608 153.506 111.576 156.837C111.567 157.809 111.559 158.726 111.559 159.556C111.559 161.371 111.558 165.762 111.306 169.693C111.179 171.665 110.991 173.481 110.718 174.788C110.633 175.197 110.543 175.533 110.454 175.797C110.394 175.65 110.331 175.478 110.265 175.279C109.936 174.292 109.607 172.84 109.299 171.047C108.686 167.472 108.178 162.679 107.893 157.859C107.608 153.036 107.55 148.225 107.825 144.609C107.963 142.792 108.182 141.328 108.479 140.327C108.628 139.822 108.781 139.493 108.913 139.304C108.959 139.237 108.993 139.201 109.013 139.183ZM110.172 176.393C110.172 176.392 110.177 176.386 110.188 176.377C110.178 176.39 110.173 176.394 110.172 176.393ZM110.769 176.392C110.781 176.401 110.787 176.408 110.787 176.409C110.787 176.41 110.781 176.405 110.769 176.392ZM109.028 139.171C109.031 139.169 109.033 139.168 109.033 139.168C109.033 139.168 109.031 139.169 109.028 139.171Z" fill="#A7C5C3" stroke="#A7C5C3" stroke-linecap="round" stroke-linejoin="round"/>
<path fill-rule="evenodd" clip-rule="evenodd" d="M98.9751 145.604C97.7678 145.78 96.451 147.068 96.6012 149.13C96.8625 152.72 97.5495 159.504 98.1729 165.405C98.4843 168.352 98.7793 171.074 98.9965 173.06C99.1051 174.052 99.1942 174.861 99.2561 175.421L99.3167 175.967L102.035 178.686L104.038 174.847L101.76 149.27C101.636 147.654 101.16 146.699 100.65 146.182C100.155 145.681 99.5605 145.519 98.9751 145.604ZM98.423 176.397C97.4931 176.5 97.4931 176.5 97.4931 176.5L97.3962 175.627C97.3342 175.066 97.245 174.257 97.1363 173.263C96.919 171.276 96.6237 168.552 96.312 165.601C95.6893 159.707 94.9988 152.892 94.7348 149.266C94.5197 146.31 96.4447 144.081 98.7059 143.752C99.8546 143.585 101.051 143.925 101.981 144.867C102.895 145.793 103.478 147.222 103.625 149.121L105.926 174.954C105.942 175.132 105.907 175.311 105.824 175.47L103.105 180.681C102.967 180.945 102.712 181.128 102.417 181.173C102.123 181.219 101.824 181.121 101.614 180.91L97.7614 177.058C97.6113 176.908 97.5167 176.711 97.4931 176.5L98.423 176.397Z" fill="#A7C5C3"/>
<path d="M97.4931 176.5C97.4931 176.5 97.4931 176.5 98.423 176.397L97.4931 176.5ZM97.4931 176.5C97.5167 176.711 97.6113 176.908 97.7614 177.058L101.614 180.91C101.824 181.121 102.123 181.219 102.417 181.173C102.712 181.128 102.967 180.945 103.105 180.681L105.824 175.47C105.907 175.311 105.942 175.132 105.926 174.954L103.625 149.121C103.478 147.222 102.895 145.793 101.981 144.867C101.051 143.925 99.8546 143.585 98.7059 143.752C96.4447 144.081 94.5197 146.31 94.7348 149.266C94.9988 152.892 95.6893 159.707 96.312 165.601C96.6237 168.552 96.919 171.276 97.1363 173.263C97.245 174.257 97.3342 175.066 97.3962 175.627L97.4931 176.5ZM96.6012 149.13C96.451 147.068 97.7678 145.78 98.9751 145.604C99.5605 145.519 100.155 145.681 100.65 146.182C101.16 146.699 101.636 147.654 101.76 149.27L104.038 174.847L102.035 178.686L99.3167 175.967L99.2561 175.421C99.1942 174.861 99.1051 174.052 98.9965 173.06C98.7793 171.074 98.4843 168.352 98.1729 165.405C97.5495 159.504 96.8625 152.72 96.6012 149.13Z" stroke="#A7C5C3" stroke-linecap="round" stroke-linejoin="round"/>
<path d="M188.625 165.747L199.45 102.903C185.618 106.211 176.898 116.735 166.674 128.762C147.43 121.305 121.496 120.965 110.475 125.649V187.917L164.569 195.516L188.625 165.747Z" fill="#F7F7F9"/>
<path fill-rule="evenodd" clip-rule="evenodd" d="M189.246 100.035C191.665 98.8521 194.015 98.1188 196.111 98.1188C196.389 98.1188 196.653 98.2428 196.831 98.4572C197.009 98.6715 197.082 98.9539 197.03 99.2276C194.988 110.067 192.159 126.712 189.839 140.655C188.679 147.624 187.647 153.916 186.904 158.465C186.533 160.74 186.235 162.579 186.029 163.849L185.71 165.818C185.71 165.819 185.71 165.82 184.786 165.672L185.71 165.82C185.683 165.988 185.611 166.145 185.502 166.274L163.826 192.013C163.618 192.259 163.298 192.382 162.979 192.336L116.745 185.775C116.284 185.71 115.941 185.315 115.941 184.849H116.877C115.941 184.849 115.941 184.849 115.941 184.849V120.756C115.941 120.497 116.048 120.25 116.236 120.074C117.619 118.775 119.878 117.984 122.534 117.521C125.227 117.052 128.483 116.894 132.012 116.98C139.073 117.151 147.341 118.3 154.611 119.98C158.22 120.813 161.597 121.781 164.469 122.831C165.368 121.533 166.382 120.188 167.483 118.828C171.44 113.94 176.573 108.796 181.686 104.865C184.243 102.9 186.814 101.223 189.246 100.035ZM163.401 124.435C163.099 124.91 162.815 125.376 162.55 125.832C161.306 127.972 160.446 129.965 160.226 131.585C160.115 132.401 160.155 133.207 160.47 133.905C160.8 134.636 161.391 135.157 162.183 135.432C162.942 135.697 163.859 135.729 164.895 135.587C165.939 135.445 167.168 135.116 168.59 134.597C170.018 134.075 171.153 133.512 171.993 132.9C172.829 132.29 173.44 131.582 173.694 130.752C174.233 128.992 173.014 127.459 171.459 126.292C170.167 125.322 168.38 124.395 166.266 123.527C167.069 122.388 167.965 121.206 168.937 120.005C172.812 115.218 177.842 110.18 182.827 106.349C185.319 104.433 187.781 102.833 190.068 101.716C191.871 100.835 193.523 100.274 194.968 100.073C192.943 110.936 190.23 126.907 187.993 140.347C186.833 147.319 185.8 153.613 185.058 158.164C184.686 160.439 184.388 162.279 184.182 163.55L183.904 165.267L162.728 190.411L117.812 184.037L117.812 121.186C118.833 120.395 120.531 119.77 122.856 119.365C125.384 118.924 128.508 118.767 131.967 118.85C138.882 119.018 147.023 120.147 154.19 121.803C157.565 122.582 160.71 123.476 163.401 124.435ZM165.192 125.111C167.391 125.99 169.148 126.897 170.336 127.789C171.826 128.906 172.059 129.702 171.905 130.204C171.813 130.506 171.542 130.913 170.89 131.388C170.243 131.86 169.285 132.351 167.948 132.839C166.603 133.33 165.511 133.615 164.642 133.733C163.764 133.854 163.174 133.796 162.798 133.665C162.454 133.545 162.279 133.365 162.176 133.135C162.057 132.872 161.996 132.456 162.08 131.837C162.25 130.587 162.96 128.851 164.168 126.772C164.48 126.234 164.822 125.68 165.192 125.111Z" fill="#A7C5C3"/>
<path d="M115.941 184.849C115.941 185.315 116.284 185.71 116.745 185.775L162.979 192.336C163.298 192.382 163.618 192.259 163.826 192.013L185.502 166.274C185.611 166.145 185.683 165.988 185.71 165.82L184.786 165.672C185.71 165.82 185.71 165.819 185.71 165.818L186.029 163.849C186.235 162.579 186.533 160.74 186.904 158.465C187.647 153.916 188.679 147.624 189.839 140.655C192.159 126.712 194.988 110.067 197.03 99.2276C197.082 98.9539 197.009 98.6715 196.831 98.4572C196.653 98.2428 196.389 98.1188 196.111 98.1188C194.015 98.1188 191.665 98.8521 189.246 100.035C186.814 101.223 184.243 102.9 181.686 104.865C176.573 108.796 171.44 113.94 167.483 118.828C166.382 120.188 165.368 121.533 164.469 122.831C161.597 121.781 158.22 120.813 154.611 119.98C147.341 118.3 139.073 117.151 132.012 116.98C128.483 116.894 125.227 117.052 122.534 117.521C119.878 117.984 117.619 118.775 116.236 120.074C116.048 120.25 115.941 120.497 115.941 120.756V184.849ZM115.941 184.849H116.877C115.941 184.849 115.941 184.849 115.941 184.849ZM163.401 124.435C163.099 124.91 162.815 125.376 162.55 125.832C161.306 127.972 160.446 129.965 160.226 131.585C160.115 132.401 160.155 133.207 160.47 133.905C160.8 134.636 161.391 135.157 162.183 135.432C162.942 135.697 163.859 135.729 164.895 135.587C165.939 135.445 167.168 135.116 168.59 134.597C170.018 134.075 171.153 133.512 171.993 132.9C172.829 132.29 173.44 131.582 173.694 130.752C174.233 128.992 173.014 127.459 171.459 126.292C170.167 125.322 168.38 124.395 166.266 123.527C167.069 122.388 167.965 121.206 168.937 120.005C172.812 115.218 177.842 110.18 182.827 106.349C185.319 104.433 187.781 102.833 190.068 101.716C191.871 100.835 193.523 100.274 194.968 100.073C192.943 110.936 190.23 126.907 187.993 140.347C186.833 147.319 185.8 153.613 185.058 158.164C184.686 160.439 184.388 162.279 184.182 163.55L183.904 165.267L162.728 190.411L117.812 184.037L117.812 121.186C118.833 120.395 120.531 119.77 122.856 119.365C125.384 118.924 128.508 118.767 131.967 118.85C138.882 119.018 147.023 120.147 154.19 121.803C157.565 122.582 160.71 123.476 163.401 124.435ZM165.192 125.111C167.391 125.99 169.148 126.897 170.336 127.789C171.826 128.906 172.059 129.702 171.905 130.204C171.813 130.506 171.542 130.913 170.89 131.388C170.243 131.86 169.285 132.351 167.948 132.839C166.603 133.33 165.511 133.615 164.642 133.733C163.764 133.854 163.174 133.796 162.798 133.665C162.454 133.545 162.279 133.365 162.176 133.135C162.057 132.872 161.996 132.456 162.08 131.837C162.25 130.587 162.96 128.851 164.168 126.772C164.48 126.234 164.822 125.68 165.192 125.111Z" stroke="#A7C5C3" stroke-linecap="round" stroke-linejoin="round"/>
<path fill-rule="evenodd" clip-rule="evenodd" d="M67.9258 12.9743C58.592 15.2278 50.3415 17.0045 44.7835 17.0045C39.8921 17.0045 36.2004 20.2864 33.3585 26.2859C30.5171 32.2843 28.6586 40.7541 27.3698 50.5487C25.7566 62.8092 25.0555 76.936 24.3759 90.6279C23.9681 98.8433 23.5681 106.902 22.9835 114.307C20.5034 145.725 11.6161 247.96 7.48286 295.146C7.43777 295.661 6.98392 296.041 6.46915 295.996C5.95439 295.951 5.57365 295.497 5.61874 294.983C9.75235 247.792 18.6387 145.568 21.1181 114.16C21.6931 106.876 22.0912 98.871 22.4987 90.6772C23.1831 76.9158 23.8941 62.6204 25.5146 50.3046C26.8091 40.4662 28.6963 31.7571 31.6674 25.4848C34.6379 19.2137 38.8252 15.1332 44.7835 15.1332C50.0754 15.1332 58.0964 13.4225 67.4866 11.1553C69.8016 10.5963 72.1958 10.0047 74.6453 9.39937C82.0757 7.56322 90.0158 5.60111 97.8028 4.04323C108.151 1.97282 118.324 0.595409 126.782 1.18566C135.218 1.77443 142.2 4.34328 145.795 10.4262C147.546 13.3898 148.325 16.2214 148.287 18.8797C148.248 21.5396 147.39 23.9642 145.965 26.112C143.969 29.118 140.859 31.5912 137.265 33.4806C137.297 33.5228 137.329 33.565 137.361 33.6074C138.655 35.3375 139.434 37.2845 139.343 39.3772C139.252 41.4743 138.294 43.5821 136.373 45.6401C132.612 49.6701 127.189 52.5791 121.351 54.4653C117.186 55.8109 112.775 56.6476 108.54 56.9938C108.548 57.7606 108.482 58.5245 108.333 59.2779C107.539 63.3042 104.436 66.7496 98.2587 68.6297C74.1467 75.9682 56.2994 68.6141 44.2967 61.3004C41.2124 59.421 36.8943 61.2249 35.5058 65.6328C34.1532 69.9265 35.7 76.8853 45.3633 84.5143C45.7689 84.8344 45.8381 85.4228 45.5179 85.8284C45.1977 86.2339 44.6094 86.3032 44.2038 85.983C34.2341 78.1121 32.0371 70.4162 33.721 65.0706C35.3689 59.8392 40.8672 57.0194 45.2704 59.7024C57.009 66.8552 74.2934 73.9675 97.7139 66.8395C103.419 65.1031 105.871 62.0903 106.497 58.9156C106.613 58.3284 106.669 57.7264 106.668 57.1156C105.602 57.167 104.551 57.1865 103.523 57.1746C97.9042 57.1092 92.8266 56.1009 89.5784 54.0786C87.9408 53.059 86.6986 51.7367 86.1578 50.0815C85.612 48.4111 85.8303 46.5553 86.8163 44.5833C87.805 42.6059 89.1736 41.3093 90.8018 40.6594C92.4186 40.0141 94.1868 40.048 95.9141 40.5327C99.3418 41.4945 102.798 44.2763 105.209 47.6912C106.785 49.9242 107.969 52.5068 108.381 55.1293C112.479 54.7948 116.75 53.9855 120.776 52.6847C126.431 50.8574 131.534 48.0831 135.005 44.3633C136.701 42.5463 137.406 40.8437 137.474 39.2961C137.541 37.7439 136.972 36.2115 135.863 34.7286C135.761 34.5929 135.655 34.458 135.545 34.3239C134.561 34.774 133.55 35.1829 132.523 35.5496C126.986 37.5276 120.865 38.3306 115.821 37.6957C110.84 37.0687 106.547 34.9703 105.353 30.7923C104.77 28.752 105.074 27.0224 106.229 25.7412C107.331 24.5194 109.067 23.867 111.009 23.5869C114.912 23.0244 120.24 23.8779 125.163 25.6509C129.301 27.1409 133.299 29.3331 135.99 32.033C139.556 30.2234 142.555 27.8647 144.405 25.0773C145.659 23.1887 146.382 21.1087 146.415 18.8523C146.449 16.5943 145.791 14.0978 144.184 11.3782C141.062 6.09464 134.872 3.62608 126.651 3.05238C118.452 2.48018 108.481 3.81525 98.1698 5.87813C90.428 7.42698 82.5475 9.37433 75.1263 11.2082C72.6685 11.8155 70.2611 12.4104 67.9258 12.9743ZM134.177 32.8853C131.772 30.6694 128.291 28.7661 124.529 27.4115C119.768 25.6971 114.766 24.936 111.276 25.439C109.523 25.6918 108.297 26.2422 107.619 26.9942C106.995 27.6868 106.702 28.7019 107.152 30.2782C108.025 33.3334 111.287 35.239 116.055 35.8391C120.76 36.4313 126.584 35.6843 131.894 33.7874C132.67 33.5099 133.433 33.2089 134.177 32.8853ZM106.504 55.25C106.125 53.0425 105.11 50.7966 103.68 48.7704C101.441 45.5979 98.31 43.1485 95.4086 42.3343C93.9713 41.931 92.6396 41.9407 91.4955 42.3973C90.3628 42.8494 89.3096 43.7809 88.49 45.4201C87.6677 47.0647 87.5788 48.4057 87.9365 49.5003C88.2991 50.6099 89.171 51.6207 90.5674 52.4901C93.3876 54.2459 98.0586 55.2396 103.545 55.3034C104.512 55.3147 105.501 55.297 106.504 55.25Z" fill="#A7C5C3" stroke="#A7C5C3" stroke-linecap="round" stroke-linejoin="round"/>
<path fill-rule="evenodd" clip-rule="evenodd" d="M132.718 54.1872C125.152 54.1872 119.019 60.3204 119.019 67.8861C119.019 75.4518 125.152 81.585 132.718 81.585C140.284 81.585 146.417 75.4518 146.417 67.8861C146.417 60.3204 140.284 54.1872 132.718 54.1872ZM117.148 67.8861C117.148 59.2869 124.119 52.3159 132.718 52.3159C141.317 52.3159 148.288 59.2869 148.288 67.8861C148.288 76.4852 141.317 83.4562 132.718 83.4562C124.119 83.4562 117.148 76.4852 117.148 67.8861Z" fill="#A7C5C3" stroke="#A7C5C3" stroke-linecap="round" stroke-linejoin="round"/>
<path fill-rule="evenodd" clip-rule="evenodd" d="M91.5859 65.9414C84.0202 65.9414 77.887 72.0747 77.887 79.6403C77.887 87.206 84.0202 93.3392 91.5859 93.3392C99.1516 93.3392 105.285 87.206 105.285 79.6403C105.285 72.0747 99.1516 65.9414 91.5859 65.9414ZM76.0157 79.6403C76.0157 71.0412 82.9867 64.0702 91.5859 64.0702C100.185 64.0702 107.156 71.0412 107.156 79.6403C107.156 88.2395 100.185 95.2105 91.5859 95.2105C82.9867 95.2105 76.0157 88.2395 76.0157 79.6403Z" fill="#A7C5C3" stroke="#A7C5C3" stroke-linecap="round" stroke-linejoin="round"/>
<path fill-rule="evenodd" clip-rule="evenodd" d="M65.5191 159.821C60.1224 150.478 52.6303 145.072 45.9027 142.958C42.5421 141.901 39.339 141.657 36.6724 142.19C34.0054 142.722 31.8058 144.054 30.6361 146.198C30.3887 146.652 30.5559 147.22 31.0095 147.468C31.4631 147.715 32.0315 147.548 32.2789 147.094C33.1107 145.569 34.7472 144.482 37.039 144.025C39.3312 143.566 42.2097 143.758 45.3416 144.743C51.5954 146.708 58.7274 151.796 63.9065 160.771C63.912 160.78 63.9176 160.789 63.9234 160.799C65.9955 164.116 67.9464 167.261 69.7899 170.232C76.1141 180.427 81.1744 188.583 85.5329 194.692C88.3502 198.64 90.9034 201.775 93.3464 204.07C95.7893 206.365 98.1715 207.868 100.652 208.473C105.684 209.701 110.638 207.14 116.638 201.584C122.669 196 130.038 187.121 139.951 175.091C141.569 173.128 142.874 171.671 143.927 170.62C144.99 169.56 145.759 168.951 146.306 168.643C146.731 168.404 146.914 168.404 146.957 168.409C146.978 168.426 147.076 168.52 147.193 168.867C147.329 169.273 147.423 169.81 147.525 170.471C147.535 170.539 147.546 170.607 147.556 170.677C147.645 171.256 147.744 171.902 147.893 172.5C148.058 173.161 148.31 173.877 148.769 174.439C149.265 175.047 149.97 175.432 150.886 175.432C151.518 175.432 152.076 175.102 152.515 174.75C152.975 174.381 153.443 173.874 153.911 173.291C154.848 172.123 155.896 170.513 157.007 168.724C157.498 167.933 158.003 167.105 158.521 166.257C160.374 163.221 162.385 159.925 164.465 157.168C165.793 155.407 167.114 153.913 168.399 152.869C169.696 151.816 170.852 151.305 171.864 151.312C172.824 151.319 173.869 151.795 174.972 153.22C176.091 154.667 177.203 157.016 178.242 160.566C179.885 166.183 178.759 172.408 174.521 181.457C170.28 190.511 163.018 202.207 152.63 218.705C142.12 235.397 133.176 247.041 124.836 254.202C116.524 261.34 108.893 263.963 100.938 262.781C92.9099 261.588 84.3733 256.498 74.3386 247.769C64.3178 239.051 52.9181 226.81 39.1536 211.482C38.8083 211.097 38.2168 211.065 37.8323 211.411C37.4478 211.756 37.416 212.348 37.7613 212.732C51.519 228.052 62.9905 240.377 73.1104 249.18C83.2164 257.972 92.09 263.358 100.662 264.632C109.308 265.916 117.466 262.998 126.055 255.622C134.616 248.271 143.682 236.429 154.214 219.702C164.578 203.241 171.915 191.434 176.215 182.251C180.518 173.063 181.874 166.318 180.038 160.041C178.971 156.394 177.777 153.789 176.452 152.075C175.111 150.342 173.574 149.453 171.878 149.441C170.235 149.429 168.661 150.245 167.219 151.417C165.765 152.598 164.338 154.228 162.971 156.041C160.829 158.88 158.752 162.286 156.894 165.331C156.384 166.166 155.891 166.974 155.418 167.736C154.305 169.527 153.311 171.05 152.452 172.12C152.021 172.656 151.652 173.044 151.344 173.29C151.046 173.53 150.903 173.557 150.887 173.56C150.886 173.56 150.885 173.56 150.886 173.56C150.561 173.56 150.377 173.451 150.218 173.256C150.022 173.015 149.852 172.62 149.709 172.047C149.582 171.539 149.497 170.982 149.406 170.389C149.395 170.322 149.385 170.254 149.374 170.185C149.276 169.55 149.162 168.853 148.966 168.27C148.78 167.716 148.438 167.013 147.708 166.693C146.95 166.361 146.137 166.591 145.388 167.013C144.62 167.445 143.709 168.195 142.605 169.296C141.493 170.406 140.146 171.913 138.507 173.901C128.559 185.973 121.283 194.734 115.367 200.211C109.42 205.717 105.126 207.639 101.095 206.655C99.0436 206.155 96.9397 204.878 94.6277 202.706C92.3159 200.534 89.8456 197.514 87.0561 193.605C82.7361 187.55 77.7207 179.466 71.4054 169.287C69.5594 166.311 67.6023 163.156 65.5191 159.821ZM146.967 168.411C146.967 168.411 146.966 168.41 146.964 168.41L146.967 168.411Z" fill="#A7C5C3" stroke="#A7C5C3" stroke-linecap="round" stroke-linejoin="round"/>
</svg>
