<svg width="121" height="127" viewBox="0 0 121 127" fill="none" xmlns="http://www.w3.org/2000/svg">
<path d="M4.70728 110.691L14.5076 0.625H102.711L94.729 114.461L4.70728 110.691Z" fill="#A5B8FD"/>
<path d="M0 126.5L5.70821 10.3838H85.7872L88.2039 126.5H0Z" fill="#F7F7F9"/>
<path d="M12.9815 43.0138C14.4319 37.5911 19.4981 35.2037 24.2702 36.4847C25.481 36.8097 32.9964 39.8212 31.8322 44.1736C30.6681 48.5261 28.1478 48.9585 25.0321 50.7605C21.6003 52.7454 19.8807 52.8956 17.3166 52.2073C14.7525 51.519 11.5311 48.4365 12.9815 43.0138Z" fill="#A7C5C3"/>
<path d="M29.2061 71.2788C27.8246 76.4344 22.5253 79.494 17.3696 78.1126C12.214 76.7311 9.15435 71.4318 10.5358 66.2761C11.9173 61.1204 17.2166 58.0608 22.3723 59.4423C27.528 60.8238 30.5876 66.1231 29.2061 71.2788Z" fill="#D287A5"/>
<path d="M28.1631 88.7198C26.1996 85.3189 16.7043 84.1294 12.9124 86.3186C9.31604 88.395 8.82512 92.2589 10.2387 95.6806C11.6523 99.1023 16.5056 102.382 21.6266 99.4259C27.7639 95.8825 30.1267 92.1208 28.1631 88.7198Z" fill="#FFD9D0"/>
<path fill-rule="evenodd" clip-rule="evenodd" d="M42.4643 42.99C42.2426 42.9165 42.0892 42.9216 41.9694 42.9677C41.793 43.0355 41.5507 43.2319 41.2465 43.5474C41.1198 43.6788 40.9967 43.8151 40.8725 43.9527C40.8561 43.9708 40.8397 43.989 40.8232 44.0072C40.6872 44.1576 40.5442 44.3145 40.4098 44.4438C39.9334 44.9018 39.451 45.2776 38.8958 45.5396C38.335 45.8042 37.7294 45.9391 37.0225 45.9552C36.6889 45.9628 36.4123 45.6985 36.4047 45.3649C36.3971 45.0313 36.6614 44.7547 36.995 44.7472C37.5555 44.7344 37.9914 44.6302 38.3801 44.4468C38.7743 44.2608 39.1493 43.9795 39.5723 43.5728C39.6714 43.4774 39.787 43.3516 39.9269 43.1968C39.9428 43.1793 39.9589 43.1614 39.9753 43.1433C40.0982 43.0071 40.2352 42.8553 40.3766 42.7088C40.6793 42.3947 41.0841 42.0135 41.5356 41.8399C41.9928 41.664 42.4473 41.7113 42.8447 41.8431C43.235 41.9726 43.6056 42.1947 43.9344 42.4225C44.2008 42.6071 44.4661 42.8146 44.7069 43.003C44.7632 43.047 44.8182 43.09 44.8716 43.1315C45.1673 43.3612 45.4101 43.5399 45.616 43.6517C46.37 44.061 47.0598 44.359 47.6984 44.4182C48.2948 44.4736 48.8733 44.3241 49.4564 43.7516C50.0595 43.1595 50.981 42.4474 51.9693 42.094C52.4678 41.9157 53.0167 41.8168 53.5648 41.9006C54.1271 41.9867 54.6504 42.2601 55.0809 42.759C55.5499 43.3026 56.2861 43.9618 57.0847 44.3903C57.8979 44.8265 58.6477 44.9594 59.2439 44.6944C59.6389 44.5189 59.9322 44.227 60.3143 43.8467C60.3764 43.785 60.4408 43.7209 60.5084 43.6546C60.9599 43.2115 61.5376 42.6968 62.411 42.5571L62.44 42.5525C63.2053 42.4299 64.1101 42.2851 65.0467 42.6196C65.5864 42.8124 66.0338 43.2022 66.3882 43.5265C66.4499 43.583 66.5091 43.6377 66.5662 43.6904C66.8702 43.9713 67.1151 44.1977 67.3751 44.3518C68.0634 44.7597 68.9114 45.0467 69.6684 45.061C70.6738 45.08 71.1762 45.0807 71.8446 44.6058C71.899 44.5671 71.9553 44.5267 72.0131 44.4852C72.3275 44.2595 72.6903 43.999 73.0715 43.791C73.5317 43.5398 74.07 43.3343 74.6798 43.3343C75.0135 43.3343 75.284 43.6048 75.284 43.9385C75.284 44.2722 75.0135 44.5427 74.6798 44.5427C74.3464 44.5427 74.012 44.6543 73.6503 44.8517C73.3404 45.0208 73.048 45.2304 72.7326 45.4564C72.6709 45.5006 72.6083 45.5455 72.5445 45.5908C71.5389 46.3053 70.6762 46.2888 69.6972 46.2702L69.6456 46.2692C68.632 46.25 67.5813 45.8786 66.7591 45.3913C66.3779 45.1654 66.022 44.8348 65.7231 44.5572C65.6711 44.5089 65.6209 44.4622 65.5725 44.418C65.21 44.0863 64.9238 43.8588 64.6403 43.7576C64.0257 43.5381 63.4128 43.6205 62.6019 43.7503C62.1272 43.8262 61.782 44.0977 61.3547 44.517C61.3018 44.5689 61.2468 44.6242 61.1895 44.6818C60.8187 45.0547 60.3514 45.5245 59.7347 45.7986C58.6334 46.2881 57.456 45.9607 56.5134 45.4551C55.5563 44.9416 54.7084 44.1771 54.166 43.5484C53.9222 43.2658 53.6577 43.1373 53.382 43.0951C53.0921 43.0507 52.7527 43.0971 52.3762 43.2318C51.6143 43.5042 50.8383 44.0882 50.303 44.6138C49.4587 45.4427 48.5267 45.7086 47.5867 45.6214C46.6888 45.5381 45.8164 45.1354 45.0395 44.7137C44.7353 44.5485 44.4203 44.311 44.1304 44.0858C44.0697 44.0387 44.0097 43.9917 43.9501 43.9452C43.7114 43.7586 43.481 43.5784 43.2462 43.4157C42.9529 43.2125 42.6931 43.066 42.4643 42.99Z" fill="#A88DFF" stroke="#A88DFF" stroke-linecap="round" stroke-linejoin="round"/>
<path fill-rule="evenodd" clip-rule="evenodd" d="M59.7672 70.2499C59.8989 70.1144 60.037 69.9724 60.1769 69.835C60.415 69.6013 60.7975 69.6048 61.0313 69.8429C61.2651 70.081 61.2615 70.4635 61.0234 70.6973C60.8939 70.8245 60.7649 70.9571 60.6308 71.0951C60.6238 71.1022 60.6169 71.1094 60.6099 71.1166C60.4702 71.2602 60.3247 71.4095 60.1777 71.552C59.8888 71.8322 59.5613 72.1193 59.2009 72.3162C58.8305 72.5185 58.3894 72.6445 57.902 72.5423C57.423 72.4418 56.9966 72.141 56.6073 71.6898C56.1383 71.1462 55.4021 70.487 54.6035 70.0586C53.7903 69.6223 53.0405 69.4894 52.4443 69.7544C52.0493 69.93 51.756 70.2218 51.3739 70.6021C51.3118 70.6638 51.2474 70.7279 51.1798 70.7943C50.7283 71.2373 50.1506 71.752 49.2772 71.8917L49.2482 71.8964C48.4829 72.0189 47.5781 72.1637 46.6415 71.8292C46.1018 71.6365 45.6544 71.2466 45.3 70.9224C45.2383 70.8658 45.1791 70.8111 45.122 70.7584C44.818 70.4775 44.5731 70.2511 44.3131 70.097C43.6248 69.6892 42.7768 69.4021 42.0198 69.3878C41.0144 69.3688 40.512 69.3681 39.8436 69.8431C39.7892 69.8817 39.7329 69.9221 39.6751 69.9636C39.3607 70.1894 38.9979 70.4498 38.6167 70.6579C38.1565 70.909 37.6182 71.1145 37.0084 71.1145C36.6747 71.1145 36.4042 70.844 36.4042 70.5103C36.4042 70.1766 36.6747 69.9061 37.0084 69.9061C37.3418 69.9061 37.6762 69.7945 38.0379 69.5972C38.3478 69.428 38.6402 69.2185 38.9556 68.9924C39.0173 68.9482 39.0799 68.9033 39.1437 68.858C40.1493 68.1435 41.012 68.16 41.991 68.1787C42.0081 68.179 42.0254 68.1793 42.0426 68.1797C43.0562 68.1988 44.1069 68.5703 44.9291 69.0575C45.3103 69.2834 45.6662 69.614 45.9651 69.8916C46.0171 69.9399 46.0673 69.9866 46.1157 70.0308C46.4782 70.3625 46.7644 70.59 47.0479 70.6913C47.6625 70.9108 48.2754 70.8283 49.0863 70.6985C49.561 70.6226 49.9062 70.3511 50.3335 69.9318C50.3864 69.8799 50.4414 69.8246 50.4987 69.767C50.8695 69.3941 51.3368 68.9243 51.9535 68.6502C53.0548 68.1607 54.2322 68.4881 55.1748 68.9938C56.1319 69.5073 56.9798 70.2717 57.5222 70.9005C57.8072 71.2308 58.0175 71.3319 58.15 71.3597C58.274 71.3857 58.419 71.3664 58.6217 71.2557C58.8342 71.1396 59.0666 70.9463 59.3365 70.6845C59.469 70.5561 59.6027 70.419 59.7436 70.2742C59.7514 70.2661 59.7593 70.258 59.7672 70.2499Z" fill="#A88DFF" stroke="#A88DFF" stroke-linecap="round" stroke-linejoin="round"/>
<path fill-rule="evenodd" clip-rule="evenodd" d="M59.3121 95.3337C60.074 95.0612 60.85 94.4773 61.3853 93.9517C62.2296 93.1228 63.1616 92.8568 64.1016 92.944C64.9995 93.0274 65.8719 93.4301 66.6488 93.8518C66.9421 94.011 67.0507 94.3778 66.8915 94.671C66.7323 94.9643 66.3656 95.073 66.0723 94.9138C65.3183 94.5045 64.6285 94.2065 63.9899 94.1472C63.3935 94.0919 62.815 94.2414 62.2319 94.8139C61.6288 95.406 60.7073 96.1181 59.719 96.4715C59.2205 96.6497 58.6716 96.7487 58.1235 96.6648C57.5612 96.5788 57.0379 96.3054 56.6074 95.8064C56.1384 95.2628 55.4022 94.6036 54.6036 94.1752C53.7904 93.7389 53.0406 93.606 52.4444 93.871C52.0494 94.0466 51.7561 94.3385 51.374 94.7187C51.3119 94.7805 51.2475 94.8446 51.1799 94.9109C50.7284 95.3539 50.1507 95.8686 49.2773 96.0083L49.2483 96.013C48.483 96.1355 47.5782 96.2804 46.6416 95.9459C46.1019 95.7531 45.6545 95.3632 45.3001 95.039C45.2384 94.9825 45.1792 94.9278 45.1221 94.875C44.8181 94.5941 44.5732 94.3678 44.3132 94.2137C43.6249 93.8058 42.7769 93.5187 42.0199 93.5044C41.0145 93.4854 40.5121 93.4847 39.8437 93.9597C39.7893 93.9983 39.733 94.0387 39.6752 94.0803C39.3608 94.306 38.998 94.5665 38.6168 94.7745C38.1566 95.0256 37.6183 95.2311 37.0085 95.2311C36.6748 95.2311 36.4043 94.9606 36.4043 94.6269C36.4043 94.2933 36.6748 94.0228 37.0085 94.0228C37.3419 94.0228 37.6763 93.9112 38.038 93.7138C38.3479 93.5447 38.6403 93.3351 38.9557 93.109C39.0174 93.0648 39.08 93.0199 39.1438 92.9746C40.1494 92.2601 41.0121 92.2766 41.9911 92.2953L42.0427 92.2963C43.0563 92.3154 44.107 92.6869 44.9292 93.1741C45.3104 93.4 45.6663 93.7306 45.9652 94.0082C46.0172 94.0565 46.0674 94.1032 46.1158 94.1475C46.4783 94.4792 46.7645 94.7067 47.048 94.8079C47.6626 95.0274 48.2755 94.9449 49.0864 94.8152C49.5611 94.7392 49.9063 94.4677 50.3336 94.0484C50.3865 93.9965 50.4415 93.9412 50.4988 93.8836C50.8696 93.5107 51.3369 93.0409 51.9536 92.7668C53.0549 92.2773 54.2323 92.6047 55.1749 93.1104C56.132 93.6239 56.9799 94.3883 57.5223 95.0171C57.7661 95.2997 58.0306 95.4282 58.3063 95.4704C58.5962 95.5147 58.9356 95.4683 59.3121 95.3337Z" fill="#A88DFF" stroke="#A88DFF" stroke-linecap="round" stroke-linejoin="round"/>
<path d="M66.715 95.2944C68.6921 95.9211 75.2078 91.1465 76.6037 89.9779C74.1659 89.7925 66.5028 86.377 64.8623 84.7192C64.8622 85.9852 64.759 94.6744 66.715 95.2944Z" fill="#A88DFF"/>
<path d="M86.0355 22.0146C86.0355 22.0146 96.5852 33.437 114.98 34.7509L92.0306 78.8791L83.7177 81.6783L84.2201 76.0082L77.7606 78.8791L77.33 72.1325L71.4446 75.5776L70.6551 68.6874L65.2624 72.9621L64.4292 66.2984L86.0355 22.0146Z" fill="#FEBD6D"/>
<path fill-rule="evenodd" clip-rule="evenodd" d="M95.9969 7.02637C93.5547 9.37032 92.0386 12.6186 91.0019 14.9598C89.3406 18.7115 73.7106 50.9973 65.5457 67.3603L65.1433 67.1595L65.5457 67.3603C65.5 67.4518 65.4375 67.6396 65.3669 67.9436C65.2986 68.2383 65.2289 68.6137 65.1598 69.061C65.0215 69.9549 64.8882 71.1162 64.7709 72.4529C64.5366 75.1255 64.3682 78.4804 64.3516 81.7643C64.335 85.0526 64.4707 88.2502 64.8388 90.6163C65.0235 91.8039 65.2623 92.7505 65.5531 93.3889C65.8604 94.0632 66.1376 94.2145 66.3146 94.2145C66.674 94.2145 67.2928 94.0284 68.1573 93.6269C69.0013 93.235 70.0188 92.6677 71.1502 91.9723C73.4117 90.5823 76.0968 88.7002 78.7039 86.7405C81.3103 84.7814 83.8309 82.7505 85.7631 81.0657C86.7297 80.2229 87.5446 79.4705 88.1479 78.8595C88.4498 78.5537 88.6945 78.2876 88.8773 78.0661C89.0662 77.8374 89.168 77.6812 89.2081 77.5919C89.212 77.5831 89.2163 77.5745 89.2208 77.566L108.411 41.2594L108.412 41.2589C109.202 39.7694 109.929 38.3812 110.454 37.0527C110.977 35.7255 111.286 34.4878 111.257 33.3038C111.233 32.3601 110.994 31.4213 110.439 30.4775C109.388 30.6714 108.133 30.6795 106.681 30.4649C103.855 30.0476 100.221 28.781 95.7318 26.3104C94.1785 25.4554 92.9645 24.6951 92.056 24.0319C91.1548 23.3739 90.5272 22.7923 90.1747 22.2889C89.9984 22.0371 89.8698 21.7753 89.8313 21.5106C89.7903 21.229 89.8545 20.955 90.0408 20.7315C90.2147 20.5228 90.4616 20.398 90.7164 20.3223C90.9749 20.2455 91.2785 20.2081 91.612 20.2004C92.932 20.1699 95.0078 20.6019 97.5093 21.4778C100.024 22.3583 103.008 23.7014 106.157 25.5274C108.382 26.8173 109.898 28.1189 110.85 29.4596C111.447 29.2899 111.931 29.0474 112.309 28.7571C113.242 28.0408 113.596 26.9806 113.375 25.7967C111.467 25.7024 109.172 25.0938 106.835 24.2235C102.104 22.4624 97.0621 19.5762 94.443 17.4381C93.7806 16.8974 93.2925 16.388 92.9907 15.9225C92.6977 15.4707 92.5272 14.9746 92.677 14.5127C92.834 14.0286 93.2763 13.7716 93.7645 13.6573C94.258 13.5418 94.8965 13.5433 95.6466 13.6485C98.643 14.0686 103.965 16.2257 110.845 20.9633C112.488 22.0943 113.59 23.5003 114.069 24.9082C115.548 24.8751 116.548 24.4394 117.034 23.5942C118.452 21.0411 119.08 18.8049 119.1 16.8411C119.12 14.8825 118.536 13.1668 117.482 11.646C115.361 8.58614 111.326 6.30097 106.45 4.53484C101.724 3.27376 98.407 4.7133 95.9969 7.02637ZM114.287 25.8C115.827 25.7281 117.131 25.2346 117.816 24.0388L117.819 24.0336C119.29 21.3861 119.977 19.0022 119.999 16.8503C120.021 14.6924 119.373 12.7964 118.221 11.1337C115.932 7.83055 111.663 5.46441 106.738 3.68256C106.726 3.67822 106.714 3.67439 106.701 3.67108C101.628 2.31077 97.988 3.86882 95.3741 6.3775C92.7893 8.85831 91.2133 12.2612 90.1795 14.5957C88.5281 18.3251 72.9077 50.5921 64.7409 66.9587C64.6452 67.1505 64.5639 67.4256 64.4908 67.7404C64.4157 68.0645 64.3421 68.4637 64.271 68.9235C64.1286 69.8438 63.9932 71.0261 63.875 72.3743C63.6385 75.0714 63.469 78.451 63.4523 81.7598C63.4356 85.0643 63.5711 88.3178 63.9501 90.7545C64.1389 91.9684 64.3927 93.0111 64.7347 93.7618C65.0604 94.4765 65.5564 95.1139 66.3146 95.1139C66.8903 95.1139 67.6682 94.8456 68.5361 94.4426C69.4243 94.0301 70.4748 93.443 71.6212 92.7385C73.9152 91.3285 76.6247 89.4285 79.2443 87.4594C81.8646 85.4898 84.4026 83.4453 86.3542 81.7436C87.3295 80.8932 88.1627 80.1246 88.7879 79.4913C89.1003 79.1749 89.365 78.8881 89.5709 78.6387C89.766 78.4024 89.9291 78.1752 90.022 77.9748L109.206 41.6803C109.992 40.1981 110.744 38.7659 111.29 37.3829C111.837 35.9985 112.189 34.6337 112.156 33.2818C112.13 32.2406 111.878 31.2332 111.343 30.2493C111.931 30.0567 112.436 29.7939 112.857 29.4703C114.046 28.5567 114.499 27.2119 114.287 25.8ZM113.095 24.8774C112.638 23.7874 111.72 22.6579 110.335 21.7041C103.499 16.9973 98.3148 14.9308 95.5217 14.5391C94.8244 14.4414 94.3102 14.4532 93.9695 14.533C93.6233 14.614 93.5496 14.7373 93.5325 14.7902C93.5081 14.8653 93.5052 15.063 93.7453 15.4333C93.9766 15.79 94.3869 16.2313 95.0117 16.7414C97.5418 18.8068 102.494 21.6477 107.148 23.3807C109.312 24.1863 111.382 24.7409 113.095 24.8774ZM109.873 29.6557C109.004 28.5544 107.668 27.4428 105.706 26.3054C102.603 24.506 99.67 23.1872 97.212 22.3266C94.7408 21.4613 92.7883 21.0728 91.6328 21.0995C91.3475 21.1061 91.1293 21.1379 90.9726 21.1844C90.8122 21.2321 90.7504 21.2848 90.7317 21.3072C90.7314 21.3077 90.731 21.3081 90.7307 21.3085C90.7242 21.316 90.7136 21.3284 90.7213 21.3811C90.7319 21.4538 90.778 21.5824 90.9115 21.773C91.1786 22.1545 91.711 22.6665 92.5863 23.3055C93.4543 23.9392 94.6333 24.6791 96.1655 25.5225C100.596 27.9612 104.127 29.1786 106.812 29.5752C108.007 29.7517 109.023 29.7644 109.873 29.6557Z" fill="#D287A5" stroke="#D287A5" stroke-linecap="round" stroke-linejoin="round"/>
<path fill-rule="evenodd" clip-rule="evenodd" d="M106.121 32.8098C106.34 32.9255 106.425 33.1975 106.309 33.4172L83.9787 75.8121C83.863 76.0318 83.5911 76.1162 83.3713 76.0004C83.1516 75.8847 83.0673 75.6127 83.183 75.393L105.513 32.9981C105.629 32.7783 105.901 32.694 106.121 32.8098Z" fill="#D287A5" stroke="#D287A5" stroke-linecap="round"/>
<path fill-rule="evenodd" clip-rule="evenodd" d="M99.1436 30.2507C99.3633 30.3664 99.4476 30.6384 99.3319 30.8581L77.0017 73.253C76.886 73.4728 76.614 73.5571 76.3943 73.4413C76.1745 73.3256 76.0902 73.0536 76.206 72.8339L98.5362 30.439C98.6519 30.2193 98.9239 30.135 99.1436 30.2507Z" fill="#D287A5" stroke="#D287A5" stroke-linecap="round"/>
<path fill-rule="evenodd" clip-rule="evenodd" d="M93.272 26.0269C93.4917 26.1427 93.576 26.4146 93.4603 26.6344L71.1301 69.0293C71.0144 69.249 70.7424 69.3333 70.5227 69.2176C70.3029 69.1018 70.2186 68.8299 70.3344 68.6101L92.6646 26.2152C92.7803 25.9955 93.0523 25.9112 93.272 26.0269Z" fill="#D287A5" stroke="#D287A5" stroke-linecap="round"/>
</svg>
