<svg fill="none" height="297" viewBox="0 0 200 297" width="200" xmlns="http://www.w3.org/2000/svg"><path d="m102.889 126.981c30.983.755 24.182-45.0165 24.182-75.9991 49.875-66.8232-64.6632-29.0399-83.555-23.7501s-23.3778 58.0741-25.5853 78.5902c-1.5522 14.426-11.5871 132.998-17.380651 190.429h137.996951l-8.239-40.2c8.239-3.204 56.346-74.261 52.636-89.972-6.752-28.598-31.028 15.711-31.028 15.711s2.556-12.086-1.25-12.086c-3.807 0-20.358 30.886-32.327 28.679z" fill="#ffd9d0"/><path d="m112.955 154.478c.219.157.36.401.387.669l2.189 22.014c.026.256-.056.513-.226.707l-9.09 10.421c-.287.328-.762.415-1.147.21l-12.5294-6.705c-.283-.151-.4686-.437-.4918-.757l-1.503-20.792c-.0332-.459.2712-.873.7184-.979l20.9338-4.937c.263-.062.539-.007.759.149zm-20.4874 6.427 1.4085 19.483 11.4179 6.109 8.335-9.554-2.043-20.547z" style="fill-rule:evenodd;clip-rule:evenodd;fill:#a7c5c3;stroke:#a7c5c3;stroke-linecap:round;stroke-linejoin:round"/><path d="m113.447 156.915c-.009.954-.017 1.846-.017 2.641v.005c0 1.814 0 6.256-.257 10.252-.128 1.993-.323 3.917-.623 5.357-.149.713-.336 1.369-.585 1.868-.208.417-.663 1.129-1.51 1.129-.71 0-1.136-.557-1.332-.865-.242-.378-.449-.877-.634-1.431-.373-1.122-.721-2.683-1.034-4.508-.629-3.662-1.143-8.527-1.43-13.394-.287-4.864-.35-9.768-.066-13.503.142-1.858.373-3.478.726-4.67.175-.592.397-1.137.692-1.562.295-.422.747-.84 1.394-.908.836-.088 1.559.203 2.128.734.54.504.93 1.209 1.226 1.978.592 1.539.918 3.647 1.104 5.902.289 3.52.25 7.636.218 10.975zm-4.434-17.732c.22-.012.406.056.609.245.247.231.51.641.756 1.282.492 1.279.803 3.165.986 5.384.281 3.424.244 7.412.212 10.743-.009.972-.017 1.889-.017 2.719 0 1.815-.001 6.206-.253 10.137-.127 1.972-.315 3.788-.588 5.095-.085.409-.175.745-.264 1.009-.06-.147-.123-.319-.189-.518-.329-.987-.658-2.439-.966-4.232-.613-3.575-1.121-8.368-1.406-13.188-.285-4.823-.343-9.634-.068-13.25.138-1.817.357-3.281.654-4.282.149-.505.302-.834.434-1.023.046-.067.08-.103.1-.121zm1.159 37.21c0-.001.005-.007.016-.016-.01.013-.015.017-.016.016zm.597-.001c.012.009.018.016.018.017s-.006-.004-.018-.017zm-1.741-37.221c.003-.002.005-.003.005-.003s-.002.001-.005.003z" style="fill-rule:evenodd;clip-rule:evenodd;fill:#a7c5c3;stroke:#a7c5c3;stroke-linecap:round;stroke-linejoin:round"/><path clip-rule="evenodd" d="m98.9751 145.604c-1.2073.176-2.5241 1.464-2.3739 3.526.2613 3.59.9483 10.374 1.5717 16.275.3114 2.947.6064 5.669.8236 7.655.1086.992.1977 1.801.2596 2.361l.0606.546 2.7183 2.719 2.003-3.839-2.278-25.577c-.124-1.616-.6-2.571-1.11-3.088-.495-.501-1.0895-.663-1.6749-.578zm-.5521 30.793c-.9299.103-.9299.103-.9299.103l-.0969-.873c-.062-.561-.1512-1.37-.2599-2.364-.2173-1.987-.5126-4.711-.8243-7.662-.6227-5.894-1.3132-12.709-1.5772-16.335-.2151-2.956 1.7099-5.185 3.9711-5.514 1.1487-.167 2.3451.173 3.2751 1.115.914.926 1.497 2.355 1.644 4.254l2.301 25.833c.016.178-.019.357-.102.516l-2.719 5.211c-.138.264-.393.447-.688.492-.294.046-.593-.052-.803-.263l-3.8526-3.852c-.1501-.15-.2447-.347-.2683-.558z" fill="#a7c5c3" fill-rule="evenodd"/><path d="m97.4931 176.5s0 0 .9299-.103zm0 0c.0236.211.1182.408.2683.558l3.8526 3.852c.21.211.509.309.803.263.295-.045.55-.228.688-.492l2.719-5.211c.083-.159.118-.338.102-.516l-2.301-25.833c-.147-1.899-.73-3.328-1.644-4.254-.93-.942-2.1264-1.282-3.2751-1.115-2.2612.329-4.1862 2.558-3.9711 5.514.264 3.626.9545 10.441 1.5772 16.335.3117 2.951.607 5.675.8243 7.662.1087.994.1979 1.803.2599 2.364zm-.8919-27.37c-.1502-2.062 1.1666-3.35 2.3739-3.526.5854-.085 1.1799.077 1.6749.578.51.517.986 1.472 1.11 3.088l2.278 25.577-2.003 3.839-2.7183-2.719-.0606-.546c-.0619-.56-.151-1.369-.2596-2.361-.2172-1.986-.5122-4.708-.8236-7.655-.6234-5.901-1.3104-12.685-1.5717-16.275z" stroke="#a7c5c3" stroke-linecap="round" stroke-linejoin="round"/><path d="m188.625 165.747 10.825-62.844c-13.832 3.308-22.552 13.832-32.776 25.859-19.244-7.457-45.178-7.797-56.199-3.113v62.268l54.094 7.599z" fill="#f7f7f9"/><path clip-rule="evenodd" d="m189.246 100.035c2.419-1.1829 4.769-1.9162 6.865-1.9162.278 0 .542.124.72.3384.178.2143.251.4967.199.7704-2.042 10.8394-4.871 27.4844-7.191 41.4274-1.16 6.969-2.192 13.261-2.935 17.81-.371 2.275-.669 4.114-.875 5.384l-.319 1.969c0 .001 0 .002-.924-.146l.924.148c-.027.168-.099.325-.208.454l-21.676 25.739c-.208.246-.528.369-.847.323l-46.234-6.561c-.461-.065-.804-.46-.804-.926h.936c-.936 0-.936 0-.936 0v-64.093c0-.259.107-.506.295-.682 1.383-1.299 3.642-2.09 6.298-2.553 2.693-.469 5.949-.627 9.478-.541 7.061.171 15.329 1.32 22.599 3 3.609.833 6.986 1.801 9.858 2.851.899-1.298 1.913-2.643 3.014-4.003 3.957-4.888 9.09-10.032 14.203-13.963 2.557-1.965 5.128-3.642 7.56-4.83zm-25.845 24.4c-.302.475-.586.941-.851 1.397-1.244 2.14-2.104 4.133-2.324 5.753-.111.816-.071 1.622.244 2.32.33.731.921 1.252 1.713 1.527.759.265 1.676.297 2.712.155 1.044-.142 2.273-.471 3.695-.99 1.428-.522 2.563-1.085 3.403-1.697.836-.61 1.447-1.318 1.701-2.148.539-1.76-.68-3.293-2.235-4.46-1.292-.97-3.079-1.897-5.193-2.765.803-1.139 1.699-2.321 2.671-3.522 3.875-4.787 8.905-9.825 13.89-13.656 2.492-1.916 4.954-3.516 7.241-4.633 1.803-.881 3.455-1.442 4.9-1.643-2.025 10.863-4.738 26.834-6.975 40.274-1.16 6.972-2.193 13.266-2.935 17.817-.372 2.275-.67 4.115-.876 5.386l-.278 1.717-21.176 25.144-44.916-6.374v-62.851c1.021-.791 2.719-1.416 5.044-1.821 2.528-.441 5.652-.598 9.111-.515 6.915.168 15.056 1.297 22.223 2.953 3.375.779 6.52 1.673 9.211 2.632zm1.791.676c2.199.879 3.956 1.786 5.144 2.678 1.49 1.117 1.723 1.913 1.569 2.415-.092.302-.363.709-1.015 1.184-.647.472-1.605.963-2.942 1.451-1.345.491-2.437.776-3.306.894-.878.121-1.468.063-1.844-.068-.344-.12-.519-.3-.622-.53-.119-.263-.18-.679-.096-1.298.17-1.25.88-2.986 2.088-5.065.312-.538.654-1.092 1.024-1.661z" fill="#a7c5c3" fill-rule="evenodd"/><g stroke="#a7c5c3" stroke-linecap="round" stroke-linejoin="round"><path d="m115.941 184.849c0 .466.343.861.804.926l46.234 6.561c.319.046.639-.077.847-.323l21.676-25.739c.109-.129.181-.286.208-.454l-.924-.148c.924.148.924.147.924.146l.319-1.969c.206-1.27.504-3.109.875-5.384.743-4.549 1.775-10.841 2.935-17.81 2.32-13.943 5.149-30.588 7.191-41.4274.052-.2737-.021-.5561-.199-.7704-.178-.2144-.442-.3384-.72-.3384-2.096 0-4.446.7333-6.865 1.9162-2.432 1.188-5.003 2.865-7.56 4.83-5.113 3.931-10.246 9.075-14.203 13.963-1.101 1.36-2.115 2.705-3.014 4.003-2.872-1.05-6.249-2.018-9.858-2.851-7.27-1.68-15.538-2.829-22.599-3-3.529-.086-6.785.072-9.478.541-2.656.463-4.915 1.254-6.298 2.553-.188.176-.295.423-.295.682zm0 0h.936c-.936 0-.936 0-.936 0zm47.46-60.414c-.302.475-.586.941-.851 1.397-1.244 2.14-2.104 4.133-2.324 5.753-.111.816-.071 1.622.244 2.32.33.731.921 1.252 1.713 1.527.759.265 1.676.297 2.712.155 1.044-.142 2.273-.471 3.695-.99 1.428-.522 2.563-1.085 3.403-1.697.836-.61 1.447-1.318 1.701-2.148.539-1.76-.68-3.293-2.235-4.46-1.292-.97-3.079-1.897-5.193-2.765.803-1.139 1.699-2.321 2.671-3.522 3.875-4.787 8.905-9.825 13.89-13.656 2.492-1.916 4.954-3.516 7.241-4.633 1.803-.881 3.455-1.442 4.9-1.643-2.025 10.863-4.738 26.834-6.975 40.274-1.16 6.972-2.193 13.266-2.935 17.817-.372 2.275-.67 4.115-.876 5.386l-.278 1.717-21.176 25.144-44.916-6.374v-62.851c1.021-.791 2.719-1.416 5.044-1.821 2.528-.441 5.652-.598 9.111-.515 6.915.168 15.056 1.297 22.223 2.953 3.375.779 6.52 1.673 9.211 2.632zm1.791.676c2.199.879 3.956 1.786 5.144 2.678 1.49 1.117 1.723 1.913 1.569 2.415-.092.302-.363.709-1.015 1.184-.647.472-1.605.963-2.942 1.451-1.345.491-2.437.776-3.306.894-.878.121-1.468.063-1.844-.068-.344-.12-.519-.3-.622-.53-.119-.263-.18-.679-.096-1.298.17-1.25.88-2.986 2.088-5.065.312-.538.654-1.092 1.024-1.661z"/><path clip-rule="evenodd" d="m67.9258 12.9743c-9.3338 2.2535-17.5843 4.0302-23.1423 4.0302-4.8914 0-8.5831 3.2819-11.425 9.2814-2.8414 5.9984-4.6999 14.4682-5.9887 24.2628-1.6132 12.2605-2.3143 26.3873-2.9939 40.0792-.4078 8.2154-.8078 16.2741-1.3924 23.6791-2.4801 31.418-11.3674 133.653-15.50064 180.839-.04509.515-.49894.895-1.01371.85-.51476-.045-.8955-.499-.85041-1.013 4.13361-47.191 13.01996-149.415 15.49936-180.823.575-7.284.9731-15.289 1.3806-23.4828.6844-13.7614 1.3954-28.0568 3.0159-40.3726 1.2945-9.8384 3.1817-18.5475 6.1528-24.8198 2.9705-6.2711 7.1578-10.3516 13.1161-10.3516 5.2919 0 13.3129-1.7107 22.7031-3.9779 2.315-.559 4.7092-1.1506 7.1587-1.75593 7.4304-1.83615 15.3705-3.79826 23.1575-5.35614 10.3482-2.07041 20.5212-3.447821 28.9792-2.85757 8.436.58877 15.418 3.15762 19.013 9.24054 1.751 2.9636 2.53 5.7952 2.492 8.4535-.039 2.6599-.897 5.0845-2.322 7.2323-1.996 3.006-5.106 5.4792-8.7 7.3686.032.0422.064.0844.096.1268 1.294 1.7301 2.073 3.6771 1.982 5.7698-.091 2.0971-1.049 4.2049-2.97 6.2629-3.761 4.03-9.184 6.939-15.022 8.8252-4.165 1.3456-8.576 2.1823-12.811 2.5285.008.7668-.058 1.5307-.207 2.2841-.794 4.0263-3.897 7.4717-10.0743 9.3518-24.112 7.3385-41.9593-.0156-53.962-7.3293-3.0843-1.8794-7.4024-.0755-8.7909 4.3324-1.3526 4.2937.1942 11.2525 9.8575 18.8815.4056.3201.4748.9085.1546 1.3141-.3202.4055-.9085.4748-1.3141.1546-9.9697-7.8709-12.1667-15.5668-10.4828-20.9124 1.6479-5.2314 7.1462-8.0512 11.5494-5.3682 11.7386 7.1528 29.023 14.2651 52.4435 7.1371 5.7051-1.7364 8.1571-4.7492 8.7831-7.9239.116-.5872.172-1.1892.171-1.8-1.066.0514-2.117.0709-3.145.059-5.6188-.0654-10.6964-1.0737-13.9446-3.096-1.6376-1.0196-2.8798-2.3419-3.4206-3.9971-.5458-1.6704-.3275-3.5262.6585-5.4982.9887-1.9774 2.3573-3.274 3.9855-3.9239 1.6168-.6453 3.385-.6114 5.1123-.1267 3.4277.9618 6.8839 3.7436 9.2949 7.1585 1.576 2.233 2.76 4.8156 3.172 7.4381 4.098-.3345 8.369-1.1438 12.395-2.4446 5.655-1.8273 10.758-4.6016 14.229-8.3214 1.696-1.817 2.401-3.5196 2.469-5.0672.067-1.5522-.502-3.0846-1.611-4.5675-.102-.1357-.208-.2706-.318-.4047-.984.4501-1.995.859-3.022 1.2257-5.537 1.978-11.658 2.781-16.702 2.1461-4.981-.627-9.274-2.7254-10.468-6.9034-.583-2.0403-.279-3.7699.876-5.0511 1.102-1.2218 2.838-1.8742 4.78-2.1543 3.903-.5625 9.231.291 14.154 2.064 4.138 1.49 8.136 3.6822 10.827 6.3821 3.566-1.8096 6.565-4.1683 8.415-6.9557 1.254-1.8886 1.977-3.9686 2.01-6.225.034-2.258-.624-4.7545-2.231-7.4741-3.122-5.28356-9.312-7.75212-17.533-8.32582-8.199-.5722-18.17.76287-28.4812 2.82575-7.7418 1.54885-15.6223 3.4962-23.0435 5.33007-2.4578.6073-4.8652 1.2022-7.2005 1.7661zm66.2512 19.911c-2.405-2.2159-5.886-4.1192-9.648-5.4738-4.761-1.7144-9.763-2.4755-13.253-1.9725-1.753.2528-2.979.8032-3.657 1.5552-.624.6926-.917 1.7077-.467 3.284.873 3.0552 4.135 4.9608 8.903 5.5609 4.705.5922 10.529-.1548 15.839-2.0517.776-.2775 1.539-.5785 2.283-.9021zm-27.673 22.3647c-.379-2.2075-1.394-4.4534-2.824-6.4796-2.239-3.1725-5.37-5.6219-8.2714-6.4361-1.4373-.4033-2.769-.3936-3.9131.063-1.1327.4521-2.1859 1.3836-3.0055 3.0228-.8223 1.6446-.9112 2.9856-.5535 4.0802.3626 1.1096 1.2345 2.1204 2.6309 2.9898 2.8202 1.7558 7.4912 2.7495 12.9776 2.8133.967.0113 1.956-.0064 2.959-.0534z" fill="#a7c5c3" fill-rule="evenodd"/><path clip-rule="evenodd" d="m132.718 54.1872c-7.566 0-13.699 6.1332-13.699 13.6989s6.133 13.6989 13.699 13.6989 13.699-6.1332 13.699-13.6989-6.133-13.6989-13.699-13.6989zm-15.57 13.6989c0-8.5992 6.971-15.5702 15.57-15.5702s15.57 6.971 15.57 15.5702c0 8.5991-6.971 15.5701-15.57 15.5701s-15.57-6.971-15.57-15.5701z" fill="#a7c5c3" fill-rule="evenodd"/><path clip-rule="evenodd" d="m91.5859 65.9414c-7.5657 0-13.6989 6.1333-13.6989 13.6989 0 7.5657 6.1332 13.6989 13.6989 13.6989s13.6991-6.1332 13.6991-13.6989c0-7.5656-6.1334-13.6989-13.6991-13.6989zm-15.5702 13.6989c0-8.5991 6.971-15.5701 15.5702-15.5701 8.5991 0 15.5701 6.971 15.5701 15.5701 0 8.5992-6.971 15.5702-15.5701 15.5702-8.5992 0-15.5702-6.971-15.5702-15.5702z" fill="#a7c5c3" fill-rule="evenodd"/><path clip-rule="evenodd" d="m65.5191 159.821c-5.3967-9.343-12.8888-14.749-19.6164-16.863-3.3606-1.057-6.5637-1.301-9.2303-.768-2.667.532-4.8666 1.864-6.0363 4.008-.2474.454-.0802 1.022.3734 1.27.4536.247 1.022.08 1.2694-.374.8318-1.525 2.4683-2.612 4.7601-3.069 2.2922-.459 5.1707-.267 8.3026.718 6.2538 1.965 13.3858 7.053 18.5649 16.028.0055.009.0111.018.0169.028 2.0721 3.317 4.023 6.462 5.8665 9.433 6.3242 10.195 11.3845 18.351 15.743 24.46 2.8173 3.948 5.3705 7.083 7.8135 9.378 2.4429 2.295 4.8251 3.798 7.3056 4.403 5.032 1.228 9.986-1.333 15.986-6.889 6.031-5.584 13.4-14.463 23.313-26.493 1.618-1.963 2.923-3.42 3.976-4.471 1.063-1.06 1.832-1.669 2.379-1.977.425-.239.608-.239.651-.234.021.017.119.111.236.458.136.406.23.943.332 1.604.01.068.021.136.031.206.089.579.188 1.225.337 1.823.165.661.417 1.377.876 1.939.496.608 1.201.993 2.117.993.632 0 1.19-.33 1.629-.682.46-.369.928-.876 1.396-1.459.937-1.168 1.985-2.778 3.096-4.567.491-.791.996-1.619 1.514-2.467 1.853-3.036 3.864-6.332 5.944-9.089 1.328-1.761 2.649-3.255 3.934-4.299 1.297-1.053 2.453-1.564 3.465-1.557.96.007 2.005.483 3.108 1.908 1.119 1.447 2.231 3.796 3.27 7.346 1.643 5.617.517 11.842-3.721 20.891-4.241 9.054-11.503 20.75-21.891 37.248-10.51 16.692-19.454 28.336-27.794 35.497-8.312 7.138-15.943 9.761-23.898 8.579-8.0281-1.193-16.5647-6.283-26.5994-15.012-10.0208-8.718-21.4205-20.959-35.185-36.287-.3453-.385-.9368-.417-1.3213-.071-.3845.345-.4163.937-.071 1.321 13.7577 15.32 25.2292 27.645 35.3491 36.448 10.106 8.792 18.9796 14.178 27.5516 15.452 8.646 1.284 16.804-1.634 25.393-9.01 8.561-7.351 17.627-19.193 28.159-35.92 10.364-16.461 17.701-28.268 22.001-37.451 4.303-9.188 5.659-15.933 3.823-22.21-1.067-3.647-2.261-6.252-3.586-7.966-1.341-1.733-2.878-2.622-4.574-2.634-1.643-.012-3.217.804-4.659 1.976-1.454 1.181-2.881 2.811-4.248 4.624-2.142 2.839-4.219 6.245-6.077 9.29-.51.835-1.003 1.643-1.476 2.405-1.113 1.791-2.107 3.314-2.966 4.384-.431.536-.8.924-1.108 1.17-.298.24-.441.267-.457.27-.001 0-.002 0-.001 0-.325 0-.509-.109-.668-.304-.196-.241-.366-.636-.509-1.209-.127-.508-.212-1.065-.303-1.658-.011-.067-.021-.135-.032-.204-.098-.635-.212-1.332-.408-1.915-.186-.554-.528-1.257-1.258-1.577-.758-.332-1.571-.102-2.32.32-.768.432-1.679 1.182-2.783 2.283-1.112 1.11-2.459 2.617-4.098 4.605-9.948 12.072-17.224 20.833-23.14 26.31-5.947 5.506-10.241 7.428-14.272 6.444-2.0514-.5-4.1553-1.777-6.4673-3.949-2.3118-2.172-4.7821-5.192-7.5716-9.101-4.32-6.055-9.3354-14.139-15.6507-24.318-1.846-2.976-3.8031-6.131-5.8863-9.466zm81.4479 8.59s-.001-.001-.003-.001z" fill="#a7c5c3" fill-rule="evenodd"/></g></svg>