<svg fill="none" height="160" viewBox="0 0 375 160" width="375" xmlns="http://www.w3.org/2000/svg" xmlns:xlink="http://www.w3.org/1999/xlink"><clipPath id="a"><path d="m0 0h375v160h-375z"/></clipPath><g clip-path="url(#a)"><path d="m0 0h375v160h-375z" fill="#ffd9d0"/><path d="m335.895-15.7628 31.446-31.4462 56.603 56.60325-31.446 31.44625z" fill="#ffd9d0"/><path d="m348.826 133.517c-6.291 23.48-30.426 37.414-53.905 31.123-23.48-6.292-37.414-30.426-31.123-53.906 6.291-23.4801 30.426-37.4142 53.906-31.1227 23.48 6.2914 37.414 30.4257 31.122 53.9057z" fill="#a5b8fd"/><path d="m36.9082 238.121c9.8556-3.036 15.017-13.076 17.3164-24.595 3.4583-17.326-2.8473-37.172-34.823-58.438-20.001021-13.302-35.897 9.816-40.673 14.85-4.7761 5.034-18.9526 23.65 1.9724 45.704 20.925 22.054 46.3517 25.515 56.2072 22.479z" fill="#ffd9d0"/><path d="m166.005-31.1164c-8.942-15.4885-52.186-20.9056-69.4548-10.9354-16.3787 9.4563-18.6145 27.053-12.1768 42.636189 6.4377 15.583211 28.5406 30.521711 51.8626 17.056811 27.951-16.13729 38.711-33.269 29.769-48.7576z" fill="#a5b8fd"/><path d="m210.436-18.5476-10.403 38.8235 77.647 20.8054 10.403-38.82345z" fill="#03be78"/><path d="m-33.5667 6.07053 69.9225 74.29377c9.1202-25.7193 5.9993-53.9647-9.7836-70.7343-15.783-16.76965-39.7084-17.26133-60.1389-3.55947z" fill="#f4d8fe"/><path d="m165.427 82.5719-49.606 6.9171-14.843 46.086 27.153 31.378 50.224-2.754 10.673-47.303z" fill="#a7c5c3"/></g></svg>