<svg width="346" height="314" viewBox="0 0 346 314" fill="none" xmlns="http://www.w3.org/2000/svg">
<path fill-rule="evenodd" clip-rule="evenodd" d="M164.132 70.7079C170.741 74.4682 182.013 83.3126 192.242 92.3988C210.177 108.33 222.561 118.949 234.369 125.753C246.124 132.528 257.326 135.53 272.913 136.133C273.43 136.153 273.832 136.588 273.812 137.104C273.792 137.62 273.357 138.023 272.841 138.003C256.999 137.39 245.491 134.323 233.435 127.375C221.43 120.457 208.901 109.699 191 93.7979C180.785 84.7241 169.634 75.9917 163.207 72.3343C161.59 71.4143 160.354 70.8641 159.542 70.679C159.347 70.6345 159.197 70.6162 159.087 70.6138C159.071 70.6135 159.057 70.6135 159.043 70.6137C159.048 70.7512 159.086 70.9955 159.22 71.3814C159.391 71.8734 159.688 72.51 160.138 73.3091C161.037 74.9057 162.497 77.0596 164.624 79.8552C168.322 84.7143 171.455 88.2371 174.064 90.7351C174.399 90.525 174.736 90.3294 175.075 90.1493C178.765 88.1874 181.806 88.7685 183.74 90.4242C184.677 91.2269 185.322 92.259 185.638 93.2972C185.948 94.3201 185.963 95.4449 185.49 96.3699C184.985 97.3563 184.007 97.953 182.716 97.9735C181.484 97.993 179.983 97.496 178.219 96.431C176.958 95.6701 175.519 94.5915 173.889 93.1262C170.991 95.3031 168.261 98.6844 166.304 102.445C163.879 107.104 162.757 112.119 163.772 115.909C164.815 119.799 166.515 121.872 168.522 123.067C170.58 124.292 173.08 124.671 175.904 124.916C176.412 124.961 176.929 125 177.454 125.04C182.637 125.433 188.558 125.883 192.782 131.597C215.508 162.335 241.157 185.875 284.064 190.373C284.577 190.427 284.95 190.887 284.897 191.401C284.843 191.915 284.382 192.288 283.868 192.234C240.212 187.657 214.147 163.642 191.278 132.709C187.586 127.716 182.535 127.319 177.279 126.906C176.768 126.866 176.256 126.825 175.742 126.781C172.91 126.534 170.024 126.138 167.565 124.675C165.054 123.18 163.106 120.651 161.965 116.393C160.775 111.953 162.121 106.428 164.644 101.581C166.632 97.7609 169.423 94.2212 172.504 91.8299C169.846 89.2513 166.736 85.7202 163.135 80.9883C160.987 78.1647 159.468 75.9327 158.507 74.2273C158.027 73.3754 157.674 72.632 157.453 71.9962C157.239 71.3815 157.113 70.7688 157.199 70.2209C157.245 69.9317 157.353 69.6399 157.556 69.3863C157.761 69.1298 158.025 68.9606 158.306 68.8617C158.831 68.6768 159.423 68.7325 159.958 68.8545C161.054 69.1043 162.49 69.7735 164.132 70.7079ZM175.499 92.054C176.9 93.2843 178.126 94.189 179.186 94.8291C180.807 95.8081 181.953 96.1141 182.686 96.1025C183.361 96.0918 183.667 95.8233 183.824 95.5176C184.012 95.1506 184.064 94.5563 183.847 93.8407C183.634 93.1402 183.186 92.4138 182.523 91.8456C181.254 90.7594 179.063 90.1485 175.953 91.8017C175.802 91.8821 175.651 91.9663 175.499 92.054Z" fill="#A88DFF" stroke="#A88DFF" stroke-linecap="round" stroke-linejoin="round"/>
<path d="M225.632 49.4793C242.367 23.0274 285.014 11.6913 306.608 75.3918C317.538 107.634 342.777 255.697 345.476 314H208.07C209.689 292.406 237.509 173.643 242.367 139.093C196.481 148.27 208.897 75.9311 225.632 49.4793Z" fill="#F4D8FE"/>
<path d="M213.676 220.802L254.487 268.322L225.416 293.479L184.047 250.432L213.676 220.802Z" fill="#A5B8FD"/>
<path fill-rule="evenodd" clip-rule="evenodd" d="M210.18 74.4316C211.591 75.8172 213.669 77.0997 216.157 78.2489C218.816 79.4771 221.879 80.5233 224.953 81.3726C230.898 83.015 236.773 83.8907 239.713 83.9519C241.415 82.6118 242.867 81.3349 244.101 80.1307C244.102 79.7604 244.102 79.4083 244.102 79.0752C244.102 74.1476 245.182 70.8146 246.586 68.9044C247.284 67.9545 248.11 67.2955 248.981 67.0475C249.894 66.7875 250.829 67.0021 251.467 67.7401C252.064 68.4298 252.277 69.4321 252.186 70.5374C252.094 71.6592 251.684 72.9937 250.895 74.4964C249.919 76.3533 248.341 78.513 245.969 80.912C245.966 81.7409 245.96 82.6472 245.955 83.625C245.888 95.3189 245.764 117.237 247.744 139.155C248.883 151.764 250.715 164.337 253.643 174.94C256.582 185.58 260.582 194.073 265.944 198.695C276.738 208.001 294.762 208.294 309.348 201.48C323.879 194.69 334.656 181.011 331.29 162.685C327.827 143.832 322.719 118.705 316.528 95.6626C313.432 84.1409 310.069 73.1536 306.511 63.7385C302.947 54.3087 299.209 46.5162 295.381 41.3432C281.41 22.464 261.623 19.3327 244.56 26.6206C227.553 33.8846 213.219 51.5293 210.18 74.4316ZM244.089 82.71C244.087 83.0008 244.085 83.2989 244.084 83.604C244.017 95.2885 243.891 117.306 245.88 139.324C247.024 151.985 248.869 164.682 251.84 175.438C254.8 186.156 258.919 195.11 264.722 200.113C276.258 210.057 295.137 210.184 310.14 203.175C325.197 196.14 336.694 181.751 333.13 162.347C329.663 143.471 324.544 118.289 318.335 95.177C315.23 83.6214 311.849 72.5701 308.261 63.0769C304.679 53.5985 300.868 45.613 296.885 40.2301C282.366 20.6101 261.634 17.2934 243.825 24.8997C226.071 32.4829 211.256 50.8928 208.266 74.6441C208.231 74.92 208.321 75.1971 208.511 75.4002C210.158 77.1604 212.607 78.6707 215.372 79.9478C218.151 81.2311 221.316 82.3092 224.455 83.1763C230.712 84.905 236.983 85.8266 240.031 85.8266C240.24 85.8266 240.442 85.757 240.607 85.6289C241.892 84.6266 243.049 83.6525 244.089 82.71ZM245.987 78.1609C247.503 76.4568 248.551 74.934 249.238 73.6262C249.946 72.2783 250.255 71.1889 250.321 70.3841C250.389 69.5628 250.2 69.1358 250.052 68.9642C249.945 68.8408 249.792 68.7621 249.493 68.8473C249.151 68.9446 248.64 69.2694 248.094 70.0125C247.082 71.39 246.112 73.9996 245.987 78.1609Z" fill="#A88DFF" stroke="#A88DFF" stroke-linecap="round" stroke-linejoin="round"/>
<path fill-rule="evenodd" clip-rule="evenodd" d="M221.996 91.7128C220.895 93.4288 219.969 95.9552 219.531 98.8836C219.092 101.812 219.236 104.499 219.786 106.462C220.363 108.519 221.256 109.408 222.024 109.523C222.791 109.638 223.906 109.05 225.06 107.252C226.162 105.536 227.087 103.01 227.526 100.082C227.965 97.1532 227.82 94.4666 227.27 92.5031C226.694 90.446 225.8 89.5576 225.033 89.4426C224.265 89.3276 223.15 89.9151 221.996 91.7128ZM220.422 90.7019C221.644 88.798 223.358 87.2996 225.31 87.592C227.261 87.8844 228.461 89.8195 229.072 91.9981C229.709 94.2702 229.845 97.2313 229.376 100.359C228.908 103.487 227.909 106.278 226.635 108.263C225.412 110.167 223.698 111.666 221.746 111.373C219.795 111.081 218.595 109.146 217.984 106.967C217.348 104.695 217.211 101.734 217.68 98.6063C218.149 95.4787 219.147 92.6876 220.422 90.7019Z" fill="#A88DFF" stroke="#A88DFF" stroke-linecap="round" stroke-linejoin="round"/>
<path fill-rule="evenodd" clip-rule="evenodd" d="M98.4625 1.29003C98.8807 1.27846 99.2557 1.54584 99.381 1.94493L117.914 60.9489L129.01 37.4881C129.179 37.132 129.552 36.9195 129.945 36.9566C130.337 36.9938 130.664 37.2726 130.762 37.654L149.805 111.331C149.935 111.831 149.634 112.342 149.134 112.471C148.633 112.6 148.123 112.299 147.994 111.799L129.597 40.6243L118.584 63.91C118.419 64.2581 118.058 64.4698 117.674 64.4433C117.289 64.4169 116.961 64.1577 116.845 63.7903L98.5832 5.64943L82.5804 68.5909C82.4941 68.9301 82.2258 69.1928 81.8849 69.2718C81.5439 69.3508 81.1874 69.233 80.9607 68.9663L69.5491 55.5409L54.7248 95.7782C54.6244 96.0508 54.4031 96.2613 54.1258 96.3479L2.5417 112.458C2.04846 112.612 1.52374 112.337 1.3697 111.844C1.21565 111.351 1.49063 110.826 1.98386 110.672L53.1282 94.699L68.3469 53.3913C68.4618 53.0792 68.7338 52.8517 69.0612 52.7935C69.3887 52.7354 69.7223 52.8554 69.9377 53.1088L81.2132 66.3741L97.5816 1.99476C97.6847 1.58935 98.0444 1.30161 98.4625 1.29003Z" fill="#A88DFF" stroke="#A88DFF" stroke-linecap="round" stroke-linejoin="round"/>
<path fill-rule="evenodd" clip-rule="evenodd" d="M244.767 176.777C245.282 176.818 245.666 177.27 245.624 177.785C242.006 194.221 238.066 200.953 219.934 230.769C216.66 236.151 215.072 241.107 214.97 245.108C214.868 249.094 216.231 252.048 218.78 253.689C221.365 255.354 225.402 255.824 230.957 254.291C236.498 252.762 243.423 249.271 251.631 243.218C268.547 230.745 276.741 220.416 280.931 213.713C281.204 213.275 281.782 213.142 282.22 213.416C282.658 213.69 282.791 214.267 282.517 214.705C278.223 221.577 269.875 232.091 252.742 244.724C244.424 250.858 237.29 254.485 231.455 256.095C225.634 257.701 220.978 257.33 217.767 255.262C214.52 253.172 212.986 249.501 213.099 245.06C213.212 240.634 214.952 235.36 218.335 229.796C236.33 200.206 241.192 191.78 243.759 177.634C243.801 177.119 244.252 176.735 244.767 176.777Z" fill="#A88DFF" stroke="#A88DFF" stroke-linecap="round" stroke-linejoin="round"/>
<path fill-rule="evenodd" clip-rule="evenodd" d="M213.712 212.382C213.972 212.392 214.216 212.509 214.386 212.707L255.196 260.227C255.532 260.618 255.489 261.207 255.099 261.544L226.028 286.702C225.652 287.027 225.086 287.001 224.741 286.642L183.372 243.595C183.019 243.228 183.024 242.646 183.385 242.285L213.015 212.655C213.199 212.471 213.451 212.372 213.712 212.382ZM185.357 242.96L225.475 284.706L253.17 260.739L213.624 214.692L185.357 242.96Z" fill="#A88DFF" stroke="#A88DFF" stroke-linecap="round" stroke-linejoin="round"/>
</svg>
