<svg width="160" height="106" viewBox="0 0 160 106" fill="none" xmlns="http://www.w3.org/2000/svg">
<circle cx="7.93756" cy="25.7149" r="7.93756" fill="#D287A5"/>
<path fill-rule="evenodd" clip-rule="evenodd" d="M7.93756 56.6594C11.7734 56.6594 14.8829 53.5498 14.8829 49.714C14.8829 45.8782 11.7734 42.7686 7.93756 42.7686C4.10174 42.7686 0.992195 45.8782 0.992195 49.714C0.992195 53.5498 4.10174 56.6594 7.93756 56.6594ZM7.93756 57.6515C12.3214 57.6515 15.8751 54.0978 15.8751 49.714C15.8751 45.3302 12.3214 41.7764 7.93756 41.7764C3.55377 41.7764 0 45.3302 0 49.714C0 54.0978 3.55377 57.6515 7.93756 57.6515Z" fill="#D287A5"/>
<circle cx="7.93756" cy="73.7128" r="7.93756" fill="#D287A5"/>
<circle cx="7.93756" cy="97.7119" r="7.93756" fill="#D287A5"/>
<circle cx="31.9584" cy="25.7149" r="7.93756" fill="#D287A5"/>
<path fill-rule="evenodd" clip-rule="evenodd" d="M31.9584 56.6594C35.7943 56.6594 38.9038 53.5498 38.9038 49.714C38.9038 45.8782 35.7943 42.7686 31.9584 42.7686C28.1226 42.7686 25.0131 45.8782 25.0131 49.714C25.0131 53.5498 28.1226 56.6594 31.9584 56.6594ZM31.9584 57.6515C36.3422 57.6515 39.896 54.0978 39.896 49.714C39.896 45.3302 36.3422 41.7764 31.9584 41.7764C27.5746 41.7764 24.0209 45.3302 24.0209 49.714C24.0209 54.0978 27.5746 57.6515 31.9584 57.6515Z" fill="#D287A5"/>
<circle cx="31.9584" cy="73.7128" r="7.93756" fill="#D287A5"/>
<circle cx="31.9584" cy="97.7119" r="7.93756" fill="#D287A5"/>
<path fill-rule="evenodd" clip-rule="evenodd" d="M55.9792 32.6603C59.815 32.6603 62.9246 29.5507 62.9246 25.7149C62.9246 21.8791 59.815 18.7695 55.9792 18.7695C52.1434 18.7695 49.0338 21.8791 49.0338 25.7149C49.0338 29.5507 52.1434 32.6603 55.9792 32.6603ZM55.9792 33.6525C60.363 33.6525 63.9167 30.0987 63.9167 25.7149C63.9167 21.3311 60.363 17.7773 55.9792 17.7773C51.5954 17.7773 48.0416 21.3311 48.0416 25.7149C48.0416 30.0987 51.5954 33.6525 55.9792 33.6525Z" fill="#D287A5"/>
<circle cx="55.9792" cy="49.714" r="7.93756" fill="#D287A5"/>
<path fill-rule="evenodd" clip-rule="evenodd" d="M55.9792 80.6582C59.815 80.6582 62.9246 77.5486 62.9246 73.7128C62.9246 69.877 59.815 66.7675 55.9792 66.7675C52.1434 66.7675 49.0338 69.877 49.0338 73.7128C49.0338 77.5486 52.1434 80.6582 55.9792 80.6582ZM55.9792 81.6504C60.363 81.6504 63.9167 78.0966 63.9167 73.7128C63.9167 69.329 60.363 65.7753 55.9792 65.7753C51.5954 65.7753 48.0416 69.329 48.0416 73.7128C48.0416 78.0966 51.5954 81.6504 55.9792 81.6504Z" fill="#D287A5"/>
<circle cx="55.9792" cy="97.7119" r="7.93756" fill="#D287A5"/>
<circle cx="79.9998" cy="25.7149" r="7.93756" fill="#D287A5"/>
<circle cx="79.9998" cy="49.714" r="7.93756" fill="#D287A5"/>
<path fill-rule="evenodd" clip-rule="evenodd" d="M79.9998 80.6582C83.8356 80.6582 86.9452 77.5486 86.9452 73.7128C86.9452 69.877 83.8356 66.7675 79.9998 66.7675C76.164 66.7675 73.0545 69.877 73.0545 73.7128C73.0545 77.5486 76.164 80.6582 79.9998 80.6582ZM79.9998 81.6504C84.3836 81.6504 87.9374 78.0966 87.9374 73.7128C87.9374 69.329 84.3836 65.7753 79.9998 65.7753C75.616 65.7753 72.0623 69.329 72.0623 73.7128C72.0623 78.0966 75.616 81.6504 79.9998 81.6504Z" fill="#D287A5"/>
<circle cx="79.9998" cy="97.7119" r="7.93756" fill="#D287A5"/>
<path fill-rule="evenodd" clip-rule="evenodd" d="M104.021 32.6603C107.856 32.6603 110.966 29.5507 110.966 25.7149C110.966 21.8791 107.856 18.7695 104.021 18.7695C100.185 18.7695 97.0752 21.8791 97.0752 25.7149C97.0752 29.5507 100.185 32.6603 104.021 32.6603ZM104.021 33.6525C108.404 33.6525 111.958 30.0987 111.958 25.7149C111.958 21.3311 108.404 17.7773 104.021 17.7773C99.6368 17.7773 96.083 21.3311 96.083 25.7149C96.083 30.0987 99.6368 33.6525 104.021 33.6525Z" fill="#D287A5"/>
<circle cx="104.021" cy="49.714" r="7.93756" fill="#D287A5"/>
<circle cx="104.021" cy="73.7128" r="7.93756" fill="#D287A5"/>
<path fill-rule="evenodd" clip-rule="evenodd" d="M104.021 104.657C107.856 104.657 110.966 101.548 110.966 97.7119C110.966 93.8761 107.856 90.7665 104.021 90.7665C100.185 90.7665 97.0752 93.8761 97.0752 97.7119C97.0752 101.548 100.185 104.657 104.021 104.657ZM104.021 105.649C108.404 105.649 111.958 102.096 111.958 97.7119C111.958 93.3281 108.404 89.7744 104.021 89.7744C99.6368 89.7744 96.083 93.3281 96.083 97.7119C96.083 102.096 99.6368 105.649 104.021 105.649Z" fill="#D287A5"/>
<circle cx="128.041" cy="25.7149" r="7.93756" fill="#D287A5"/>
<circle cx="128.041" cy="49.714" r="7.93756" fill="#D287A5"/>
<circle cx="128.041" cy="73.7128" r="7.93756" fill="#D287A5"/>
<circle cx="128.041" cy="97.7119" r="7.93756" fill="#D287A5"/>
<circle cx="152.062" cy="25.7149" r="7.93756" fill="#D287A5"/>
<circle cx="152.062" cy="49.714" r="7.93756" fill="#D287A5"/>
<path fill-rule="evenodd" clip-rule="evenodd" d="M152.062 80.6582C155.898 80.6582 159.008 77.5486 159.008 73.7128C159.008 69.877 155.898 66.7675 152.062 66.7675C148.226 66.7675 145.117 69.877 145.117 73.7128C145.117 77.5486 148.226 80.6582 152.062 80.6582ZM152.062 81.6504C156.446 81.6504 160 78.0966 160 73.7128C160 69.329 156.446 65.7753 152.062 65.7753C147.679 65.7753 144.125 69.329 144.125 73.7128C144.125 78.0966 147.679 81.6504 152.062 81.6504Z" fill="#D287A5"/>
<path fill-rule="evenodd" clip-rule="evenodd" d="M152.062 104.657C155.898 104.657 159.008 101.548 159.008 97.7119C159.008 93.8761 155.898 90.7665 152.062 90.7665C148.226 90.7665 145.117 93.8761 145.117 97.7119C145.117 101.548 148.226 104.657 152.062 104.657ZM152.062 105.649C156.446 105.649 160 102.096 160 97.7119C160 93.3281 156.446 89.7744 152.062 89.7744C147.679 89.7744 144.125 93.3281 144.125 97.7119C144.125 102.096 147.679 105.649 152.062 105.649Z" fill="#D287A5"/>
<path fill-rule="evenodd" clip-rule="evenodd" d="M86.7309 8.27088C70.7949 8.27088 57.8762 21.1896 57.8762 37.1255C57.8762 53.0615 70.7949 65.9802 86.7309 65.9802C102.667 65.9802 115.586 53.0615 115.586 37.1255C115.586 21.1896 102.667 8.27088 86.7309 8.27088ZM56.884 37.1255C56.884 20.6416 70.2469 7.27869 86.7309 7.27869C103.215 7.27869 116.578 20.6416 116.578 37.1255C116.578 53.6095 103.215 66.9724 86.7309 66.9724C70.2469 66.9724 56.884 53.6095 56.884 37.1255Z" fill="#A5B8FD" stroke="#A5B8FD" stroke-linecap="round" stroke-linejoin="round"/>
<path fill-rule="evenodd" clip-rule="evenodd" d="M111.754 12.4177C102.198 2.42417 91.4386 0.230518 81.9253 2.06208C72.4404 3.88818 64.2134 9.70961 59.6425 15.7192C55.0152 21.8028 51.9345 30.6985 52.392 39.8281C52.8503 48.9748 56.8616 58.3581 66.4144 65.3641C75.9726 72.3742 86.0868 73.0698 94.404 71.434C102.679 69.8064 109.218 65.8636 111.725 63.4858C113.56 62.0596 115.722 59.3959 117.625 55.9255C119.539 52.4339 121.21 48.0926 122.026 43.3032C123.659 33.7127 121.863 22.323 111.754 12.4177ZM82.1129 3.03638C72.8854 4.81293 64.8664 10.49 60.4322 16.3199C55.9438 22.2209 52.9374 30.8872 53.3829 39.7785C53.8276 48.6527 57.7093 57.7493 67.0012 64.564C76.2875 71.3746 86.1028 72.0554 94.2125 70.4604C102.344 68.8613 108.717 64.9818 111.059 62.7499C111.071 62.7381 111.084 62.727 111.098 62.7165C112.792 61.4067 114.883 58.8622 116.755 55.4485C118.622 52.0433 120.252 47.8061 121.047 43.1366C122.636 33.8112 120.899 22.7642 111.054 13.1209C111.05 13.117 111.046 13.1132 111.042 13.1092C101.727 3.36395 91.3103 1.26564 82.1129 3.03638Z" fill="#A5B8FD" stroke="#A5B8FD" stroke-linecap="round" stroke-linejoin="round"/>
<path fill-rule="evenodd" clip-rule="evenodd" d="M113.089 57.5651C114.444 57.3118 115.819 57.4962 116.721 58.5421C119.742 62.0432 123.094 65.7818 126.44 69.5137C126.773 69.8843 127.105 70.2547 127.437 70.6249C131.109 74.7211 134.733 78.7802 137.85 82.4677C140.965 86.1513 143.589 89.4821 145.252 92.1196C146.081 93.4353 146.689 94.6058 146.992 95.5782C147.286 96.5203 147.344 97.4429 146.802 98.0864C146.256 98.7348 145.415 98.8061 144.538 98.6012C143.655 98.395 142.591 97.8826 141.39 97.1452C138.978 95.6651 135.866 93.1872 132.287 90.0669C126.744 85.2356 120.023 78.8143 112.947 72.0533C110.877 70.0752 108.776 68.0681 106.665 66.0632C106.17 65.5927 105.907 65.0291 105.852 64.4198C105.798 63.8217 105.948 63.2117 106.219 62.631C106.757 61.4759 107.818 60.3379 109.046 59.4344C110.277 58.5286 111.727 57.8196 113.089 57.5651ZM106.84 64.3312C106.873 64.6953 107.025 65.036 107.349 65.3438C109.466 67.3554 111.572 69.367 113.645 71.3478C120.718 78.1053 127.415 84.5041 132.939 89.319C136.513 92.4342 139.572 94.8655 141.909 96.2996C143.082 97.0193 144.037 97.4653 144.764 97.6351C145.496 97.8062 145.854 97.6712 146.043 97.4473C146.235 97.2186 146.319 96.7531 146.045 95.8735C145.78 95.0241 145.226 93.9395 144.412 92.6488C142.789 90.0736 140.203 86.7871 137.093 83.1083C133.986 79.4334 130.371 75.3847 126.698 71.2872C126.366 70.9168 126.034 70.5461 125.701 70.1752C122.356 66.4447 118.997 62.699 115.97 59.1901C115.396 58.5246 114.456 58.319 113.271 58.5404C112.093 58.7607 110.779 59.3912 109.634 60.2335C108.487 61.0781 107.562 62.0965 107.118 63.0501C106.897 63.5237 106.807 63.9561 106.84 64.3312Z" fill="#A5B8FD" stroke="#A5B8FD" stroke-linecap="round" stroke-linejoin="round"/>
</svg>
