<svg width="1920" height="1080" viewBox="0 0 1920 1080" fill="none" xmlns="http://www.w3.org/2000/svg">
<rect width="1920" height="1080" fill="#A5B8FD"/>
<g style="mix-blend-mode:soft-light">
<path d="M1596.54 709.96L1687.97 618.531L1852.54 783.103L1761.11 874.531L1596.54 709.96Z" fill="#FFD9D0"/>
</g>
<g style="mix-blend-mode:soft-light">
<path d="M1859.11 229.086C1840.82 297.353 1770.65 337.866 1702.38 319.574C1634.11 301.282 1593.6 231.112 1611.89 162.845C1630.18 94.5785 1700.35 54.066 1768.62 72.358C1836.89 90.65 1877.4 160.82 1859.11 229.086Z" fill="#A5B8FD"/>
</g>
<g style="mix-blend-mode:soft-light">
<path d="M252.617 399.919C281.271 391.092 296.278 361.903 302.963 328.411C313.018 278.038 294.685 220.336 201.717 158.506C143.565 119.831 97.3481 187.046 83.4619 201.681C69.5757 216.317 28.3583 270.444 89.1967 334.564C150.035 398.684 223.962 408.746 252.617 399.919Z" fill="#FFD9D0"/>
</g>
<g style="mix-blend-mode:soft-light">
<path d="M998.72 749.749C1027.37 758.576 1042.38 787.765 1049.07 821.257C1059.12 871.63 1040.79 929.332 947.82 991.162C889.668 1029.84 843.452 962.622 829.565 947.987C815.679 933.351 774.462 879.224 835.3 815.104C896.139 750.984 970.065 740.922 998.72 749.749Z" fill="#FFD9D0"/>
</g>
<g style="mix-blend-mode:soft-light">
<path d="M643.132 117.667C617.132 72.6343 491.404 56.8845 441.195 85.8724C393.575 113.366 387.075 164.528 405.792 209.835C424.509 255.142 488.773 298.575 556.58 259.427C637.846 212.509 669.131 162.699 643.132 117.667Z" fill="#A5B8FD"/>
</g>
<g style="mix-blend-mode:soft-light">
<path d="M1517.75 831L1548 943.877L1322.25 1004.37L1292 891.491L1517.75 831Z" fill="#03BE78"/>
</g>
<g style="mix-blend-mode:soft-light">
<path d="M841.498 545.737L889.067 438.998L1102.55 534.135L1054.98 640.874L841.498 545.737Z" fill="#03BE78"/>
</g>
<g style="mix-blend-mode:soft-light">
<path d="M312.896 737.482L276.174 874.531L56.8965 815.775L93.6186 678.727L312.896 737.482Z" fill="#A7C5C3"/>
</g>
<g style="mix-blend-mode:soft-light">
<path d="M1317.86 99.059L1506.83 324.265C1535.81 268.909 1530.43 199.204 1487.78 148.371C1445.12 97.5371 1377.41 80.1311 1317.86 99.059Z" fill="#F4D8FE"/>
</g>
<g style="mix-blend-mode:soft-light">
<path d="M538.604 422.332L394.378 442.443L351.221 576.437L430.167 667.665L576.191 659.66L607.221 522.127L538.604 422.332Z" fill="#A7C5C3"/>
</g>
<g style="mix-blend-mode:soft-light">
<path d="M1049.53 324.744L905.302 304.633L862.146 170.639L941.091 79.4108L1087.12 87.4161L1118.15 224.949L1049.53 324.744Z" fill="#A7C5C3"/>
</g>
<g style="mix-blend-mode:soft-light">
<path d="M351.221 989.776L593.007 747.99C620.975 815.068 607.671 895.288 553.095 949.864C498.519 1004.44 418.3 1017.74 351.221 989.776Z" fill="#A88DFF"/>
</g>
<g style="mix-blend-mode:soft-light">
<path d="M1439.59 467.457C1399.84 465.458 1358.05 474.757 1325.99 489.672C1286.9 509.004 1288.77 558.473 1296.43 582.354C1304.09 606.234 1364.37 621.078 1379.36 622.753C1394.36 624.427 1489.25 591.411 1518.54 561.425C1547.82 531.44 1557.39 501.045 1537.57 486.113C1517.76 471.181 1479.34 469.456 1439.59 467.457Z" fill="#A88DFF"/>
</g>
</svg>
