<svg fill="none" height="1080" viewBox="0 0 1920 1080" width="1920" xmlns="http://www.w3.org/2000/svg"><path d="m0 0h1920v1080h-1920z" fill="#a5b8fd"/><path d="m1596.54 709.96 91.43-91.429 164.57 164.572-91.43 91.428z" fill="#ffd9d0"/><path d="m1859.11 229.086c-18.29 68.267-88.46 108.78-156.73 90.488s-108.78-88.462-90.49-156.729c18.29-68.2665 88.46-108.779 156.73-90.487s108.78 88.462 90.49 156.728z" fill="#a5b8fd"/><path d="m252.617 399.919c28.654-8.827 43.661-38.016 50.346-71.508 10.055-50.373-8.278-108.075-101.246-169.905-58.152-38.675-104.3689 28.54-118.2551 43.175-13.8862 14.636-55.1036 68.763 5.7348 132.883 60.8383 64.12 134.7653 74.182 163.4203 65.355z" fill="#ffd9d0"/><path d="m998.72 749.749c28.65 8.827 43.66 38.016 50.35 71.508 10.05 50.373-8.28 108.075-101.25 169.905-58.152 38.678-104.368-28.54-118.255-43.175-13.886-14.636-55.103-68.763 5.735-132.883 60.839-64.12 134.765-74.182 163.42-65.355z" fill="#ffd9d0"/><path d="m643.132 117.667c-26-45.0327-151.728-60.7825-201.937-31.7946-47.62 27.4936-54.12 78.6556-35.403 123.9626s82.981 88.74 150.788 49.592c81.266-46.918 112.551-96.728 86.552-141.76z" fill="#a5b8fd"/><path d="m1517.75 831 30.25 112.877-225.75 60.493-30.25-112.879z" fill="#03be78"/><path d="m841.498 545.737 47.569-106.739 213.483 95.137-47.57 106.739z" fill="#03be78"/><path d="m312.896 737.482-36.722 137.049-219.2775-58.756 36.7221-137.048z" fill="#a7c5c3"/><path d="m1317.86 99.059 188.97 225.206c28.98-55.356 23.6-125.061-19.05-175.894-42.66-50.8339-110.37-68.2399-169.92-49.312z" fill="#f4d8fe"/><path d="m538.604 422.332-144.226 20.111-43.157 133.994 78.946 91.228 146.024-8.005 31.03-137.533z" fill="#a7c5c3"/><path d="m1049.53 324.744-144.228-20.111-43.156-133.994 78.945-91.2282 146.029 8.0053 31.03 137.5329z" fill="#a7c5c3"/><g fill="#a88dff"><path d="m351.221 989.776 241.786-241.786c27.968 67.078 14.664 147.298-39.912 201.874s-134.795 67.876-201.874 39.912z"/><path d="m1439.59 467.457c-39.75-1.999-81.54 7.3-113.6 22.215-39.09 19.332-37.22 68.801-29.56 92.682 7.66 23.88 67.94 38.724 82.93 40.399 15 1.674 109.89-31.342 139.18-61.328 29.28-29.985 38.85-60.38 19.03-75.312-19.81-14.932-58.23-16.657-97.98-18.656z"/></g></svg>