<svg width="25" height="24" viewBox="0 0 25 24" fill="none" xmlns="http://www.w3.org/2000/svg">
<path fill-rule="evenodd" clip-rule="evenodd" d="M20 11C20 15.9706 15.9706 20 11 20C6.02944 20 2 15.9706 2 11C2 6.02944 6.02944 2 11 2C15.9706 2 20 6.02944 20 11ZM18.2622 19.2622C16.3248 20.9664 13.7831 22 11 22C4.92487 22 0 17.0751 0 11C0 4.92487 4.92487 0 11 0C17.0751 0 22 4.92487 22 11C22 13.5717 21.1175 15.9373 19.6388 17.8104L24.0711 22.2426L22.6569 23.6569L18.2622 19.2622Z" fill="black"/>
</svg>
