<svg width="279" height="320" viewBox="0 0 279 320" fill="none" xmlns="http://www.w3.org/2000/svg">
<path d="M131.841 13.6903C137.175 32.8963 141.644 75.4876 142.089 115.41C143.632 253.774 114.769 282.072 108.367 298.077C105.196 306.002 16.6055 351.426 47.5482 282.072C78.4909 212.717 74.2231 45.6998 69.9551 20.0921C65.6872 -5.51569 126.506 -5.51569 131.841 13.6903Z" fill="#FEBD6D"/>
<path fill-rule="evenodd" clip-rule="evenodd" d="M176.68 37.6942C178.505 37.5891 180.417 38.3679 182.336 39.8641C185.657 42.4541 187.051 46.7614 187.455 50.4377C187.661 52.3141 187.623 54.1371 187.406 55.6748C187.34 56.1453 187.252 56.6201 187.139 57.0797C199.434 59.5149 208.662 64.0138 215.544 70.0993C222.833 76.5449 227.372 84.665 230.188 93.6963C234.985 109.081 234.843 127.403 234.706 145.009C234.684 147.913 234.662 150.798 234.662 153.648C234.662 188.951 222.051 221.587 199.392 243.542C176.691 265.537 144.039 276.676 104.32 269.155C84.5704 265.415 69.6237 259.443 59.3368 252.431C49.0761 245.436 43.2685 237.268 42.2735 229.118C41.266 220.866 45.2504 213.161 53.4127 207.353C61.5363 201.574 73.8806 197.582 90.0622 196.483C100.852 195.75 108.493 194.613 113.623 193.167C116.188 192.444 118.05 191.665 119.343 190.869C120.637 190.073 121.252 189.329 121.517 188.717C121.987 187.634 121.685 186 119.436 183.439C117.271 180.974 113.766 178.209 109.353 175.19C104.963 172.188 99.7967 169.015 94.3814 165.714C93.9488 165.45 93.5146 165.186 93.0792 164.921C88.0801 161.875 82.9174 158.729 78.0634 155.549C72.7895 152.094 67.8283 148.565 63.7892 145.031C59.7768 141.521 56.5316 137.885 54.8619 134.186C53.0106 130.084 52.4124 125.84 53.4927 121.936C54.5819 118 57.3154 114.639 61.6812 112.24C70.07 107.629 84.6141 106.469 106.411 111.123C109.055 101.698 114.683 88.2587 124.463 76.9447C133.755 66.195 146.83 57.3365 164.594 55.7449C163.507 54.5922 162.62 53.0269 162.329 50.9116C162.198 49.9538 162.267 48.9779 162.737 48.1241C163.228 47.2312 164.015 46.7296 164.801 46.4828C166.208 46.0416 167.903 46.3242 169.165 46.6166C169.802 46.7642 170.463 46.9509 171.066 47.1302C170.733 44.6434 171.165 42.0691 172.419 40.2143C173.348 38.841 174.787 37.8033 176.68 37.6942ZM175.429 42.2493C174.493 43.6326 174.233 46.327 175.202 48.6686C175.28 48.8578 175.392 49.1985 175.358 49.6245C175.319 50.1181 175.09 50.5984 174.682 50.9436C174.328 51.2431 173.953 51.344 173.74 51.3831C173.513 51.4245 173.313 51.4242 173.174 51.4175C172.692 51.3943 172.12 51.2372 171.698 51.1158C171.37 51.0216 171.035 50.9187 170.69 50.8132C169.949 50.586 169.168 50.3467 168.344 50.1559C167.106 49.8687 166.295 49.8332 165.911 49.9429C165.901 50.0253 165.895 50.1748 165.929 50.4164C166.213 52.4831 167.39 53.6298 168.672 54.36C169.33 54.7346 170.003 54.9877 170.578 55.1743C170.78 55.2399 170.948 55.2905 171.112 55.34C171.193 55.3644 171.273 55.3886 171.355 55.4142C171.466 55.4484 171.596 55.4895 171.717 55.5341L171.718 55.5343C171.803 55.5656 172.038 55.6522 172.268 55.808C172.933 56.2578 173.224 57.0906 172.983 57.8564C172.743 58.6223 172.028 59.1396 171.226 59.1289C151.303 58.8629 137.087 67.8952 127.211 79.3206C117.297 90.7905 111.801 104.637 109.476 113.718C109.232 114.669 108.278 115.255 107.32 115.04C84.7948 110.006 70.8312 111.357 63.4311 115.424C59.7942 117.422 57.7851 120.047 56.9942 122.905C56.1941 125.796 56.5781 129.156 58.1734 132.691C59.522 135.679 62.301 138.902 66.1814 142.297C70.0351 145.668 74.8353 149.091 80.0544 152.51C84.8557 155.656 89.9678 158.771 94.9769 161.822C95.4096 162.086 95.8415 162.349 96.2724 162.612C101.676 165.906 106.923 169.127 111.404 172.191C115.861 175.24 119.684 178.216 122.166 181.042C124.564 183.773 126.231 186.979 124.851 190.162C124.191 191.683 122.927 192.93 121.246 193.964C119.564 194.998 117.354 195.89 114.609 196.664C109.118 198.211 101.185 199.369 90.3084 200.107C74.5316 201.179 62.9138 205.053 55.5188 210.314C48.1624 215.548 45.0716 222.058 45.8798 228.678C46.7004 235.4 51.5993 242.76 61.3832 249.429C71.1409 256.081 85.5771 261.908 104.996 265.586C143.614 272.898 175.055 262.064 196.864 240.933C218.714 219.762 231.028 188.12 231.028 153.648C231.028 150.736 231.05 147.81 231.072 144.885C231.202 127.229 231.332 109.571 226.719 94.7777C224.052 86.2252 219.821 78.7308 213.137 72.8209C206.453 66.9104 197.197 62.4791 184.309 60.2498C183.681 60.1412 183.156 59.7115 182.925 59.1176C182.694 58.5236 182.792 57.8522 183.182 57.3482C183.32 57.1688 183.623 56.4788 183.809 55.1665C183.982 53.9445 184.018 52.4259 183.843 50.8344C183.485 47.5749 182.297 44.4412 180.101 42.7291C178.572 41.5365 177.512 41.2854 176.889 41.3213C176.333 41.3533 175.849 41.6276 175.429 42.2493Z" fill="white"/>
<path fill-rule="evenodd" clip-rule="evenodd" d="M92.3268 110.342C92.5002 109.353 93.4418 108.693 94.43 108.866C149.44 118.519 180.88 136.406 208.359 153.056C209.217 153.576 209.491 154.693 208.971 155.551C208.451 156.409 207.334 156.683 206.476 156.163C179.173 139.62 148.178 121.986 93.802 112.445C92.8139 112.271 92.1534 111.33 92.3268 110.342Z" fill="white"/>
<path fill-rule="evenodd" clip-rule="evenodd" d="M81.1387 89.5207C92.7728 90.4316 106.165 98.6126 109.33 111.728C109.566 112.703 108.966 113.685 107.991 113.92C107.015 114.156 106.034 113.556 105.799 112.58C103.102 101.404 91.3867 93.9673 80.8551 93.1427C75.6368 92.7342 71.0573 93.9844 68.1361 96.8566C65.2742 99.6706 63.6387 104.408 65.0395 111.817C65.2259 112.803 64.5778 113.753 63.592 113.94C62.6062 114.126 61.656 113.478 61.4697 112.492C59.918 104.284 61.6122 98.1762 65.5889 94.266C69.5063 90.4142 75.2742 89.0616 81.1387 89.5207Z" fill="white"/>
<path fill-rule="evenodd" clip-rule="evenodd" d="M73.1549 166.509C73.3134 167.5 72.6388 168.431 71.6481 168.59C68.9358 169.024 64.7932 170.779 60.498 173.501C56.2334 176.203 52.0222 179.729 49.1126 183.526C46.1763 187.359 44.7731 191.182 45.4932 194.617C46.2009 197.993 49.104 201.645 56.3145 204.837C57.2319 205.243 57.6464 206.316 57.2403 207.233C56.8343 208.151 55.7614 208.565 54.844 208.159C47.1123 204.737 42.986 200.365 41.9374 195.362C40.9013 190.42 43.0149 185.511 46.2287 181.317C49.4693 177.087 54.0413 173.291 58.5535 170.432C63.035 167.592 67.6626 165.548 71.0741 165.002C72.0648 164.844 72.9963 165.518 73.1549 166.509Z" fill="white"/>
<path fill-rule="evenodd" clip-rule="evenodd" d="M238.158 60.5826C230.115 60.9612 222.329 67.2419 218.558 73.2134C218.022 74.0616 216.9 74.315 216.052 73.7793C215.204 73.2435 214.951 72.1216 215.486 71.2734C219.648 64.6835 228.368 57.4063 237.987 56.9535C242.884 56.723 247.912 58.276 252.507 62.4267C256.92 66.4133 260.867 72.7321 264.019 82.0061C265.236 82.4496 266.497 83.1752 267.694 84.0085C269.263 85.1001 270.86 86.4729 272.31 87.9256C273.759 89.3778 275.094 90.9434 276.123 92.4354C277.116 93.8754 277.957 95.4339 278.192 96.8423C278.518 98.801 277.756 100.362 276.483 101.424C275.317 102.397 273.764 102.934 272.33 103.246C270.514 103.64 268.539 103.745 266.97 103.707C267.061 104.014 267.167 104.356 267.286 104.735C267.333 104.885 267.381 105.039 267.431 105.198C268.073 107.24 268.926 109.949 269.25 112.373C269.424 113.678 269.471 115.066 269.16 116.304C268.835 117.599 268.077 118.848 266.615 119.504C265.251 120.117 263.602 120.059 261.803 119.593C260.431 119.237 258.838 118.611 256.992 117.689C256.019 120.079 254.638 121.793 252.801 122.731C250.454 123.928 247.847 123.612 245.442 122.68C240.704 120.843 235.585 116.167 231.557 111.823C230.875 111.087 230.918 109.938 231.654 109.256C232.39 108.573 233.539 108.617 234.221 109.353C238.233 113.679 242.863 117.783 246.756 119.293C248.666 120.034 250.095 120.033 251.15 119.494C252.209 118.954 253.376 117.625 254.199 114.607C254.346 114.069 254.732 113.628 255.246 113.411C255.761 113.195 256.346 113.226 256.834 113.497C259.385 114.914 261.303 115.71 262.714 116.076C264.153 116.448 264.846 116.317 265.127 116.19C265.311 116.108 265.503 115.951 265.637 115.42C265.784 114.831 265.798 113.972 265.648 112.854C265.368 110.757 264.608 108.333 263.945 106.224C263.903 106.088 263.86 105.953 263.819 105.82C263.494 104.783 263.178 103.757 263.036 102.995C262.975 102.667 262.886 102.11 262.999 101.569C263.06 101.278 263.229 100.749 263.738 100.344C264.299 99.898 264.93 99.8676 265.357 99.9412C266.351 100.113 269.161 100.217 271.559 99.6954C272.765 99.4332 273.649 99.0572 274.155 98.6348C274.554 98.3019 274.699 97.9847 274.608 97.4396C274.509 96.8449 274.05 95.8281 273.132 94.4982C272.251 93.2202 271.065 91.8213 269.738 90.4918C268.412 89.163 266.979 87.9372 265.619 86.9907C264.227 86.0222 263.04 85.4368 262.19 85.2435C261.568 85.1019 261.065 84.6442 260.867 84.0377C257.786 74.6327 253.999 68.6712 250.071 65.1226C246.183 61.6104 242.091 60.3975 238.158 60.5826Z" fill="white"/>
<path fill-rule="evenodd" clip-rule="evenodd" d="M133.094 44.1553C139.327 47.3677 143.244 55.1879 144.074 61.3209C144.208 62.3151 145.123 63.012 146.117 62.8776C147.111 62.7431 147.808 61.8281 147.674 60.8339C146.746 53.9762 142.394 44.8611 134.759 40.9259C130.863 38.9179 126.2 38.3146 120.937 39.9763C115.907 41.5643 110.415 45.1902 104.494 51.4468C103.354 51.3687 102.094 51.4915 100.857 51.7153C99.1831 52.0183 97.3853 52.5376 95.6793 53.1751C93.9742 53.8123 92.3164 54.5841 90.9301 55.4115C89.5979 56.2066 88.3178 57.1684 87.5855 58.2526C86.5577 59.7745 86.5995 61.3883 87.2603 62.7685C87.8607 64.0226 88.9418 65.0483 89.9885 65.8323C91.2237 66.7575 92.6623 67.5295 93.895 68.0768C93.7608 68.2281 93.6155 68.3905 93.4593 68.5643C93.3661 68.6678 93.27 68.7745 93.1711 68.8841C91.9087 70.2845 90.2184 72.1596 89.0588 74.0024C88.4345 74.9945 87.871 76.1176 87.6588 77.264C87.436 78.4681 87.5898 79.8206 88.5761 80.9458C89.4923 81.9909 90.8925 82.5618 92.529 82.8519C93.7265 83.0642 95.1754 83.1484 96.9034 83.1C96.8468 85.309 97.3387 87.1664 98.4709 88.5953C99.9679 90.4844 102.247 91.1996 104.55 91.3355C109.079 91.6028 114.942 89.7105 119.77 87.7019C120.696 87.3165 121.135 86.2532 120.749 85.3269C120.364 84.4006 119.301 83.9621 118.374 84.3475C113.569 86.3468 108.387 87.9226 104.764 87.7087C102.989 87.604 101.915 87.0912 101.318 86.3389C100.719 85.5828 100.266 84.1595 100.708 81.4655C100.798 80.9149 100.63 80.3534 100.253 79.9425C99.8754 79.5317 99.33 79.3171 98.7738 79.3606C96.2156 79.5604 94.4048 79.4947 93.1631 79.2746C91.8929 79.0494 91.4414 78.7029 91.3081 78.5509C91.2451 78.479 91.1517 78.3547 91.2312 77.9251C91.3214 77.4378 91.6096 76.7703 92.1338 75.9373C93.118 74.3731 94.6059 72.7205 95.9148 71.2668C95.9976 71.1748 96.0797 71.0837 96.1608 70.9934C96.7993 70.2833 97.4392 69.565 97.8412 68.9936C98.0116 68.7516 98.3099 68.307 98.4278 67.7868C98.4915 67.5059 98.5581 66.963 98.2667 66.3891C97.945 65.7559 97.3896 65.47 96.9793 65.3617C96.1437 65.1412 93.8759 64.2049 92.1667 62.9246C91.3056 62.2796 90.7666 61.6788 90.5372 61.1996C90.3681 60.8466 90.3705 60.6203 90.5962 60.2861C90.8668 59.8854 91.5749 59.2577 92.7921 58.5312C93.9553 57.8369 95.4083 57.1548 96.951 56.5784C98.4929 56.0022 100.08 55.5481 101.504 55.2904C102.966 55.0258 104.102 54.9971 104.815 55.1455C105.44 55.2755 106.087 55.0681 106.52 54.5992C112.428 48.1992 117.624 44.8321 122.031 43.4408C126.386 42.0659 130.057 42.5895 133.094 44.1553Z" fill="white"/>
<path d="M162.023 104.696C162.252 95.7498 168.676 84.5085 176.246 84.5085C184.504 84.5085 185.193 99.42 183.816 107.22C181.849 118.37 174.411 120.525 170.511 119.378C166.611 118.231 161.793 113.643 162.023 104.696Z" fill="#FEBD6D"/>
<path fill-rule="evenodd" clip-rule="evenodd" d="M214.775 109.374C216.518 107.76 217.911 105.688 218.688 103.554C219.031 102.611 218.545 101.569 217.602 101.225C216.66 100.882 215.617 101.368 215.274 102.311C214.704 103.877 213.646 105.468 212.307 106.708C210.962 107.953 209.447 108.743 207.995 108.917C206.614 109.082 205.133 108.713 203.66 107.331C202.135 105.899 200.572 103.326 199.331 99.0242C199.053 98.0603 198.046 97.5043 197.082 97.7825C196.118 98.0606 195.562 99.0675 195.84 100.031C197.182 104.683 198.999 107.937 201.174 109.979C203.402 112.071 205.942 112.821 208.427 112.524C210.841 112.235 213.038 110.982 214.775 109.374Z" fill="white"/>
<path fill-rule="evenodd" clip-rule="evenodd" d="M134.502 92.8097C133.723 90.5982 133.41 88.1328 133.605 85.9067C133.693 84.9073 134.574 84.168 135.573 84.2554C136.573 84.3429 137.312 85.2239 137.224 86.2234C137.076 87.9201 137.318 89.8668 137.929 91.6035C138.547 93.3593 139.476 94.7181 140.552 95.4605C141.536 96.139 142.788 96.4123 144.492 95.7571C146.299 95.0626 148.647 93.2994 151.469 89.7128C152.089 88.9244 153.232 88.7881 154.02 89.4084C154.808 90.0288 154.945 91.1708 154.324 91.9593C151.31 95.7906 148.469 98.1206 145.796 99.1482C143.021 100.215 140.503 99.8395 138.49 98.4515C136.57 97.1274 135.274 95.0021 134.502 92.8097Z" fill="white"/>
<path fill-rule="evenodd" clip-rule="evenodd" d="M202.077 253.324C199.015 251.448 195.386 250.247 191.716 250.298C190.713 250.311 189.888 249.51 189.874 248.506C189.861 247.503 190.662 246.679 191.666 246.665C196.146 246.603 200.442 248.061 203.975 250.226C207.495 252.382 210.384 255.317 211.98 258.364C213.557 261.378 214.042 264.928 211.839 267.722C210.02 270.028 206.737 271.308 202.144 271.546C203.13 272.654 204.401 274.136 205.321 275.76C206.614 278.042 207.466 281.027 205.836 284.127C204.288 287.07 200.727 289.638 194.569 291.851C190.682 293.248 187.275 293.449 184.385 292.699C181.487 291.947 179.254 290.274 177.674 288.178C176.145 286.15 175.211 283.705 174.848 281.247C174.442 281.519 174.019 281.763 173.587 281.98C170.96 283.296 167.747 283.702 164.915 282.928C162.013 282.134 159.477 280.07 158.589 276.556C157.731 273.156 158.499 268.725 161.312 263.24C161.77 262.348 162.865 261.995 163.757 262.453C164.65 262.911 165.003 264.005 164.545 264.898C161.924 270.009 161.561 273.485 162.112 275.666C162.634 277.732 164.048 278.924 165.874 279.423C167.77 279.942 170.064 279.681 171.96 278.732C173.364 278.028 174.432 277.014 175.002 275.789C175.131 275.204 175.298 274.639 175.501 274.101C175.831 273.231 176.765 272.751 177.664 272.989C178.563 273.226 179.138 274.105 178.995 275.024C178.892 275.684 178.719 276.307 178.485 276.892C177.954 279.76 178.6 283.371 180.575 285.991C181.712 287.5 183.272 288.657 185.298 289.183C187.333 289.711 189.983 289.639 193.34 288.432C199.25 286.308 201.722 284.145 202.62 282.436C203.437 280.883 203.148 279.294 202.16 277.551C201.348 276.118 200.23 274.863 199.22 273.729C198.955 273.433 198.698 273.145 198.456 272.864C198.181 272.545 197.904 272.208 197.681 271.882C197.493 271.608 197.182 271.116 197.092 270.519C197.041 270.178 197.05 269.721 197.273 269.252C197.5 268.774 197.865 268.464 198.209 268.279C198.798 267.96 199.455 267.939 199.878 267.947C205.372 268.057 207.959 266.775 208.986 265.472C209.924 264.283 210.014 262.442 208.761 260.05C207.526 257.692 205.151 255.207 202.077 253.324ZM200.61 269.718C200.61 269.718 200.612 269.722 200.615 269.729C200.611 269.721 200.609 269.718 200.61 269.718ZM199.647 271.583C199.638 271.584 199.633 271.585 199.633 271.585C199.633 271.585 199.637 271.584 199.647 271.583Z" fill="white"/>
<path d="M19.9156 10.87C37.3235 23.6762 45.5518 26.1303 8.0115 25.1244C-5.62225 24.7591 12.7005 36.1707 18.3576 39.896" stroke="white" stroke-width="3" stroke-linecap="round"/>
<path d="M39.5925 33.2495C55.1044 34.973 61.1369 33.5366 37.2944 46.4633C28.6354 51.1579 44.2159 51.6789 49.0993 51.9661" stroke="white" stroke-width="3" stroke-linecap="round"/>
<path d="M69.3427 48.299C77.5107 54.3078 81.3715 55.4593 63.7571 54.9873C57.36 54.8159 65.9573 60.1704 68.6116 61.9184" stroke="white" stroke-width="3" stroke-linecap="round"/>
</svg>
