<svg width="188" height="177" viewBox="0 0 188 177" fill="none" xmlns="http://www.w3.org/2000/svg">
<path d="M136.122 110.851C148.069 23.7964 74.7119 51.7125 51.6753 67.8588C37.9267 77.4952 12.6029 110.851 51.604 110.851L136.122 110.851Z" fill="#F4D8FE"/>
<path fill-rule="evenodd" clip-rule="evenodd" d="M24.3123 61.4668C24.3122 61.4666 24.3154 61.4666 24.3223 61.4672C24.3159 61.4672 24.3125 61.4669 24.3123 61.4668ZM24.9081 61.6627C25.0434 61.7215 25.2015 61.7956 25.384 61.8881C26.4501 62.428 27.905 63.3527 29.5386 64.391C29.63 64.449 29.7219 64.5075 29.8143 64.5662C31.5303 65.6564 33.4021 66.8363 35.0748 67.7014C35.474 67.9078 35.8685 68.0998 36.2526 68.2703C35.3966 68.1227 34.4153 68.2098 33.326 68.5129C31.9808 68.8872 30.4038 69.6091 28.5709 70.7338C27.6612 71.292 26.804 71.905 25.9985 72.565C25.9351 72.2852 25.8752 72.0019 25.8185 71.716C25.0388 67.7838 24.9248 63.6011 24.9081 61.6627ZM24.3132 74.0863C24.1393 73.4332 23.9883 72.7686 23.8567 72.1049C22.9052 67.3063 22.9052 62.2027 22.9052 60.8921V60.8845C22.9052 60.5354 23.0131 60.0655 23.4403 59.7446C23.8238 59.4565 24.2595 59.4504 24.5293 59.4779C25.0675 59.5329 25.6976 59.805 26.2876 60.1039C27.445 60.69 28.9778 61.6645 30.5646 62.6733C30.6718 62.7414 30.7792 62.8097 30.8868 62.8781C32.6164 63.9769 34.4132 65.1076 35.9935 65.9249C36.7834 66.3333 37.4902 66.6481 38.0861 66.8409C38.707 67.0418 39.0928 67.0715 39.2924 67.0352C40.2812 66.8554 42.1515 66.7757 44.3625 66.7456C46.6064 66.715 49.293 66.7354 51.9717 66.776C54.6731 66.8169 57.3543 66.878 59.5803 66.9286C61.7925 66.979 63.5553 67.0191 64.4418 67.0191C65.2069 67.0191 66.8159 66.7324 68.9262 66.2907C69.8425 66.0989 70.8707 65.8742 71.9314 65.6424C73.1897 65.3674 74.4938 65.0825 75.7112 64.8305C77.9959 64.3576 80.206 63.9502 81.8117 63.8264C82.5904 63.7663 83.3473 63.7612 83.9184 63.9099C84.1986 63.9829 84.5854 64.13 84.8659 64.4705C85.1983 64.874 85.2338 65.3593 85.1157 65.7685C84.0498 69.5748 82.9528 72.71 81.8311 75.2588C85.3424 78.3735 87.9565 82.1871 89.4558 86.1497C91.8152 92.3853 91.4478 99.1236 87.253 104.018C86.1387 105.318 84.4309 106.385 82.3792 107.273C80.3136 108.166 77.822 108.91 75.0607 109.522C69.5371 110.745 62.8367 111.458 56.093 111.744C49.3454 112.029 42.5225 111.887 36.745 111.386C31.0119 110.889 26.177 110.03 23.4937 108.818C20.6712 107.544 18.6956 105.004 17.5319 101.899C16.368 98.7933 15.9863 95.056 16.3842 91.2242C17.0106 85.1906 19.5896 78.7743 24.3132 74.0863ZM80.9406 77.1507C83.9917 79.9762 86.264 83.3656 87.5853 86.8575C89.7659 92.6207 89.3226 98.5298 85.7344 102.716C84.903 103.686 83.5097 104.605 81.585 105.437C79.6742 106.264 77.3141 106.974 74.6283 107.569C69.2577 108.758 62.6824 109.463 56.0085 109.745C49.3385 110.027 42.6019 109.886 36.9177 109.393C31.1891 108.897 26.6601 108.054 24.3168 106.996C22.1128 106 20.4401 103.959 19.4047 101.197C18.3694 98.4345 18.0011 95.017 18.3735 91.4307C18.9289 86.0814 21.1141 80.489 25.0019 76.2561C25.3408 77.1539 25.7376 77.9962 26.2033 78.743C27.3572 80.5938 29.0293 81.9907 31.3639 81.9907C33.6485 81.9907 35.5889 80.609 36.9435 78.9143C38.3043 77.2119 39.2133 75.0306 39.3734 73.087C39.507 71.4645 39.107 69.7183 37.683 68.8096C38.3385 69.0034 39.0257 69.1165 39.6501 69.003C40.4449 68.8585 42.1418 68.776 44.3898 68.7454C46.605 68.7152 49.2691 68.7353 51.9414 68.7758C54.5908 68.8159 57.2603 68.8765 59.4932 68.9272C61.74 68.9781 63.5447 69.0191 64.4418 69.0191C64.5743 69.0191 64.7208 69.0133 64.8798 69.0022C63.6604 69.4971 62.8039 70.3831 62.3388 71.5365C61.7107 73.0943 61.8593 74.9808 62.4678 76.746C63.0827 78.5297 64.2052 80.3099 65.7022 81.7189C67.1394 83.0715 68.7206 84.1592 70.4181 84.618C72.1613 85.0892 73.9613 84.8772 75.7181 83.7474C77.4346 82.6434 79.0585 80.6983 80.6046 77.7985C80.7168 77.588 80.8288 77.3721 80.9406 77.1507ZM80.2256 73.9326C81.167 71.7174 82.105 69.0281 83.0297 65.7948C82.7733 65.7804 82.4218 65.7853 81.9655 65.8205C80.5021 65.9333 78.4067 66.315 76.1165 66.789C74.8616 67.0487 73.614 67.3217 72.3951 67.5883C71.3497 67.8171 70.3254 68.0412 69.3359 68.2483C68.792 68.3621 68.2621 68.4702 67.7582 68.5674C69.6754 68.6466 72.051 69.3148 74.9248 70.6833C76.839 71.5947 78.6116 72.6922 80.2256 73.9326ZM83.4679 65.8627C83.4677 65.8628 83.4648 65.8617 83.4594 65.8591C83.4654 65.8613 83.468 65.8626 83.4679 65.8627ZM79.3749 75.8062C79.1965 76.1727 79.0181 76.523 78.8397 76.8575C77.3757 79.6036 75.9518 81.2191 74.6362 82.0652C73.3608 82.8855 72.1443 83.0128 70.9399 82.6873C69.6898 82.3494 68.3923 81.5043 67.073 80.2625C65.8136 79.0772 64.8686 77.5738 64.3586 76.0942C63.8422 74.5963 63.8085 73.2398 64.1937 72.2844C64.5461 71.4106 65.3033 70.7263 66.8006 70.5853C68.3702 70.4375 70.7308 70.9013 74.065 72.489C75.9981 73.4095 77.7746 74.5328 79.3749 75.8062ZM26.5773 74.7021C27.5105 73.8693 28.5235 73.1094 29.6169 72.4384C31.3512 71.3742 32.7536 70.7482 33.8621 70.4397C34.9759 70.1298 35.7274 70.1581 36.2108 70.3136C37.0151 70.5725 37.5065 71.3882 37.3801 72.9229C37.2564 74.425 36.5236 76.2365 35.3813 77.6656C34.2329 79.1023 32.8087 79.9907 31.3639 79.9907C29.9692 79.9907 28.8443 79.1986 27.9004 77.6849C27.3782 76.8472 26.941 75.8297 26.5773 74.7021Z" fill="#A88DFF"/>
<path fill-rule="evenodd" clip-rule="evenodd" d="M75.8103 93.0028C73.8157 94.034 71.692 95.8867 69.9649 98.6699C66.7414 103.865 66.8792 108.977 69.6585 113.567C72.4789 118.224 78.0791 122.427 85.9302 125.488C101.611 131.602 125.873 132.999 153.137 124.732C156.693 123.654 159.429 122.551 161.459 121.453C163.499 120.35 164.763 119.285 165.45 118.313C166.114 117.375 166.238 116.536 166.03 115.746C165.809 114.907 165.174 113.987 164.049 113.025C161.794 111.095 157.902 109.28 153.022 107.802C148.17 106.333 142.441 105.227 136.596 104.66C136.046 104.607 135.644 104.118 135.697 103.568C135.751 103.019 136.239 102.616 136.789 102.67C142.749 103.247 148.609 104.376 153.602 105.888C158.568 107.392 162.777 109.305 165.349 111.505C166.638 112.607 167.599 113.853 167.964 115.237C168.342 116.67 168.043 118.111 167.083 119.468C166.147 120.791 164.586 122.035 162.41 123.212C160.224 124.395 157.352 125.544 153.718 126.646C126.114 135.016 101.381 133.66 85.2036 127.352C77.1254 124.202 71.0805 119.776 67.9477 114.603C64.7738 109.362 64.6503 103.441 68.2655 97.6153C70.1679 94.5496 72.5521 92.4359 74.8918 91.2262C77.2006 90.0325 79.5812 89.6677 81.4041 90.3217C82.3351 90.6557 83.1208 91.2604 83.615 92.1424C84.106 93.0188 84.2608 94.0816 84.0955 95.2564C83.7699 97.5701 82.1872 100.476 79.0472 103.884C77.5339 105.526 77.3045 107.755 78.7387 110.237C80.2025 112.77 83.3982 115.506 88.6131 117.742C99.0206 122.203 117.128 124.512 143.981 119.467C146.816 118.934 149.051 118.394 150.762 117.858C152.488 117.319 153.626 116.8 154.306 116.335C154.644 116.104 154.829 115.913 154.922 115.777C155.007 115.654 155.004 115.597 155.004 115.588L155.004 115.587C155.002 115.551 154.946 115.282 154.298 114.836C153.049 113.977 150.556 113.121 147.198 112.396C143.886 111.681 139.868 111.122 135.685 110.79C135.134 110.746 134.724 110.264 134.767 109.714C134.811 109.163 135.293 108.752 135.843 108.796C140.095 109.134 144.203 109.704 147.62 110.441C150.991 111.169 153.83 112.087 155.431 113.188C156.208 113.722 156.956 114.48 157.002 115.498C157.049 116.557 156.324 117.377 155.435 117.985C154.514 118.616 153.157 119.205 151.36 119.767C149.548 120.334 147.232 120.891 144.351 121.432C117.271 126.521 98.7249 124.252 87.8251 119.58C82.3864 117.249 78.7651 114.28 77.007 111.238C75.2193 108.144 75.3631 104.93 77.5766 102.528C80.6109 99.2357 81.873 96.6972 82.115 94.9777C82.2334 94.1358 82.1026 93.5349 81.8702 93.12C81.6409 92.7108 81.2653 92.3967 80.7286 92.2042C79.6162 91.8051 77.8359 91.9556 75.8103 93.0028Z" fill="#A88DFF"/>
<path fill-rule="evenodd" clip-rule="evenodd" d="M71.2866 91.5454C71.4691 92.0667 71.1944 92.6372 70.6732 92.8196C66.6898 94.2139 60.372 95.6613 53.6186 92.7963C53.1102 92.5807 52.8729 91.9937 53.0886 91.4852C53.3043 90.9768 53.8913 90.7395 54.3997 90.9552C60.4799 93.5345 66.2178 92.2601 70.0124 90.9319C70.5337 90.7495 71.1042 91.0241 71.2866 91.5454Z" fill="#A88DFF"/>
<path fill-rule="evenodd" clip-rule="evenodd" d="M40.6563 91.4522C40.9975 91.8865 40.9221 92.5152 40.4879 92.8564C39.6272 93.5327 38.2931 94.0094 36.8558 94.3312C35.3849 94.6605 33.6775 94.8551 31.9683 94.8928C30.2603 94.9305 28.5185 94.8121 26.9826 94.4991C25.4733 94.1916 24.0437 93.6726 23.0724 92.8227C22.6567 92.459 22.6146 91.8273 22.9782 91.4116C23.3419 90.996 23.9737 90.9538 24.3893 91.3175C24.9735 91.8286 25.9989 92.2576 27.382 92.5394C28.7385 92.8159 30.3266 92.9285 31.9242 92.8933C33.5206 92.8581 35.0946 92.676 36.4188 92.3795C37.7768 92.0755 38.7517 91.6771 39.2521 91.2838C39.6864 90.9426 40.3151 91.018 40.6563 91.4522Z" fill="#A88DFF"/>
<path fill-rule="evenodd" clip-rule="evenodd" d="M15.7285 31.4858C14.6956 30.7529 13.5428 29.9348 12.2815 29.007C11.8367 28.6797 11.7413 28.0538 12.0686 27.6089C12.3959 27.164 13.0218 27.0687 13.4667 27.396C14.6522 28.2681 15.7947 29.0796 16.8367 29.8197C18.0437 30.677 19.1159 31.4385 19.9639 32.0876C20.7642 32.7002 21.4481 33.2731 21.9193 33.7999C22.1554 34.0638 22.3733 34.3543 22.52 34.6676C22.6684 34.9848 22.7724 35.3885 22.6757 35.8279C22.4773 36.7298 21.6221 37.1249 20.9655 37.3258C20.2231 37.553 19.199 37.6943 17.9053 37.7825C15.3004 37.96 11.326 37.937 5.67821 37.7857C4.69191 37.7592 4.1147 37.8462 3.81323 37.9544C3.7978 37.9599 3.78379 37.9652 3.77108 37.9702C3.80461 38.0476 3.86739 38.1672 3.98596 38.3346C4.2322 38.6822 4.62211 39.1005 5.13814 39.5718C6.97148 41.2462 9.9159 43.1682 11.7861 44.389C12.0412 44.5555 12.2762 44.7089 12.4858 44.8469C12.9471 45.1507 13.0747 45.7708 12.771 46.2321C12.4672 46.6934 11.8471 46.821 11.3858 46.5173C11.1878 46.3869 10.9608 46.2389 10.7108 46.0758C8.86314 44.8709 5.75621 42.8449 3.7894 41.0486C3.22634 40.5344 2.71868 40.0056 2.35386 39.4905C2.01637 39.014 1.66837 38.3672 1.74082 37.6651C1.82839 36.8164 2.4554 36.3166 3.13796 36.0718C3.79133 35.8374 4.66539 35.7578 5.73178 35.7864C11.3882 35.9379 15.2724 35.9573 17.7693 35.7871C19.0265 35.7014 19.8641 35.5713 20.3802 35.4134C20.4689 35.3862 20.5402 35.3608 20.5971 35.3381C20.5547 35.2807 20.4996 35.2126 20.4287 35.1334C20.0903 34.7551 19.5335 34.2768 18.7482 33.6758C17.905 33.0303 16.8929 32.3122 15.7285 31.4858ZM20.8026 35.2315C20.8027 35.2316 20.8015 35.2328 20.7985 35.2352C20.801 35.2327 20.8025 35.2315 20.8026 35.2315ZM3.65976 38.0255C3.65951 38.0254 3.66139 38.0237 3.66616 38.0205C3.6624 38.0239 3.66001 38.0255 3.65976 38.0255Z" fill="#A88DFF"/>
<path fill-rule="evenodd" clip-rule="evenodd" d="M27.6775 42.9801C26.7686 42.8949 25.7508 42.7995 24.6138 42.6731C24.0649 42.6121 23.6694 42.1177 23.7304 41.5688C23.7914 41.0199 24.2858 40.6244 24.8347 40.6854C25.8783 40.8013 26.8839 40.8962 27.8043 40.983C28.876 41.0842 29.8321 41.1744 30.5977 41.2742C31.3221 41.3687 31.9785 41.4827 32.4898 41.6506C32.7461 41.7348 33.0154 41.848 33.2511 42.0125C33.4903 42.1795 33.7508 42.4396 33.8733 42.8258C34.1254 43.6208 33.6265 44.285 33.283 44.6536C32.8783 45.0878 32.2671 45.5603 31.4856 46.0854C29.9081 47.1455 27.4028 48.5721 23.8169 50.5162C23.4502 50.7151 23.1978 50.8816 23.0291 51.0127C23.2781 51.1162 23.6208 51.2182 24.0514 51.3129C25.7782 51.6927 28.2872 51.8303 29.9015 51.9189C30.1219 51.931 30.3256 51.9422 30.5084 51.9529C31.0597 51.9853 31.4804 52.4586 31.4479 53.0099C31.4155 53.5612 30.9423 53.9819 30.3909 53.9495C30.222 53.9395 30.028 53.929 29.8136 53.9174C28.2269 53.8313 25.5251 53.6849 23.6217 53.2662C23.0752 53.146 22.5449 52.9935 22.1049 52.7911C21.7078 52.6086 21.1761 52.2935 20.9248 51.7319C20.6132 51.0357 20.8872 50.3836 21.2649 49.9378C21.6224 49.5157 22.1766 49.1305 22.8636 48.758C26.4572 46.8097 28.8824 45.4251 30.3701 44.4254C30.9535 44.0334 31.3583 43.723 31.6241 43.4816C31.3113 43.4026 30.8876 43.329 30.339 43.2574C29.5794 43.1583 28.697 43.0756 27.6775 42.9801ZM31.971 43.0969C31.9717 43.0967 31.9693 43.1026 31.9617 43.1151C31.9665 43.1033 31.9703 43.097 31.971 43.0969Z" fill="#A88DFF"/>
<path fill-rule="evenodd" clip-rule="evenodd" d="M43.6855 52.7255C43.2037 52.3838 42.6606 51.9986 42.0485 51.5483C41.6036 51.221 41.5083 50.5951 41.8355 50.1502C42.1628 49.7053 42.7888 49.61 43.2336 49.9373C43.77 50.3319 44.3029 50.7105 44.7938 51.0594C45.3714 51.4699 45.8911 51.8392 46.2903 52.1447C46.6698 52.4352 47.0244 52.7292 47.2807 53.0157C47.4094 53.1596 47.5484 53.3396 47.6477 53.5517C47.7488 53.7676 47.8368 54.0793 47.7585 54.4352C47.5968 55.1702 46.9155 55.4329 46.593 55.5316C46.1846 55.6566 45.6545 55.7258 45.0378 55.7679C43.8218 55.8508 42.0028 55.8419 39.4698 55.7762C40.2997 56.5083 41.5681 57.3367 42.4164 57.8908C42.5372 57.9697 42.6495 58.043 42.7508 58.1097C43.212 58.4135 43.3397 59.0336 43.036 59.4949C42.7322 59.9561 42.1121 60.0838 41.6508 59.7801C41.5611 59.721 41.4568 59.653 41.341 59.5775C40.4803 59.0166 38.9789 58.0381 38.0205 57.1627C37.7438 56.91 37.4743 56.6326 37.2717 56.3465C37.0964 56.099 36.8345 55.6588 36.8892 55.1287C36.959 54.4521 37.4644 54.0899 37.8935 53.936C38.2935 53.7925 38.7824 53.7571 39.304 53.7711C41.9603 53.8423 43.7589 53.8504 44.9018 53.7725C44.9735 53.7676 45.0415 53.7624 45.1061 53.757C45.0957 53.749 45.0853 53.741 45.0746 53.7329C44.6802 53.431 44.2207 53.105 43.6855 52.7255ZM46.1026 53.5828C46.1038 53.5832 46.0953 53.5881 46.0739 53.5965C46.0908 53.5866 46.1015 53.5824 46.1026 53.5828ZM38.8529 55.1072C38.8532 55.1072 38.8554 55.1114 38.8585 55.1194C38.8541 55.1111 38.8525 55.1071 38.8529 55.1072Z" fill="#A88DFF"/>
<path fill-rule="evenodd" clip-rule="evenodd" d="M85.3378 52.1504C85.5848 51.6564 86.1855 51.4562 86.6795 51.7032C101.845 59.2858 105.626 72.2362 105.581 80.9329C105.57 83.1052 105.321 85.0289 104.944 86.5545C104.58 88.027 104.06 89.2847 103.399 89.9718C103.067 90.3161 102.495 90.7171 101.771 90.5541C101.088 90.4005 100.7 89.8336 100.484 89.3657C100.035 88.3956 99.8078 86.7521 99.8078 84.4447C99.8078 76.6619 96.2143 69.947 91.1632 65.1616C86.0971 60.3619 79.65 57.5835 74.0752 57.5835C73.5229 57.5835 73.0752 57.1358 73.0752 56.5835C73.0752 56.0312 73.5229 55.5835 74.0752 55.5835C80.2589 55.5835 87.1781 58.6311 92.5387 63.7097C97.9143 68.8026 101.808 76.0183 101.808 84.4447C101.808 86.4063 101.985 87.6133 102.196 88.2579C102.445 87.84 102.744 87.1212 103.002 86.0749C103.337 84.72 103.571 82.9555 103.581 80.9227C103.623 72.7987 100.116 60.6574 85.7851 53.4921C85.2911 53.2451 85.0909 52.6444 85.3378 52.1504ZM101.898 88.6393C101.898 88.639 101.901 88.6369 101.906 88.6336C101.9 88.6379 101.898 88.6396 101.898 88.6393ZM102.39 88.6872C102.395 88.6918 102.397 88.6946 102.397 88.6949C102.397 88.6952 102.395 88.6929 102.39 88.6872Z" fill="#A88DFF"/>
<path fill-rule="evenodd" clip-rule="evenodd" d="M102.594 50.1758C102.941 49.7461 103.57 49.679 104 50.0259C113.293 57.5285 117.5 69.2405 117.5 82.3755C117.5 83.8113 117.576 84.8405 117.689 85.5334C117.797 85.2878 117.909 84.9973 118.022 84.6619C118.385 83.5935 118.739 82.1436 119.026 80.4061C120.178 73.4182 120.158 62.2478 115.609 53.3435C115.358 52.8517 115.553 52.2493 116.045 51.998C116.537 51.7468 117.139 51.9418 117.39 52.4336C122.208 61.8646 122.188 73.519 120.999 80.7315C120.7 82.544 120.323 84.1052 119.917 85.3039C119.714 85.9022 119.498 86.4288 119.271 86.8585C119.056 87.2653 118.784 87.6772 118.434 87.9518C118.251 88.0958 117.996 88.2416 117.676 88.2821C117.332 88.3256 117.008 88.2352 116.743 88.0563C116.286 87.7479 116.061 87.2204 115.929 86.7981C115.644 85.8805 115.5 84.4107 115.5 82.3755C115.5 69.6447 111.43 58.5949 102.744 51.5821C102.314 51.2351 102.247 50.6055 102.594 50.1758Z" fill="#A88DFF"/>
<path fill-rule="evenodd" clip-rule="evenodd" d="M130.03 62.7563C130.58 62.7052 131.067 63.1095 131.118 63.6594C131.47 67.4365 131.468 72.6702 131.033 77.7616C130.632 82.4486 129.856 87.119 128.597 90.4401C128.935 90.1666 129.319 89.8001 129.728 89.3336C131.714 87.0668 134.146 82.6073 134.818 75.7256C134.871 75.176 135.36 74.7738 135.91 74.8275C136.46 74.8811 136.862 75.3702 136.808 75.9199C136.1 83.1781 133.519 88.0416 131.232 90.6518C130.66 91.3049 130.096 91.8275 129.574 92.2125C129.069 92.5851 128.539 92.8761 128.035 92.9842C127.781 93.0387 127.458 93.0629 127.13 92.9559C126.766 92.8374 126.467 92.5786 126.304 92.2139C126.157 91.8843 126.155 91.5458 126.193 91.2737C126.232 90.9941 126.324 90.7088 126.446 90.428C127.758 87.3922 128.611 82.6114 129.04 77.5913C129.467 72.5951 129.465 67.4825 129.127 63.8446C129.076 63.2947 129.48 62.8075 130.03 62.7563ZM127.597 91.0317C127.597 91.0316 127.599 91.0314 127.602 91.0311C127.599 91.0317 127.597 91.0318 127.597 91.0317ZM128.172 91.564C128.172 91.5673 128.172 91.569 128.172 91.569C128.172 91.5691 128.172 91.5675 128.172 91.564Z" fill="#A88DFF"/>
<path d="M74.7617 47.1793L63.5992 52.1422C63.2483 52.2982 62.9567 52.3315 62.7244 52.2422C62.4921 52.1529 62.2979 51.9328 62.1419 51.5819L55.8238 37.3711C55.7393 37.181 55.6897 37.0105 55.6751 36.8594C55.675 36.7018 55.7067 36.5564 55.77 36.4232L57.5363 32.775C57.5834 32.684 57.6589 32.5979 57.7629 32.5167C57.8749 32.4143 58.0041 32.3306 58.1503 32.2656L61.5495 30.7544C61.9003 30.5984 62.192 30.565 62.4243 30.6543C62.6566 30.7437 62.8508 30.9638 63.0068 31.3146L66.9751 40.2402L66.9995 40.1769L68.7657 36.5287C68.8128 36.4377 68.8883 36.3516 68.9923 36.2704C69.1044 36.168 69.2335 36.0843 69.3797 36.0193L72.5596 34.6055C72.9105 34.4495 73.2021 34.4162 73.4344 34.5055C73.6667 34.5948 73.8609 34.8149 74.0169 35.1658L77.0882 42.0738C77.1727 42.2639 77.2149 42.4377 77.215 42.5953C77.2296 42.7464 77.2053 42.8885 77.1419 43.0218L75.344 46.6577C75.3115 46.7422 75.2393 46.8356 75.1272 46.938C75.0297 47.0339 74.9079 47.1143 74.7617 47.1793ZM76.4304 43.3118C76.7082 43.1883 76.8796 43.0421 76.9445 42.8731C77.0176 42.6831 76.9924 42.4491 76.8689 42.1713L73.7976 35.2633C73.6741 34.9855 73.5205 34.8174 73.3369 34.759C73.1615 34.6794 72.9349 34.7013 72.6571 34.8248L69.4772 36.2386C69.1994 36.3621 69.024 36.5189 68.9509 36.709C68.8859 36.878 68.9152 37.1013 69.0387 37.3791L70.6182 40.9318L67.6138 42.2676L62.7875 31.4121C62.664 31.1344 62.5104 30.9662 62.3268 30.9078C62.1514 30.8282 61.9248 30.8502 61.647 30.9737L58.2478 32.4849C57.97 32.6084 57.7946 32.7652 57.7215 32.9553C57.6565 33.1243 57.6858 33.3477 57.8093 33.6254L64.1274 47.8362C64.2509 48.114 64.4004 48.2927 64.5759 48.3722C64.7595 48.4307 64.9901 48.3982 65.2679 48.2747L76.4304 43.3118ZM65.9913 45.5892L60.7262 33.7469L60.9455 33.6494L66.1131 45.2724L73.7448 41.8793L71.824 37.5591L72.0433 37.4616L74.0616 42.0011L65.9913 45.5892Z" fill="#224887"/>
<path d="M92.9966 42.9792L81.992 44.6848C81.6125 44.7436 81.3224 44.6995 81.1215 44.5525C80.9206 44.4056 80.7908 44.1424 80.7319 43.7629L78.35 28.3944C78.3182 28.1888 78.3149 28.0112 78.3403 27.8616C78.3815 27.7095 78.4501 27.5774 78.5461 27.4654L81.2049 24.4061C81.2741 24.3306 81.3695 24.2672 81.4911 24.216C81.6261 24.1465 81.7726 24.0995 81.9307 24.075L92.9353 22.3694C93.3148 22.3106 93.605 22.3547 93.8059 22.5017C94.0067 22.6486 94.1366 22.9118 94.1954 23.2913L94.6255 26.0662C94.6573 26.2717 94.6527 26.4506 94.6115 26.6027C94.5861 26.7523 94.5254 26.8831 94.4294 26.9952L92.6508 28.9952C92.8211 29.0497 92.9502 29.1512 93.0379 29.2995C93.1415 29.4453 93.2129 29.6448 93.2521 29.8977L93.6454 32.4354C93.6773 32.641 93.6726 32.8198 93.6314 32.9719C93.606 33.1216 93.5454 33.2524 93.4494 33.3644L91.6143 35.4703L94.8872 34.9631C95.2667 34.9043 95.5568 34.9483 95.7577 35.0953C95.9586 35.2423 96.0884 35.5055 96.1472 35.885L96.5773 38.6598C96.6092 38.8654 96.6045 39.0442 96.5633 39.1963C96.5379 39.346 96.4773 39.4768 96.3813 39.5888L93.6951 42.6281C93.6416 42.7011 93.5474 42.7724 93.4125 42.8419C93.2934 42.9089 93.1547 42.9547 92.9966 42.9792ZM95.6187 39.6827C95.9191 39.6362 96.1227 39.5398 96.2296 39.3937C96.3499 39.2294 96.3867 38.997 96.3401 38.6966L95.9101 35.9217C95.8635 35.6213 95.7593 35.4189 95.5974 35.3144C95.4488 35.1917 95.2244 35.1537 94.9239 35.2002L88.3781 36.2148L88.062 34.1751L92.6868 33.4583C92.9872 33.4118 93.1908 33.3154 93.2977 33.1693C93.418 33.005 93.4548 32.7726 93.4082 32.4722L93.0149 29.9345C92.9684 29.6341 92.8641 29.4317 92.7022 29.3272C92.5537 29.2045 92.3292 29.1665 92.0288 29.213L87.404 29.9298L87.121 28.1036L93.6668 27.0891C93.9672 27.0425 94.1709 26.9462 94.2778 26.8001C94.398 26.6357 94.4349 26.4034 94.3883 26.1029L93.9582 23.3281C93.9117 23.0277 93.8074 22.8252 93.6455 22.7208C93.497 22.5981 93.2725 22.56 92.9721 22.6066L81.9675 24.3122C81.6671 24.3587 81.4567 24.4642 81.3365 24.6285C81.2296 24.7746 81.1994 24.9979 81.246 25.2983L83.6279 40.6668C83.6745 40.9672 83.772 41.1788 83.9206 41.3015C84.0825 41.4059 84.3136 41.4349 84.6141 41.3883L95.6187 39.6827ZM93.9704 37.5095L94.0071 37.7467L86.0146 38.9854L84.0296 26.1783L92.0222 24.9396L92.059 25.1768L84.3036 26.3788L85.2262 32.3317L91.0605 31.4274L91.0973 31.6646L85.2629 32.5689L86.215 38.7115L93.9704 37.5095Z" fill="#224887"/>
<path d="M106.586 44.2433L102.852 43.1605C102.483 43.0536 102.239 42.8911 102.119 42.6731C101.999 42.455 101.992 42.1616 102.099 41.7928L105.314 30.7055L102.156 29.7898C101.787 29.6828 101.543 29.5204 101.423 29.3023C101.303 29.0842 101.296 28.7908 101.403 28.422L102.212 25.6329C102.27 25.4331 102.342 25.2708 102.428 25.1458C102.53 25.0254 102.648 24.9346 102.782 24.8736L106.484 23.2233C106.579 23.1841 106.692 23.167 106.824 23.1719C106.975 23.1659 107.128 23.1852 107.282 23.2297L119.452 26.7587C119.821 26.8657 120.066 27.0281 120.186 27.2462C120.306 27.4643 120.312 27.7577 120.205 28.1265L119.396 30.9156C119.339 31.1154 119.259 31.2755 119.157 31.396C119.071 31.5209 118.961 31.6139 118.826 31.6749L115.108 33.2955C115.029 33.3391 114.913 33.3639 114.762 33.3699C114.625 33.3804 114.48 33.3633 114.327 33.3188L114.142 33.2653L111.656 41.8401C111.598 42.0399 111.518 42.2 111.417 42.3205C111.33 42.4454 111.22 42.5384 111.086 42.5994L107.367 44.22C107.288 44.2636 107.173 44.2885 107.021 44.2945C106.885 44.3049 106.74 44.2879 106.586 44.2433ZM110.355 42.3625C110.647 42.4472 110.872 42.4458 111.031 42.3586C111.209 42.2604 111.341 42.0653 111.425 41.7733L114.707 30.4555L118.096 31.438C118.388 31.5226 118.613 31.5213 118.771 31.434C118.95 31.3358 119.081 31.1407 119.166 30.8488L119.975 28.0597C120.059 27.7677 120.05 27.5402 119.948 27.3771C119.865 27.2032 119.677 27.0739 119.386 26.9892L107.215 23.4602C106.923 23.3756 106.688 23.3823 106.509 23.4805C106.351 23.5678 106.229 23.7574 106.144 24.0494L105.336 26.8385C105.251 27.1305 105.25 27.3635 105.333 27.5374C105.436 27.7005 105.633 27.8243 105.925 27.909L109.313 28.8915L106.032 40.2093C105.947 40.5013 105.946 40.7342 106.029 40.9082C106.131 41.0712 106.329 41.1951 106.621 41.2797L110.355 42.3625ZM108.974 39.7131L112.517 27.4964L107.791 26.1262L107.858 25.8957L117.539 28.7028L117.472 28.9334L112.747 27.5632L109.205 39.78L108.974 39.7131Z" fill="#224887"/>
<path d="M143.322 78.7368L141.032 67.839C140.953 67.4632 140.981 67.1711 141.117 66.9626C141.253 66.7542 141.509 66.6105 141.885 66.5315L157.104 63.3326C157.308 63.2898 157.485 63.2771 157.636 63.2944C157.79 63.3274 157.926 63.3889 158.043 63.4787L161.239 65.9704C161.319 66.0356 161.387 66.1275 161.445 66.2461C161.521 66.3772 161.576 66.521 161.609 66.6776L163.899 77.5755C163.978 77.9512 163.95 78.2434 163.814 78.4518C163.678 78.6602 163.422 78.8039 163.046 78.8829L160.298 79.4605C160.095 79.5033 159.916 79.5082 159.762 79.4752C159.611 79.4578 159.477 79.4042 159.36 79.3143L157.268 77.645C157.222 77.818 157.128 77.9523 156.985 78.0478C156.845 78.159 156.649 78.241 156.399 78.2936L153.886 78.8219C153.682 78.8646 153.503 78.8695 153.349 78.8365C153.198 78.8192 153.064 78.7655 152.947 78.6757L150.747 76.9556L151.428 80.1968C151.507 80.5726 151.478 80.8647 151.342 81.0731C151.206 81.2816 150.95 81.4253 150.575 81.5043L147.827 82.0818C147.623 82.1246 147.444 82.1295 147.29 82.0965C147.139 82.0792 147.005 82.0255 146.888 81.9357L143.71 79.4156C143.634 79.3661 143.558 79.2758 143.482 79.1448C143.408 79.0294 143.355 78.8934 143.322 78.7368ZM146.754 81.1792C146.817 81.4767 146.924 81.6749 147.075 81.7738C147.246 81.8851 147.48 81.9095 147.777 81.847L150.525 81.2694C150.823 81.2069 151.019 81.092 151.115 80.9247C151.23 80.7698 151.256 80.5437 151.193 80.2462L149.83 73.7638L151.85 73.3392L152.813 77.9192C152.876 78.2167 152.983 78.4149 153.134 78.5138C153.305 78.6251 153.539 78.6495 153.836 78.587L156.349 78.0588C156.647 77.9962 156.843 77.8813 156.939 77.7141C157.054 77.5592 157.08 77.333 157.017 77.0355L156.055 72.4556L157.863 72.0755L159.225 78.5578C159.288 78.8553 159.395 79.0536 159.547 79.1525C159.717 79.2638 159.951 79.2882 160.249 79.2256L162.997 78.6481C163.294 78.5855 163.491 78.4706 163.586 78.3034C163.701 78.1485 163.727 77.9223 163.664 77.6248L161.374 66.7269C161.311 66.4294 161.195 66.225 161.024 66.1137C160.873 66.0148 160.648 65.9966 160.351 66.0591L145.131 69.2581C144.834 69.3206 144.628 69.4293 144.513 69.5842C144.417 69.7514 144.401 69.9838 144.463 70.2813L146.754 81.1792ZM148.836 79.4172L148.601 79.4666L146.938 71.5515L159.62 68.8858L161.284 76.8008L161.049 76.8502L159.435 69.17L153.54 70.4091L154.754 76.1868L154.519 76.2362L153.305 70.4585L147.222 71.737L148.836 79.4172Z" fill="#224887"/>
<path d="M144.162 50.3127C144.366 50.5163 144.558 50.6181 144.739 50.618C144.92 50.618 145.254 50.5669 145.74 50.4649L150.967 49.377C151.148 49.3317 151.295 49.3316 151.408 49.3768C151.544 49.422 151.657 49.4899 151.748 49.5804L152.036 49.8688C152.195 50.0271 152.263 50.1855 152.24 50.3439C152.24 50.5023 152.15 50.672 151.969 50.8531L143.334 59.4941L143.164 59.3245L151.799 50.6834C151.889 50.5929 151.946 50.491 151.968 50.3779C152.014 50.2647 151.98 50.1516 151.867 50.0385L151.612 49.7841C151.533 49.7049 151.453 49.6483 151.374 49.6144C151.295 49.5805 151.165 49.5862 150.984 49.6315L145.791 50.6855C145.282 50.7875 144.915 50.8386 144.688 50.8386C144.473 50.85 144.241 50.7313 143.992 50.4825C143.743 50.2337 143.619 49.9962 143.619 49.7699C143.63 49.5549 143.686 49.1929 143.788 48.6837L144.838 43.4903C144.884 43.3093 144.884 43.1735 144.838 43.083C144.804 43.0039 144.748 42.9247 144.668 42.8455L144.414 42.5911C144.301 42.478 144.188 42.4441 144.074 42.4893C143.973 42.5233 143.876 42.5856 143.786 42.6761L135.151 51.3172L134.981 51.1475L143.616 42.5065C143.797 42.3254 143.961 42.2292 144.108 42.2178C144.278 42.2064 144.436 42.2743 144.583 42.4213L144.872 42.7097C144.963 42.8002 145.031 42.9133 145.076 43.049C145.132 43.1735 145.138 43.3262 145.093 43.5072L144.009 48.7345C143.907 49.2211 143.856 49.5548 143.856 49.7359C143.856 49.9169 143.958 50.1092 144.162 50.3127ZM134.796 54.0156C135.011 54.2305 135.209 54.3379 135.39 54.3378C135.593 54.3378 135.803 54.2302 136.017 54.0152L141.989 48.0394L141.141 50.8908C141.051 51.185 141.028 51.4452 141.074 51.6715C141.142 51.8977 141.283 52.1183 141.498 52.3332L142.177 53.0118C142.392 53.2266 142.607 53.3623 142.822 53.4188C143.06 53.4753 143.326 53.4582 143.62 53.3676L146.471 52.5181L140.499 58.4938C140.284 58.7089 140.171 58.9126 140.16 59.1049C140.171 59.2972 140.285 59.5008 140.5 59.7157L143.114 62.3283C143.329 62.5432 143.527 62.6506 143.708 62.6505C143.912 62.6504 144.121 62.5429 144.336 62.3278L155.329 51.3271C155.544 51.112 155.646 50.9084 155.634 50.716C155.645 50.5237 155.544 50.3201 155.329 50.1052L152.578 47.3569C152.397 47.176 152.205 47.0629 152.001 47.0177C151.809 46.9838 151.571 47.0066 151.288 47.0859L147.012 48.3432C146.854 48.3885 146.73 48.4111 146.639 48.4112C146.56 48.4225 146.486 48.3943 146.418 48.3264L146.266 48.1737C146.198 48.1059 146.164 48.0267 146.164 47.9362C146.175 47.857 146.203 47.7382 146.248 47.5798L147.486 43.2858C147.565 43.0029 147.582 42.7597 147.536 42.556C147.502 42.3637 147.395 42.1771 147.214 41.9961L144.481 39.2648C144.266 39.0499 144.056 38.9425 143.853 38.9426C143.672 38.9426 143.474 39.0502 143.259 39.2652L132.266 50.266C132.051 50.481 131.938 50.6847 131.926 50.877C131.938 51.0694 132.051 51.273 132.266 51.4879L134.796 54.0156ZM135.322 54.5754L131.283 54.2035C131.192 54.2035 131.079 54.1696 130.943 54.1018C130.819 54.0453 130.7 53.9605 130.587 53.8474L128.057 51.3196C127.786 51.0482 127.65 50.788 127.65 50.5391C127.65 50.2902 127.785 50.03 128.057 49.7583L139.05 38.7576C139.197 38.6104 139.338 38.5029 139.474 38.435C139.621 38.3784 139.768 38.3557 139.915 38.367L143.954 38.705C144.056 38.7162 144.164 38.7558 144.277 38.8236C144.413 38.8915 144.537 38.9819 144.65 39.095L147.383 41.8263C147.598 42.0412 147.729 42.2618 147.774 42.4881C147.831 42.7256 147.814 43.0141 147.723 43.3536L146.757 46.6292L147.181 46.5103C147.306 46.4763 147.425 46.448 147.538 46.4253C147.674 46.4026 147.792 46.3969 147.894 46.4082L151.916 46.7632C152.075 46.7858 152.216 46.8253 152.341 46.8818C152.476 46.9497 152.612 47.0514 152.748 47.1872L155.498 49.9354C155.77 50.2069 155.906 50.467 155.906 50.7159C155.906 50.9648 155.77 51.2251 155.499 51.4967L144.506 62.4975C144.359 62.6446 144.212 62.7465 144.065 62.8031C143.929 62.871 143.787 62.8994 143.64 62.8881L139.601 62.5162C139.511 62.5162 139.397 62.4823 139.262 62.4145C139.137 62.3579 139.018 62.2731 138.905 62.16L136.291 59.5475C136.008 59.2647 135.866 58.9989 135.866 58.75C135.878 58.5124 136.019 58.2578 136.29 57.9862L140.769 53.5044L138.936 53.3353C138.766 53.3241 138.597 53.2789 138.427 53.1997C138.28 53.1206 138.127 53.0019 137.969 52.8435L137.748 52.623L136.187 54.1848C136.04 54.3319 135.893 54.4338 135.746 54.4904C135.61 54.5584 135.469 54.5867 135.322 54.5754Z" fill="#224887"/>
<path d="M65.0856 147.187C64.7335 147.034 64.5119 146.841 64.4208 146.61C64.3297 146.378 64.3608 146.086 64.5141 145.734L65.6349 143.16C65.718 142.969 65.8102 142.817 65.9117 142.704C66.0279 142.598 66.1565 142.523 66.2975 142.48L69.3027 141.589C68.6274 141.016 68.1837 140.352 67.9716 139.596C67.7806 138.832 67.9151 137.922 68.3749 136.866L69.3808 134.556C69.6683 133.896 70.0338 133.357 70.4773 132.939C70.9209 132.521 71.4247 132.226 71.9888 132.053L75.8937 130.9C76.4303 130.749 77.0303 130.714 77.6937 130.793C78.3636 130.858 79.0726 131.053 79.8207 131.379L85.9821 134.061C86.3342 134.215 86.5558 134.407 86.6469 134.639C86.738 134.87 86.7069 135.162 86.5537 135.514L85.4136 138.133C85.3306 138.324 85.231 138.472 85.1148 138.579C85.0133 138.692 84.8921 138.77 84.7511 138.813L82.0521 139.601C82.8869 140.209 83.4585 140.92 83.7668 141.735C84.0963 142.542 84.0023 143.539 83.485 144.727L82.4791 147.038C82.1916 147.698 81.8261 148.237 81.3826 148.654C80.939 149.072 80.4278 149.364 79.8491 149.531L75.9758 150.672C75.4181 150.831 74.8076 150.87 74.1441 150.791C73.4743 150.726 72.7726 150.534 72.0392 150.214L65.0856 147.187ZM76.0178 148.832C77.4262 149.445 78.6774 149.597 79.7717 149.288C80.887 148.971 81.7161 148.189 82.259 146.942L83.2649 144.631C83.8014 143.399 83.8692 142.382 83.4684 141.579C83.0675 140.776 82.3855 140.078 81.4225 139.484L78.3354 137.617C78.151 137.519 78.0363 137.382 77.9911 137.205C77.9459 137.028 77.9648 136.844 78.0478 136.654C78.1308 136.463 78.2492 136.331 78.403 136.259C78.5632 136.171 78.7386 136.169 78.9293 136.252L84.0565 138.484C84.3352 138.606 84.5588 138.633 84.7273 138.567C84.9168 138.493 85.0722 138.316 85.1936 138.037L86.3336 135.419C86.455 135.14 86.4752 134.913 86.3942 134.738C86.3344 134.555 86.1651 134.403 85.8863 134.282L79.7249 131.599C78.302 130.98 77.0401 130.832 75.9395 131.155C74.8452 131.464 74.0267 132.242 73.4838 133.489L72.4779 135.799C71.9414 137.032 71.8662 138.046 72.2524 138.842C72.6533 139.645 73.3353 140.343 74.2983 140.937L77.3978 142.836C77.5822 142.934 77.6928 143.061 77.7297 143.216C77.7813 143.378 77.7528 143.584 77.6442 143.833C77.5676 144.01 77.4492 144.141 77.289 144.229C77.1499 144.308 76.985 144.306 76.7943 144.223L70.875 141.645C70.5962 141.524 70.3621 141.501 70.1726 141.575C70.0041 141.642 69.8592 141.814 69.7379 142.093L68.617 144.667C68.4956 144.946 68.4649 145.177 68.5248 145.36C68.6057 145.535 68.7856 145.683 69.0643 145.804L76.0178 148.832ZM83.8358 135.745L83.74 135.965L78.8549 133.838C78.2388 133.57 77.6739 133.524 77.1603 133.702C76.6466 133.88 76.278 134.225 76.0545 134.739L75.2689 136.543C75.0453 137.057 74.9916 137.461 75.1075 137.756C75.2235 138.05 75.4374 138.301 75.7493 138.506L79.9804 141.474C80.3821 141.753 80.6585 142.101 80.8095 142.515C80.9752 142.937 80.8919 143.529 80.5598 144.291L80.0042 145.568C79.7231 146.213 79.27 146.653 78.6447 146.887C78.0257 147.106 77.3422 147.052 76.594 146.727L71.1148 144.341L71.2106 144.121L76.6898 146.507C77.3646 146.801 77.9799 146.85 78.5357 146.656C79.1125 146.453 79.5286 146.059 79.7841 145.472L80.3398 144.196C80.64 143.506 80.7196 142.982 80.5788 142.624C80.4591 142.258 80.213 141.942 79.8405 141.675L75.6094 138.707C75.26 138.468 75.0084 138.184 74.8548 137.855C74.7223 137.518 74.787 137.049 75.0488 136.447L75.8344 134.643C76.0899 134.056 76.5029 133.669 77.0733 133.481C77.6501 133.278 78.2759 133.324 78.9507 133.618L83.8358 135.745Z" fill="#224887"/>
<path d="M100.322 158.629L88.3699 156.102C87.9942 156.022 87.7385 155.878 87.6027 155.67C87.4669 155.461 87.4388 155.169 87.5182 154.793L90.7354 139.578C90.7785 139.374 90.8384 139.207 90.9151 139.076C91.0075 138.948 91.1184 138.849 91.2479 138.778L94.8181 136.859C94.9096 136.813 95.0213 136.788 95.1531 136.783C95.3039 136.766 95.4576 136.774 95.6142 136.807L99.2537 137.576C99.6294 137.656 99.8851 137.8 100.021 138.008C100.157 138.217 100.185 138.509 100.105 138.885L98.0847 148.442L98.1416 148.405L101.712 146.486C101.803 146.44 101.915 146.414 102.047 146.409C102.198 146.392 102.351 146.4 102.508 146.433L105.913 147.153C106.288 147.233 106.544 147.377 106.68 147.585C106.816 147.794 106.844 148.086 106.764 148.462L105.2 155.858C105.157 156.062 105.09 156.227 104.997 156.355C104.92 156.486 104.817 156.587 104.688 156.657L101.099 158.548C101.023 158.597 100.91 158.63 100.759 158.648C100.624 158.668 100.478 158.662 100.322 158.629ZM103.942 156.475C104.239 156.538 104.464 156.52 104.615 156.421C104.786 156.31 104.903 156.106 104.966 155.808L106.53 148.412C106.592 148.115 106.567 147.888 106.452 147.733C106.357 147.566 106.16 147.451 105.863 147.388L102.458 146.668C102.161 146.605 101.927 146.629 101.756 146.74C101.604 146.839 101.497 147.037 101.434 147.335L100.63 151.138L97.413 150.458L99.8706 138.835C99.9335 138.538 99.9077 138.312 99.7933 138.157C99.6979 137.989 99.5015 137.874 99.204 137.811L95.5645 137.042C95.2671 136.979 95.033 137.003 94.8624 137.114C94.7106 137.213 94.6033 137.411 94.5405 137.708L91.3232 152.924C91.2603 153.221 91.2766 153.454 91.372 153.621C91.4864 153.776 91.6924 153.885 91.9898 153.948L103.942 156.475ZM94.1507 152.197L96.8318 139.517L97.0666 139.567L94.4352 152.012L102.607 153.74L103.585 149.114L103.819 149.164L102.792 154.024L94.1507 152.197Z" fill="#224887"/>
<path d="M123.129 159.085L111.993 159.05C111.609 159.049 111.329 158.96 111.154 158.784C110.979 158.607 110.891 158.327 110.893 157.943L110.94 142.391C110.941 142.183 110.965 142.007 111.014 141.863C111.078 141.72 111.167 141.6 111.279 141.504L114.383 138.898C114.463 138.834 114.567 138.786 114.695 138.755C114.84 138.707 114.992 138.684 115.152 138.684L126.288 138.718C126.672 138.719 126.951 138.808 127.127 138.985C127.302 139.161 127.389 139.442 127.388 139.826L127.38 142.634C127.379 142.842 127.346 143.017 127.282 143.161C127.234 143.305 127.153 143.425 127.041 143.52L124.972 145.218C125.131 145.299 125.243 145.419 125.307 145.579C125.386 145.739 125.425 145.948 125.425 146.204L125.417 148.772C125.416 148.98 125.384 149.155 125.319 149.299C125.271 149.443 125.19 149.563 125.078 149.658L122.937 151.452L126.249 151.462C126.633 151.463 126.912 151.552 127.088 151.729C127.263 151.905 127.35 152.185 127.349 152.569L127.341 155.377C127.34 155.585 127.307 155.761 127.243 155.905C127.194 156.049 127.114 156.169 127.002 156.264L123.874 158.847C123.81 158.911 123.706 158.966 123.561 159.014C123.433 159.061 123.289 159.085 123.129 159.085ZM126.234 156.238C126.538 156.239 126.754 156.176 126.882 156.048C127.027 155.904 127.1 155.681 127.101 155.377L127.109 152.569C127.11 152.265 127.039 152.049 126.895 151.92C126.768 151.776 126.552 151.703 126.248 151.702L119.624 151.682L119.63 149.618L124.31 149.632C124.614 149.633 124.83 149.57 124.959 149.442C125.103 149.299 125.176 149.075 125.177 148.771L125.185 146.203C125.186 145.899 125.114 145.683 124.971 145.554C124.843 145.41 124.627 145.337 124.323 145.336L119.643 145.322L119.649 143.474L126.273 143.494C126.577 143.495 126.793 143.432 126.922 143.304C127.066 143.161 127.139 142.937 127.14 142.633L127.148 139.825C127.149 139.521 127.078 139.305 126.934 139.176C126.807 139.032 126.591 138.959 126.287 138.958L115.151 138.924C114.847 138.923 114.623 138.994 114.478 139.138C114.35 139.266 114.285 139.481 114.284 139.785L114.237 155.337C114.236 155.641 114.299 155.865 114.427 156.01C114.57 156.138 114.794 156.203 115.098 156.204L126.234 156.238ZM124.945 153.834L124.945 154.074L116.857 154.049L116.896 141.089L124.984 141.114L124.984 141.354L117.136 141.33L117.117 147.354L123.021 147.372L123.02 147.612L117.116 147.594L117.097 153.81L124.945 153.834Z" fill="#224887"/>
<path d="M147.075 156.08L136.16 158.283C135.783 158.359 135.491 158.328 135.284 158.191C135.077 158.053 134.935 157.796 134.859 157.42L131.782 142.175C131.741 141.971 131.729 141.794 131.748 141.643C131.782 141.489 131.845 141.354 131.935 141.238L134.453 138.061C134.518 137.983 134.611 137.915 134.73 137.858C134.862 137.783 135.006 137.729 135.163 137.698L146.078 135.494C146.455 135.418 146.747 135.449 146.954 135.587C147.161 135.724 147.303 135.981 147.379 136.358L147.935 139.11C147.976 139.314 147.979 139.493 147.945 139.647C147.926 139.797 147.872 139.931 147.781 140.047L146.095 142.126C146.268 142.173 146.401 142.268 146.496 142.412C146.606 142.553 146.686 142.749 146.737 143L147.245 145.517C147.286 145.721 147.289 145.9 147.255 146.054C147.237 146.205 147.182 146.338 147.091 146.454L145.354 148.641L148.6 147.986C148.976 147.91 149.268 147.941 149.476 148.079C149.683 148.216 149.825 148.473 149.901 148.85L150.456 151.602C150.497 151.806 150.501 151.985 150.467 152.139C150.448 152.29 150.393 152.423 150.303 152.539L147.757 155.697C147.707 155.773 147.616 155.848 147.485 155.924C147.369 155.996 147.232 156.048 147.075 156.08ZM149.545 152.668C149.843 152.608 150.042 152.502 150.142 152.351C150.255 152.182 150.281 151.948 150.221 151.65L149.665 148.897C149.605 148.599 149.492 148.402 149.325 148.305C149.172 148.189 148.946 148.161 148.648 148.221L142.155 149.532L141.746 147.509L146.334 146.583C146.632 146.523 146.831 146.417 146.931 146.266C147.043 146.097 147.07 145.863 147.01 145.565L146.501 143.048C146.441 142.75 146.328 142.552 146.161 142.455C146.008 142.339 145.782 142.312 145.484 142.372L140.896 143.298L140.53 141.486L147.023 140.176C147.321 140.115 147.521 140.01 147.621 139.859C147.733 139.69 147.76 139.456 147.699 139.158L147.144 136.405C147.084 136.107 146.97 135.91 146.804 135.813C146.65 135.697 146.424 135.669 146.126 135.729L135.21 137.933C134.912 137.993 134.707 138.108 134.594 138.277C134.494 138.428 134.474 138.653 134.534 138.951L137.611 154.195C137.672 154.493 137.779 154.7 137.933 154.816C138.099 154.913 138.331 154.931 138.629 154.871L149.545 152.668ZM147.8 150.572L147.847 150.807L139.919 152.407L137.355 139.703L145.283 138.103L145.33 138.338L137.638 139.891L138.83 145.796L144.617 144.628L144.664 144.863L138.877 146.031L140.107 152.124L147.8 150.572Z" fill="#224887"/>
<path d="M163.938 151.646L160.519 153.11C160.166 153.261 159.874 153.29 159.643 153.198C159.412 153.105 159.22 152.882 159.069 152.529L152.949 138.232C152.867 138.041 152.82 137.87 152.807 137.719C152.809 137.561 152.843 137.416 152.908 137.284L154.725 133.66C154.773 133.57 154.85 133.485 154.955 133.405C155.068 133.304 155.199 133.223 155.346 133.16L162.097 130.269C163.141 129.822 164.064 129.558 164.864 129.476C165.665 129.395 166.356 129.464 166.938 129.685C167.52 129.906 168.011 130.261 168.412 130.751C168.828 131.234 169.178 131.807 169.461 132.469L170.67 135.293C170.972 135.999 171.146 136.69 171.192 137.367C171.247 138.022 171.119 138.66 170.81 139.279L168.962 142.89C168.727 143.356 168.359 143.818 167.859 144.276C167.367 144.713 166.708 145.126 165.882 145.514L166.336 146.573C166.417 146.764 166.457 146.939 166.455 147.096C166.468 147.247 166.441 147.389 166.376 147.522L164.528 151.132C164.494 151.216 164.421 151.309 164.307 151.41C164.209 151.504 164.086 151.583 163.938 151.646ZM165.661 147.802C165.94 147.682 166.114 147.538 166.181 147.37C166.257 147.181 166.235 146.947 166.115 146.667L164.547 143.005L167.084 141.919C169.085 141.062 170.283 140.08 170.678 138.97C171.073 137.861 170.997 136.667 170.449 135.387L169.24 132.563C168.693 131.284 167.881 130.404 166.805 129.925C165.73 129.445 164.192 129.634 162.192 130.49L155.44 133.38C155.161 133.5 154.983 133.654 154.907 133.843C154.84 134.011 154.866 134.235 154.986 134.515L161.107 148.812C161.226 149.091 161.373 149.272 161.548 149.354C161.73 149.415 161.961 149.385 162.241 149.266L165.661 147.802ZM165.973 140.176L161.427 142.121L163.288 146.468L163.068 146.562L157.967 134.648L162.733 132.608C163.424 132.312 164.018 132.154 164.514 132.133C165.018 132.091 165.444 132.152 165.793 132.316C166.142 132.48 166.439 132.727 166.684 133.057C166.93 133.387 167.144 133.765 167.327 134.192L168.026 135.824C168.208 136.251 168.334 136.667 168.403 137.072C168.466 137.463 168.437 137.841 168.315 138.207C168.186 138.558 167.933 138.901 167.555 139.237C167.191 139.567 166.664 139.88 165.973 140.176ZM161.333 141.901L165.878 139.955C166.525 139.678 167.019 139.388 167.36 139.086C167.715 138.777 167.952 138.458 168.072 138.128C168.186 137.784 168.21 137.434 168.145 137.079C168.088 136.703 167.975 136.316 167.805 135.919L167.106 134.286C166.936 133.889 166.735 133.54 166.502 133.24C166.283 132.933 166.01 132.702 165.682 132.546C165.355 132.39 164.957 132.335 164.488 132.379C164.028 132.401 163.474 132.551 162.827 132.829L158.282 134.774L161.333 141.901ZM161.376 135.721L163.362 134.871C163.789 134.688 164.115 134.679 164.342 134.843C164.569 135.007 164.742 135.229 164.862 135.508L165.363 136.677C165.482 136.957 165.523 137.235 165.485 137.512C165.447 137.79 165.215 138.02 164.788 138.202L162.803 139.052L161.376 135.721Z" fill="#224887"/>
</svg>
