<svg width="195" height="174" viewBox="0 0 195 174" fill="none" xmlns="http://www.w3.org/2000/svg">
<path d="M98.7347 121.028L160.306 109.896L155.089 30.6272L103.257 51.1511L53.4681 31.41L42.0332 109.896L98.7347 121.028Z" fill="#A7C5C3"/>
<path d="M158.464 27.3615C130.525 24.9529 99.7785 41.7447 99.7785 53.1948C99.7785 61.2793 113.554 56.0075 102.141 46.2943C88.9947 35.1059 59.3932 25.9164 50.0802 27.3615L39.001 100.581C54.7367 100.42 94.2631 109.113 102.105 117.441C105.868 121.437 98.2508 127.557 94.3972 122.74C90.5435 117.922 98.2508 112.142 164.245 100.581C164.245 100.581 160.391 51.768 158.464 27.3615Z" stroke="#F4D8FE" stroke-linecap="round" stroke-linejoin="round"/>
<path d="M109.365 59.7219C110.973 56.0471 113.5 52.8317 117.404 55.358C121.308 57.8844 125.213 55.5877 125.443 52.8316C125.85 47.9465 130.235 48.2379 132.563 50.0754C136.927 53.5206 138.764 50.7651 140.142 47.3195C141.592 43.6943 145.965 43.7932 149.411 46.3197" stroke="white" stroke-linecap="round" stroke-linejoin="round"/>
<path d="M109.365 70.9761C110.973 67.3012 113.5 64.0858 117.404 66.6122C121.308 69.1385 125.213 66.8418 125.443 64.0857C125.85 59.2007 130.235 59.4921 132.563 61.3296C136.927 64.7747 138.764 62.0192 140.142 58.5736C141.592 54.9484 145.965 55.0473 149.411 57.5738" stroke="white" stroke-linecap="round" stroke-linejoin="round"/>
<path d="M109.365 80.3928C110.973 76.718 113.5 73.5026 117.404 76.0289C121.308 78.5553 125.213 76.2586 125.443 73.5024C125.85 68.6174 130.235 68.9088 132.563 70.7463C136.927 74.1915 138.764 71.436 140.142 67.9904C141.592 64.3652 145.965 64.4641 149.411 66.9906" stroke="white" stroke-linecap="round" stroke-linejoin="round"/>
<path d="M109.365 91.04C110.973 87.3652 113.5 84.1498 117.404 86.6761C121.308 89.2025 125.213 86.9058 125.443 84.1497C125.85 79.2646 130.235 79.5561 132.563 81.3935C136.927 84.8387 138.764 82.0832 140.142 78.6376C141.592 75.0124 145.965 75.1113 149.411 77.6378" stroke="white" stroke-linecap="round" stroke-linejoin="round"/>
<path d="M109.365 102.051C110.973 98.3757 113.5 95.1603 117.404 97.6866C121.308 100.213 125.213 97.9163 125.443 95.1602C125.85 90.2751 130.235 90.5666 132.563 92.404C136.927 95.8492 138.764 93.0937 140.142 89.6481C141.592 86.0229 145.965 86.1218 149.411 88.6483" stroke="white" stroke-linecap="round" stroke-linejoin="round"/>
<path d="M193.766 173.432C190.677 147.269 181.775 122.015 171.782 110.569C158.456 95.3059 144.036 87.1527 151.433 99.304C165.329 122.133 165.241 105.481 144.892 96.7606C124.543 88.0397 146.346 111.84 152.705 116.383C159.064 120.925 149.071 105.118 132.174 100.939C115.277 96.7605 140.896 119.653 148.163 122.015C155.43 124.377 143.984 114.202 132.174 112.931C114.259 111.001 144.929 130.009 147.255 135.823C149.58 141.637 138.17 131.099 132.174 131.099C126.179 131.099 154.522 155.808 149.798 173.432" stroke="#224887" stroke-linecap="round" stroke-linejoin="round"/>
<path d="M85.1378 88.7731C83.2412 89.3743 76.9907 84.7941 75.6517 83.6731C77.9902 83.4952 85.3414 80.2187 86.9151 78.6284C86.9151 79.8429 87.0141 88.1783 85.1378 88.7731Z" fill="#A88DFF"/>
<path d="M66.6047 18.4761C66.6047 18.4761 57.831 29.4335 40.1851 30.694L62.2002 73.0259L68.8282 75.7111L68.3462 70.2718L74.5428 73.0259L74.9559 66.5539L80.6017 69.8587L81.359 63.249L86.5323 67.3498L87.3315 60.9573L66.6047 18.4761Z" fill="#FEBD6D"/>
<path d="M36.4915 20.2036C30.947 10.2236 37.4805 4.70046 46.8911 1.29605C56.3016 -1.22695 60.2481 7.0486 62.2342 11.5339C63.8231 15.1222 78.8123 46.0848 86.6458 61.7834C87.7312 63.9584 89.1104 88.1686 85.5222 88.1686C81.9339 88.1686 64.1777 74.2186 63.167 71.9679L44.7577 37.1393C41.7335 31.4379 39.4503 26.8969 47.5177 22.2192C59.5138 15.2635 68.9342 15.7027 57.0944 22.2192C39.9812 31.6381 36.3367 22.4447 43.0489 17.8231C56.207 8.7631 63.2055 9.71954 58.266 13.7519C53.3264 17.7842 39.0905 24.7399 36.4915 20.2036Z" stroke="#D287A5"/>
<path d="M47.5378 29.2139L68.959 69.883" stroke="#D287A5" stroke-linecap="round"/>
<path d="M54.2306 26.759L75.6519 67.4282" stroke="#D287A5" stroke-linecap="round"/>
<path d="M59.863 22.7068L81.2842 63.376" stroke="#D287A5" stroke-linecap="round"/>
<path d="M2.58142 134.016C-5.08659 97.6508 18.5681 27.1728 53.183 22.8461C71.5834 20.5461 54.3329 35.4964 46.2827 35.8797C38.2325 36.263 48.9661 13.6459 68.5167 15.5626C88.0672 17.4793 74.2668 38.9466 66.2166 40.48C58.1664 42.0134 70.4334 25.9128 80.7837 32.0464C91.134 38.1799 76.9502 47.3802 71.5834 45.8468C66.2166 44.3135 86.9172 33.1965 86.9172 42.7801C86.9172 52.3637 81.5504 56.1971 75.0335 54.2804C68.5167 52.3637 94.9674 43.1634 86.9172 56.9638C78.867 70.7642 42.8326 62.714 48.5828 134.016" stroke="#224887" stroke-linecap="round" stroke-linejoin="round"/>
</svg>
