<svg width="107" height="159" viewBox="0 0 107 159" fill="none" xmlns="http://www.w3.org/2000/svg">
<path d="M55.0963 66.9075C71.6534 67.3114 68.0189 42.8509 68.0189 26.2938C94.6721 -9.41651 33.463 10.7748 23.3672 13.6017C13.2715 16.4286 10.8741 44.6365 9.69446 55.6002C8.86498 63.3093 3.50232 126.675 0.40625 157.366H74.1516L69.749 135.883C74.1516 134.17 99.86 96.1975 97.8777 87.8019C94.2692 72.5188 81.2964 96.1975 81.2964 96.1975C81.2964 96.1975 82.6624 89.7388 80.628 89.7388C78.5936 89.7388 69.749 106.244 63.3528 105.065L55.0963 66.9075Z" fill="#FFD9D0"/>
<path d="M48.9975 85.7164L60.1846 83.078L61.3546 94.8419L56.4965 100.411L49.8007 96.8278L48.9975 85.7164Z" stroke="#A7C5C3" stroke-linecap="round" stroke-linejoin="round"/>
<path d="M58.292 74.0021C60.5928 73.76 60.2294 81.5094 60.2294 85.3846C60.2294 87.3219 60.2294 94.8301 59.1395 94.8301C57.5887 94.8301 55.9911 74.2443 58.292 74.0021Z" stroke="#A7C5C3" stroke-linecap="round" stroke-linejoin="round"/>
<path d="M56.2216 93.6575L54.9916 79.8494C54.7024 76.0899 51.0423 77.1677 51.2375 79.8494C51.5182 83.7053 52.7098 94.3841 52.7098 94.3841L54.7685 96.4426L56.2216 93.6575Z" stroke="#A7C5C3" stroke-linecap="round" stroke-linejoin="round"/>
<path d="M100.914 88.6931L106.698 55.1091C99.3069 56.8767 94.6467 62.5009 89.1833 68.9284C78.8992 64.9433 65.0399 64.7614 59.1503 67.2645V100.541L88.0584 104.601L100.914 88.6931Z" fill="#F7F7F9"/>
<path d="M62.5713 64.6496C62.5713 73.1418 62.5713 98.9011 62.5713 98.9011L87.2783 102.407L98.8622 88.6527C98.8622 88.6527 102.729 64.6496 104.914 53.0525C96.8168 53.0525 78.2099 75.8954 90.0351 71.5767C101.86 67.2581 67.6014 59.9254 62.5713 64.6496Z" stroke="#A7C5C3" stroke-linecap="round" stroke-linejoin="round"/>
<path d="M3.61328 157.8C5.82218 132.583 10.5713 77.9513 11.8965 61.1643C13.553 40.1807 12.4486 8.70505 24.0448 8.70505C35.6411 8.70505 70.4161 -6.20451 77.5947 5.94398C84.7734 18.0925 59.1028 24.1667 56.894 16.4359C54.6852 8.70505 80.3557 15.8837 72.6249 24.1667C64.894 32.4498 43.0889 31.8976 46.9543 24.1667C50.8198 16.4359 65.1771 32.4498 52.4764 36.3152C39.7757 40.1806 30.3885 36.3152 24.0448 32.4498C20.0436 30.0117 13.553 37.3916 24.0448 45.6747" stroke="#A7C5C3" stroke-linecap="round" stroke-linejoin="round"/>
<circle cx="71.037" cy="36.3961" r="7.82068" stroke="#A7C5C3" stroke-linecap="round" stroke-linejoin="round"/>
<circle cx="49.056" cy="42.6776" r="7.82068" stroke="#A7C5C3" stroke-linecap="round" stroke-linejoin="round"/>
<path d="M20.6641 113.468C50.0799 146.225 59.6116 152.979 82.1012 117.26C93.1911 99.647 97.7044 92.1402 95.8449 85.7839C91.3443 70.3997 83.4006 93.3685 80.7461 93.3685C78.0916 93.3685 81.4772 84.9217 74.5166 93.3685C53.2885 119.129 54.3581 117.26 34.6971 85.7837C29.0451 75.9899 19.0625 74.5638 16.9233 78.4856" stroke="#A7C5C3" stroke-linecap="round" stroke-linejoin="round"/>
</svg>
