<svg width="367" height="121" viewBox="0 0 367 121" fill="none" xmlns="http://www.w3.org/2000/svg">
<path d="M33.408 94.632C27.52 94.632 22.56 93.704 18.528 91.848C14.496 89.928 11.424 87.304 9.312 83.976C7.264 80.648 6.24 76.84 6.24 72.552H13.536C13.536 75.24 14.176 77.768 15.456 80.136C16.8 82.44 18.912 84.328 21.792 85.8C24.736 87.208 28.608 87.912 33.408 87.912C40.064 87.912 44.992 86.536 48.192 83.784C51.456 80.968 53.088 77.544 53.088 73.512C53.088 70.12 51.744 67.304 49.056 65.064C46.432 62.76 42.464 61.384 37.152 60.936L29.088 60.168C23.072 59.656 18.272 57.8 14.688 54.6C11.168 51.336 9.408 47.048 9.408 41.736C9.408 37.704 10.368 34.152 12.288 31.08C14.208 27.944 16.928 25.512 20.448 23.784C24.032 21.992 28.32 21.096 33.312 21.096C38.368 21.096 42.688 22.024 46.272 23.88C49.92 25.672 52.704 28.168 54.624 31.368C56.544 34.568 57.504 38.28 57.504 42.504H50.208C50.208 39.944 49.632 37.544 48.48 35.304C47.328 33.064 45.504 31.272 43.008 29.928C40.512 28.52 37.28 27.816 33.312 27.816C29.472 27.816 26.336 28.456 23.904 29.736C21.472 31.016 19.648 32.712 18.432 34.824C17.28 36.936 16.704 39.24 16.704 41.736C16.704 44.936 17.792 47.624 19.968 49.8C22.208 51.912 25.472 53.128 29.76 53.448L37.824 54.216C44.928 54.792 50.464 56.808 54.432 60.264C58.4 63.656 60.384 68.072 60.384 73.512C60.384 77.608 59.264 81.256 57.024 84.456C54.848 87.656 51.744 90.152 47.712 91.944C43.68 93.736 38.912 94.632 33.408 94.632ZM74.3295 112.2V42.216H80.0895V54.984C81.6895 50.312 84.3455 46.728 88.0575 44.232C91.7695 41.736 96.0575 40.488 100.922 40.488C105.914 40.488 110.234 41.736 113.882 44.232C117.594 46.664 120.442 49.896 122.426 53.928C124.41 57.896 125.402 62.216 125.402 66.888V68.232C125.402 72.84 124.378 77.16 122.33 81.192C120.346 85.224 117.498 88.488 113.786 90.984C110.074 93.416 105.722 94.632 100.73 94.632C96.6975 94.632 92.9855 93.736 89.5935 91.944C86.2015 90.088 83.5135 87.4 81.5295 83.88V112.2H74.3295ZM99.7695 88.296C103.546 88.296 106.81 87.4 109.562 85.608C112.378 83.752 114.522 81.256 115.994 78.12C117.466 74.984 118.202 71.464 118.202 67.56C118.202 63.656 117.434 60.136 115.898 57C114.426 53.864 112.314 51.4 109.562 49.608C106.81 47.752 103.546 46.824 99.7695 46.824C96.2495 46.824 93.0815 47.624 90.2655 49.224C87.5135 50.76 85.3055 52.936 83.6415 55.752C82.0415 58.504 81.2415 61.736 81.2415 65.448V70.152C81.2415 73.736 82.0415 76.904 83.6415 79.656C85.3055 82.344 87.5135 84.456 90.2655 85.992C93.0815 87.528 96.2495 88.296 99.7695 88.296ZM142.259 32.808C140.531 32.808 139.219 32.36 138.323 31.464C137.491 30.504 137.075 29.32 137.075 27.912C137.075 26.44 137.491 25.256 138.323 24.36C139.219 23.464 140.531 23.016 142.259 23.016C143.987 23.016 145.267 23.464 146.099 24.36C146.931 25.256 147.347 26.44 147.347 27.912C147.347 29.32 146.931 30.504 146.099 31.464C145.267 32.36 143.987 32.808 142.259 32.808ZM140.723 93V47.976H132.563V42.216H147.827V93H140.723ZM164.802 93V42.216H170.562V54.024C171.714 49.8 173.762 46.536 176.706 44.232C179.714 41.864 183.65 40.68 188.514 40.68H188.802C195.202 40.68 199.97 42.696 203.106 46.728C206.242 50.696 207.81 56.296 207.81 63.528V93H200.706V61.992C200.706 57.576 199.49 54.024 197.058 51.336C194.626 48.648 191.234 47.304 186.882 47.304C182.402 47.304 178.786 48.712 176.034 51.528C173.346 54.28 172.002 57.928 172.002 62.472V93H164.802ZM244.652 94.632C239.724 94.632 235.372 93.448 231.596 91.08C227.884 88.648 224.972 85.448 222.86 81.48C220.812 77.448 219.788 73.032 219.788 68.232V66.888C219.788 62.28 220.78 57.992 222.764 54.024C224.812 49.992 227.692 46.728 231.404 44.232C235.116 41.736 239.468 40.488 244.46 40.488C248.684 40.488 252.46 41.448 255.788 43.368C259.116 45.224 261.74 47.912 263.66 51.432V22.92H270.86V93H265.1V81.576C263.308 85.928 260.588 89.192 256.94 91.368C253.292 93.544 249.196 94.632 244.652 94.632ZM245.612 88.296C249.068 88.296 252.172 87.528 254.924 85.992C257.74 84.392 259.948 82.216 261.548 79.464C263.148 76.648 263.948 73.352 263.948 69.576V64.968C263.948 61.384 263.116 58.248 261.452 55.56C259.852 52.808 257.644 50.664 254.828 49.128C252.076 47.592 248.972 46.824 245.516 46.824C241.676 46.824 238.38 47.752 235.628 49.608C232.876 51.4 230.732 53.864 229.196 57C227.724 60.136 226.988 63.656 226.988 67.56C226.988 71.592 227.756 75.176 229.292 78.312C230.828 81.448 232.972 83.912 235.724 85.704C238.54 87.432 241.836 88.296 245.612 88.296ZM310.276 94.632C305.924 94.632 302.084 93.896 298.756 92.424C295.428 90.888 292.644 88.872 290.404 86.376C288.164 83.816 286.436 80.968 285.22 77.832C284.068 74.696 283.492 71.496 283.492 68.232V66.888C283.492 63.624 284.1 60.424 285.316 57.288C286.532 54.152 288.292 51.336 290.596 48.84C292.9 46.28 295.684 44.264 298.948 42.792C302.276 41.256 306.052 40.488 310.276 40.488C314.5 40.488 318.276 41.256 321.604 42.792C324.932 44.264 327.748 46.28 330.052 48.84C332.356 51.336 334.084 54.152 335.236 57.288C336.452 60.424 337.06 63.624 337.06 66.888V68.232C337.06 71.496 336.484 74.696 335.332 77.832C334.18 80.968 332.452 83.816 330.148 86.376C327.908 88.872 325.124 90.888 321.796 92.424C318.468 93.896 314.628 94.632 310.276 94.632ZM310.276 88.2C314.5 88.2 318.052 87.272 320.932 85.416C323.876 83.56 326.116 81.064 327.652 77.928C329.188 74.792 329.956 71.336 329.956 67.56C329.956 63.72 329.156 60.264 327.556 57.192C325.956 54.056 323.684 51.592 320.74 49.8C317.86 47.944 314.372 47.016 310.276 47.016C306.244 47.016 302.756 47.944 299.812 49.8C296.868 51.592 294.596 54.056 292.996 57.192C291.46 60.264 290.692 63.72 290.692 67.56C290.692 71.336 291.46 74.792 292.996 77.928C294.532 81.064 296.74 83.56 299.62 85.416C302.564 87.272 306.116 88.2 310.276 88.2ZM350.303 93V28.776H342.911V22.92H357.503V93H350.303Z" fill="#121212"/>
<circle cx="310.5" cy="66.5" r="28.5" fill="#FEBD6D"/>
</svg>
