<svg width="48" height="48" viewBox="0 0 48 48" fill="none" xmlns="http://www.w3.org/2000/svg">
<path d="M38.8244 12.7238C38.8244 12.7238 15.4326 7.44112 5.76025 4.7998C7.05838 13.3841 9.899 32.1527 10.8764 38.5528C12.0982 46.553 24.2395 43.8863 34.8537 33.1432C45.4678 22.4001 43.406 13.6381 38.8244 12.7238Z" fill="#A7C5C3"/>
<path d="M19.3935 30.5V27.8C19.3935 26.96 19.6035 26.27 20.0235 25.73C20.4555 25.19 21.1755 24.704 22.1835 24.272L24.3075 23.354C24.8355 23.126 25.2315 22.844 25.4955 22.508C25.7595 22.172 25.8915 21.746 25.8915 21.23C25.8915 20.702 25.7235 20.27 25.3875 19.934C25.0635 19.598 24.5955 19.43 23.9835 19.43C23.3595 19.43 22.8855 19.604 22.5615 19.952C22.2375 20.3 22.0755 20.768 22.0755 21.356H19.2135C19.2135 20.528 19.3935 19.784 19.7535 19.124C20.1135 18.464 20.6475 17.942 21.3555 17.558C22.0635 17.162 22.9395 16.964 23.9835 16.964C25.0155 16.964 25.8855 17.15 26.5935 17.522C27.3015 17.894 27.8355 18.398 28.1955 19.034C28.5675 19.658 28.7535 20.354 28.7535 21.122V21.338C28.7535 22.346 28.4775 23.18 27.9255 23.84C27.3735 24.5 26.5215 25.076 25.3695 25.568L23.2635 26.486C22.9035 26.642 22.6455 26.81 22.4895 26.99C22.3455 27.158 22.2735 27.38 22.2735 27.656V27.962H28.7715V30.5H19.3935Z" fill="white"/>
</svg>
