<svg width="48" height="48" viewBox="0 0 48 48" fill="none" xmlns="http://www.w3.org/2000/svg">
<path d="M41.8592 15.6089C37.9593 8.85403 19.1 6.49156 11.5687 10.8397C4.4257 14.9638 3.45065 22.638 6.25824 29.4341C9.06584 36.2303 18.7054 42.7452 28.8765 36.8729C41.0663 29.8352 45.7591 22.3637 41.8592 15.6089Z" fill="#A7C5C3"/>
<path d="M23.8935 30.842C22.8735 30.842 21.9855 30.656 21.2295 30.284C20.4855 29.9 19.9155 29.384 19.5195 28.736C19.1235 28.088 18.9255 27.356 18.9255 26.54H21.7695C21.7695 27.092 21.9555 27.542 22.3275 27.89C22.6995 28.226 23.2215 28.394 23.8935 28.394C24.3375 28.394 24.7155 28.31 25.0275 28.142C25.3395 27.974 25.5795 27.746 25.7475 27.458C25.9155 27.158 25.9995 26.822 25.9995 26.45C25.9995 25.874 25.8135 25.4 25.4415 25.028C25.0815 24.656 24.5655 24.47 23.8935 24.47C23.5335 24.47 23.2155 24.524 22.9395 24.632C22.6755 24.74 22.4475 24.872 22.2555 25.028L20.9235 22.778L24.9015 20.186L24.7395 19.88H19.4655V17.36H28.3215V20.096L23.7315 23.012L22.2915 22.616C22.5315 22.544 22.7835 22.49 23.0475 22.454C23.3235 22.406 23.6175 22.382 23.9295 22.382C24.9495 22.382 25.8255 22.55 26.5575 22.886C27.2895 23.222 27.8535 23.696 28.2495 24.308C28.6575 24.908 28.8615 25.61 28.8615 26.414V26.63C28.8615 27.434 28.6575 28.154 28.2495 28.79C27.8535 29.426 27.2835 29.93 26.5395 30.302C25.8075 30.662 24.9255 30.842 23.8935 30.842Z" fill="white"/>
</svg>
